<svg xmlns="http://www.w3.org/2000/svg" width="94" height="106" viewBox="0 0 94 106" fill="none">
  <path d="M93.3556 102.232L93.3157 102.107C93.0733 101.349 92.5974 100.721 91.9851 100.147C91.441 99.6371 90.8146 99.191 90.1725 98.7336C90.0858 98.6719 89.9988 98.6099 89.9117 98.5476C89.9093 98.5466 89.9045 98.5447 89.8967 98.5426C89.8784 98.5377 89.8532 98.5339 89.8246 98.5338C89.796 98.5337 89.7716 98.5373 89.7548 98.5419C89.7496 98.5433 89.746 98.5445 89.7438 98.5454C89.7385 98.5474 89.7416 98.547 89.7503 98.5406L89.4547 98.1373C88.7494 98.6555 88.6572 99.6798 88.5763 100.58C88.5546 100.82 88.5338 101.052 88.5023 101.263L93.3556 102.232ZM93.3556 102.232L93.4518 102.321C93.4766 102.345 93.4888 102.366 93.4945 102.385C93.4997 102.402 93.5053 102.435 93.4905 102.491C93.4259 102.728 93.2504 102.98 92.9457 103.249C92.6429 103.516 92.2486 103.769 91.808 104.016C91.498 104.189 91.1823 104.351 90.8692 104.511C90.7347 104.58 90.6008 104.649 90.4679 104.718C90.0419 104.94 89.6199 105.172 89.3069 105.416C89.2023 105.498 89.1005 105.509 89.0388 105.495C88.9912 105.484 88.9343 105.453 88.8987 105.344C88.6677 104.637 88.684 103.754 88.7886 102.828L88.8486 102.296L88.3138 102.272C82.4739 102.014 76.5945 101.809 70.769 101.806C68.6862 101.805 66.5954 101.821 64.5018 101.838C58.5762 101.886 52.6283 101.934 46.7763 101.573C40.2224 101.169 33.6138 101.136 27.0574 101.103C26.1338 101.098 25.2113 101.094 24.2901 101.088C20.0752 101.062 15.9039 101.13 11.6988 101.248C10.0414 101.294 8.35628 101.334 6.72287 101.251L6.72275 101.251C6.34576 101.232 5.84566 101.147 5.26005 101.048C5.0837 101.018 4.89959 100.987 4.70875 100.956C3.91611 100.827 3.02887 100.704 2.25946 100.743L2.1127 100.75L93.3556 102.232ZM1.58267 100.777L1.67924 100.167C2.23505 96.6549 2.34768 93.0527 2.39434 89.4133C2.40233 88.7907 2.40837 88.1667 2.41443 87.5419C2.44366 84.5253 2.47307 81.49 2.72159 78.5017L3.21987 78.5431L2.7216 78.5017C2.7991 77.5705 2.77087 76.6337 2.7332 75.6683C2.73026 75.593 2.72727 75.5176 2.72426 75.4419C2.6891 74.5562 2.65291 73.6446 2.69922 72.7319L3.19858 72.7573L2.69922 72.7319C2.74681 71.7945 2.81031 70.8845 2.87346 69.9795C2.95055 68.8746 3.02712 67.7772 3.0736 66.6465L3.07361 66.6464C3.22024 63.0926 3.15651 59.5065 3.09279 55.9215C3.07398 54.8627 3.05516 53.804 3.04176 52.7463C2.93903 44.6368 3.09262 36.3369 3.5769 28.2313C3.8108 24.3111 3.88373 20.3043 3.84077 16.3752C3.82165 14.6398 3.92767 12.9077 4.04566 11.1951C4.06015 10.9848 4.07482 10.7747 4.08947 10.565C4.19445 9.06189 4.29828 7.57536 4.32816 6.09322L4.33816 5.59746L4.83398 5.60333C4.87587 5.60383 4.918 5.60457 4.95843 5.60528L4.95899 5.60529L1.58267 100.777ZM1.58267 100.777L1.26122 100.794L1.90051 101.562C1.93066 101.598 1.94286 101.617 1.94838 101.627C2.09361 101.895 1.93842 102.276 1.59977 102.36C1.38753 102.412 1.162 102.359 0.954819 102.21C0.74346 102.057 0.582837 101.824 0.519712 101.586C0.488332 101.467 0.496793 101.35 0.528139 101.272C0.549828 101.218 0.577687 101.188 0.622964 101.171C0.635321 101.169 0.650099 101.168 0.6665 101.165L0.894767 101.126L1.01307 100.927C1.02041 100.915 1.02648 100.904 1.03131 100.894L1.15708 100.702L1.05973 100.46C1.05218 100.441 1.04947 100.43 1.04838 100.423C1.04744 100.417 1.04713 100.411 1.04821 100.403L0.552322 100.339M1.58267 100.777L0.0364051 101.714C-0.0596416 101.351 0.0286902 100.918 0.369209 100.738L0.499951 100.685C0.508421 100.683 0.517006 100.68 0.525708 100.678C0.537334 100.675 0.548002 100.674 0.558718 100.674C0.566738 100.674 0.574785 100.673 0.583279 100.672C0.585508 100.668 0.587225 100.664 0.588948 100.66C0.590965 100.655 0.592991 100.651 0.595862 100.646C0.559081 100.555 0.53732 100.455 0.552322 100.339M0.552322 100.339C1.18584 95.5011 1.29046 90.5523 1.39471 85.6213C1.45102 82.9582 1.50721 80.3004 1.64654 77.6682C1.75246 75.6665 1.78608 73.6583 1.81971 71.65C1.84753 69.9879 1.87536 68.3258 1.94417 66.667M0.552322 100.339L1.04809 100.404C1.68476 95.542 1.79087 90.5409 1.89592 85.5901C1.95228 82.934 2.00833 80.2924 2.14584 77.6946C2.24316 75.8555 2.27968 74.0129 2.31089 72.1779C2.31384 72.0048 2.31673 71.8318 2.31963 71.6589C2.34747 69.9959 2.3752 68.34 2.44374 66.6878L1.94417 66.667M1.94417 66.667L2.44374 66.6877C2.58299 63.3252 2.55042 59.93 2.51808 56.558C2.50432 55.1233 2.49059 53.6927 2.49016 52.2707C2.48726 44.3144 2.5855 36.2252 3.09503 28.2932L3.09503 28.2931C3.34751 24.3563 3.44837 20.3106 3.45468 16.3705L3.45468 16.3705C3.45996 12.8949 3.77717 9.56371 4.17724 6.13492L4.24011 5.59611L3.69797 5.57728C2.81216 5.54651 1.93312 5.48581 1.09872 5.3518M1.94417 66.667L1.09872 5.3518M1.09872 5.3518L1.09802 5.35139C1.0972 5.35088 1.09589 5.35 1.09414 5.34859C1.08664 5.34254 1.07301 5.32834 1.05943 5.30244C1.04588 5.2766 1.03619 5.2462 1.03217 5.21617L1.09872 5.3518ZM5.46906 5.61861C5.3335 5.61344 5.19019 5.60798 5.07683 5.60715L6.31526 2.33398L5.88258 2.58455C5.88258 2.58456 5.88259 2.58457 5.88259 2.58458C5.95253 2.70534 6.02701 2.82793 6.10297 2.95295C6.29582 3.27035 6.49819 3.60343 6.65977 3.96195C6.88589 4.46368 6.95929 4.86992 6.85626 5.17607C6.80428 5.33017 6.73236 5.41355 6.65815 5.46753C6.57706 5.52651 6.46271 5.57196 6.30016 5.59924C6.13626 5.62675 5.94767 5.632 5.7333 5.62742C5.65823 5.62582 5.56561 5.62229 5.46906 5.61861Z" fill="#5CA1EA" stroke="#5CA1EA"/>
  <mask id="path-2-inside-1_426_400" fill="white">
    <path d="M23.9996 60.9382C24.0473 57.8193 20.1593 58.3367 17.6765 58.4839C17.6432 56.8798 17.5413 55.2834 17.265 53.7308C16.8529 51.4169 13.9014 52.0052 12.0305 52.2544C8.86226 52.6766 8.8727 53.3159 9.07401 56.3668C9.34987 60.5471 9.3966 64.6872 9.39859 68.8821C9.40257 77.737 9.59344 86.5845 9.60288 95.4379C9.4826 95.5943 9.42942 95.7935 9.48608 95.9907C9.48708 96.0388 9.49751 96.0889 9.5318 96.1394C9.57157 96.1977 9.61135 96.2565 9.65161 96.3148C9.70082 96.3867 9.77784 96.4241 9.85936 96.4454C11.1522 97.4005 13.881 96.9011 15.3016 96.5732C15.5019 96.5271 15.6839 96.4731 15.8534 96.4134C18.4957 96.8244 23.0373 96.8633 23.2431 93.6953C23.4563 90.4176 23.3723 87.1136 23.3718 83.8169C23.3847 83.8057 23.3946 83.7926 23.4081 83.7819C23.5472 83.6697 23.497 83.472 23.3743 83.3719C23.3787 81.6142 23.4096 79.8585 23.5304 78.1106C23.9225 72.429 23.9121 66.6377 23.9996 60.9382ZM16.4921 63.2643C16.3946 63.4484 16.2977 63.633 16.2182 63.8273C16.1297 64.044 16.2684 64.1912 16.4483 64.2359C16.4448 64.3462 16.4424 64.4496 16.4424 64.5385C16.4399 65.4956 16.4369 66.4531 16.4339 67.4102C16.249 67.7444 16.165 68.0791 16.2753 68.3871C16.3052 68.4707 16.3623 68.5333 16.4304 68.5766C16.4289 69.1017 16.4274 69.6274 16.4259 70.1526C16.24 70.4761 16.1093 70.8035 16.0755 71.1256C16.0492 71.3782 16.2246 71.4997 16.422 71.507C16.416 73.5104 16.4106 75.5139 16.4046 77.5179C16.4036 77.8798 16.4061 78.2422 16.4061 78.6046C16.3688 78.6819 16.328 78.7581 16.2952 78.8368C16.2212 79.0156 16.2858 79.1687 16.4071 79.2721C16.4081 79.8794 16.4111 80.4871 16.4135 81.0949C16.2903 81.3354 16.1893 81.5817 16.1401 81.8382C16.0959 82.066 16.2366 82.2341 16.418 82.2705C16.4299 85.1533 16.4389 88.0376 16.3663 90.9165C16.3424 91.8512 16.3797 92.8471 16.1849 93.772C15.8633 95.2975 15.8697 95.1629 14.051 95.3903C13.4521 95.4651 11.1288 95.7512 10.6556 95.3276C10.592 95.2708 10.5249 95.2314 10.4573 95.2013C10.9951 91.8026 10.5582 88.0585 10.6914 84.6593C10.8306 81.1109 10.5478 77.6145 10.5622 74.0881C10.5816 69.4078 10.7814 64.6629 10.5682 59.987C10.5339 59.2354 10.4648 58.4829 10.3927 57.7338C10.3246 57.0255 9.75249 54.5843 10.2103 54.0091C10.8649 53.1862 14.0918 53.0021 15.0973 53.3256C17.0662 53.9596 16.6566 60.1609 16.4921 63.2643ZM20.4103 79.653C20.1335 79.91 19.9526 80.2355 19.6807 80.493C19.4262 80.7344 19.0916 80.8821 18.8426 81.1352C18.4604 81.5234 18.0886 81.928 17.7541 82.358C17.7531 81.9144 17.7546 81.4714 17.7531 81.0278C17.846 80.904 17.9395 80.7801 18.0394 80.6606C18.5086 80.099 19.0305 79.5811 19.5017 79.0219C19.878 78.575 20.2548 78.2048 20.6718 77.7996C21.1142 77.3697 21.3592 76.7984 21.816 76.3811C22.1321 76.092 21.657 75.6295 21.3413 75.9171C20.378 76.7955 19.4465 77.6733 18.5439 78.6076C18.3008 78.8592 18.025 79.1249 17.7486 79.4028C17.7466 79.0341 17.7476 78.6658 17.7456 78.2971C19.039 76.4607 20.7538 74.7585 22.4164 73.2316C22.3682 74.7177 22.2992 76.1999 22.1883 77.6709C22.1774 77.8166 22.1709 77.9629 22.161 78.1086C21.5819 78.6318 20.978 79.1259 20.4103 79.653ZM22.0894 79.327C22.0581 79.9829 22.0427 80.6411 22.0272 81.2999C21.7221 81.5569 21.3697 81.7974 21.1619 81.9757C20.6027 82.4561 20.0738 82.9278 19.5624 83.4583C18.9321 84.1122 18.3093 84.7093 17.7536 85.3807C17.7541 84.9527 17.7561 84.5252 17.7561 84.0972C18.5896 83.2951 19.1448 82.2531 20.0321 81.5073C20.8189 80.8462 21.4591 80.1009 22.0894 79.327ZM18.8138 75.5538C18.4649 75.923 18.0926 76.3058 17.7362 76.7066C17.7347 76.452 17.7337 76.197 17.7317 75.9424C18.8456 75.0893 19.6146 73.7747 20.5664 72.7647C21.1818 72.1118 21.7837 71.5458 22.3439 70.8409C22.3966 70.7749 22.4368 70.7049 22.4826 70.6364C22.4721 71.2082 22.4597 71.78 22.4443 72.3513C21.1162 73.2763 19.9198 74.3844 18.8138 75.5538ZM17.7511 86.7137C18.2054 86.3601 18.5444 85.9088 18.951 85.4783C19.5166 84.8793 20.0882 84.3051 20.6395 83.6935C21.0053 83.2873 21.5272 82.8618 22.0044 82.4041C21.9964 82.9895 21.9979 83.5749 21.9955 84.1603C21.9701 84.1856 21.9467 84.2084 21.9204 84.2342C21.3224 84.8167 20.6842 85.3219 20.0316 85.8412C19.1061 86.5768 17.9395 87.5984 17.7362 88.8134C17.7406 88.1138 17.7491 87.4138 17.7511 86.7137ZM17.6905 59.3462C18.0801 59.5294 18.3461 59.6804 18.9396 59.7504C18.9555 59.7523 18.9724 59.7504 18.9883 59.7519C18.6384 60.16 18.36 60.6448 17.9867 61.1136C17.8828 61.2438 17.7804 61.3759 17.677 61.5071C17.686 60.7886 17.6954 60.0677 17.6905 59.3462ZM17.6676 62.8504C17.9265 62.4578 18.1965 62.0721 18.4892 61.6941C18.9843 61.0548 19.3973 60.3693 19.8884 59.7363C20.2413 59.7072 20.5933 59.6766 20.9362 59.7218C21.0272 59.7339 21.1022 59.747 21.1838 59.7592C20.9447 59.8947 20.7086 60.0346 20.4968 60.2095C19.8536 60.7395 19.2472 61.4789 18.7238 62.1217C18.4504 62.4573 17.9713 63.0262 17.6621 63.5893C17.6646 63.3425 17.6651 63.0972 17.6676 62.8504ZM17.6567 64.8927C17.6954 64.9058 17.7347 64.9184 17.7784 64.9223C17.7963 64.9238 17.8142 64.9257 17.8326 64.9272C17.9827 64.9413 18.107 64.8159 18.1517 64.6901C18.446 63.8628 18.9614 63.0792 19.542 62.401C20.0186 61.8438 20.4988 61.2389 21.0307 60.7308C21.3294 60.4456 21.6833 60.2294 22.0009 59.9705C22.3011 60.1172 22.4681 60.3499 22.5825 60.7614C21.9557 61.41 21.4169 62.1469 20.7767 62.795C19.9133 63.6689 19.0703 64.5696 18.2203 65.4572C18.0811 65.6025 17.8818 65.7847 17.6631 65.9902C17.6611 65.6248 17.6577 65.2585 17.6567 64.8927ZM17.6696 67.1731C18.357 66.3652 19.3611 65.568 19.8725 65.0384C20.5078 64.3811 21.1127 63.6918 21.7295 63.0175C22.1217 62.5885 22.413 62.1134 22.7266 61.6509C22.7624 62.2023 22.7067 62.8207 22.6481 63.4275C22.6426 63.4358 22.6352 63.4401 22.6307 63.4494C22.2534 64.1567 21.317 64.6755 20.7344 65.2624C19.956 66.046 19.2333 66.8728 18.5041 67.7002C18.273 67.962 17.9802 68.2594 17.679 68.579C17.6765 68.1102 17.6721 67.6414 17.6696 67.1731ZM17.6895 70.0257C17.9489 69.7182 18.2119 69.4297 18.3923 69.2081C19.0484 68.4022 19.7418 67.6089 20.4372 66.8355C20.9984 66.2112 21.9487 65.4582 22.5581 64.6532C22.5566 64.7052 22.5502 64.763 22.5497 64.814C22.5447 65.3605 22.5402 65.91 22.5357 66.4585C22.4194 66.4415 22.2912 66.4784 22.1992 66.5979C21.1703 67.9339 20.0907 69.2266 19.0877 70.583C18.7705 71.0119 18.023 71.5682 17.7054 72.1618C17.6999 71.4497 17.6944 70.7379 17.6895 70.0257ZM17.7123 73.1242C17.8614 73.251 18.1145 73.2821 18.2477 73.0693C18.8252 72.1468 19.8313 71.5468 20.4397 70.6043C21.1385 69.5215 21.8806 68.4629 22.5283 67.3431C22.5233 67.9348 22.5154 68.528 22.5079 69.1207C22.1053 69.5594 21.7748 70.0379 21.3821 70.4965C20.7632 71.2189 20.0375 71.8184 19.4242 72.5437C19.0136 73.029 18.2621 73.6542 17.7208 74.3217C17.7178 73.9224 17.7153 73.5231 17.7123 73.1242ZM17.7352 88.9383C17.7601 89.0636 17.8669 89.1573 18.0165 89.1214C18.4669 89.0126 18.7025 88.7804 18.9878 88.4214C19.452 87.8364 19.9222 87.2787 20.4829 86.7769C20.9889 86.3236 21.5148 85.9291 21.989 85.4501C21.988 85.9787 21.981 86.5034 21.979 87.031C20.9452 87.8831 19.9779 88.7493 18.9917 89.6684C18.5966 90.0367 18.1413 90.4146 17.7213 90.8217C17.7292 90.1941 17.7307 89.5659 17.7352 88.9383ZM17.7302 93.7065C17.7556 93.312 17.7536 92.8927 17.7432 92.4502C19.2239 91.0384 20.6305 89.4969 21.9731 87.9472C21.9696 88.4486 21.9716 88.9533 21.9636 89.4527C21.9626 89.5251 21.9631 89.6058 21.9641 89.6879C21.9393 89.7029 21.9144 89.7146 21.8911 89.7384C20.8805 90.7581 19.8447 91.7049 18.7775 92.6678C18.4848 92.9316 18.0603 93.2984 17.7302 93.7065ZM18.5832 94.3108C18.953 93.8371 19.369 93.4388 19.8149 93.0331C20.643 92.2801 21.3011 91.4732 21.99 90.6323C22.0064 91.1939 22.0148 91.824 21.9646 92.4278C21.5044 92.8126 21.0575 93.2119 20.6032 93.6132C20.1673 93.9975 19.5256 94.5013 19.1781 95.0376C18.8163 94.9982 18.4549 94.9424 18.11 94.9268C18.2815 94.7373 18.4221 94.5173 18.5832 94.3108ZM20.8646 94.8569C20.796 94.8923 20.7245 94.9157 20.6534 94.9414C20.8303 94.7446 21.0053 94.5464 21.1892 94.3628C21.3667 94.185 21.5327 93.995 21.6947 93.8002C21.5228 94.271 21.2623 94.6519 20.8646 94.8569Z"/>
  </mask>
  <path d="M23.9996 60.9382C24.0473 57.8193 20.1593 58.3367 17.6765 58.4839C17.6432 56.8798 17.5413 55.2834 17.265 53.7308C16.8529 51.4169 13.9014 52.0052 12.0305 52.2544C8.86226 52.6766 8.8727 53.3159 9.07401 56.3668C9.34987 60.5471 9.3966 64.6872 9.39859 68.8821C9.40257 77.737 9.59344 86.5845 9.60288 95.4379C9.4826 95.5943 9.42942 95.7935 9.48608 95.9907C9.48708 96.0388 9.49751 96.0889 9.5318 96.1394C9.57157 96.1977 9.61135 96.2565 9.65161 96.3148C9.70082 96.3867 9.77784 96.4241 9.85936 96.4454C11.1522 97.4005 13.881 96.9011 15.3016 96.5732C15.5019 96.5271 15.6839 96.4731 15.8534 96.4134C18.4957 96.8244 23.0373 96.8633 23.2431 93.6953C23.4563 90.4176 23.3723 87.1136 23.3718 83.8169C23.3847 83.8057 23.3946 83.7926 23.4081 83.7819C23.5472 83.6697 23.497 83.472 23.3743 83.3719C23.3787 81.6142 23.4096 79.8585 23.5304 78.1106C23.9225 72.429 23.9121 66.6377 23.9996 60.9382ZM16.4921 63.2643C16.3946 63.4484 16.2977 63.633 16.2182 63.8273C16.1297 64.044 16.2684 64.1912 16.4483 64.2359C16.4448 64.3462 16.4424 64.4496 16.4424 64.5385C16.4399 65.4956 16.4369 66.4531 16.4339 67.4102C16.249 67.7444 16.165 68.0791 16.2753 68.3871C16.3052 68.4707 16.3623 68.5333 16.4304 68.5766C16.4289 69.1017 16.4274 69.6274 16.4259 70.1526C16.24 70.4761 16.1093 70.8035 16.0755 71.1256C16.0492 71.3782 16.2246 71.4997 16.422 71.507C16.416 73.5104 16.4106 75.5139 16.4046 77.5179C16.4036 77.8798 16.4061 78.2422 16.4061 78.6046C16.3688 78.6819 16.328 78.7581 16.2952 78.8368C16.2212 79.0156 16.2858 79.1687 16.4071 79.2721C16.4081 79.8794 16.4111 80.4871 16.4135 81.0949C16.2903 81.3354 16.1893 81.5817 16.1401 81.8382C16.0959 82.066 16.2366 82.2341 16.418 82.2705C16.4299 85.1533 16.4389 88.0376 16.3663 90.9165C16.3424 91.8512 16.3797 92.8471 16.1849 93.772C15.8633 95.2975 15.8697 95.1629 14.051 95.3903C13.4521 95.4651 11.1288 95.7512 10.6556 95.3276C10.592 95.2708 10.5249 95.2314 10.4573 95.2013C10.9951 91.8026 10.5582 88.0585 10.6914 84.6593C10.8306 81.1109 10.5478 77.6145 10.5622 74.0881C10.5816 69.4078 10.7814 64.6629 10.5682 59.987C10.5339 59.2354 10.4648 58.4829 10.3927 57.7338C10.3246 57.0255 9.75249 54.5843 10.2103 54.0091C10.8649 53.1862 14.0918 53.0021 15.0973 53.3256C17.0662 53.9596 16.6566 60.1609 16.4921 63.2643ZM20.4103 79.653C20.1335 79.91 19.9526 80.2355 19.6807 80.493C19.4262 80.7344 19.0916 80.8821 18.8426 81.1352C18.4604 81.5234 18.0886 81.928 17.7541 82.358C17.7531 81.9144 17.7546 81.4714 17.7531 81.0278C17.846 80.904 17.9395 80.7801 18.0394 80.6606C18.5086 80.099 19.0305 79.5811 19.5017 79.0219C19.878 78.575 20.2548 78.2048 20.6718 77.7996C21.1142 77.3697 21.3592 76.7984 21.816 76.3811C22.1321 76.092 21.657 75.6295 21.3413 75.9171C20.378 76.7955 19.4465 77.6733 18.5439 78.6076C18.3008 78.8592 18.025 79.1249 17.7486 79.4028C17.7466 79.0341 17.7476 78.6658 17.7456 78.2971C19.039 76.4607 20.7538 74.7585 22.4164 73.2316C22.3682 74.7177 22.2992 76.1999 22.1883 77.6709C22.1774 77.8166 22.1709 77.9629 22.161 78.1086C21.5819 78.6318 20.978 79.1259 20.4103 79.653ZM22.0894 79.327C22.0581 79.9829 22.0427 80.6411 22.0272 81.2999C21.7221 81.5569 21.3697 81.7974 21.1619 81.9757C20.6027 82.4561 20.0738 82.9278 19.5624 83.4583C18.9321 84.1122 18.3093 84.7093 17.7536 85.3807C17.7541 84.9527 17.7561 84.5252 17.7561 84.0972C18.5896 83.2951 19.1448 82.2531 20.0321 81.5073C20.8189 80.8462 21.4591 80.1009 22.0894 79.327ZM18.8138 75.5538C18.4649 75.923 18.0926 76.3058 17.7362 76.7066C17.7347 76.452 17.7337 76.197 17.7317 75.9424C18.8456 75.0893 19.6146 73.7747 20.5664 72.7647C21.1818 72.1118 21.7837 71.5458 22.3439 70.8409C22.3966 70.7749 22.4368 70.7049 22.4826 70.6364C22.4721 71.2082 22.4597 71.78 22.4443 72.3513C21.1162 73.2763 19.9198 74.3844 18.8138 75.5538ZM17.7511 86.7137C18.2054 86.3601 18.5444 85.9088 18.951 85.4783C19.5166 84.8793 20.0882 84.3051 20.6395 83.6935C21.0053 83.2873 21.5272 82.8618 22.0044 82.4041C21.9964 82.9895 21.9979 83.5749 21.9955 84.1603C21.9701 84.1856 21.9467 84.2084 21.9204 84.2342C21.3224 84.8167 20.6842 85.3219 20.0316 85.8412C19.1061 86.5768 17.9395 87.5984 17.7362 88.8134C17.7406 88.1138 17.7491 87.4138 17.7511 86.7137ZM17.6905 59.3462C18.0801 59.5294 18.3461 59.6804 18.9396 59.7504C18.9555 59.7523 18.9724 59.7504 18.9883 59.7519C18.6384 60.16 18.36 60.6448 17.9867 61.1136C17.8828 61.2438 17.7804 61.3759 17.677 61.5071C17.686 60.7886 17.6954 60.0677 17.6905 59.3462ZM17.6676 62.8504C17.9265 62.4578 18.1965 62.0721 18.4892 61.6941C18.9843 61.0548 19.3973 60.3693 19.8884 59.7363C20.2413 59.7072 20.5933 59.6766 20.9362 59.7218C21.0272 59.7339 21.1022 59.747 21.1838 59.7592C20.9447 59.8947 20.7086 60.0346 20.4968 60.2095C19.8536 60.7395 19.2472 61.4789 18.7238 62.1217C18.4504 62.4573 17.9713 63.0262 17.6621 63.5893C17.6646 63.3425 17.6651 63.0972 17.6676 62.8504ZM17.6567 64.8927C17.6954 64.9058 17.7347 64.9184 17.7784 64.9223C17.7963 64.9238 17.8142 64.9257 17.8326 64.9272C17.9827 64.9413 18.107 64.8159 18.1517 64.6901C18.446 63.8628 18.9614 63.0792 19.542 62.401C20.0186 61.8438 20.4988 61.2389 21.0307 60.7308C21.3294 60.4456 21.6833 60.2294 22.0009 59.9705C22.3011 60.1172 22.4681 60.3499 22.5825 60.7614C21.9557 61.41 21.4169 62.1469 20.7767 62.795C19.9133 63.6689 19.0703 64.5696 18.2203 65.4572C18.0811 65.6025 17.8818 65.7847 17.6631 65.9902C17.6611 65.6248 17.6577 65.2585 17.6567 64.8927ZM17.6696 67.1731C18.357 66.3652 19.3611 65.568 19.8725 65.0384C20.5078 64.3811 21.1127 63.6918 21.7295 63.0175C22.1217 62.5885 22.413 62.1134 22.7266 61.6509C22.7624 62.2023 22.7067 62.8207 22.6481 63.4275C22.6426 63.4358 22.6352 63.4401 22.6307 63.4494C22.2534 64.1567 21.317 64.6755 20.7344 65.2624C19.956 66.046 19.2333 66.8728 18.5041 67.7002C18.273 67.962 17.9802 68.2594 17.679 68.579C17.6765 68.1102 17.6721 67.6414 17.6696 67.1731ZM17.6895 70.0257C17.9489 69.7182 18.2119 69.4297 18.3923 69.2081C19.0484 68.4022 19.7418 67.6089 20.4372 66.8355C20.9984 66.2112 21.9487 65.4582 22.5581 64.6532C22.5566 64.7052 22.5502 64.763 22.5497 64.814C22.5447 65.3605 22.5402 65.91 22.5357 66.4585C22.4194 66.4415 22.2912 66.4784 22.1992 66.5979C21.1703 67.9339 20.0907 69.2266 19.0877 70.583C18.7705 71.0119 18.023 71.5682 17.7054 72.1618C17.6999 71.4497 17.6944 70.7379 17.6895 70.0257ZM17.7123 73.1242C17.8614 73.251 18.1145 73.2821 18.2477 73.0693C18.8252 72.1468 19.8313 71.5468 20.4397 70.6043C21.1385 69.5215 21.8806 68.4629 22.5283 67.3431C22.5233 67.9348 22.5154 68.528 22.5079 69.1207C22.1053 69.5594 21.7748 70.0379 21.3821 70.4965C20.7632 71.2189 20.0375 71.8184 19.4242 72.5437C19.0136 73.029 18.2621 73.6542 17.7208 74.3217C17.7178 73.9224 17.7153 73.5231 17.7123 73.1242ZM17.7352 88.9383C17.7601 89.0636 17.8669 89.1573 18.0165 89.1214C18.4669 89.0126 18.7025 88.7804 18.9878 88.4214C19.452 87.8364 19.9222 87.2787 20.4829 86.7769C20.9889 86.3236 21.5148 85.9291 21.989 85.4501C21.988 85.9787 21.981 86.5034 21.979 87.031C20.9452 87.8831 19.9779 88.7493 18.9917 89.6684C18.5966 90.0367 18.1413 90.4146 17.7213 90.8217C17.7292 90.1941 17.7307 89.5659 17.7352 88.9383ZM17.7302 93.7065C17.7556 93.312 17.7536 92.8927 17.7432 92.4502C19.2239 91.0384 20.6305 89.4969 21.9731 87.9472C21.9696 88.4486 21.9716 88.9533 21.9636 89.4527C21.9626 89.5251 21.9631 89.6058 21.9641 89.6879C21.9393 89.7029 21.9144 89.7146 21.8911 89.7384C20.8805 90.7581 19.8447 91.7049 18.7775 92.6678C18.4848 92.9316 18.0603 93.2984 17.7302 93.7065ZM18.5832 94.3108C18.953 93.8371 19.369 93.4388 19.8149 93.0331C20.643 92.2801 21.3011 91.4732 21.99 90.6323C22.0064 91.1939 22.0148 91.824 21.9646 92.4278C21.5044 92.8126 21.0575 93.2119 20.6032 93.6132C20.1673 93.9975 19.5256 94.5013 19.1781 95.0376C18.8163 94.9982 18.4549 94.9424 18.11 94.9268C18.2815 94.7373 18.4221 94.5173 18.5832 94.3108ZM20.8646 94.8569C20.796 94.8923 20.7245 94.9157 20.6534 94.9414C20.8303 94.7446 21.0053 94.5464 21.1892 94.3628C21.3667 94.185 21.5327 93.995 21.6947 93.8002C21.5228 94.271 21.2623 94.6519 20.8646 94.8569Z" fill="#5CA1EA" stroke="#5CA1EA" stroke-width="2" mask="url(#path-2-inside-1_426_400)"/>
  <mask id="path-3-inside-2_426_400" fill="white">
    <path d="M39.7963 37.5562C39.0328 35.9016 35.6101 36.5545 33.8886 36.6574C33.9118 35.9658 33.9123 35.2732 33.8721 34.5793C33.8159 33.6063 34.0941 31.3636 33.3907 30.5715C32.598 29.6779 29.9236 30.1015 28.9126 30.0929C28.0145 30.0852 26.1494 29.8718 25.4781 30.704C24.7434 31.6153 25.0784 34.6577 25.0633 35.7432C24.9962 40.4952 25.5622 45.2554 25.5716 50.0112C25.5815 55.2308 25.7965 60.4567 25.9184 65.6744C26.0436 71.0442 26.1262 76.5012 26.4522 81.8678C26.6185 84.6015 26.5628 87.2515 26.5136 89.9968C26.4858 91.5441 26.7909 92.6894 27.1457 94.095C26.8429 94.3822 26.7659 94.9321 27.2312 95.2021C28.5507 95.9683 30.2028 95.629 31.7008 95.6103C32.2895 96.0023 33.2962 95.852 34.1367 95.7141C34.1622 95.8749 34.3119 95.9803 34.465 95.9961C34.7952 96.03 35.0777 95.8405 35.3215 95.5801C37.4998 95.5131 38.0847 95.8917 38.0682 93.3848C38.0479 90.283 38.4187 87.1257 38.6285 84.0311C38.901 80.0127 38.9804 75.969 39.2393 71.9474C39.7391 64.1701 39.6645 56.4005 39.5535 48.6123C39.5237 46.5218 39.5733 44.4638 39.6928 42.3809C39.7046 42.1713 39.732 41.9129 39.7651 41.6252C39.7821 41.607 39.7982 41.5884 39.8152 41.5702C39.9295 41.4472 39.9012 41.3012 39.8138 41.2117C39.9645 39.9477 40.152 38.3267 39.7963 37.5562ZM33.8513 37.4427C34.2996 37.5112 34.7333 37.5523 35.1689 37.5882C34.6544 38.1061 34.1929 38.6765 33.7276 39.248C33.7734 38.6464 33.8187 38.0448 33.8513 37.4427ZM33.6335 40.5488C34.0176 40.0305 34.4064 39.5175 34.8118 39.0078C35.1576 38.5727 35.5454 38.1233 35.8657 37.6437C36.2064 37.6691 36.5507 37.6959 36.9093 37.7328C36.914 37.7332 36.9178 37.7342 36.923 37.7347C36.5937 38.1075 36.298 38.511 35.946 38.8666C35.4023 39.4155 34.8425 39.907 34.3644 40.5206C34.1494 40.7963 33.8565 41.1083 33.5806 41.441C33.5967 41.1437 33.6127 40.846 33.6335 40.5488ZM32.5465 38.8388C32.0334 45.2027 32.178 51.6112 32.2054 58.012C32.1322 58.123 32.0622 58.2355 32.0022 58.3513C31.8959 58.5571 32.0117 58.7931 32.2073 58.85C32.2158 62.3443 32.1808 65.8356 31.9734 69.316C31.6725 74.3648 31.5761 79.4456 31.5681 84.5116C31.5638 87.286 31.3843 90.1275 31.5898 92.8918C31.6045 93.0909 31.7405 93.6533 31.7051 93.8294C31.6933 93.8878 31.6867 93.9323 31.68 93.9778C31.5355 94.0232 31.4079 94.1195 31.3224 94.2592C30.3129 94.3827 28.04 94.0783 27.9205 94.0084C27.9068 94.0003 27.8936 93.9969 27.8799 93.9898C27.8 92.8574 27.569 91.7418 27.5728 90.6003C27.5794 88.4523 27.8718 86.3178 27.8289 84.1775C27.7377 79.6624 27.7693 75.02 27.4646 70.5116C26.8571 61.5187 26.6884 52.399 26.6464 43.3893C26.6374 41.429 26.5146 39.4696 26.4305 37.5092C26.3776 36.2826 26.439 35.1383 26.4796 33.9116C26.5127 32.9137 26.1517 31.9723 26.9213 31.4741C27.6574 30.9979 32.0679 31.1085 32.4869 31.6574C32.7954 32.0618 32.6679 34.5113 32.6868 35.0636C32.7288 36.3204 32.6476 37.5863 32.5465 38.8388ZM32.897 90.696L32.8947 89.3981C32.9287 89.3789 32.9594 89.3588 32.9839 89.3387C33.2268 89.1415 33.3675 88.874 33.5768 88.6433C34.14 88.0221 34.9275 87.6675 35.4821 87.0376C35.9786 86.4738 36.4426 85.8746 36.9424 85.3185C37.0459 85.2036 37.1649 85.0959 37.2811 84.9859C37.2684 85.1601 37.2589 85.3343 37.2457 85.508C37.2169 85.8823 37.1814 86.2575 37.1479 86.6327C36.1208 87.4736 35.2809 88.484 34.2826 89.3359C33.8357 89.7183 33.3184 90.1787 32.897 90.696ZM32.991 92.095C33.146 91.9313 33.2712 91.7293 33.4436 91.5159C33.9354 90.9061 34.4452 90.3663 35.0366 89.8547C35.7783 89.2128 36.4468 88.4198 37.0605 87.6167C36.9948 88.3107 36.9306 89.0056 36.8734 89.7005C36.8706 89.7034 36.8673 89.7039 36.8644 89.7068C36.0533 90.5132 35.2577 91.3407 34.4135 92.1113C33.9699 92.5162 33.4096 93.0369 33.1398 93.6332C33.1233 93.1221 33.0543 92.5908 32.991 92.095ZM35.1713 92.8789C35.7174 92.3616 36.2413 91.8203 36.7629 91.277C36.743 91.6465 36.7303 92.0155 36.7222 92.3841C36.701 92.4075 36.6769 92.4238 36.6585 92.4544C36.4827 92.7473 36.2328 92.8966 35.9753 93.1043C35.6881 93.3355 35.4755 93.616 35.2539 93.9089C35.1713 94.018 35.0711 94.1333 34.9662 94.252C34.6398 94.2626 34.2179 94.2808 33.8182 94.3123C34.3379 93.9582 34.7409 93.2867 35.1713 92.8789ZM36.2366 94.2726C36.3882 94.0572 36.5503 93.8567 36.7619 93.6796C36.7629 93.6787 36.7638 93.6777 36.7647 93.6772C36.7562 93.7734 36.7459 93.8682 36.7175 93.9467C36.7855 94.0563 36.854 94.1659 36.9221 94.276C36.6934 94.2798 36.4652 94.2788 36.2366 94.2726ZM37.3435 84.0655C37.3425 84.0684 37.3406 84.0698 37.3397 84.0722C37.2339 84.3948 36.2616 85.0026 35.973 85.2663C35.261 85.9158 34.628 86.6117 33.8457 87.1826C33.4507 87.4707 33.1691 87.7885 32.8923 88.1312C32.8914 87.5229 32.8899 86.9151 32.889 86.3073C33.0964 86.0488 33.2957 85.7775 33.5343 85.5252C34.1277 84.8968 34.6667 84.2594 35.2232 83.5975C35.92 82.769 36.7761 81.9697 37.5131 81.1154C37.4644 82.0994 37.4073 83.0829 37.3435 84.0655ZM37.5513 80.2587C37.0917 80.7 36.5559 81.0728 36.1067 81.5227C35.4618 82.1683 34.7919 82.826 34.2099 83.5276C33.7781 84.0483 33.3151 84.5058 32.8862 84.9859C32.8852 84.4742 32.8838 83.9631 32.8833 83.4515C33.1899 83.2227 33.4101 83.1423 33.686 82.7967C34.3096 82.0152 34.953 81.2992 35.6139 80.5464C36.3519 79.706 37.0449 78.9718 37.6491 78.1055C37.6198 78.8239 37.5844 79.5413 37.5513 80.2587ZM37.6879 77.143C36.4964 78.2864 35.3541 79.5155 34.2014 80.6938C33.9236 80.9776 33.325 81.5323 32.8814 82.1157C32.8814 82.1104 32.8814 82.1052 32.8814 82.0999C32.8814 81.4212 32.889 80.7397 32.8956 80.0587C33.0496 79.8648 33.1918 79.6528 33.36 79.437C33.8371 78.8244 34.3757 78.2658 34.8944 77.6906C35.8015 76.6845 36.6145 75.6537 37.4498 74.595C37.7053 74.271 37.2594 73.8053 36.9929 74.1322C36.0986 75.2301 35.184 76.2552 34.1678 77.2531C33.7337 77.6795 33.3 78.106 32.9131 78.5659C32.9268 77.7394 32.9419 76.9128 32.9655 76.0858C33.0052 76.0806 33.0444 76.0696 33.0808 76.0456C34.1272 75.3474 34.9549 74.0489 35.8152 73.1238C36.5762 72.3058 37.3038 71.4448 37.977 70.5513C37.8561 72.7466 37.7743 74.9453 37.6879 77.143ZM38.1201 68.2176C38.0918 68.6206 38.0696 69.0236 38.0446 69.4266C38.0422 69.429 38.0394 69.4299 38.0375 69.4323C37.1115 70.6063 35.9928 71.7224 34.9105 72.7557C34.251 73.3856 33.506 74.0747 32.9995 74.8759C33.0288 74.036 33.0633 73.197 33.1054 72.3585C34.3516 71.6602 35.3446 70.1789 36.2753 69.1217C36.9225 68.3871 37.5617 67.6495 38.2 66.9106C38.1745 67.3466 38.1508 67.7831 38.1201 68.2176ZM38.2553 66.0127C37.3473 66.913 36.4062 67.7716 35.5194 68.7073C34.7395 69.5304 33.771 70.3489 33.1649 71.342C33.1989 70.7423 33.2282 70.1416 33.2697 69.5438C34.0573 69.5352 34.7763 68.0324 35.1491 67.5711C36.1856 66.287 37.2409 65.0273 38.3544 63.8126C38.327 64.5473 38.294 65.2805 38.2553 66.0127ZM38.3781 63.0827C37.2655 64.1567 36.1671 65.2226 35.0999 66.343C34.4121 67.0647 33.9085 67.8687 33.3312 68.6465C33.3496 68.4057 33.3609 68.1631 33.3808 67.9233C33.4606 66.9551 33.5131 65.9826 33.5504 65.0086C34.4853 64.52 34.9799 63.446 35.6564 62.6606C36.5573 61.6154 37.5131 60.6031 38.4608 59.5957C38.4456 60.7591 38.4164 61.9217 38.3781 63.0827ZM38.2614 51.6863C37.0638 53.002 35.7566 54.2119 34.5548 55.5233C34.2642 55.8401 33.9269 56.1536 33.5877 56.4752C33.5792 55.8994 33.5707 55.3242 33.5631 54.7494C34.3162 54.0683 34.9639 52.8871 35.5194 52.2774C36.0155 51.7337 36.6202 51.3212 37.0836 50.7526C37.4913 50.2524 37.9123 49.7939 38.3436 49.3331C38.3483 49.5671 38.3455 49.8007 38.3535 50.0347C38.3719 50.5602 38.3861 51.0876 38.4008 51.615C38.354 51.6189 38.3053 51.638 38.2614 51.6863ZM38.4201 52.2334C38.4442 53.1968 38.4541 54.165 38.4645 55.1323C37.3397 56.0875 36.4014 57.2826 35.2738 58.2207C34.6601 58.7308 34.1083 59.3253 33.625 59.9685C33.6217 59.3004 33.617 58.6327 33.6085 57.9646C33.9959 57.5511 34.3478 57.0897 34.6148 56.7882C35.93 55.3026 37.1729 53.7745 38.4201 52.2334ZM38.3337 48.6113C37.1796 49.6159 35.9678 50.5588 34.9053 51.6548C34.4886 52.0841 33.9874 52.5751 33.5466 53.1087C33.5428 52.6105 33.539 52.1123 33.539 51.6155C33.5957 51.5571 33.6524 51.4997 33.712 51.4274C34.44 50.5511 35.1226 49.7461 35.9082 48.9114C36.7444 48.0231 37.5802 47.0832 38.3634 46.1183C38.3375 46.9477 38.3294 47.779 38.3337 48.6113ZM38.473 58.739C38.4442 58.7529 38.4154 58.7677 38.388 58.794C37.2783 59.8723 36.0892 60.8965 35.0366 62.0318C34.5458 62.5611 34.0006 63.178 33.5868 63.8389C33.6075 63.0057 33.6208 62.1715 33.6236 61.3358C33.7899 61.109 33.9373 60.8601 34.1362 60.6347C34.7135 59.9819 35.2894 59.3085 35.938 58.7318C36.9117 57.8655 37.6463 56.8078 38.4754 55.8224C38.482 56.794 38.4806 57.7669 38.473 58.739ZM38.3913 45.3554C37.8797 45.835 37.3321 46.2767 36.8035 46.7338C36.0793 47.3598 35.4694 48.1198 34.7683 48.7817C34.3133 49.211 33.9137 49.6504 33.5372 50.1275C33.5362 49.4249 33.5357 48.7229 33.5343 48.0203C33.8763 48.0184 33.9387 47.7939 34.174 47.4823C34.6932 46.7936 35.2813 46.2982 35.9021 45.723C36.8252 44.8672 37.6661 43.9431 38.5018 43.0151C38.4593 43.7952 38.4225 44.5753 38.3913 45.3554ZM38.6346 40.6422C38.6096 41.1002 38.5836 41.5582 38.5581 42.0153C37.5887 42.9275 36.6462 43.8914 35.699 44.817C34.8514 45.645 34.0771 46.2638 33.5334 47.2392C33.5301 45.8297 33.5268 44.4207 33.5296 43.0117C33.5296 42.9667 33.5329 42.9217 33.5329 42.8763C34.1244 42.1579 34.6771 41.4146 35.27 40.6962C35.6475 40.2392 36.1019 39.864 36.5002 39.4275C36.9466 38.9383 37.274 38.3535 37.72 37.8687C38.2779 38.0127 38.5378 38.2425 38.6474 38.6014C38.5661 38.6727 38.5472 38.8154 38.6261 38.9144C38.3757 38.599 35.7684 41.7118 35.6172 41.8693C34.8548 42.6623 33.7597 43.6564 33.5627 44.8141C33.5324 44.9931 33.6609 45.1195 33.8357 45.0907C34.396 44.9993 34.5609 44.5303 34.8477 44.0804C35.3451 43.2998 36.0179 42.7159 36.6079 42.01C37.1295 41.3859 37.5901 40.6872 38.1764 40.12C38.3672 39.9358 38.5458 39.7812 38.7026 39.6127C38.6851 39.9109 38.6559 40.2502 38.6346 40.6422Z"/>
  </mask>
  <path d="M39.7963 37.5562C39.0328 35.9016 35.6101 36.5545 33.8886 36.6574C33.9118 35.9658 33.9123 35.2732 33.8721 34.5793C33.8159 33.6063 34.0941 31.3636 33.3907 30.5715C32.598 29.6779 29.9236 30.1015 28.9126 30.0929C28.0145 30.0852 26.1494 29.8718 25.4781 30.704C24.7434 31.6153 25.0784 34.6577 25.0633 35.7432C24.9962 40.4952 25.5622 45.2554 25.5716 50.0112C25.5815 55.2308 25.7965 60.4567 25.9184 65.6744C26.0436 71.0442 26.1262 76.5012 26.4522 81.8678C26.6185 84.6015 26.5628 87.2515 26.5136 89.9968C26.4858 91.5441 26.7909 92.6894 27.1457 94.095C26.8429 94.3822 26.7659 94.9321 27.2312 95.2021C28.5507 95.9683 30.2028 95.629 31.7008 95.6103C32.2895 96.0023 33.2962 95.852 34.1367 95.7141C34.1622 95.8749 34.3119 95.9803 34.465 95.9961C34.7952 96.03 35.0777 95.8405 35.3215 95.5801C37.4998 95.5131 38.0847 95.8917 38.0682 93.3848C38.0479 90.283 38.4187 87.1257 38.6285 84.0311C38.901 80.0127 38.9804 75.969 39.2393 71.9474C39.7391 64.1701 39.6645 56.4005 39.5535 48.6123C39.5237 46.5218 39.5733 44.4638 39.6928 42.3809C39.7046 42.1713 39.732 41.9129 39.7651 41.6252C39.7821 41.607 39.7982 41.5884 39.8152 41.5702C39.9295 41.4472 39.9012 41.3012 39.8138 41.2117C39.9645 39.9477 40.152 38.3267 39.7963 37.5562ZM33.8513 37.4427C34.2996 37.5112 34.7333 37.5523 35.1689 37.5882C34.6544 38.1061 34.1929 38.6765 33.7276 39.248C33.7734 38.6464 33.8187 38.0448 33.8513 37.4427ZM33.6335 40.5488C34.0176 40.0305 34.4064 39.5175 34.8118 39.0078C35.1576 38.5727 35.5454 38.1233 35.8657 37.6437C36.2064 37.6691 36.5507 37.6959 36.9093 37.7328C36.914 37.7332 36.9178 37.7342 36.923 37.7347C36.5937 38.1075 36.298 38.511 35.946 38.8666C35.4023 39.4155 34.8425 39.907 34.3644 40.5206C34.1494 40.7963 33.8565 41.1083 33.5806 41.441C33.5967 41.1437 33.6127 40.846 33.6335 40.5488ZM32.5465 38.8388C32.0334 45.2027 32.178 51.6112 32.2054 58.012C32.1322 58.123 32.0622 58.2355 32.0022 58.3513C31.8959 58.5571 32.0117 58.7931 32.2073 58.85C32.2158 62.3443 32.1808 65.8356 31.9734 69.316C31.6725 74.3648 31.5761 79.4456 31.5681 84.5116C31.5638 87.286 31.3843 90.1275 31.5898 92.8918C31.6045 93.0909 31.7405 93.6533 31.7051 93.8294C31.6933 93.8878 31.6867 93.9323 31.68 93.9778C31.5355 94.0232 31.4079 94.1195 31.3224 94.2592C30.3129 94.3827 28.04 94.0783 27.9205 94.0084C27.9068 94.0003 27.8936 93.9969 27.8799 93.9898C27.8 92.8574 27.569 91.7418 27.5728 90.6003C27.5794 88.4523 27.8718 86.3178 27.8289 84.1775C27.7377 79.6624 27.7693 75.02 27.4646 70.5116C26.8571 61.5187 26.6884 52.399 26.6464 43.3893C26.6374 41.429 26.5146 39.4696 26.4305 37.5092C26.3776 36.2826 26.439 35.1383 26.4796 33.9116C26.5127 32.9137 26.1517 31.9723 26.9213 31.4741C27.6574 30.9979 32.0679 31.1085 32.4869 31.6574C32.7954 32.0618 32.6679 34.5113 32.6868 35.0636C32.7288 36.3204 32.6476 37.5863 32.5465 38.8388ZM32.897 90.696L32.8947 89.3981C32.9287 89.3789 32.9594 89.3588 32.9839 89.3387C33.2268 89.1415 33.3675 88.874 33.5768 88.6433C34.14 88.0221 34.9275 87.6675 35.4821 87.0376C35.9786 86.4738 36.4426 85.8746 36.9424 85.3185C37.0459 85.2036 37.1649 85.0959 37.2811 84.9859C37.2684 85.1601 37.2589 85.3343 37.2457 85.508C37.2169 85.8823 37.1814 86.2575 37.1479 86.6327C36.1208 87.4736 35.2809 88.484 34.2826 89.3359C33.8357 89.7183 33.3184 90.1787 32.897 90.696ZM32.991 92.095C33.146 91.9313 33.2712 91.7293 33.4436 91.5159C33.9354 90.9061 34.4452 90.3663 35.0366 89.8547C35.7783 89.2128 36.4468 88.4198 37.0605 87.6167C36.9948 88.3107 36.9306 89.0056 36.8734 89.7005C36.8706 89.7034 36.8673 89.7039 36.8644 89.7068C36.0533 90.5132 35.2577 91.3407 34.4135 92.1113C33.9699 92.5162 33.4096 93.0369 33.1398 93.6332C33.1233 93.1221 33.0543 92.5908 32.991 92.095ZM35.1713 92.8789C35.7174 92.3616 36.2413 91.8203 36.7629 91.277C36.743 91.6465 36.7303 92.0155 36.7222 92.3841C36.701 92.4075 36.6769 92.4238 36.6585 92.4544C36.4827 92.7473 36.2328 92.8966 35.9753 93.1043C35.6881 93.3355 35.4755 93.616 35.2539 93.9089C35.1713 94.018 35.0711 94.1333 34.9662 94.252C34.6398 94.2626 34.2179 94.2808 33.8182 94.3123C34.3379 93.9582 34.7409 93.2867 35.1713 92.8789ZM36.2366 94.2726C36.3882 94.0572 36.5503 93.8567 36.7619 93.6796C36.7629 93.6787 36.7638 93.6777 36.7647 93.6772C36.7562 93.7734 36.7459 93.8682 36.7175 93.9467C36.7855 94.0563 36.854 94.1659 36.9221 94.276C36.6934 94.2798 36.4652 94.2788 36.2366 94.2726ZM37.3435 84.0655C37.3425 84.0684 37.3406 84.0698 37.3397 84.0722C37.2339 84.3948 36.2616 85.0026 35.973 85.2663C35.261 85.9158 34.628 86.6117 33.8457 87.1826C33.4507 87.4707 33.1691 87.7885 32.8923 88.1312C32.8914 87.5229 32.8899 86.9151 32.889 86.3073C33.0964 86.0488 33.2957 85.7775 33.5343 85.5252C34.1277 84.8968 34.6667 84.2594 35.2232 83.5975C35.92 82.769 36.7761 81.9697 37.5131 81.1154C37.4644 82.0994 37.4073 83.0829 37.3435 84.0655ZM37.5513 80.2587C37.0917 80.7 36.5559 81.0728 36.1067 81.5227C35.4618 82.1683 34.7919 82.826 34.2099 83.5276C33.7781 84.0483 33.3151 84.5058 32.8862 84.9859C32.8852 84.4742 32.8838 83.9631 32.8833 83.4515C33.1899 83.2227 33.4101 83.1423 33.686 82.7967C34.3096 82.0152 34.953 81.2992 35.6139 80.5464C36.3519 79.706 37.0449 78.9718 37.6491 78.1055C37.6198 78.8239 37.5844 79.5413 37.5513 80.2587ZM37.6879 77.143C36.4964 78.2864 35.3541 79.5155 34.2014 80.6938C33.9236 80.9776 33.325 81.5323 32.8814 82.1157C32.8814 82.1104 32.8814 82.1052 32.8814 82.0999C32.8814 81.4212 32.889 80.7397 32.8956 80.0587C33.0496 79.8648 33.1918 79.6528 33.36 79.437C33.8371 78.8244 34.3757 78.2658 34.8944 77.6906C35.8015 76.6845 36.6145 75.6537 37.4498 74.595C37.7053 74.271 37.2594 73.8053 36.9929 74.1322C36.0986 75.2301 35.184 76.2552 34.1678 77.2531C33.7337 77.6795 33.3 78.106 32.9131 78.5659C32.9268 77.7394 32.9419 76.9128 32.9655 76.0858C33.0052 76.0806 33.0444 76.0696 33.0808 76.0456C34.1272 75.3474 34.9549 74.0489 35.8152 73.1238C36.5762 72.3058 37.3038 71.4448 37.977 70.5513C37.8561 72.7466 37.7743 74.9453 37.6879 77.143ZM38.1201 68.2176C38.0918 68.6206 38.0696 69.0236 38.0446 69.4266C38.0422 69.429 38.0394 69.4299 38.0375 69.4323C37.1115 70.6063 35.9928 71.7224 34.9105 72.7557C34.251 73.3856 33.506 74.0747 32.9995 74.8759C33.0288 74.036 33.0633 73.197 33.1054 72.3585C34.3516 71.6602 35.3446 70.1789 36.2753 69.1217C36.9225 68.3871 37.5617 67.6495 38.2 66.9106C38.1745 67.3466 38.1508 67.7831 38.1201 68.2176ZM38.2553 66.0127C37.3473 66.913 36.4062 67.7716 35.5194 68.7073C34.7395 69.5304 33.771 70.3489 33.1649 71.342C33.1989 70.7423 33.2282 70.1416 33.2697 69.5438C34.0573 69.5352 34.7763 68.0324 35.1491 67.5711C36.1856 66.287 37.2409 65.0273 38.3544 63.8126C38.327 64.5473 38.294 65.2805 38.2553 66.0127ZM38.3781 63.0827C37.2655 64.1567 36.1671 65.2226 35.0999 66.343C34.4121 67.0647 33.9085 67.8687 33.3312 68.6465C33.3496 68.4057 33.3609 68.1631 33.3808 67.9233C33.4606 66.9551 33.5131 65.9826 33.5504 65.0086C34.4853 64.52 34.9799 63.446 35.6564 62.6606C36.5573 61.6154 37.5131 60.6031 38.4608 59.5957C38.4456 60.7591 38.4164 61.9217 38.3781 63.0827ZM38.2614 51.6863C37.0638 53.002 35.7566 54.2119 34.5548 55.5233C34.2642 55.8401 33.9269 56.1536 33.5877 56.4752C33.5792 55.8994 33.5707 55.3242 33.5631 54.7494C34.3162 54.0683 34.9639 52.8871 35.5194 52.2774C36.0155 51.7337 36.6202 51.3212 37.0836 50.7526C37.4913 50.2524 37.9123 49.7939 38.3436 49.3331C38.3483 49.5671 38.3455 49.8007 38.3535 50.0347C38.3719 50.5602 38.3861 51.0876 38.4008 51.615C38.354 51.6189 38.3053 51.638 38.2614 51.6863ZM38.4201 52.2334C38.4442 53.1968 38.4541 54.165 38.4645 55.1323C37.3397 56.0875 36.4014 57.2826 35.2738 58.2207C34.6601 58.7308 34.1083 59.3253 33.625 59.9685C33.6217 59.3004 33.617 58.6327 33.6085 57.9646C33.9959 57.5511 34.3478 57.0897 34.6148 56.7882C35.93 55.3026 37.1729 53.7745 38.4201 52.2334ZM38.3337 48.6113C37.1796 49.6159 35.9678 50.5588 34.9053 51.6548C34.4886 52.0841 33.9874 52.5751 33.5466 53.1087C33.5428 52.6105 33.539 52.1123 33.539 51.6155C33.5957 51.5571 33.6524 51.4997 33.712 51.4274C34.44 50.5511 35.1226 49.7461 35.9082 48.9114C36.7444 48.0231 37.5802 47.0832 38.3634 46.1183C38.3375 46.9477 38.3294 47.779 38.3337 48.6113ZM38.473 58.739C38.4442 58.7529 38.4154 58.7677 38.388 58.794C37.2783 59.8723 36.0892 60.8965 35.0366 62.0318C34.5458 62.5611 34.0006 63.178 33.5868 63.8389C33.6075 63.0057 33.6208 62.1715 33.6236 61.3358C33.7899 61.109 33.9373 60.8601 34.1362 60.6347C34.7135 59.9819 35.2894 59.3085 35.938 58.7318C36.9117 57.8655 37.6463 56.8078 38.4754 55.8224C38.482 56.794 38.4806 57.7669 38.473 58.739ZM38.3913 45.3554C37.8797 45.835 37.3321 46.2767 36.8035 46.7338C36.0793 47.3598 35.4694 48.1198 34.7683 48.7817C34.3133 49.211 33.9137 49.6504 33.5372 50.1275C33.5362 49.4249 33.5357 48.7229 33.5343 48.0203C33.8763 48.0184 33.9387 47.7939 34.174 47.4823C34.6932 46.7936 35.2813 46.2982 35.9021 45.723C36.8252 44.8672 37.6661 43.9431 38.5018 43.0151C38.4593 43.7952 38.4225 44.5753 38.3913 45.3554ZM38.6346 40.6422C38.6096 41.1002 38.5836 41.5582 38.5581 42.0153C37.5887 42.9275 36.6462 43.8914 35.699 44.817C34.8514 45.645 34.0771 46.2638 33.5334 47.2392C33.5301 45.8297 33.5268 44.4207 33.5296 43.0117C33.5296 42.9667 33.5329 42.9217 33.5329 42.8763C34.1244 42.1579 34.6771 41.4146 35.27 40.6962C35.6475 40.2392 36.1019 39.864 36.5002 39.4275C36.9466 38.9383 37.274 38.3535 37.72 37.8687C38.2779 38.0127 38.5378 38.2425 38.6474 38.6014C38.5661 38.6727 38.5472 38.8154 38.6261 38.9144C38.3757 38.599 35.7684 41.7118 35.6172 41.8693C34.8548 42.6623 33.7597 43.6564 33.5627 44.8141C33.5324 44.9931 33.6609 45.1195 33.8357 45.0907C34.396 44.9993 34.5609 44.5303 34.8477 44.0804C35.3451 43.2998 36.0179 42.7159 36.6079 42.01C37.1295 41.3859 37.5901 40.6872 38.1764 40.12C38.3672 39.9358 38.5458 39.7812 38.7026 39.6127C38.6851 39.9109 38.6559 40.2502 38.6346 40.6422Z" fill="#5CA1EA" stroke="#5CA1EA" stroke-width="2" mask="url(#path-3-inside-2_426_400)"/>
  <mask id="path-4-inside-3_426_400" fill="white">
    <path d="M56.8693 58.7549C56.8311 57.2765 56.7845 55.8 56.7485 54.3206C56.7059 52.57 57.377 50.0129 56.6748 48.4314C56.5593 48.1717 56.2778 48.1176 56.045 48.1549C55.0662 48.3112 53.891 48.673 52.8704 48.6097C52.77 43.8783 52.5546 39.1489 52.567 34.4108C52.5759 31.0438 52.5781 27.6763 52.5635 24.3093C52.5559 22.5975 52.6261 20.8608 52.5488 19.1519C52.5111 18.3166 52.6332 16.9613 52.2752 16.2042C51.4483 14.4536 48.6058 15.1221 47.2774 15.1403C45.746 15.1609 45.1571 15.4681 45.0452 17.2685C44.8938 19.7078 45.1527 22.4748 45.3814 24.9136C45.7079 28.3923 45.6919 31.857 45.6914 35.3611C45.691 42.2619 45.3748 49.2658 45.7678 56.1537C46.5091 69.143 44.5727 82.1492 45.2286 95.1323C44.9022 95.4677 44.904 96.2139 45.4756 96.4247C46.4917 96.7995 48.9105 96.9653 50.1123 96.5249C51.693 97.6419 55.1985 96.6581 55.8052 94.9372C56.0255 94.3123 55.9726 93.2872 56.0086 92.6173C56.0939 91.0435 56.1405 89.475 56.3017 87.9008C56.3404 87.5227 56.3719 87.1417 56.4057 86.7612C56.4328 86.696 56.4372 86.6313 56.423 86.5705C56.6055 84.4671 56.7201 82.3428 56.7983 80.2404C57.0115 74.5118 56.9435 68.7548 56.9355 63.0027C56.9337 61.7903 56.9111 60.5822 56.8822 59.3755C56.9084 59.3209 56.9409 59.271 56.9648 59.2145C57.0439 59.0309 56.9799 58.8608 56.8693 58.7549ZM54.459 49.5437C54.515 49.5428 54.5989 49.5308 54.6935 49.5155C54.642 49.5744 54.5909 49.6334 54.5425 49.6985C54.3764 49.9233 54.2481 50.1787 54.0682 50.3924C53.7413 50.7821 53.3198 51.0562 53.0036 51.4601C52.9774 51.4942 52.9454 51.534 52.9148 51.5718C52.909 50.8429 52.9006 50.1135 52.8872 49.3846C53.402 49.5303 53.8652 49.5538 54.459 49.5437ZM52.8842 55.88C53.0032 55.6759 53.0951 55.4559 53.2283 55.2316C53.5175 54.7433 53.9412 54.347 54.2632 53.8821C54.7086 53.2385 55.1541 52.6093 55.6347 52.0108C55.6187 52.1593 55.6084 52.2767 55.6076 52.341C55.5991 52.8489 55.5871 53.3603 55.584 53.8711C55.5454 53.9344 55.5072 53.9986 55.4623 54.0685C55.2265 54.4404 54.9454 54.7328 54.6896 55.0836C54.5052 55.3361 54.4 55.6418 54.1979 55.892C53.9252 56.2298 53.5916 56.5006 53.3243 56.8524C53.1684 57.0575 53.0036 57.2544 52.8366 57.45C52.8544 56.9267 52.8717 56.4033 52.8842 55.88ZM52.7811 58.834C53.4136 58.1022 54.0056 57.3541 54.6331 56.5749C55.0364 56.0736 55.3326 55.5014 55.596 54.9063C55.5991 55.0021 55.6 55.0979 55.6045 55.1938C55.6302 55.7478 55.6502 56.3027 55.6688 56.8576C54.7513 58.002 53.5992 58.9955 52.7145 60.182C52.7367 59.7325 52.762 59.283 52.7811 58.834ZM52.6234 61.9992C52.6265 61.9963 52.6292 61.9935 52.6323 61.9906C53.1422 61.4711 53.5952 60.6828 53.9967 60.0684C54.5168 59.2724 55.1394 58.5771 55.6977 57.8247C55.7159 58.5062 55.723 59.1886 55.7333 59.871C55.5023 60.1878 55.2594 60.4974 55.044 60.8204C54.4799 61.6671 53.9243 62.4094 53.2266 63.135C53.0036 63.3664 52.7531 63.6372 52.5106 63.93C52.5484 63.2869 52.5875 62.6433 52.6234 61.9992ZM52.4085 65.6849C52.5737 65.4746 52.7274 65.2527 52.8837 65.0188C53.3563 64.3105 53.8848 63.7537 54.4417 63.1091C54.9467 62.5249 55.3189 61.9144 55.7088 61.2397C55.7235 61.2143 55.7408 61.1908 55.7559 61.1654C55.7621 61.8483 55.7568 62.5316 55.7581 63.2145C55.0897 64.1438 54.2152 65.0428 53.5454 65.7889C53.0858 66.3007 52.6767 66.8149 52.3134 67.3507C52.3445 66.7958 52.3756 66.2404 52.4085 65.6849ZM50.9331 70.2989C50.7816 72.6893 50.6346 75.0796 50.4916 77.4714C50.4459 77.6425 50.4334 77.8112 50.4623 77.9746C50.385 79.2762 50.3064 80.5773 50.2336 81.8793C50.0559 85.0643 49.8303 88.1878 49.8614 91.3766C49.8667 91.9248 49.8592 92.4745 49.8587 93.0227C49.8578 94.2764 50.0324 94.9027 48.7022 95.1754C48.3029 95.2573 46.824 95.2367 46.0871 95.0795C47.1864 73.515 47.0296 51.9331 46.9266 30.3168C46.9159 28.0774 46.7254 25.8639 46.5339 23.6393C46.4087 22.181 46.4589 20.7453 46.3776 19.2865C46.351 18.8083 46.0694 17.6778 46.2675 17.269C46.7254 16.323 47.5479 16.7284 48.2079 16.7006C49.0908 16.6632 50.5822 16.1773 51.2382 17.0198C51.7591 17.6888 51.4332 20.094 51.4158 20.8416C51.3417 24.0284 51.3768 27.2206 51.3737 30.4084C51.3643 40.0091 51.8404 49.6247 51.5464 59.2125C51.5344 59.2768 51.534 59.3448 51.5406 59.4148C51.4887 61.0499 51.4167 62.684 51.3128 64.3172C51.1902 66.2452 51.0685 68.1735 50.9464 70.1014C50.9419 70.1149 50.9366 70.1273 50.9322 70.1408C50.9118 70.1983 50.9153 70.2519 50.9331 70.2989ZM54.7064 91.666C54.6225 93.3165 54.9098 94.446 53.2546 95.1533C53.231 95.1634 53.1968 95.1749 53.1622 95.1859C53.2008 95.1318 53.2377 95.0772 53.2852 95.0288C53.8039 94.4997 54.1428 93.8244 54.5772 93.2077C54.7233 93.0002 54.4186 92.7778 54.2552 92.9398C54.0775 93.1157 53.9292 93.35 53.7391 93.5087C53.5881 93.6347 53.3913 93.6812 53.2372 93.7986C53.1386 93.8743 53.0827 93.9759 53.0014 94.0688C52.8642 94.2256 52.762 94.272 52.6177 94.4057C52.3676 94.6372 52.2077 95.0024 51.975 95.2645C51.9248 95.3211 51.8764 95.3762 51.8311 95.4318C51.6797 95.4452 51.5286 95.4548 51.3861 95.4548C51.6206 95.195 51.7889 94.8687 52.0327 94.6017C52.5377 94.0492 52.9601 93.4416 53.4402 92.8655C53.8395 92.3863 54.2863 91.9771 54.714 91.5496C54.7122 91.5889 54.7086 91.6272 54.7064 91.666ZM54.7944 90.3899C54.4439 90.7521 54.0584 91.0728 53.6716 91.4092C53.0844 91.9195 52.6066 92.4946 52.1011 93.0965C51.927 93.304 51.6246 93.5642 51.3363 93.8547C51.3377 93.4948 51.3252 93.1296 51.299 92.774C51.3612 92.6796 51.4252 92.5823 51.4985 92.4807C52.0803 91.6732 52.9201 90.9755 53.549 90.1958C54.0065 89.6284 54.4848 89.0931 54.9565 88.5544C54.8974 89.1655 54.8428 89.7774 54.7944 90.3899ZM55.2238 85.3288C55.1861 86.0031 55.1292 86.6768 55.068 87.3506C54.2423 88.1643 53.41 88.9862 52.6594 89.8795C52.2028 90.4229 51.6588 90.8609 51.1813 91.3713C51.1698 91.2151 51.1613 91.0694 51.1591 90.94C51.1538 90.6486 51.1569 90.3568 51.1551 90.0654C51.7192 89.5436 52.2157 88.6834 52.6083 88.2209C53.136 87.5989 53.6303 86.9572 54.1748 86.3524C54.5665 85.9173 54.8872 85.4184 55.2438 84.955C55.2367 85.0796 55.2305 85.2032 55.2238 85.3288ZM55.306 83.7914C55.2363 83.8025 55.1661 83.8288 55.1013 83.8935C53.9838 85.002 52.9414 86.2585 51.8946 87.4503C51.6783 87.6966 51.4172 87.9799 51.1636 88.2861C51.1698 87.8941 51.1738 87.5025 51.1849 87.1105C51.9306 86.4511 52.4924 85.4802 53.1626 84.7633C53.6396 84.2534 54.1299 83.7392 54.5705 83.1924C54.8712 82.8186 55.1221 82.405 55.4011 82.0159C55.3708 82.6053 55.3375 83.1996 55.306 83.7914ZM55.4446 81.0704C54.4812 81.9723 53.6174 83.0419 52.6847 83.987C52.2175 84.4604 51.7045 84.977 51.2386 85.521C51.2622 84.9468 51.2897 84.3723 51.3199 83.7977C51.8964 83.1047 52.6514 82.4889 53.1684 81.7979C53.9492 80.7541 54.7491 79.7367 55.5538 78.7174C55.521 79.5005 55.4823 80.2854 55.4446 81.0704ZM55.592 77.7954C55.032 78.3676 54.4817 78.9283 53.8826 79.4588C53.0853 80.1637 52.5315 81.1241 51.8164 81.9182C51.7045 82.0423 51.5593 82.1846 51.4047 82.3394C51.4283 81.9479 51.4501 81.5563 51.4754 81.1648C52.2748 80.3032 52.977 79.2043 53.6241 78.2708C54.3218 77.2644 54.9689 76.179 55.6764 75.1664C55.6538 76.0438 55.6253 76.9199 55.592 77.7954ZM55.6924 74.2175C54.7651 75.2675 53.9434 76.3903 53.0813 77.5045C52.6576 78.0523 52.1016 78.6235 51.6046 79.2364C51.6494 78.588 51.6952 77.9397 51.7405 77.2913C52.508 76.4502 53.2252 75.4764 53.8719 74.6133C54.3058 74.0345 54.8072 73.5241 55.2381 72.9519C55.4526 72.6672 55.6022 72.3538 55.7293 72.0289C55.7244 72.7612 55.7071 73.4886 55.6924 74.2175ZM55.7413 70.4417C55.6866 70.4637 55.6378 70.504 55.6085 70.5754C55.2007 71.5717 54.7606 72.1899 54.0318 72.9413C53.3816 73.6118 52.8881 74.4408 52.265 75.1424C52.1584 75.2622 52.0159 75.4065 51.8577 75.5684C51.9164 74.69 51.9728 73.8116 52.0216 72.9346C52.8069 71.6714 53.6787 70.4911 54.5328 69.2652C54.948 68.669 55.33 68.0734 55.7492 67.4863C55.7461 68.4711 55.7435 69.4564 55.7413 70.4417ZM55.7515 66.8423C55.4268 67.1753 55.0573 67.4643 54.7459 67.8228C54.2094 68.4405 53.6809 69.1794 53.1706 69.8388C52.8242 70.286 52.4604 70.7494 52.1118 71.2195C52.1131 71.1917 52.1149 71.1639 52.1162 71.1361C52.1438 70.5136 52.1771 69.8906 52.2095 69.2681C52.3401 69.0093 52.4671 68.7424 52.6234 68.4956C53.2199 67.5539 53.9008 66.7402 54.5838 65.8766C54.9627 65.3979 55.3913 64.8563 55.7586 64.2746C55.7577 65.1305 55.7546 65.9864 55.7515 66.8423ZM55.8003 50.6517C55.0404 51.4184 54.3964 52.2614 53.7422 53.1489C53.4802 53.504 53.1866 53.8433 52.9148 54.197C52.9183 53.7456 52.9174 53.2941 52.9174 52.8427C53.2852 52.2164 53.6823 51.6796 54.2063 51.1266C54.5647 50.7485 54.7908 50.2932 55.0808 49.8562C55.1919 49.6889 55.2873 49.5586 55.3624 49.4215C55.5414 49.4086 55.6991 49.4167 55.783 49.4752C55.851 49.5227 55.8905 49.5428 55.9193 49.5528C55.9167 49.7062 55.8625 50.1547 55.8003 50.6517Z"/>
  </mask>
  <path d="M56.8693 58.7549C56.8311 57.2765 56.7845 55.8 56.7485 54.3206C56.7059 52.57 57.377 50.0129 56.6748 48.4314C56.5593 48.1717 56.2778 48.1176 56.045 48.1549C55.0662 48.3112 53.891 48.673 52.8704 48.6097C52.77 43.8783 52.5546 39.1489 52.567 34.4108C52.5759 31.0438 52.5781 27.6763 52.5635 24.3093C52.5559 22.5975 52.6261 20.8608 52.5488 19.1519C52.5111 18.3166 52.6332 16.9613 52.2752 16.2042C51.4483 14.4536 48.6058 15.1221 47.2774 15.1403C45.746 15.1609 45.1571 15.4681 45.0452 17.2685C44.8938 19.7078 45.1527 22.4748 45.3814 24.9136C45.7079 28.3923 45.6919 31.857 45.6914 35.3611C45.691 42.2619 45.3748 49.2658 45.7678 56.1537C46.5091 69.143 44.5727 82.1492 45.2286 95.1323C44.9022 95.4677 44.904 96.2139 45.4756 96.4247C46.4917 96.7995 48.9105 96.9653 50.1123 96.5249C51.693 97.6419 55.1985 96.6581 55.8052 94.9372C56.0255 94.3123 55.9726 93.2872 56.0086 92.6173C56.0939 91.0435 56.1405 89.475 56.3017 87.9008C56.3404 87.5227 56.3719 87.1417 56.4057 86.7612C56.4328 86.696 56.4372 86.6313 56.423 86.5705C56.6055 84.4671 56.7201 82.3428 56.7983 80.2404C57.0115 74.5118 56.9435 68.7548 56.9355 63.0027C56.9337 61.7903 56.9111 60.5822 56.8822 59.3755C56.9084 59.3209 56.9409 59.271 56.9648 59.2145C57.0439 59.0309 56.9799 58.8608 56.8693 58.7549ZM54.459 49.5437C54.515 49.5428 54.5989 49.5308 54.6935 49.5155C54.642 49.5744 54.5909 49.6334 54.5425 49.6985C54.3764 49.9233 54.2481 50.1787 54.0682 50.3924C53.7413 50.7821 53.3198 51.0562 53.0036 51.4601C52.9774 51.4942 52.9454 51.534 52.9148 51.5718C52.909 50.8429 52.9006 50.1135 52.8872 49.3846C53.402 49.5303 53.8652 49.5538 54.459 49.5437ZM52.8842 55.88C53.0032 55.6759 53.0951 55.4559 53.2283 55.2316C53.5175 54.7433 53.9412 54.347 54.2632 53.8821C54.7086 53.2385 55.1541 52.6093 55.6347 52.0108C55.6187 52.1593 55.6084 52.2767 55.6076 52.341C55.5991 52.8489 55.5871 53.3603 55.584 53.8711C55.5454 53.9344 55.5072 53.9986 55.4623 54.0685C55.2265 54.4404 54.9454 54.7328 54.6896 55.0836C54.5052 55.3361 54.4 55.6418 54.1979 55.892C53.9252 56.2298 53.5916 56.5006 53.3243 56.8524C53.1684 57.0575 53.0036 57.2544 52.8366 57.45C52.8544 56.9267 52.8717 56.4033 52.8842 55.88ZM52.7811 58.834C53.4136 58.1022 54.0056 57.3541 54.6331 56.5749C55.0364 56.0736 55.3326 55.5014 55.596 54.9063C55.5991 55.0021 55.6 55.0979 55.6045 55.1938C55.6302 55.7478 55.6502 56.3027 55.6688 56.8576C54.7513 58.002 53.5992 58.9955 52.7145 60.182C52.7367 59.7325 52.762 59.283 52.7811 58.834ZM52.6234 61.9992C52.6265 61.9963 52.6292 61.9935 52.6323 61.9906C53.1422 61.4711 53.5952 60.6828 53.9967 60.0684C54.5168 59.2724 55.1394 58.5771 55.6977 57.8247C55.7159 58.5062 55.723 59.1886 55.7333 59.871C55.5023 60.1878 55.2594 60.4974 55.044 60.8204C54.4799 61.6671 53.9243 62.4094 53.2266 63.135C53.0036 63.3664 52.7531 63.6372 52.5106 63.93C52.5484 63.2869 52.5875 62.6433 52.6234 61.9992ZM52.4085 65.6849C52.5737 65.4746 52.7274 65.2527 52.8837 65.0188C53.3563 64.3105 53.8848 63.7537 54.4417 63.1091C54.9467 62.5249 55.3189 61.9144 55.7088 61.2397C55.7235 61.2143 55.7408 61.1908 55.7559 61.1654C55.7621 61.8483 55.7568 62.5316 55.7581 63.2145C55.0897 64.1438 54.2152 65.0428 53.5454 65.7889C53.0858 66.3007 52.6767 66.8149 52.3134 67.3507C52.3445 66.7958 52.3756 66.2404 52.4085 65.6849ZM50.9331 70.2989C50.7816 72.6893 50.6346 75.0796 50.4916 77.4714C50.4459 77.6425 50.4334 77.8112 50.4623 77.9746C50.385 79.2762 50.3064 80.5773 50.2336 81.8793C50.0559 85.0643 49.8303 88.1878 49.8614 91.3766C49.8667 91.9248 49.8592 92.4745 49.8587 93.0227C49.8578 94.2764 50.0324 94.9027 48.7022 95.1754C48.3029 95.2573 46.824 95.2367 46.0871 95.0795C47.1864 73.515 47.0296 51.9331 46.9266 30.3168C46.9159 28.0774 46.7254 25.8639 46.5339 23.6393C46.4087 22.181 46.4589 20.7453 46.3776 19.2865C46.351 18.8083 46.0694 17.6778 46.2675 17.269C46.7254 16.323 47.5479 16.7284 48.2079 16.7006C49.0908 16.6632 50.5822 16.1773 51.2382 17.0198C51.7591 17.6888 51.4332 20.094 51.4158 20.8416C51.3417 24.0284 51.3768 27.2206 51.3737 30.4084C51.3643 40.0091 51.8404 49.6247 51.5464 59.2125C51.5344 59.2768 51.534 59.3448 51.5406 59.4148C51.4887 61.0499 51.4167 62.684 51.3128 64.3172C51.1902 66.2452 51.0685 68.1735 50.9464 70.1014C50.9419 70.1149 50.9366 70.1273 50.9322 70.1408C50.9118 70.1983 50.9153 70.2519 50.9331 70.2989ZM54.7064 91.666C54.6225 93.3165 54.9098 94.446 53.2546 95.1533C53.231 95.1634 53.1968 95.1749 53.1622 95.1859C53.2008 95.1318 53.2377 95.0772 53.2852 95.0288C53.8039 94.4997 54.1428 93.8244 54.5772 93.2077C54.7233 93.0002 54.4186 92.7778 54.2552 92.9398C54.0775 93.1157 53.9292 93.35 53.7391 93.5087C53.5881 93.6347 53.3913 93.6812 53.2372 93.7986C53.1386 93.8743 53.0827 93.9759 53.0014 94.0688C52.8642 94.2256 52.762 94.272 52.6177 94.4057C52.3676 94.6372 52.2077 95.0024 51.975 95.2645C51.9248 95.3211 51.8764 95.3762 51.8311 95.4318C51.6797 95.4452 51.5286 95.4548 51.3861 95.4548C51.6206 95.195 51.7889 94.8687 52.0327 94.6017C52.5377 94.0492 52.9601 93.4416 53.4402 92.8655C53.8395 92.3863 54.2863 91.9771 54.714 91.5496C54.7122 91.5889 54.7086 91.6272 54.7064 91.666ZM54.7944 90.3899C54.4439 90.7521 54.0584 91.0728 53.6716 91.4092C53.0844 91.9195 52.6066 92.4946 52.1011 93.0965C51.927 93.304 51.6246 93.5642 51.3363 93.8547C51.3377 93.4948 51.3252 93.1296 51.299 92.774C51.3612 92.6796 51.4252 92.5823 51.4985 92.4807C52.0803 91.6732 52.9201 90.9755 53.549 90.1958C54.0065 89.6284 54.4848 89.0931 54.9565 88.5544C54.8974 89.1655 54.8428 89.7774 54.7944 90.3899ZM55.2238 85.3288C55.1861 86.0031 55.1292 86.6768 55.068 87.3506C54.2423 88.1643 53.41 88.9862 52.6594 89.8795C52.2028 90.4229 51.6588 90.8609 51.1813 91.3713C51.1698 91.2151 51.1613 91.0694 51.1591 90.94C51.1538 90.6486 51.1569 90.3568 51.1551 90.0654C51.7192 89.5436 52.2157 88.6834 52.6083 88.2209C53.136 87.5989 53.6303 86.9572 54.1748 86.3524C54.5665 85.9173 54.8872 85.4184 55.2438 84.955C55.2367 85.0796 55.2305 85.2032 55.2238 85.3288ZM55.306 83.7914C55.2363 83.8025 55.1661 83.8288 55.1013 83.8935C53.9838 85.002 52.9414 86.2585 51.8946 87.4503C51.6783 87.6966 51.4172 87.9799 51.1636 88.2861C51.1698 87.8941 51.1738 87.5025 51.1849 87.1105C51.9306 86.4511 52.4924 85.4802 53.1626 84.7633C53.6396 84.2534 54.1299 83.7392 54.5705 83.1924C54.8712 82.8186 55.1221 82.405 55.4011 82.0159C55.3708 82.6053 55.3375 83.1996 55.306 83.7914ZM55.4446 81.0704C54.4812 81.9723 53.6174 83.0419 52.6847 83.987C52.2175 84.4604 51.7045 84.977 51.2386 85.521C51.2622 84.9468 51.2897 84.3723 51.3199 83.7977C51.8964 83.1047 52.6514 82.4889 53.1684 81.7979C53.9492 80.7541 54.7491 79.7367 55.5538 78.7174C55.521 79.5005 55.4823 80.2854 55.4446 81.0704ZM55.592 77.7954C55.032 78.3676 54.4817 78.9283 53.8826 79.4588C53.0853 80.1637 52.5315 81.1241 51.8164 81.9182C51.7045 82.0423 51.5593 82.1846 51.4047 82.3394C51.4283 81.9479 51.4501 81.5563 51.4754 81.1648C52.2748 80.3032 52.977 79.2043 53.6241 78.2708C54.3218 77.2644 54.9689 76.179 55.6764 75.1664C55.6538 76.0438 55.6253 76.9199 55.592 77.7954ZM55.6924 74.2175C54.7651 75.2675 53.9434 76.3903 53.0813 77.5045C52.6576 78.0523 52.1016 78.6235 51.6046 79.2364C51.6494 78.588 51.6952 77.9397 51.7405 77.2913C52.508 76.4502 53.2252 75.4764 53.8719 74.6133C54.3058 74.0345 54.8072 73.5241 55.2381 72.9519C55.4526 72.6672 55.6022 72.3538 55.7293 72.0289C55.7244 72.7612 55.7071 73.4886 55.6924 74.2175ZM55.7413 70.4417C55.6866 70.4637 55.6378 70.504 55.6085 70.5754C55.2007 71.5717 54.7606 72.1899 54.0318 72.9413C53.3816 73.6118 52.8881 74.4408 52.265 75.1424C52.1584 75.2622 52.0159 75.4065 51.8577 75.5684C51.9164 74.69 51.9728 73.8116 52.0216 72.9346C52.8069 71.6714 53.6787 70.4911 54.5328 69.2652C54.948 68.669 55.33 68.0734 55.7492 67.4863C55.7461 68.4711 55.7435 69.4564 55.7413 70.4417ZM55.7515 66.8423C55.4268 67.1753 55.0573 67.4643 54.7459 67.8228C54.2094 68.4405 53.6809 69.1794 53.1706 69.8388C52.8242 70.286 52.4604 70.7494 52.1118 71.2195C52.1131 71.1917 52.1149 71.1639 52.1162 71.1361C52.1438 70.5136 52.1771 69.8906 52.2095 69.2681C52.3401 69.0093 52.4671 68.7424 52.6234 68.4956C53.2199 67.5539 53.9008 66.7402 54.5838 65.8766C54.9627 65.3979 55.3913 64.8563 55.7586 64.2746C55.7577 65.1305 55.7546 65.9864 55.7515 66.8423ZM55.8003 50.6517C55.0404 51.4184 54.3964 52.2614 53.7422 53.1489C53.4802 53.504 53.1866 53.8433 52.9148 54.197C52.9183 53.7456 52.9174 53.2941 52.9174 52.8427C53.2852 52.2164 53.6823 51.6796 54.2063 51.1266C54.5647 50.7485 54.7908 50.2932 55.0808 49.8562C55.1919 49.6889 55.2873 49.5586 55.3624 49.4215C55.5414 49.4086 55.6991 49.4167 55.783 49.4752C55.851 49.5227 55.8905 49.5428 55.9193 49.5528C55.9167 49.7062 55.8625 50.1547 55.8003 50.6517Z" fill="#5CA1EA" stroke="#5CA1EA" stroke-width="2" mask="url(#path-4-inside-3_426_400)"/>
  <mask id="path-5-inside-4_426_400" fill="white">
    <path d="M74.9006 65.038C74.8926 53.8257 74.8166 42.6114 74.0282 31.4375C73.6011 25.3846 73.8072 19.3403 73.788 13.2774C73.7952 13.2494 73.8081 13.2223 73.8144 13.1942C73.8287 13.1287 73.8144 13.064 73.7849 13.007C73.7804 12.4515 73.7706 11.8931 73.7589 11.3328C74.182 10.6618 74.5254 9.91379 74.4186 9.25418C74.377 8.99614 74.0429 9.09024 74.0205 9.31122C73.9937 9.57972 73.8864 9.85772 73.7424 10.1324C73.7366 9.4918 73.7384 8.85263 73.7679 8.22058C73.7701 8.17021 73.7777 8.10748 73.7858 8.0438C74.0026 7.83755 74.1802 7.60612 74.2258 7.2806C74.2508 7.10049 74.0411 6.9641 73.9311 7.11427C73.9924 6.67564 74.0214 6.23511 73.8998 5.98229C73.4356 5.02092 72.5761 5.25758 71.7372 5.31651C71.7014 5.03946 71.3235 4.84604 71.1943 5.16633C71.1804 5.20103 71.1518 5.24618 71.1116 5.30035C70.0392 5.18487 68.7656 4.73483 67.9857 5.55316C67.03 6.55635 67.7384 9.67286 67.7518 10.9331C67.7523 10.9731 67.7536 11.0125 67.754 11.0524C67.7192 11.1066 67.6776 11.1541 67.644 11.2097C67.5398 11.3841 67.627 11.5676 67.7652 11.6555C67.7997 13.5668 67.8882 15.4573 68.0622 17.3691C68.1923 18.8004 68.1775 20.2104 68.1409 21.6228C68.0469 21.7805 67.9812 21.9497 67.9844 22.1655C67.9861 22.2695 68.0344 22.3903 68.1185 22.4549C68.0917 23.3811 68.0653 24.3097 68.0733 25.2482C68.1225 30.7917 68.6243 36.3318 68.7312 41.8853C68.8045 45.7013 68.652 49.5092 68.5572 53.3153C68.436 53.5752 68.3103 53.8356 68.2012 53.9088C67.9499 54.078 68.0487 54.5014 68.3537 54.5066C68.4195 54.5076 68.4767 54.5033 68.529 54.4952C68.4986 55.9442 68.4807 57.3927 68.4919 58.8416C67.92 58.728 67.3256 58.864 66.7063 58.9975C65.7506 59.2037 64.0652 59.2598 63.3783 60.1732C62.8582 60.8651 63.016 62.5526 63.0451 63.4342C63.1207 65.7399 63.0384 67.9744 63.0272 70.2812C63.0062 74.5201 63.2079 78.7434 63.2079 82.9805C63.2079 84.9593 63.08 86.9685 63.1976 88.9402C63.2745 90.2286 63.6672 91.6409 63.63 92.9635C63.1829 92.9986 62.7786 93.6696 63.1636 94.1814C63.8755 95.1267 65.3754 95.3975 66.7103 95.4351C66.7559 95.7568 66.9768 96.0305 67.3757 95.9973C68.1887 95.9293 69.0276 95.8708 69.8693 95.8238C69.948 95.8499 70.032 95.8419 70.1179 95.8096C71.3334 95.7468 72.5529 95.7164 73.7205 95.763C74.0885 95.7777 74.4315 95.4108 74.419 95.0207C74.2915 91.0801 74.7669 87.1757 74.7504 83.21C74.7258 77.3182 74.8935 71.4383 74.8984 65.5479C74.9087 65.5342 74.9181 65.5194 74.9288 65.5056C75.0473 65.3455 75.0039 65.154 74.9006 65.038ZM68.4083 76.6738C68.3448 76.8929 68.3229 77.1105 68.3627 77.322C68.3689 77.3548 68.3891 77.3734 68.4025 77.3995C68.3815 80.2613 68.1301 83.1121 68.0626 85.9739C68 88.6294 67.9821 91.3957 67.7491 94.0503C66.7483 94.075 65.2726 93.9942 64.4775 93.5271C64.5499 93.0162 64.5839 91.6837 64.579 91.5601C64.5204 90.1017 64.2861 88.6784 64.3268 87.2176C64.4122 84.1338 64.4792 80.9983 64.3156 77.9175C64.1224 74.2844 64.1837 70.6751 64.3684 67.0497C64.443 65.5884 64.138 64.157 64.1895 62.7076C64.2673 60.5039 65.1894 60.571 67.0131 60.1817C68.8197 59.7959 68.1784 60.1927 68.3081 62.0075C68.3985 63.2745 68.4275 64.5034 68.4266 65.7661C68.3511 66.0032 68.2956 66.2437 68.2719 66.487C68.2607 66.5996 68.3363 66.6823 68.4288 66.7198C68.4101 70.0378 68.4145 73.3558 68.4083 76.6738ZM69.4766 27.2465C70.3509 26.7452 70.8705 25.6517 71.3588 24.7835C71.6875 24.1994 72.1571 23.7104 72.5958 23.1938C72.5936 23.9504 72.5976 24.707 72.6056 25.4635C72.1862 25.9615 71.6169 26.423 71.3352 26.8174C70.938 27.3725 70.6089 27.8401 70.1376 28.3429C69.9194 28.5753 69.6407 28.8737 69.4113 29.203C69.4006 28.5596 69.401 27.9161 69.4082 27.2722C69.4314 27.266 69.4547 27.2589 69.4766 27.2465ZM69.4239 26.1602C69.4359 25.5823 69.4507 25.004 69.4659 24.4261C70.0584 23.4761 70.7301 22.6103 71.3665 21.6741C71.7443 21.1181 72.2058 20.611 72.6275 20.0774C72.615 20.7926 72.6114 21.5078 72.6056 22.2225C72.3369 22.4539 72.0712 22.6744 71.8172 22.9767C71.4899 23.3659 71.0485 23.6591 70.7471 24.0635C70.3791 24.5563 70.1107 25.1675 69.7467 25.6783C69.6322 25.8394 69.5249 25.9981 69.4239 26.1602ZM69.5728 30.7717C70.1675 29.501 71.0816 28.7425 71.7917 27.5816C71.9675 27.2941 72.2926 26.9538 72.6253 26.5841C72.6347 27.095 72.6468 27.6058 72.6615 28.1162C72.5851 28.1471 72.5175 28.2031 72.4871 28.2906C72.3547 28.6684 71.7783 28.9897 71.5279 29.3171C71.1424 29.8218 70.7793 30.3236 70.363 30.8021C70.0454 31.1671 69.7745 31.5316 69.5263 31.908C69.5106 31.638 69.5003 31.3686 69.4838 31.0992C69.4793 31.0255 69.4793 30.9518 69.4753 30.8777C69.5155 30.8539 69.5504 30.8192 69.5728 30.7717ZM72.6512 18.8603C72.3351 19.2975 71.9375 19.6601 71.5766 20.0683C71.0641 20.6476 70.6483 21.3172 70.1725 21.9298C69.9753 22.1835 69.7378 22.4487 69.5057 22.7272C69.5146 22.2634 69.5213 21.7995 69.5231 21.3357C69.8084 20.9499 70.0463 20.5502 70.3911 20.1885C71.2202 19.3194 71.9161 18.3034 72.6861 17.3605C72.6861 17.3653 72.6857 17.3705 72.6857 17.3757C72.6727 17.8709 72.662 18.3656 72.6512 18.8603ZM70.8956 18.2463C70.4546 18.8061 69.9703 19.2533 69.5079 19.7623C69.5008 19.4534 69.4968 19.144 69.4833 18.8351C70.3102 18.1651 71.0932 17.1429 71.6531 16.3782C71.9675 15.9486 72.395 15.4919 72.7912 15.0082C72.7675 15.4601 72.7447 15.903 72.725 16.3383C72.717 16.345 72.708 16.3469 72.7 16.3549C72.0811 16.9685 71.4394 17.5558 70.8956 18.2463ZM70.9559 15.8783C70.5481 16.4267 69.9283 16.9903 69.4113 17.5972C69.3836 17.2655 69.3527 16.9338 69.3174 16.6021C69.3679 16.6087 69.4198 16.5945 69.4583 16.5493C70.5973 15.2092 71.8119 14.0135 72.8695 12.5822C72.8789 12.5689 72.8901 12.5546 72.8999 12.5413C72.8901 12.8939 72.8753 13.2465 72.8592 13.5987C72.2264 14.359 71.5507 15.079 70.9559 15.8783ZM72.9468 66.7716C72.4952 67.3699 72.158 67.9511 71.6245 68.5043C70.9255 69.229 70.109 70.2645 69.5996 71.3C69.5974 70.7934 69.596 70.2864 69.5938 69.7793C70.0048 69.3735 70.2592 68.8664 70.5951 68.3589C71.1706 67.4887 71.8204 66.6785 72.4299 65.8392C72.772 65.3683 73.1843 64.8275 73.5456 64.2534C73.5447 64.8708 73.5367 65.4881 73.5331 66.1049C73.3274 66.3188 73.1253 66.535 72.9468 66.7716ZM73.5233 67.5387C73.5161 68.3104 73.5058 69.0817 73.4964 69.853C73.2107 70.4836 72.7179 70.9241 72.2899 71.4521C71.6272 72.2695 71.154 73.2123 70.456 74.0083C70.2395 74.2554 69.9247 74.5624 69.6045 74.9046C69.6036 74.1556 69.6081 73.4067 69.605 72.6577C70.8871 72.0894 71.3942 70.4432 72.2363 69.3606C72.6964 68.768 73.1118 68.1545 73.5233 67.5387ZM69.6027 78.1494C69.6059 77.668 69.6018 77.1866 69.6032 76.7052C69.829 76.4115 70.0396 76.1055 70.2914 75.7761C70.8835 75.002 71.5704 74.3372 72.0963 73.5031C72.522 72.8279 73.0515 72.1616 73.4768 71.4478C73.4638 72.3916 73.4517 73.3354 73.4392 74.2792C73.115 74.6532 72.7156 74.992 72.4317 75.348C71.9116 76 71.3741 76.5859 70.8245 77.2094C70.4582 77.6247 70.0025 78.1237 69.592 78.666C69.5947 78.4939 69.6018 78.3214 69.6027 78.1494ZM73.5465 62.6039C73.259 63.1771 72.7438 63.6875 72.4201 64.1617C71.9165 64.8993 71.3714 65.5774 70.8307 66.286C70.4989 66.7208 69.9967 67.2687 69.5853 67.8589C69.5848 67.6327 69.5831 67.4061 69.5826 67.1799C69.5817 66.7659 69.5665 66.3368 69.5459 65.8996C70.5682 64.7572 71.3857 63.0811 72.1065 61.8944C72.4965 61.2524 73.0756 60.541 73.5479 59.7906C73.5474 60.7287 73.547 61.6663 73.5465 62.6039ZM70.5217 79.3175C71.1688 78.3589 71.9496 77.5297 72.6021 76.5888C72.844 76.2395 73.1423 75.8783 73.4231 75.5C73.4128 76.2941 73.4048 77.0877 73.3967 77.8818C73.1552 78.3913 72.6007 78.78 72.2765 79.1844C71.8901 79.6663 71.5225 80.1781 71.15 80.6728C70.574 81.4375 69.986 82.1921 69.4449 82.9791C69.4775 82.2344 69.512 81.4893 69.5392 80.7446C69.8894 80.2888 70.1997 79.7946 70.5217 79.3175ZM71.8736 81.3875C72.2505 80.8401 72.9003 80.1586 73.3833 79.4368C73.3766 80.3368 73.3712 81.2374 73.3712 82.1379C73.0913 82.5728 72.6343 82.9135 72.2931 83.2599C71.7466 83.8154 71.2511 84.4546 70.7493 85.0563C70.2793 85.6199 69.7749 86.1863 69.3112 86.7837C69.3121 86.7333 69.3134 86.681 69.3143 86.6307C69.3282 85.9582 69.3572 85.2853 69.3832 84.6124C70.4452 83.9076 71.1952 82.3736 71.8736 81.3875ZM70.0168 87.7408C70.6939 86.8588 71.4004 86.0057 72.0569 85.1052C72.4035 84.63 72.9142 84.0811 73.3556 83.4956C73.3332 84.6542 73.2836 85.8095 73.229 86.9628C72.8815 87.3197 72.5784 87.7279 72.2676 88.1238C71.7519 88.781 71.2014 89.4064 70.6961 90.0665C70.371 90.4914 69.6895 91.112 69.1725 91.7721C69.219 90.7655 69.2481 89.7538 69.27 88.7487C69.529 88.4512 69.7423 88.0981 70.0168 87.7408ZM73.5483 58.3712C73.2196 58.9809 72.6096 59.4727 72.2121 60.0031C71.7202 60.6603 71.2891 61.3746 70.8155 62.0475C70.4139 62.6177 69.8988 63.2336 69.4359 63.8861C69.4064 63.3258 69.3823 62.7655 69.3805 62.2143C69.4172 62.1496 69.4444 62.076 69.4489 61.9824C69.452 61.9135 69.4543 61.8445 69.4574 61.7761C70.6626 60.3856 71.6522 58.7523 72.7827 57.2881C73.034 56.9626 73.2988 56.6176 73.5492 56.2574C73.5496 56.9631 73.5483 57.6659 73.5483 58.3712ZM73.5465 55.0099C72.8131 56.1642 71.6406 57.2705 70.9313 58.1516C70.5007 58.6872 69.9708 59.2522 69.5526 59.8724C69.5687 59.7754 69.5638 59.687 69.5477 59.6029C69.575 58.9371 69.596 58.2713 69.6188 57.6056C70.0173 57.2349 70.2968 56.7079 70.6411 56.2621C71.0981 55.6714 71.59 55.0803 71.9898 54.4439C72.4965 53.638 73.0582 52.8724 73.5398 52.0569C73.5461 53.042 73.5447 54.0253 73.5465 55.0099ZM73.5246 50.492C72.933 51.7803 71.8686 52.9275 71.0396 54.0552C70.6192 54.6273 70.1179 55.1596 69.6796 55.7313C69.7042 54.8788 69.7284 54.0262 69.749 53.1741C70.1264 52.7184 70.5043 52.2641 70.8553 51.7765C71.751 50.5338 72.7049 49.2559 73.4982 47.912C73.5107 48.7721 73.517 49.6323 73.5246 50.492ZM73.4714 46.4821C73.4553 46.5025 73.4369 46.5163 73.4235 46.5424C72.6736 48.0166 71.3459 49.4802 70.341 50.7828C70.1532 51.0266 69.9699 51.2752 69.7838 51.5213C69.795 50.9344 69.8129 50.347 69.8214 49.7601C70.5333 49.0126 71.0047 47.9681 71.5561 47.106C72.2152 46.0753 72.8368 44.9989 73.4231 43.9178C73.4459 44.7722 73.4557 45.6276 73.4714 46.4821ZM73.4012 43.1826C73.3439 43.1807 73.2863 43.2026 73.2375 43.2624C72.4952 44.1787 71.9331 45.2104 71.2963 46.2079C70.8374 46.9264 70.3138 47.633 69.8393 48.3649C69.8491 47.3883 69.8576 46.4117 69.8585 45.4352C69.9328 45.4779 70.0276 45.4846 70.1246 45.4318C71.3097 44.7903 71.9147 43.5215 72.5198 42.3334C72.7921 41.7988 73.0752 41.3311 73.3261 40.8578C73.3556 41.6324 73.3788 42.4075 73.4012 43.1826ZM73.2733 39.617C73.1686 39.8185 73.0613 40.0181 72.9379 40.2068C72.6052 40.7148 72.1799 41.1468 71.8521 41.6619C71.4501 42.2939 71.1371 42.9535 70.6872 43.5556C70.384 43.961 70.0893 44.3526 69.8572 44.8022C69.8563 43.9263 69.859 43.05 69.8496 42.1737C69.8558 42.2759 69.8728 42.3766 69.9077 42.474C69.9739 42.6608 70.1774 42.7335 70.3227 42.5905C71.0391 41.8848 71.4657 40.7742 72.0006 39.9178C72.3838 39.3039 72.797 38.7108 73.2098 38.1177C73.2344 38.6171 73.2518 39.1176 73.2733 39.617ZM73.1463 36.9715C72.4294 37.9176 71.6459 38.8039 70.9872 39.8023C70.6156 40.3655 69.8737 41.2518 69.8482 42.0525C69.8393 41.2323 69.8384 40.4125 69.821 39.5918C70.4828 38.4214 71.5306 37.4272 72.226 36.3247C72.4858 35.9127 72.7733 35.5292 73.0448 35.1404C73.0841 35.7501 73.1123 36.3613 73.1463 36.9715ZM72.9522 33.7233C72.6924 34.074 72.3794 34.3525 72.0779 34.7821C71.5257 35.571 71.0583 36.3926 70.456 37.1644C70.2659 37.4077 70.02 37.6962 69.778 38.0108C69.7351 36.4863 69.6823 34.9618 69.6059 33.4354C69.7047 33.3042 69.7982 33.155 69.905 32.9815C70.329 32.2948 70.8146 31.6913 71.3293 31.0778C71.7533 30.5726 72.0802 30.0028 72.4777 29.4768C72.5573 29.3713 72.6302 29.2743 72.6977 29.1788C72.7201 29.7837 72.7478 30.3882 72.7796 30.9932C72.2358 31.6898 71.5695 32.2991 71.1178 33.0471C70.5727 33.9495 70.1425 34.7593 69.7516 35.7521C69.6483 36.0144 69.9931 36.1413 70.1541 36.0011C70.9135 35.3377 71.3361 34.3582 71.8427 33.4976C72.1428 32.9882 72.4974 32.5196 72.8435 32.042C72.8672 32.4189 72.8878 32.7957 72.9164 33.1725C72.9303 33.3555 72.9392 33.5399 72.9522 33.7233ZM68.7459 7.86465C68.7204 7.02255 68.8948 6.39335 69.893 6.42519C69.9444 6.42662 70.0048 6.42947 70.0607 6.43185C69.6273 6.87903 69.1444 7.3842 68.7459 7.86465ZM68.8649 9.35541C68.8591 9.26845 68.8524 9.18101 68.8448 9.09357C68.9552 8.95765 69.0621 8.81698 69.1765 8.68487C69.5428 8.26477 69.918 7.85372 70.2937 7.44313C70.5401 7.17368 70.8701 6.86049 71.1545 6.51548C71.2077 6.52261 71.2658 6.52832 71.3141 6.5364C71.5064 6.56776 71.667 6.59722 71.8038 6.62811C71.548 6.85907 71.2797 7.06817 71.0789 7.24353C70.6469 7.62085 70.3554 8.04997 69.9739 8.48385C69.6206 8.88589 69.2436 9.2656 68.8774 9.6548C68.8725 9.55453 68.8716 9.45663 68.8649 9.35541ZM68.923 10.7098C69.5853 9.99126 70.2775 9.29696 70.8602 8.5138C71.2748 7.95684 71.9237 7.46498 72.3928 6.87666C72.6222 7.09668 72.5716 7.45881 72.6982 8.2068C72.6083 8.26526 72.5193 8.32514 72.4335 8.38929C71.9304 8.76709 71.4259 9.23471 70.9868 9.68997C70.3679 10.331 68.9257 11.3732 69.0147 12.3992C69.0281 12.5541 69.198 12.7162 69.3442 12.6002C69.3635 12.585 69.3823 12.5698 69.4015 12.5551C69.4462 12.5194 69.4887 12.4538 69.4646 12.3902C69.4722 12.4106 70.511 11.2872 70.684 11.109C71.1791 10.5995 71.646 10.072 72.1388 9.55643C72.3565 9.3288 72.5708 9.12018 72.7903 8.91726C72.8811 9.68807 72.9128 10.5007 72.916 11.3266C72.7608 11.5162 72.6114 11.6921 72.4871 11.8446C71.8785 12.5912 71.2788 13.3539 70.6272 14.0587C70.295 14.4179 69.5276 14.9725 69.2043 15.5723C69.0768 14.4389 68.9534 13.305 68.9449 12.1649C68.9409 11.6712 68.9351 11.1902 68.923 10.7098ZM69.0625 93.5879C69.0648 93.586 69.0679 93.586 69.0697 93.5841C69.4941 93.1887 69.7007 92.7985 70.0419 92.3438C70.4475 91.8034 70.8933 91.429 71.2699 90.8539C71.701 90.1962 72.2036 89.6407 72.6231 88.9711C72.7827 88.7164 72.9719 88.3918 73.1767 88.0725C73.1396 88.8428 73.1051 89.6122 73.0752 90.3811C72.4733 91.1063 71.9849 91.9246 71.362 92.6327C71.0682 92.9668 70.7274 93.2519 70.4551 93.6079C70.2802 93.8369 70.1349 94.085 69.9846 94.3297C69.6568 94.3464 69.3286 94.3568 69.0013 94.3787C69.0254 94.1168 69.0429 93.8517 69.0625 93.5879ZM71.4738 94.2755C71.6491 94.0298 71.8271 93.787 72.022 93.5641C72.3919 93.1417 72.7067 92.674 73.0215 92.2064C73.0081 92.8926 73.0009 93.5789 73.0112 94.2651C72.4974 94.2561 71.9854 94.2656 71.4738 94.2755Z"/>
  </mask>
  <path d="M74.9006 65.038C74.8926 53.8257 74.8166 42.6114 74.0282 31.4375C73.6011 25.3846 73.8072 19.3403 73.788 13.2774C73.7952 13.2494 73.8081 13.2223 73.8144 13.1942C73.8287 13.1287 73.8144 13.064 73.7849 13.007C73.7804 12.4515 73.7706 11.8931 73.7589 11.3328C74.182 10.6618 74.5254 9.91379 74.4186 9.25418C74.377 8.99614 74.0429 9.09024 74.0205 9.31122C73.9937 9.57972 73.8864 9.85772 73.7424 10.1324C73.7366 9.4918 73.7384 8.85263 73.7679 8.22058C73.7701 8.17021 73.7777 8.10748 73.7858 8.0438C74.0026 7.83755 74.1802 7.60612 74.2258 7.2806C74.2508 7.10049 74.0411 6.9641 73.9311 7.11427C73.9924 6.67564 74.0214 6.23511 73.8998 5.98229C73.4356 5.02092 72.5761 5.25758 71.7372 5.31651C71.7014 5.03946 71.3235 4.84604 71.1943 5.16633C71.1804 5.20103 71.1518 5.24618 71.1116 5.30035C70.0392 5.18487 68.7656 4.73483 67.9857 5.55316C67.03 6.55635 67.7384 9.67286 67.7518 10.9331C67.7523 10.9731 67.7536 11.0125 67.754 11.0524C67.7192 11.1066 67.6776 11.1541 67.644 11.2097C67.5398 11.3841 67.627 11.5676 67.7652 11.6555C67.7997 13.5668 67.8882 15.4573 68.0622 17.3691C68.1923 18.8004 68.1775 20.2104 68.1409 21.6228C68.0469 21.7805 67.9812 21.9497 67.9844 22.1655C67.9861 22.2695 68.0344 22.3903 68.1185 22.4549C68.0917 23.3811 68.0653 24.3097 68.0733 25.2482C68.1225 30.7917 68.6243 36.3318 68.7312 41.8853C68.8045 45.7013 68.652 49.5092 68.5572 53.3153C68.436 53.5752 68.3103 53.8356 68.2012 53.9088C67.9499 54.078 68.0487 54.5014 68.3537 54.5066C68.4195 54.5076 68.4767 54.5033 68.529 54.4952C68.4986 55.9442 68.4807 57.3927 68.4919 58.8416C67.92 58.728 67.3256 58.864 66.7063 58.9975C65.7506 59.2037 64.0652 59.2598 63.3783 60.1732C62.8582 60.8651 63.016 62.5526 63.0451 63.4342C63.1207 65.7399 63.0384 67.9744 63.0272 70.2812C63.0062 74.5201 63.2079 78.7434 63.2079 82.9805C63.2079 84.9593 63.08 86.9685 63.1976 88.9402C63.2745 90.2286 63.6672 91.6409 63.63 92.9635C63.1829 92.9986 62.7786 93.6696 63.1636 94.1814C63.8755 95.1267 65.3754 95.3975 66.7103 95.4351C66.7559 95.7568 66.9768 96.0305 67.3757 95.9973C68.1887 95.9293 69.0276 95.8708 69.8693 95.8238C69.948 95.8499 70.032 95.8419 70.1179 95.8096C71.3334 95.7468 72.5529 95.7164 73.7205 95.763C74.0885 95.7777 74.4315 95.4108 74.419 95.0207C74.2915 91.0801 74.7669 87.1757 74.7504 83.21C74.7258 77.3182 74.8935 71.4383 74.8984 65.5479C74.9087 65.5342 74.9181 65.5194 74.9288 65.5056C75.0473 65.3455 75.0039 65.154 74.9006 65.038ZM68.4083 76.6738C68.3448 76.8929 68.3229 77.1105 68.3627 77.322C68.3689 77.3548 68.3891 77.3734 68.4025 77.3995C68.3815 80.2613 68.1301 83.1121 68.0626 85.9739C68 88.6294 67.9821 91.3957 67.7491 94.0503C66.7483 94.075 65.2726 93.9942 64.4775 93.5271C64.5499 93.0162 64.5839 91.6837 64.579 91.5601C64.5204 90.1017 64.2861 88.6784 64.3268 87.2176C64.4122 84.1338 64.4792 80.9983 64.3156 77.9175C64.1224 74.2844 64.1837 70.6751 64.3684 67.0497C64.443 65.5884 64.138 64.157 64.1895 62.7076C64.2673 60.5039 65.1894 60.571 67.0131 60.1817C68.8197 59.7959 68.1784 60.1927 68.3081 62.0075C68.3985 63.2745 68.4275 64.5034 68.4266 65.7661C68.3511 66.0032 68.2956 66.2437 68.2719 66.487C68.2607 66.5996 68.3363 66.6823 68.4288 66.7198C68.4101 70.0378 68.4145 73.3558 68.4083 76.6738ZM69.4766 27.2465C70.3509 26.7452 70.8705 25.6517 71.3588 24.7835C71.6875 24.1994 72.1571 23.7104 72.5958 23.1938C72.5936 23.9504 72.5976 24.707 72.6056 25.4635C72.1862 25.9615 71.6169 26.423 71.3352 26.8174C70.938 27.3725 70.6089 27.8401 70.1376 28.3429C69.9194 28.5753 69.6407 28.8737 69.4113 29.203C69.4006 28.5596 69.401 27.9161 69.4082 27.2722C69.4314 27.266 69.4547 27.2589 69.4766 27.2465ZM69.4239 26.1602C69.4359 25.5823 69.4507 25.004 69.4659 24.4261C70.0584 23.4761 70.7301 22.6103 71.3665 21.6741C71.7443 21.1181 72.2058 20.611 72.6275 20.0774C72.615 20.7926 72.6114 21.5078 72.6056 22.2225C72.3369 22.4539 72.0712 22.6744 71.8172 22.9767C71.4899 23.3659 71.0485 23.6591 70.7471 24.0635C70.3791 24.5563 70.1107 25.1675 69.7467 25.6783C69.6322 25.8394 69.5249 25.9981 69.4239 26.1602ZM69.5728 30.7717C70.1675 29.501 71.0816 28.7425 71.7917 27.5816C71.9675 27.2941 72.2926 26.9538 72.6253 26.5841C72.6347 27.095 72.6468 27.6058 72.6615 28.1162C72.5851 28.1471 72.5175 28.2031 72.4871 28.2906C72.3547 28.6684 71.7783 28.9897 71.5279 29.3171C71.1424 29.8218 70.7793 30.3236 70.363 30.8021C70.0454 31.1671 69.7745 31.5316 69.5263 31.908C69.5106 31.638 69.5003 31.3686 69.4838 31.0992C69.4793 31.0255 69.4793 30.9518 69.4753 30.8777C69.5155 30.8539 69.5504 30.8192 69.5728 30.7717ZM72.6512 18.8603C72.3351 19.2975 71.9375 19.6601 71.5766 20.0683C71.0641 20.6476 70.6483 21.3172 70.1725 21.9298C69.9753 22.1835 69.7378 22.4487 69.5057 22.7272C69.5146 22.2634 69.5213 21.7995 69.5231 21.3357C69.8084 20.9499 70.0463 20.5502 70.3911 20.1885C71.2202 19.3194 71.9161 18.3034 72.6861 17.3605C72.6861 17.3653 72.6857 17.3705 72.6857 17.3757C72.6727 17.8709 72.662 18.3656 72.6512 18.8603ZM70.8956 18.2463C70.4546 18.8061 69.9703 19.2533 69.5079 19.7623C69.5008 19.4534 69.4968 19.144 69.4833 18.8351C70.3102 18.1651 71.0932 17.1429 71.6531 16.3782C71.9675 15.9486 72.395 15.4919 72.7912 15.0082C72.7675 15.4601 72.7447 15.903 72.725 16.3383C72.717 16.345 72.708 16.3469 72.7 16.3549C72.0811 16.9685 71.4394 17.5558 70.8956 18.2463ZM70.9559 15.8783C70.5481 16.4267 69.9283 16.9903 69.4113 17.5972C69.3836 17.2655 69.3527 16.9338 69.3174 16.6021C69.3679 16.6087 69.4198 16.5945 69.4583 16.5493C70.5973 15.2092 71.8119 14.0135 72.8695 12.5822C72.8789 12.5689 72.8901 12.5546 72.8999 12.5413C72.8901 12.8939 72.8753 13.2465 72.8592 13.5987C72.2264 14.359 71.5507 15.079 70.9559 15.8783ZM72.9468 66.7716C72.4952 67.3699 72.158 67.9511 71.6245 68.5043C70.9255 69.229 70.109 70.2645 69.5996 71.3C69.5974 70.7934 69.596 70.2864 69.5938 69.7793C70.0048 69.3735 70.2592 68.8664 70.5951 68.3589C71.1706 67.4887 71.8204 66.6785 72.4299 65.8392C72.772 65.3683 73.1843 64.8275 73.5456 64.2534C73.5447 64.8708 73.5367 65.4881 73.5331 66.1049C73.3274 66.3188 73.1253 66.535 72.9468 66.7716ZM73.5233 67.5387C73.5161 68.3104 73.5058 69.0817 73.4964 69.853C73.2107 70.4836 72.7179 70.9241 72.2899 71.4521C71.6272 72.2695 71.154 73.2123 70.456 74.0083C70.2395 74.2554 69.9247 74.5624 69.6045 74.9046C69.6036 74.1556 69.6081 73.4067 69.605 72.6577C70.8871 72.0894 71.3942 70.4432 72.2363 69.3606C72.6964 68.768 73.1118 68.1545 73.5233 67.5387ZM69.6027 78.1494C69.6059 77.668 69.6018 77.1866 69.6032 76.7052C69.829 76.4115 70.0396 76.1055 70.2914 75.7761C70.8835 75.002 71.5704 74.3372 72.0963 73.5031C72.522 72.8279 73.0515 72.1616 73.4768 71.4478C73.4638 72.3916 73.4517 73.3354 73.4392 74.2792C73.115 74.6532 72.7156 74.992 72.4317 75.348C71.9116 76 71.3741 76.5859 70.8245 77.2094C70.4582 77.6247 70.0025 78.1237 69.592 78.666C69.5947 78.4939 69.6018 78.3214 69.6027 78.1494ZM73.5465 62.6039C73.259 63.1771 72.7438 63.6875 72.4201 64.1617C71.9165 64.8993 71.3714 65.5774 70.8307 66.286C70.4989 66.7208 69.9967 67.2687 69.5853 67.8589C69.5848 67.6327 69.5831 67.4061 69.5826 67.1799C69.5817 66.7659 69.5665 66.3368 69.5459 65.8996C70.5682 64.7572 71.3857 63.0811 72.1065 61.8944C72.4965 61.2524 73.0756 60.541 73.5479 59.7906C73.5474 60.7287 73.547 61.6663 73.5465 62.6039ZM70.5217 79.3175C71.1688 78.3589 71.9496 77.5297 72.6021 76.5888C72.844 76.2395 73.1423 75.8783 73.4231 75.5C73.4128 76.2941 73.4048 77.0877 73.3967 77.8818C73.1552 78.3913 72.6007 78.78 72.2765 79.1844C71.8901 79.6663 71.5225 80.1781 71.15 80.6728C70.574 81.4375 69.986 82.1921 69.4449 82.9791C69.4775 82.2344 69.512 81.4893 69.5392 80.7446C69.8894 80.2888 70.1997 79.7946 70.5217 79.3175ZM71.8736 81.3875C72.2505 80.8401 72.9003 80.1586 73.3833 79.4368C73.3766 80.3368 73.3712 81.2374 73.3712 82.1379C73.0913 82.5728 72.6343 82.9135 72.2931 83.2599C71.7466 83.8154 71.2511 84.4546 70.7493 85.0563C70.2793 85.6199 69.7749 86.1863 69.3112 86.7837C69.3121 86.7333 69.3134 86.681 69.3143 86.6307C69.3282 85.9582 69.3572 85.2853 69.3832 84.6124C70.4452 83.9076 71.1952 82.3736 71.8736 81.3875ZM70.0168 87.7408C70.6939 86.8588 71.4004 86.0057 72.0569 85.1052C72.4035 84.63 72.9142 84.0811 73.3556 83.4956C73.3332 84.6542 73.2836 85.8095 73.229 86.9628C72.8815 87.3197 72.5784 87.7279 72.2676 88.1238C71.7519 88.781 71.2014 89.4064 70.6961 90.0665C70.371 90.4914 69.6895 91.112 69.1725 91.7721C69.219 90.7655 69.2481 89.7538 69.27 88.7487C69.529 88.4512 69.7423 88.0981 70.0168 87.7408ZM73.5483 58.3712C73.2196 58.9809 72.6096 59.4727 72.2121 60.0031C71.7202 60.6603 71.2891 61.3746 70.8155 62.0475C70.4139 62.6177 69.8988 63.2336 69.4359 63.8861C69.4064 63.3258 69.3823 62.7655 69.3805 62.2143C69.4172 62.1496 69.4444 62.076 69.4489 61.9824C69.452 61.9135 69.4543 61.8445 69.4574 61.7761C70.6626 60.3856 71.6522 58.7523 72.7827 57.2881C73.034 56.9626 73.2988 56.6176 73.5492 56.2574C73.5496 56.9631 73.5483 57.6659 73.5483 58.3712ZM73.5465 55.0099C72.8131 56.1642 71.6406 57.2705 70.9313 58.1516C70.5007 58.6872 69.9708 59.2522 69.5526 59.8724C69.5687 59.7754 69.5638 59.687 69.5477 59.6029C69.575 58.9371 69.596 58.2713 69.6188 57.6056C70.0173 57.2349 70.2968 56.7079 70.6411 56.2621C71.0981 55.6714 71.59 55.0803 71.9898 54.4439C72.4965 53.638 73.0582 52.8724 73.5398 52.0569C73.5461 53.042 73.5447 54.0253 73.5465 55.0099ZM73.5246 50.492C72.933 51.7803 71.8686 52.9275 71.0396 54.0552C70.6192 54.6273 70.1179 55.1596 69.6796 55.7313C69.7042 54.8788 69.7284 54.0262 69.749 53.1741C70.1264 52.7184 70.5043 52.2641 70.8553 51.7765C71.751 50.5338 72.7049 49.2559 73.4982 47.912C73.5107 48.7721 73.517 49.6323 73.5246 50.492ZM73.4714 46.4821C73.4553 46.5025 73.4369 46.5163 73.4235 46.5424C72.6736 48.0166 71.3459 49.4802 70.341 50.7828C70.1532 51.0266 69.9699 51.2752 69.7838 51.5213C69.795 50.9344 69.8129 50.347 69.8214 49.7601C70.5333 49.0126 71.0047 47.9681 71.5561 47.106C72.2152 46.0753 72.8368 44.9989 73.4231 43.9178C73.4459 44.7722 73.4557 45.6276 73.4714 46.4821ZM73.4012 43.1826C73.3439 43.1807 73.2863 43.2026 73.2375 43.2624C72.4952 44.1787 71.9331 45.2104 71.2963 46.2079C70.8374 46.9264 70.3138 47.633 69.8393 48.3649C69.8491 47.3883 69.8576 46.4117 69.8585 45.4352C69.9328 45.4779 70.0276 45.4846 70.1246 45.4318C71.3097 44.7903 71.9147 43.5215 72.5198 42.3334C72.7921 41.7988 73.0752 41.3311 73.3261 40.8578C73.3556 41.6324 73.3788 42.4075 73.4012 43.1826ZM73.2733 39.617C73.1686 39.8185 73.0613 40.0181 72.9379 40.2068C72.6052 40.7148 72.1799 41.1468 71.8521 41.6619C71.4501 42.2939 71.1371 42.9535 70.6872 43.5556C70.384 43.961 70.0893 44.3526 69.8572 44.8022C69.8563 43.9263 69.859 43.05 69.8496 42.1737C69.8558 42.2759 69.8728 42.3766 69.9077 42.474C69.9739 42.6608 70.1774 42.7335 70.3227 42.5905C71.0391 41.8848 71.4657 40.7742 72.0006 39.9178C72.3838 39.3039 72.797 38.7108 73.2098 38.1177C73.2344 38.6171 73.2518 39.1176 73.2733 39.617ZM73.1463 36.9715C72.4294 37.9176 71.6459 38.8039 70.9872 39.8023C70.6156 40.3655 69.8737 41.2518 69.8482 42.0525C69.8393 41.2323 69.8384 40.4125 69.821 39.5918C70.4828 38.4214 71.5306 37.4272 72.226 36.3247C72.4858 35.9127 72.7733 35.5292 73.0448 35.1404C73.0841 35.7501 73.1123 36.3613 73.1463 36.9715ZM72.9522 33.7233C72.6924 34.074 72.3794 34.3525 72.0779 34.7821C71.5257 35.571 71.0583 36.3926 70.456 37.1644C70.2659 37.4077 70.02 37.6962 69.778 38.0108C69.7351 36.4863 69.6823 34.9618 69.6059 33.4354C69.7047 33.3042 69.7982 33.155 69.905 32.9815C70.329 32.2948 70.8146 31.6913 71.3293 31.0778C71.7533 30.5726 72.0802 30.0028 72.4777 29.4768C72.5573 29.3713 72.6302 29.2743 72.6977 29.1788C72.7201 29.7837 72.7478 30.3882 72.7796 30.9932C72.2358 31.6898 71.5695 32.2991 71.1178 33.0471C70.5727 33.9495 70.1425 34.7593 69.7516 35.7521C69.6483 36.0144 69.9931 36.1413 70.1541 36.0011C70.9135 35.3377 71.3361 34.3582 71.8427 33.4976C72.1428 32.9882 72.4974 32.5196 72.8435 32.042C72.8672 32.4189 72.8878 32.7957 72.9164 33.1725C72.9303 33.3555 72.9392 33.5399 72.9522 33.7233ZM68.7459 7.86465C68.7204 7.02255 68.8948 6.39335 69.893 6.42519C69.9444 6.42662 70.0048 6.42947 70.0607 6.43185C69.6273 6.87903 69.1444 7.3842 68.7459 7.86465ZM68.8649 9.35541C68.8591 9.26845 68.8524 9.18101 68.8448 9.09357C68.9552 8.95765 69.0621 8.81698 69.1765 8.68487C69.5428 8.26477 69.918 7.85372 70.2937 7.44313C70.5401 7.17368 70.8701 6.86049 71.1545 6.51548C71.2077 6.52261 71.2658 6.52832 71.3141 6.5364C71.5064 6.56776 71.667 6.59722 71.8038 6.62811C71.548 6.85907 71.2797 7.06817 71.0789 7.24353C70.6469 7.62085 70.3554 8.04997 69.9739 8.48385C69.6206 8.88589 69.2436 9.2656 68.8774 9.6548C68.8725 9.55453 68.8716 9.45663 68.8649 9.35541ZM68.923 10.7098C69.5853 9.99126 70.2775 9.29696 70.8602 8.5138C71.2748 7.95684 71.9237 7.46498 72.3928 6.87666C72.6222 7.09668 72.5716 7.45881 72.6982 8.2068C72.6083 8.26526 72.5193 8.32514 72.4335 8.38929C71.9304 8.76709 71.4259 9.23471 70.9868 9.68997C70.3679 10.331 68.9257 11.3732 69.0147 12.3992C69.0281 12.5541 69.198 12.7162 69.3442 12.6002C69.3635 12.585 69.3823 12.5698 69.4015 12.5551C69.4462 12.5194 69.4887 12.4538 69.4646 12.3902C69.4722 12.4106 70.511 11.2872 70.684 11.109C71.1791 10.5995 71.646 10.072 72.1388 9.55643C72.3565 9.3288 72.5708 9.12018 72.7903 8.91726C72.8811 9.68807 72.9128 10.5007 72.916 11.3266C72.7608 11.5162 72.6114 11.6921 72.4871 11.8446C71.8785 12.5912 71.2788 13.3539 70.6272 14.0587C70.295 14.4179 69.5276 14.9725 69.2043 15.5723C69.0768 14.4389 68.9534 13.305 68.9449 12.1649C68.9409 11.6712 68.9351 11.1902 68.923 10.7098ZM69.0625 93.5879C69.0648 93.586 69.0679 93.586 69.0697 93.5841C69.4941 93.1887 69.7007 92.7985 70.0419 92.3438C70.4475 91.8034 70.8933 91.429 71.2699 90.8539C71.701 90.1962 72.2036 89.6407 72.6231 88.9711C72.7827 88.7164 72.9719 88.3918 73.1767 88.0725C73.1396 88.8428 73.1051 89.6122 73.0752 90.3811C72.4733 91.1063 71.9849 91.9246 71.362 92.6327C71.0682 92.9668 70.7274 93.2519 70.4551 93.6079C70.2802 93.8369 70.1349 94.085 69.9846 94.3297C69.6568 94.3464 69.3286 94.3568 69.0013 94.3787C69.0254 94.1168 69.0429 93.8517 69.0625 93.5879ZM71.4738 94.2755C71.6491 94.0298 71.8271 93.787 72.022 93.5641C72.3919 93.1417 72.7067 92.674 73.0215 92.2064C73.0081 92.8926 73.0009 93.5789 73.0112 94.2651C72.4974 94.2561 71.9854 94.2656 71.4738 94.2755Z" fill="#5CA1EA" stroke="#5CA1EA" stroke-width="2" mask="url(#path-5-inside-4_426_400)"/>
</svg>