<svg xmlns="http://www.w3.org/2000/svg" width="137" height="212" viewBox="0 0 137 212" fill="none">
  <path fill-rule="evenodd" clip-rule="evenodd" d="M70.5017 20.8605C72.9334 18.0229 74.5792 14.5453 74.3041 10.6486C73.5118 -0.578966 57.7911 1.89095 54.7331 7.55765C51.6751 13.2244 52.0385 27.5984 55.9907 28.6112C57.5668 29.0151 60.9244 28.0257 64.3417 25.978L62.1967 41.0644H74.8618L70.5017 20.8605Z" fill="#B28B67"/>
  <path fill-rule="evenodd" clip-rule="evenodd" d="M60.3192 8.37979C62.0379 9.33558 63.261 11.1266 64.7334 13.4758C65.092 13.3357 65.4825 13.2587 65.8911 13.2587C67.6398 13.2587 69.0574 14.6681 69.0574 16.4066C69.0574 17.2891 68.6921 18.0869 68.1036 18.6584C68.8362 19.6865 69.6573 20.7605 70.5981 21.8687C74.1092 19.7745 76.7206 13.6708 73.3682 7.77847C70.4839 -4.02427 54.1399 3.30156 50.9954 1.31098C50.3081 5.59399 52.525 9.04747 60.3192 8.37979Z" fill="#191847"/>
  <path fill-rule="evenodd" clip-rule="evenodd" d="M75.3721 86.6108L49.4711 151.785L32.0992 206.885H25.2394L51.7972 86.6108L75.3721 86.6108Z" fill="#997659"/>
  <path fill-rule="evenodd" clip-rule="evenodd" d="M80.5881 86.6108C80.8639 109.514 84.8862 140.348 85.5288 141.776C85.9573 142.728 100.747 154.831 129.898 178.086L125.173 183.113C90.7778 163.174 72.7842 151.876 71.1925 149.216C68.8051 145.228 61.0322 108.521 54.7917 86.6108H80.5881Z" fill="#B28B67"/>
  <path fill-rule="evenodd" clip-rule="evenodd" d="M130.53 176.408C132.116 176.966 133.209 177.495 133.809 177.995C134.538 178.603 135.5 179.611 136.694 181.019C135.985 181.86 129.607 189.416 117.562 203.687C115.107 202.642 114.336 201.42 115.251 200.02C116.166 198.621 116.915 197.449 117.497 196.504L121.665 182.028C121.746 181.749 122.038 181.588 122.318 181.668C122.323 181.669 122.327 181.67 122.332 181.672L124.556 182.373C126.099 181.658 127.181 180.933 127.801 180.199C128.304 179.602 128.758 178.576 129.16 177.12C129.315 176.561 129.896 176.232 130.458 176.386C130.482 176.393 130.506 176.4 130.53 176.408Z" fill="#DBCFB8"/>
  <path fill-rule="evenodd" clip-rule="evenodd" d="M34.9084 204.341C35.4988 205.908 35.7939 207.08 35.7939 207.858C35.7939 208.804 35.6354 210.185 35.3183 212C34.2144 212 24.2931 212 5.55441 212C4.78095 209.458 5.22744 208.085 6.89387 207.883C8.5603 207.68 9.94463 207.497 11.0469 207.334L24.8809 201.202C25.1471 201.084 25.459 201.203 25.5777 201.468C25.5797 201.472 25.5817 201.477 25.5836 201.482L26.4728 203.626C28.0155 204.342 29.2691 204.699 30.2336 204.699C31.0172 204.699 32.0994 204.385 33.4802 203.756C34.0101 203.514 34.6365 203.745 34.8794 204.272C34.8899 204.295 34.8996 204.318 34.9084 204.341Z" fill="#DBCFB8"/>
  <path fill-rule="evenodd" clip-rule="evenodd" d="M57.9579 201.21L25.343 197.69L49.5145 86.6108H78.7266L57.9579 201.21Z" fill="#69A1AC"/>
  <path fill-rule="evenodd" clip-rule="evenodd" d="M123.151 169.976L101.758 195.152C79.2246 170.684 66.0876 154.72 62.347 147.257C58.6063 139.795 55.2437 119.579 52.259 86.6108H85.1465C86.7768 115.615 87.8758 130.792 88.4434 132.142C89.011 133.491 100.58 146.103 123.151 169.976Z" fill="#89C5CC"/>
  <path fill-rule="evenodd" clip-rule="evenodd" d="M27.7595 80.269L12.2506 95.2135C7.73807 97.1148 4.04071 99.2142 1.15851 101.512C0.510338 102.284 -0.19529 103.764 2.85429 103.102C5.90388 102.439 9.14173 101.878 9.71489 102.858C10.2881 103.838 8.59919 105.339 9.65847 106.621C10.3647 107.476 12.7396 104.757 16.7833 98.4648L32.9105 89.0729L27.7595 80.269ZM103.598 66.7437L91.6095 66.7881C100.74 96.0087 105.587 111.308 106.15 112.686C107.417 115.788 104.736 120.51 103.59 123.049C107.324 124.699 106.926 118.587 111.636 120.752C115.935 122.727 119.205 126.307 124.172 123.28C124.783 122.907 125.452 121.506 123.835 120.411C119.807 117.683 114.002 112.908 113.218 111.336C112.148 109.192 108.942 94.3284 103.598 66.7437Z" fill="#B28B67"/>
  <path fill-rule="evenodd" clip-rule="evenodd" d="M67.0674 33.1514L62.3333 32.3493C54.8757 58.389 16.5585 76.1387 14.2063 85.873C13.3436 89.4429 15.9446 91.2474 14.6011 92.3348L20.7545 96.7842C21.7965 95.5833 24.0202 97.7801 28.6639 96.2435C33.3077 94.7068 67.0674 63.9846 67.0674 33.1514Z" fill="#CD241E"/>
  <path fill-rule="evenodd" clip-rule="evenodd" d="M59.1038 36.6138C59.6496 71.0884 39.4739 79.8823 43.9679 93.7122C47.679 105.133 83.2001 117.41 89.3468 106.215C91.8349 101.683 92.9638 96.2028 93.0918 90.2443C94.6628 94.822 95.9053 98.7628 96.8192 102.067C98.3959 107.767 104.508 108.673 104.508 110.869L112.562 108.673C112.015 105.69 115.812 104.237 114.794 97.5726C110.233 67.712 97.9786 46.067 78.0308 32.6375L77.8198 29.6579C77.7361 28.5026 76.7282 27.6316 75.5659 27.71L60.6624 28.7394C59.4993 28.8178 58.622 29.8203 58.7028 30.9765C58.7028 30.9765 58.7029 30.9777 58.7048 30.9782L59.1038 36.6138Z" fill="#D3382D"/>
</svg>