<svg width="204" height="340" viewBox="0 0 204 340" fill="none" xmlns="http://www.w3.org/2000/svg">
<path fill-rule="evenodd" clip-rule="evenodd" d="M103.049 31.2354C106.99 26.603 109.657 20.9259 109.211 14.5646C107.927 -3.76419 82.4487 0.26791 77.4926 9.5187C72.5365 18.7695 73.1255 42.2349 79.5308 43.8883C82.0852 44.5476 87.5269 42.9325 93.0652 39.5895L89.5889 64.2178H110.115L103.049 31.2354Z" fill="#B28B67"/>
<path fill-rule="evenodd" clip-rule="evenodd" d="M92.0392 16.5889C91.2534 27.5493 89.175 33.0294 85.8039 33.0294C80.7469 33.0294 76.4564 29.8146 74.2375 29.8146C72.62 29.8146 72.9811 31.8416 74.0533 33.3444C74.9378 34.5844 79.2456 35.7795 79.2456 37.7018C79.2456 39.6241 75.8421 38.1369 75.8421 39.277C75.8421 41.1628 75.244 44.7085 78.5124 44.7085C81.8202 44.7085 91.3041 43.5014 92.9294 38.5852C93.9783 35.4124 94.6565 28.8378 94.964 18.8614C95.1646 18.8375 95.3689 18.8252 95.5759 18.8252C98.41 18.8252 100.708 21.1259 100.708 23.964C100.708 25.4048 100.115 26.7071 99.1616 27.6402C100.349 29.3185 101.68 31.0717 103.205 32.8809C108.933 29.4391 113.184 19.3639 107.583 9.68525C106.035 4.94382 102.531 2.41125 98.392 1.2353C95.0393 -0.169127 91.5589 -0.327478 88.6209 0.514462C82.8616 1.00915 77.7189 2.76777 76.2614 3.81218C76.2614 9.27234 77.3179 10.8924 86.3418 10.7496C88.5592 11.9222 90.2637 13.9415 92.0392 16.5889Z" fill="#191847"/>
<path fill-rule="evenodd" clip-rule="evenodd" d="M116.958 135.305L85.95 244.27L63.3266 324.584H46.8259L70.8666 135.305H116.958Z" fill="#191847"/>
<path fill-rule="evenodd" clip-rule="evenodd" d="M125.25 135.305C125.967 191.467 128.412 222.099 129.166 227.202C129.919 232.304 141.305 264.765 163.324 324.584H146.231C118.198 267.198 102.55 234.737 99.2854 227.202C96.021 219.666 85.9467 189.034 70.7731 135.305H125.25Z" fill="#2F3676"/>
<path fill-rule="evenodd" clip-rule="evenodd" d="M164.852 340L163.997 322.014H146.036C137.52 328.009 126.401 332.863 112.681 336.574V340H145.181L156.299 338.287V340H164.852Z" fill="#191847"/>
<path fill-rule="evenodd" clip-rule="evenodd" d="M65.6416 340L64.7863 322.014H46.8258C38.3094 328.009 27.191 332.863 13.4705 336.574V340H45.9705L57.089 338.287V340H65.6416Z" fill="#191847"/>
<path fill-rule="evenodd" clip-rule="evenodd" d="M44.8084 121.267L18.9909 143.186C11.7489 145.697 5.75542 148.61 1.01036 151.926C-0.0849304 153.075 -1.34781 155.336 3.47766 154.623C8.30315 153.909 13.4109 153.376 14.196 154.987C14.9811 156.597 12.1836 158.784 13.6929 160.925C14.6992 162.353 18.7002 158.317 25.696 148.817L51.8645 135.739L44.8084 121.267ZM161.716 111.783L146.568 113.986C162.828 149.315 171.545 167.998 172.72 170.038C175.362 174.625 172.254 182.616 171.04 186.846C177.179 188.622 175.218 179.123 182.981 181.492C190.067 183.655 195.914 188.557 202.932 182.728C203.794 182.011 204.521 179.667 201.779 178.302C194.947 174.9 184.916 168.675 183.356 166.381C181.23 163.252 174.016 145.053 161.716 111.783Z" fill="#B28B67"/>
<path fill-rule="evenodd" clip-rule="evenodd" d="M98.4023 49.9425L89.0159 46.834C76.2831 78.6862 57.2937 109.505 25.5663 135.536L33.4121 149.091C61.2959 132.643 87.6914 119.865 98.4023 95.1833C101.997 86.8995 98.6956 59.8474 98.4023 49.9425Z" fill="#C5CFD6"/>
<path fill-rule="evenodd" clip-rule="evenodd" d="M130.642 139.587C103.754 142.441 82.5897 142.441 67.1501 139.587C65.2372 139.233 64.9354 136.026 65.8225 133.849C79.6368 99.953 89.1098 70.3769 89.1098 46.8335C91.6445 48.1132 96.0806 48.305 102.418 47.4088C119.449 71.671 127.278 99.5092 130.642 139.587Z" fill="#323337"/>
<path fill-rule="evenodd" clip-rule="evenodd" d="M106.652 45.3754H99.5544C97.9017 55.109 92.6891 186.917 76.5972 230.035H163.668C161.78 190.535 146.889 143.087 131.805 103.382C145.143 115.605 156.769 136.316 166.681 165.514L182.99 161.322C170.864 108.995 145.932 70.534 108.194 45.9398C108.113 45.7508 108.031 45.5626 107.95 45.3754H107.322C107.091 45.2268 106.859 45.0787 106.627 44.9312L106.652 45.3754Z" fill="#C5CACF"/>
</svg>
