<svg xmlns="http://www.w3.org/2000/svg" width="128" height="107" viewBox="0 0 128 107" fill="none">
  <path d="M85.4541 0.739006C80.4521 2.04453 79.2096 2.58585 63.4708 10.3235C52.9571 15.4819 43.4628 19.908 38.9706 21.7866C37.5369 22.3598 33.0128 24.3659 28.9029 26.1809C7.74796 35.5743 3.3513 37.8669 1.53529 40.5098C-0.440022 43.4393 -0.503742 45.6364 1.31227 48.6614C1.91761 49.6485 3.9885 53.6606 5.96381 57.609C12.1128 69.9319 16.1908 77.2238 29.6994 100.118C30.4003 101.328 31.1968 102.825 31.4198 103.398C31.9933 104.767 33.7137 106.232 35.2749 106.646C37.505 107.251 41.5194 107.06 44.8328 106.232C49.4206 105.054 52.4792 103.748 62.0371 98.9082C66.848 96.4564 73.3155 93.2085 76.374 91.6482C79.4326 90.1198 89.9145 84.8977 99.6317 80.1214C122.029 69.0722 125.661 66.8751 127.222 63.5317C128.083 61.7167 128.242 58.9464 127.637 56.399C126.999 53.6924 124.291 48.6614 119.958 42.1338C117.633 38.5993 113.873 32.3582 111.579 28.3143C98.8989 5.64269 96.6688 2.20374 93.5146 0.579796C91.8898 -0.2481 89.0543 -0.184418 85.4541 0.739006ZM93.0049 3.06348C94.6616 4.05058 99.2494 11.2787 106.482 24.334C108.712 28.3461 111.515 33.3135 112.726 35.3514C113.937 37.3893 114.924 39.1406 114.924 39.2361C114.924 39.3635 114.606 39.459 114.192 39.459C113.809 39.459 113.331 39.7138 113.108 40.064C112.917 40.3824 112.344 40.7327 111.898 40.8601C111.42 40.9874 108.648 42.1974 105.749 43.5985C102.818 44.9677 98.9945 46.6553 97.2422 47.3559C85.5815 52.0048 64.6496 61.6211 44.6098 71.5559C39.9901 73.8167 34.3191 76.4596 32.0252 77.3511C27.4692 79.1661 23.646 80.9493 22.7858 81.7135C22.3079 82.1274 22.1805 82.0638 21.4795 80.9493C18.1661 75.6953 11.5074 63.3406 6.82402 53.788C5.07173 50.1898 3.38316 46.9101 3.06456 46.4643C1.94947 44.8403 2.93712 41.9745 5.19917 40.2551C6.63286 39.1724 11.9535 36.5295 20.3645 32.7403C26.7683 29.8427 28.9029 28.9193 41.1689 23.538C48.9109 20.1627 56.7165 16.469 65.8603 11.9156C72.7102 8.54032 80.3565 5.00585 83.0646 3.9869C87.1108 2.52216 91.38 2.10822 93.0049 3.06348ZM124.705 55.2845C125.088 56.3672 125.279 57.6727 125.279 59.6469V62.4809L123.463 64.1048C120.341 66.9388 115.912 69.3269 94.2156 80.0577C82.5548 85.7893 70.4481 91.8074 67.294 93.4632C58.7237 97.8893 49.5481 102.124 45.7886 103.398C42.9849 104.321 41.9973 104.512 39.5759 104.544C35.4342 104.544 34.8607 104.226 32.8535 100.723C31.9614 99.163 30.9101 97.348 30.5277 96.7111L29.8268 95.533L31.3561 94.8643C32.1845 94.4822 34.0323 93.6861 35.466 93.113C36.8997 92.5398 41.2645 90.5019 45.1833 88.6551C49.102 86.7764 55.474 83.8788 59.329 82.223C63.1841 80.5672 72.2323 76.5551 79.4007 73.3072C100.906 63.5953 104.857 61.8122 113.172 58.1503C117.569 56.2398 121.615 54.584 122.188 54.5203C122.762 54.4248 123.304 54.2338 123.399 54.0745C123.75 53.4695 124.132 53.8517 124.705 55.2845Z" fill="#5CA1EA"/>
  <path d="M93.2083 23.6337C92.0361 23.9887 89.0439 25.2795 86.576 26.5058C82.1648 28.7003 82.1031 28.7325 82.0106 29.862C81.8255 31.9274 84.1082 35.219 86.1442 35.8322C89.1981 36.7358 97.9281 33.8314 100.889 30.927C101.877 29.9588 102 29.6361 102 28.2807C102 26.3767 100.859 24.15 99.5322 23.4401C98.3291 22.7946 95.8304 22.8592 93.2083 23.6337ZM98.6067 26.0863C99.1928 26.6672 99.5939 27.3449 99.6247 27.958C99.6864 28.8293 99.5013 29.023 97.3728 30.2815C94.7507 31.8628 92.2829 32.7664 89.229 33.315C87.3164 33.6377 87.0696 33.6377 86.2984 33.0569C85.8665 32.7019 85.2496 31.9596 84.9411 31.3788L84.355 30.3784L87.1005 29.0552C90.9565 27.1835 92.6222 26.5058 94.905 25.8281C97.5271 25.0859 97.5271 25.0859 98.6067 26.0863Z" fill="#5CA1EA"/>
  <path d="M66.4062 32.9059C65.6024 33.4164 64.8581 33.8632 64.739 33.8632C64.5901 33.8632 63.9054 34.3099 63.2504 34.8204C62.2679 35.5862 62 35.9691 62 36.7348C62 38.0112 63.3099 38.4579 64.0542 37.4368C64.3222 37.0858 65.6024 36.2243 66.9421 35.5224C69.5322 34.1184 70.1276 33.576 69.9788 32.6826C69.8002 31.6934 68.0139 31.7892 66.4062 32.9059Z" fill="#5CA1EA"/>
  <path d="M46.4771 41.4837C40.7859 43.9857 28.3568 49.7571 22.2404 52.6594C20.5396 53.4935 18.9696 54.4943 18.5771 55.028C17.8248 55.9955 17.8248 55.9955 18.479 56.6293C19.1332 57.2965 19.1332 57.2965 24.4646 54.6277C30.3847 51.6586 34.8985 49.5569 46.3136 44.4194C53.8692 41.05 54 40.9833 54 40.0159C54 38.3812 52.8879 38.6147 46.4771 41.4837Z" fill="#5CA1EA"/>
  <path d="M108.182 83.8179C107.036 84.2563 102.359 86.0726 97.7455 87.8577C86.2591 92.3045 84 93.4946 84 95.123C84 96.2817 85.4 96.2817 87.15 95.1856C89.25 93.839 96.5682 90.7701 102.136 88.8598C104.682 87.9829 107.927 86.699 109.391 86.0413C111.555 85.0079 112 84.6947 112 84.0684C112 82.7218 111.109 82.6592 108.182 83.8179Z" fill="#5CA1EA"/>
  <path d="M112.864 87.8956C111.638 88.4625 110.024 89.2084 109.277 89.5962C108.56 89.9542 107.005 90.5808 105.87 90.9686C103.448 91.804 103 92.1322 103 93.0571C103 94.0118 104.196 94.2803 105.63 93.6836C109.935 91.8935 115.853 89.2979 116.421 88.9697C116.869 88.6713 117.049 88.3133 116.989 87.8061C116.869 86.7022 115.554 86.7321 112.864 87.8956Z" fill="#5CA1EA"/>
</svg>