<svg xmlns="http://www.w3.org/2000/svg" width="130" height="105" viewBox="0 0 130 105" fill="none">
  <path d="M83.7405 0.0396271C83.6559 0.124908 80.1877 0.267059 75.9863 0.352348C64.8201 0.608208 58.1655 0.807213 56.2481 0.949356C53.8513 1.11993 38.2582 1.63165 30.7295 1.7738C24.3851 1.91595 21.9319 2.22867 19.6479 3.19526L18.6046 3.6217L18.7456 9.53496C18.802 12.7759 18.943 17.6088 18.9994 20.2812C19.084 22.9251 19.225 28.1276 19.3096 31.795C19.5633 42.598 19.9017 53.0884 20.1555 57.0969C20.2401 58.2625 20.3529 60.7643 20.4656 62.6406C20.804 69.6626 20.945 70.5723 21.6217 70.885C22.1857 71.1125 22.0447 71.3399 19.3659 74.1544C17.8151 75.8033 14.9108 79.0158 12.9369 81.3185C3.68821 92.0363 -0.795166 98.6034 0.248137 99.8543C0.473716 100.139 0.501913 100.309 0.276334 100.451C-0.118429 100.707 -0.0902316 101.873 0.360926 102.271C0.586505 102.441 1.31964 102.783 1.99637 103.038C3.09607 103.465 5.18267 103.522 20.7194 103.579C30.3347 103.635 38.7093 103.721 39.3297 103.806C39.95 103.891 42.798 104.062 45.6741 104.147C48.5502 104.261 50.947 104.403 51.0316 104.431C51.6237 104.773 65.6096 105 85.8553 105C118.931 105 125.134 104.46 128.518 101.333C129.787 100.195 130.435 98.0633 129.674 97.58C129.477 97.4663 129.42 96.9546 129.533 96.2154C129.73 94.8224 129.364 94.1401 126.601 90.7854C116.844 79.0158 114.504 76.1729 112.22 73.6142L109.598 70.686V45.0429C109.626 30.9705 109.513 17.2393 109.4 14.5953C109.062 7.45963 108.526 1.54637 108.244 1.23365C107.483 0.466064 104.212 0.18177 94.1735 0.0680542C88.5059 -0.0172348 83.7969 -0.0172348 83.7405 0.0396271ZM103.789 2.4561L106.496 2.54139L106.834 6.23717C107.68 15.4482 107.877 68.4117 107.06 69.2077C106.411 69.89 63.6358 70.7429 36.8483 70.6007C29.4324 70.5723 23.3418 70.487 23.2572 70.4017C22.947 70.089 22.5241 63.4935 22.2703 54.9647C22.1293 49.7906 21.9319 43.6499 21.8473 41.3187C21.3116 28.6962 21.1988 25.5406 21.1142 20.9919C21.0578 18.2627 21.0296 13.515 21.0014 10.4731V4.95786L22.6932 4.58829C23.7929 4.33242 29.376 4.07656 38.4838 3.79227C46.238 3.59327 54.0487 3.3374 55.8251 3.25211C72.8845 2.42767 77.2269 2.31396 89.38 2.31396C95.809 2.34238 102.294 2.37081 103.789 2.4561ZM110.725 75.3768C118.282 83.9056 127.841 95.7605 127.503 96.1017C127.136 96.4713 123.104 97.4094 120.059 97.8643C117.154 98.2907 114.983 98.4329 105.734 98.8877C100.715 99.1152 70.2622 99.0299 67.95 98.774C67.2451 98.6887 62.5643 98.4897 57.517 98.3192C52.4697 98.177 47.3377 97.978 46.097 97.8927C42.7416 97.6937 28.5019 97.6937 14.9672 97.9211C1.7144 98.1201 2.53212 98.2339 3.97019 96.3575C4.28036 95.9595 5.52104 94.2822 6.70533 92.6333C9.69425 88.5111 14.9954 82.1714 19.7043 77.0542L23.6801 72.7614H45.0537C56.7838 72.7614 68.4294 72.7045 70.9107 72.6192C73.3921 72.5339 78.4676 72.3918 82.1897 72.3065C94.6529 72.0506 104.184 71.7948 104.268 71.7379C104.296 71.7095 105.03 71.6526 105.875 71.6242L107.398 71.5958L110.725 75.3768ZM127.728 98.8877C127.728 99.2857 125.811 100.508 124.345 101.02C122.427 101.702 120.876 101.958 117.154 102.157C115.293 102.242 112.558 102.47 111.092 102.64C109.598 102.811 99.8412 102.982 89.239 103.038C70.657 103.124 64.9047 103.01 49.9037 102.157C37.4405 101.446 22.5241 101.105 13.5291 101.333C7.49486 101.475 4.75971 101.418 3.60362 101.19C2.70131 100.991 1.96818 100.736 1.96818 100.593C1.96818 100.139 14.6006 99.968 36.1716 100.11C48.2964 100.195 59.0396 100.338 60.0547 100.423C61.0698 100.508 63.6076 100.65 65.6942 100.736C67.7808 100.821 71.8412 101.02 74.7174 101.19C79.6519 101.503 106.58 101.361 110.105 101.02C110.895 100.935 113.15 100.764 115.181 100.593C119.579 100.252 124.091 99.5985 125.783 99.0583C127.334 98.575 127.728 98.5182 127.728 98.8877Z" fill="#5CA1EA"/>
  <path d="M78.4325 7.05927C78.3472 7.116 75.7582 7.2578 72.6288 7.37124C66.2561 7.56977 61.8749 7.79665 59.798 7.99517C59.0299 8.08026 51.7184 8.1937 43.5818 8.27878C31.4623 8.39222 28.5035 8.50567 27.2233 8.87436C26.3698 9.10124 25.4879 9.44157 25.2887 9.61173C24.9758 9.86698 24.9474 11.0298 25.0612 15.454C25.1465 18.517 25.2887 23.8204 25.3741 27.252C25.4594 30.6837 25.6017 34.6258 25.6586 36.0438C25.7439 37.4335 26 42.113 26.2276 46.3955C26.4552 50.6779 26.7112 56.2366 26.7966 58.7324C26.9957 63.6671 27.3371 66.2479 27.8208 66.5599C28.9587 67.2405 80.3671 67.0987 89.2433 66.3614C89.9546 66.3046 92.8849 66.1912 95.7867 66.1061C101.846 65.9076 104.635 65.5673 105.516 64.8299C106.085 64.3761 106.114 64.2343 105.801 63.582C105.545 63.0432 105.46 59.4697 105.46 50.2809C105.488 31.6196 105.175 11.8522 104.834 10.1506C104.691 9.32812 104.265 8.30714 103.895 7.9101C103.326 7.22944 103.155 7.17272 102.558 7.45632C102.046 7.68321 101.733 7.68321 101.306 7.42796C100.936 7.22944 97.323 7.08764 89.6701 7.03091C83.5534 6.97419 78.4894 7.00255 78.4325 7.05927ZM102.472 9.78189C102.529 10.0371 102.643 10.8029 102.728 11.5119C103.155 15.3973 103.639 52.6065 103.326 58.9309L103.127 63.3835L102.359 63.5253C101.96 63.6104 99.5705 63.7522 97.067 63.8373C94.5634 63.9224 91.6331 64.0642 90.5236 64.1209C81.1921 64.7448 39.2575 65.1135 32.1166 64.6597L29.3001 64.4612L29.101 60.2922C29.0156 57.995 28.8449 55.1873 28.788 54.0245C28.7027 52.8617 28.5035 48.9196 28.3613 45.2611C28.1906 41.6025 28.0199 37.632 27.9346 36.4693C27.6501 31.733 27.4794 26.5714 27.3656 19.0842L27.2518 11.1999L27.8777 10.973C28.2191 10.8312 34.6487 10.6611 42.1593 10.576C54.6202 10.4058 60.2532 10.2073 71.7469 9.52665C73.9375 9.41321 81.7042 9.32812 89.0157 9.32812C100.822 9.35649 102.33 9.41321 102.472 9.78189Z" fill="#5CA1EA"/>
  <path d="M34.9885 16.3194C34.5374 16.6032 34.4811 16.887 34.6502 18.8168C34.7348 20.0087 34.8758 22.5629 34.9604 24.521C35.0449 26.4792 35.1859 29.0333 35.2423 30.1968C35.2987 31.3604 35.4396 34.2834 35.5524 36.6673L35.7498 41.0093L34.1145 42.5134C32.4793 44.0743 32.2537 44.7554 33.1841 45.3229C33.5225 45.55 33.9172 45.4648 34.7912 44.8689L35.9471 44.1026L35.9753 44.8689C35.9753 45.3229 36.0317 46.2311 36.1163 46.9406C36.1727 47.65 36.2855 48.842 36.37 49.5798L36.4828 50.942L34.5656 50.8853C32.4511 50.8285 32 50.9704 32 51.765C32 52.7867 32.7612 53.184 34.7912 53.184H36.7366L36.8493 54.7732C36.9903 56.5895 37.6106 57.3557 38.5128 56.8449C38.9357 56.6179 39.0485 56.2489 39.0485 54.9151V53.2691L41.6705 53.0988C43.0802 52.9853 45.674 52.9002 47.3656 52.9002C49.0855 52.9002 60.6167 52.6448 73.022 52.3326C95.7181 51.7366 96 51.7366 96 50.7717C96 49.665 93.9137 49.5514 81.0573 49.9204C78.1815 50.0055 73.8115 50.119 71.3304 50.2042C57.2899 50.6015 39.3022 50.9704 38.9921 50.8285C38.7665 50.7717 38.5692 50.2042 38.541 49.6082C38.4846 48.9839 38.3436 47.0825 38.1744 45.3797L37.8925 42.258L41.4731 38.7674C43.4467 36.8376 45.3921 35.1348 45.7586 34.9929C47.2529 34.4253 47.8449 35.1916 49.0573 39.3066C49.9031 42.3148 50.5797 43.2513 51.8485 43.2513C52.948 43.2513 53.6811 42.5418 55.6828 39.4768C56.4722 38.2565 57.2617 37.2916 57.459 37.3768C57.6282 37.4335 58.4176 38.5403 59.207 39.8741C60.3066 41.6904 60.8987 42.3715 61.7163 42.7972C62.7595 43.308 62.8159 43.308 64.3665 42.7688C65.8326 42.258 66.0863 42.258 67.1859 42.6269C68.3419 42.9959 68.4264 42.9959 69.3568 42.2864C70.2308 41.6053 71.3022 39.7322 72.4581 36.8943C72.7119 36.2416 72.9938 35.8727 73.1348 36.043C73.2758 36.1849 73.7833 37.32 74.2626 38.5687C75.4185 41.5201 76.2361 42.9107 77.1665 43.6202C77.9278 44.1878 77.9841 44.1878 78.9145 43.7337C79.4502 43.4783 80.3806 42.6269 80.9727 41.8323C81.5366 41.0661 82.1286 40.4133 82.2414 40.4133C82.3542 40.4133 82.5797 40.6688 82.7489 40.9809C83.2 41.8607 85.0326 42.9675 86.0194 42.9675C86.4987 42.9675 87.3445 42.6837 87.852 42.3148C88.8106 41.662 88.8388 41.662 89.6564 42.1729C90.8123 42.854 91.5454 42.8256 92.4476 41.9742C93.4626 41.0377 94.0828 39.5336 95.126 35.6456C96.141 31.928 96.2256 30.9063 95.4643 30.509C94.5339 29.9982 94.0546 30.7361 93.2088 34.1983C92.3912 37.5754 91.4326 40.1296 90.9815 40.1296C90.8687 40.1296 90.5022 39.9309 90.1921 39.7039C89.4026 39.1079 88.3595 39.193 87.2035 39.9877C86.6396 40.385 86.0476 40.6971 85.9066 40.6971C85.7938 40.6971 85.3145 40.2998 84.8352 39.8174C83.7357 38.6538 82.5515 38.0579 81.7339 38.2565C81.3674 38.37 80.4088 39.1363 79.5912 39.9877C78.7736 40.839 78.0405 41.4634 77.9278 41.3499C77.815 41.208 77.1947 39.789 76.5181 38.143C75.1648 34.7659 74.2062 33.1199 73.3885 32.8645C72.6273 32.6375 71.6405 33.3753 71.0485 34.6524C70.7665 35.2483 70.0617 36.7524 69.4696 38.0295L68.3982 40.3282H66.4811C65.4379 40.3282 64.0564 40.4133 63.4361 40.5269L62.3084 40.7255L61.3216 38.9944C60.8141 38.0295 59.9401 36.7524 59.4044 36.1281C57.6 33.9997 55.9648 34.7375 53.2863 38.9376C52.6661 39.9025 52.074 40.6971 51.9894 40.6971C51.9048 40.6971 51.6229 39.9309 51.3692 38.9944C50.6643 36.497 49.5366 34.2834 48.437 33.3186C46.6044 31.6726 44.941 32.2969 40.8529 36.1849C39.3586 37.5754 38.0899 38.6822 38.0053 38.5971C37.8361 38.4268 37.7515 37.1214 37.4978 31.4739C37.4132 28.9765 37.2722 26.2805 37.2159 25.5143C37.1595 24.7197 37.0185 22.421 36.9339 20.406C36.7084 16.064 36.4264 15.4964 34.9885 16.3194Z" fill="#5CA1EA"/>
  <path d="M25.542 76.0814C24.9687 76.666 24.2235 77.6305 23.9083 78.1858C23.5643 78.7411 21.6726 81.1086 19.695 83.4175C12.4436 91.8643 12.4722 91.8059 13.4754 92.8288C14.5646 93.9102 16.6282 94.2025 22.8478 94.1441C38.583 93.9102 41.6212 93.9687 55.6654 94.7871C59.5061 95.0209 66.1269 95.0501 75.7286 94.9332C99.2025 94.5825 102.871 94.4656 108.546 93.7349C113.849 93.0626 114.794 93.0334 114.966 93.5011C115.196 94.0564 116.571 93.881 116.944 93.2672C117.173 92.858 116.743 91.9812 114.794 88.8831C110.696 82.3653 108.575 78.6534 107.916 76.8706C107.6 75.9353 107.256 75.1754 107.142 75.1461C107.056 75.1169 88.8843 75.0877 66.7575 75.0585L26.5738 75L25.542 76.0814ZM30.6438 77.1336C31.1023 77.2505 31.0737 77.4259 30.2998 79.0042L29.44 80.7286H27.2617C25.628 80.7286 25.1694 80.6409 25.3127 80.3486C27.319 76.9875 27.3763 76.929 28.8094 76.9582C29.5546 76.9582 30.3858 77.0459 30.6438 77.1336ZM106.827 80.4948C106.827 80.6409 105.995 80.7286 104.992 80.7286H103.129L102.269 79.1503C101.782 78.3027 101.381 77.5136 101.381 77.4259C101.381 77.3382 102.327 77.2213 103.473 77.1628L105.537 77.0752L106.167 78.6827C106.54 79.5595 106.827 80.3779 106.827 80.4948ZM38.6117 77.4843C38.6117 77.6305 38.3537 78.3319 38.0671 79.0626L37.5226 80.3486L35.115 80.524C33.8252 80.6117 32.6501 80.5825 32.5354 80.4656C32.3921 80.3486 32.5927 79.5887 32.9367 78.7411L33.5672 77.2213H36.0895C37.4652 77.2213 38.6117 77.3382 38.6117 77.4843ZM45.6338 78.4781C45.2325 80.5532 45.4045 80.4363 42.5957 80.4363C41.1913 80.4363 40.0448 80.3486 40.0448 80.261C40.0448 80.1733 40.3887 79.4718 40.79 78.7119L41.5352 77.3674L43.6848 77.4551L45.8058 77.572L45.6338 78.4781ZM61.2544 78.975V80.7286L58.1303 80.6994C56.4106 80.6701 54.8629 80.5532 54.6909 80.4363C54.4616 80.2902 54.4043 79.7641 54.5476 78.7411L54.7482 77.2213H57.987H61.2544V78.975ZM68.0472 78.4489C68.2192 79.1503 68.4485 79.9979 68.5632 80.3486C68.7638 80.9332 68.6778 80.9624 66.4709 80.9624C65.2384 80.9624 64.0919 80.8747 63.92 80.7871C63.748 80.6701 63.576 79.8226 63.49 78.8873L63.3467 77.2213H65.5537H67.7606L68.0472 78.4489ZM75.6999 78.0104C75.7572 78.4781 75.9006 79.3257 76.0152 79.9102L76.1872 81.0209H73.6363H71.0567L70.8561 79.9395C70.7414 79.3257 70.4835 78.4781 70.2542 78.0397L69.8243 77.2213H72.6904H75.528L75.6999 78.0104ZM83.6105 77.7474C83.6105 78.0397 83.7252 78.3904 83.8685 78.5365C84.0118 78.7119 84.2411 79.3257 84.3271 79.9395L84.5277 81.0501L81.5756 80.9624L78.6234 80.8747L78.2508 79.4134C77.6776 77.1044 77.5629 77.2213 80.7444 77.2213C83.3239 77.2213 83.6105 77.2798 83.6105 77.7474ZM90.0594 77.4843C90.8046 77.5136 91.0053 77.7474 91.6931 79.2672L92.467 81.0209H89.6582H86.8493L86.6487 79.7641C86.534 79.0919 86.3907 78.2735 86.3047 77.9228C86.1328 77.2798 86.2474 77.2798 90.0594 77.4843ZM99.5751 79.0626C100.062 79.9102 100.464 80.6117 100.435 80.6409C100.406 80.6701 99.2025 80.7578 97.7408 80.8747L95.1039 81.0501L94.2154 79.2965L93.3555 77.5428L95.7344 77.4551C97.0242 77.3967 98.228 77.3967 98.3713 77.4551C98.5433 77.5136 99.0592 78.215 99.5751 79.0626ZM52.2547 78.975L51.968 80.4363H49.8184H47.6401L47.7261 78.975L47.8408 77.5136H50.191H52.5699L52.2547 78.975ZM35.9175 84.5866L35.2869 86.428L32.3635 86.5157C30.5291 86.5741 29.44 86.4864 29.44 86.3111C29.44 86.1357 29.7839 85.2881 30.2138 84.3821L30.9877 82.7745H33.7679H36.5767L35.9175 84.5866ZM44.5447 83.4175C44.4587 83.7975 44.2867 84.5866 44.1721 85.2004C44.0861 85.8142 43.8281 86.3695 43.6562 86.428C43.4842 86.4864 42.0798 86.6033 40.5607 86.7203C37.3219 86.9249 37.4079 86.9833 38.3537 84.4113L38.9843 82.7745H41.8218C44.6593 82.7745 44.688 82.7745 44.5447 83.4175ZM52.0827 84.6743V86.5741H49.1019H46.1497L46.5796 84.6743L47.0382 82.7745H49.5605H52.0827V84.6743ZM59.3341 83.0376L60.9678 83.0668V84.8205V86.5741H57.6717H54.3756V84.6451V82.7161L56.038 82.8914C56.9265 82.9791 58.4169 83.0376 59.3341 83.0376ZM108.89 83.856C109.291 84.4697 109.836 85.3173 110.094 85.7557L110.61 86.5741H108.432H106.253L105.393 85.0251C104.935 84.2067 104.534 83.4175 104.534 83.3006C104.534 83.1837 105.135 83.0376 105.909 82.9791C106.655 82.9207 107.457 82.8622 107.715 82.833C107.973 82.8038 108.489 83.2714 108.89 83.856ZM27.491 84.7036L26.7171 86.3403L23.7076 86.1357C22.0452 86.0188 20.6695 85.9019 20.6408 85.8727C20.6122 85.8727 21.0994 85.2881 21.7013 84.6159C22.9051 83.3006 23.3064 83.1837 26.3445 83.096L28.2935 83.0668L27.491 84.7036ZM68.9358 83.3006C69.1077 83.4175 69.337 84.2067 69.4517 85.0543L69.6523 86.5741H66.4709C64.7225 86.5741 63.2321 86.4864 63.1748 86.3403C63.1174 86.2234 63.1174 85.4342 63.2034 84.6159L63.3181 83.0668L65.9549 83.096C67.4167 83.096 68.7351 83.2129 68.9358 83.3006ZM102.671 84.5574C103.1 85.3758 103.387 86.0773 103.33 86.1357C103.272 86.1942 102.011 86.2818 100.521 86.3111L97.7981 86.3695L97.0242 84.9374C96.5943 84.1482 96.2217 83.4175 96.2217 83.3299C96.2217 83.2129 97.5115 83.1253 99.0879 83.096L101.925 83.0376L102.671 84.5574ZM77.2763 84.5574C77.4769 85.2297 77.7062 85.9311 77.7922 86.1649C77.9069 86.4864 77.391 86.5741 74.8974 86.5741C72.2032 86.5741 71.8593 86.5157 71.8593 86.048C71.8593 85.785 71.7733 85.0543 71.6873 84.4405L71.4866 83.3591H74.2095H76.9324L77.2763 84.5574ZM85.3302 84.5866C85.5022 85.2881 85.7028 86.0188 85.7602 86.1942C85.8462 86.4864 85.1869 86.5741 83.0373 86.5741C81.4609 86.5741 80.1711 86.4864 80.1711 86.3403C80.1711 86.2234 79.9705 85.5219 79.7412 84.7328L79.34 83.3591H82.1775H85.015L85.3302 84.5866ZM94.3587 84.8205C94.7599 85.6096 95.0752 86.3403 95.0752 86.428C95.0752 86.5157 93.4988 86.5449 91.5785 86.5157C87.6805 86.428 88.1391 86.6618 87.5085 84.1482L87.3366 83.3591H90.4893H93.6421L94.3587 84.8205ZM22.4752 88.3278C25.7139 88.3278 25.8286 88.4155 24.8541 89.9353C24.5388 90.4029 24.2809 91.0459 24.2809 91.309C24.2809 91.7766 23.9083 91.8351 20.2969 91.8351C18.0899 91.8351 16.2269 91.7182 16.1409 91.572C16.0263 91.4259 16.6282 90.4906 17.4307 89.4969C18.4912 88.2401 19.0071 87.8017 19.2077 88.0063C19.3797 88.1816 20.7841 88.3278 22.4752 88.3278ZM31.7042 88.9123H34.2265L33.8252 90.1983L33.4239 91.4551L31.5036 91.6597C30.4431 91.7474 28.9241 91.8351 28.0929 91.8351H26.6025L27.061 90.7244C27.6056 89.3215 28.2935 88.5616 28.8094 88.7662C29.01 88.8539 30.3285 88.9123 31.7042 88.9123ZM79.1393 89.9645C79.3973 90.7244 79.5979 91.6597 79.5979 92.0397C79.5979 92.6827 79.5119 92.7119 77.1043 92.7411C75.6999 92.7704 74.2668 92.7996 73.8656 92.8288C73.235 92.858 73.149 92.6827 72.8051 91.1044C72.6045 90.1399 72.4611 89.2046 72.4325 89.0292C72.4325 88.7954 73.4356 88.6785 75.5566 88.6493L78.6807 88.5908L79.1393 89.9645ZM87.1073 90.5198L87.8238 92.4196L85.5022 92.4489C84.2411 92.4489 82.894 92.5073 82.5787 92.5658C82.0628 92.6827 81.9482 92.5365 81.8049 91.4551C81.6902 90.7829 81.5469 89.8768 81.4323 89.4677L81.2603 88.7077L83.8112 88.6493L86.3621 88.5908L87.1073 90.5198ZM97.3395 90.3737C97.97 91.3382 98.4 92.1566 98.2853 92.2443C98.1707 92.3027 96.3363 92.3904 94.2154 92.3904L90.346 92.4196L89.6868 90.8998C89.3429 90.0522 89.0563 89.1754 89.0563 89C89.0563 88.7077 89.9448 88.6201 92.639 88.6493H96.193L97.3395 90.3737ZM105.336 90.1983C105.709 90.9583 105.967 91.6597 105.881 91.7182C105.823 91.7766 104.591 91.9228 103.158 92.0104C100.808 92.1858 100.521 92.1566 100.521 91.7182C100.521 91.4551 100.206 90.7244 99.8044 90.0814C99.4031 89.4384 99.0879 88.8539 99.0879 88.7954C99.0879 88.7077 100.349 88.6785 101.897 88.7077L104.677 88.7662L105.336 90.1983ZM112.645 89.7599L113.361 90.8706L111.47 91.0752C108.002 91.4551 108.26 91.5136 107.801 90.2276C107.6 89.5846 107.4 89.0292 107.4 89C107.4 88.9708 108.403 88.8831 109.635 88.8246C110.839 88.7954 111.871 88.7077 111.871 88.6785C111.9 88.6493 112.244 89.1169 112.645 89.7599ZM43.0543 90.1399C42.9396 90.8413 42.7676 91.5136 42.7103 91.6597C42.6243 91.7766 41.6212 91.8351 40.5034 91.7182C39.3856 91.6305 37.8665 91.5428 37.1213 91.5428H35.7742L36.2614 90.2276L36.72 88.9123H39.9875H43.2549L43.0543 90.1399ZM51.6814 90.4322C51.5668 91.2798 51.3948 92.0397 51.2802 92.1274C51.1655 92.215 49.7611 92.2443 48.156 92.1858C44.8886 92.0689 44.9459 92.1274 45.3759 89.8184L45.5765 88.9123H48.7293H51.8821L51.6814 90.4322ZM60.7385 90.8413L60.8245 92.7996L57.3851 92.6242C55.4934 92.5073 53.8597 92.4196 53.7451 92.4196C53.6304 92.4196 53.6591 92.0689 53.8024 91.6597C53.9744 91.2505 54.089 90.4614 54.089 89.9061V88.9123H57.3564H60.6239L60.7385 90.8413ZM70.3975 90.3737C70.9994 93.1796 71.2287 93.0042 66.8435 93.0042H62.9741V90.9583V88.9123H66.5282H70.0822L70.3975 90.3737Z" fill="#5CA1EA"/>
</svg>