<svg xmlns="http://www.w3.org/2000/svg" width="121" height="101" viewBox="0 0 121 101" fill="none">
  <path d="M36.8 0.26503C34.1937 1.25107 32.4457 3.70026 31.3015 8.02611C30.7612 9.93457 30.5705 11.8112 30.4751 16.2961C30.2526 24.4707 31.0472 28.9238 33.6534 34.1084L34.4798 35.7306L32.6681 35.9215C29.903 36.2395 27.3604 37.321 25.6123 38.8796C21.8937 42.2194 21.3851 46.6407 24.2456 50.7757C24.9766 51.8571 25.2627 52.4933 25.0084 52.5887C24.182 52.875 21.9254 54.8152 20.9402 56.0875C18.9696 58.6958 18.3975 63.0852 19.7006 65.6298C20.3681 66.934 22.2115 68.7152 23.4192 69.1923L24.3727 69.6058L23.6099 70.4328C21.9254 72.214 21.3216 73.9317 21.3216 76.8262C21.3216 78.9891 21.4805 79.7843 22.0208 80.8339C22.6882 82.1062 24.4681 83.9193 25.358 84.2055C25.6759 84.3328 25.6759 84.4918 25.2627 84.9689C23.451 87.0682 23.0061 90.7897 24.2774 93.2389C25.9937 96.5787 32.3821 99.505 39.7558 100.332C45.3814 100.936 46.2713 100.968 57.5544 101C66.5808 101 69.7273 100.873 74.2405 100.364C79.6119 99.7595 84.5383 98.7735 85.1739 98.1373C85.3646 97.9465 85.9049 98.3282 86.6995 99.0915L87.9073 100.364H92.6112C97.6011 100.364 100.621 99.9822 101.828 99.2188C102.305 98.9007 102.718 98.8371 102.941 99.0279C103.449 99.4414 116.894 99.505 118.387 99.0915C119.023 98.9325 119.881 98.4236 120.294 98.0101C120.962 97.2785 121.025 96.9922 120.994 92.8572C120.962 90.408 120.898 87.7998 120.803 87.0046C120.072 79.8797 119.627 71.5461 119.563 63.944C119.532 55.5468 119.754 51.2528 120.485 45.1457C121.184 39.6748 121.121 35.8896 120.326 34.6173C119.5 33.2496 118.451 33.027 112.062 32.7725C105.166 32.518 103.195 32.3272 102.051 31.7228C101.288 31.3411 99.826 31.2139 94.7089 31.2139L88.3522 31.1821L87.5259 29.878C86.2546 27.8105 82.5359 24.8524 79.2305 23.2302C75.4165 21.3853 71.3483 20.3675 65.9769 19.8904C58.4125 19.2542 56.1241 18.5545 52.8822 15.8508C50.6256 13.9741 48.5915 11.4295 46.1442 7.48537C42.807 2.07807 42.1713 1.15565 41.4085 0.646721C40.3915 -0.0212402 38.0713 -0.212082 36.8 0.26503ZM38.8023 5.99042C38.8023 9.07576 38.8976 9.74372 39.5333 10.8888C39.9147 11.6204 40.5186 12.3838 40.8364 12.5746C41.7899 13.0835 44.1419 12.9563 45 12.352C45.731 11.843 45.7628 11.843 46.5574 12.9245C47.0024 13.5288 48.4644 15.0874 49.7675 16.3915C53.7086 20.3039 56.3784 21.3217 65.818 22.4668C73.9227 23.421 77.2599 24.4707 81.3282 27.3016C83.7119 28.9556 86.4135 32.3272 86.0639 33.2178C85.9367 33.5677 85.9367 35.667 86.0639 37.8935C86.1592 40.1519 86.3499 46.1953 86.4453 51.38C86.5724 56.5328 86.7313 61.3358 86.7949 62.0356C87.0173 64.3893 87.4305 82.3607 87.3352 85.7323C87.2081 89.5174 86.5406 93.398 85.746 94.7657C85.1421 95.7835 84.8243 95.9108 80.4382 96.865C72.2064 98.6144 60.2241 99.187 47.0659 98.4554C40.7411 98.1055 37.1178 97.533 32.7953 96.197C29.9666 95.3382 29.4898 95.052 27.996 93.557C25.1355 90.7261 25.1991 88.595 28.1549 85.9868C30.6658 83.792 30.6658 82.8696 28.1232 82.4243C25.3898 81.9472 23.7053 79.7843 23.7053 76.8262C23.7053 74.6632 24.4999 72.9774 26.1208 71.6415C28.2503 69.8603 28.1232 68.747 25.7076 67.5383C22.5929 66.0115 20.8766 63.4033 21.3533 60.8905C21.8619 58.3141 23.0061 56.9781 26.7883 54.5926C27.6782 54.0518 28.5046 53.3521 28.5999 53.0976C28.8542 52.4615 28.1232 51.1255 27.0425 50.1077C25.1673 48.4219 24.4045 44.8276 25.4534 42.8237C26.7883 40.1837 31.2697 38.0844 34.7341 38.4343C35.7193 38.5297 36.6728 38.7841 36.8317 38.9432C37.0224 39.134 37.4992 39.2931 37.8806 39.2931C38.9294 39.2931 39.1837 37.8299 38.3573 36.7803C36.2596 34.172 34.2255 29.6235 33.3674 25.7748C32.6681 22.4668 32.6364 14.4513 33.3356 10.8252C34.162 6.37211 35.624 3.35038 37.1814 2.71423C38.7705 2.07807 38.8023 2.14169 38.8023 5.99042ZM42.9023 7.07188C44.0147 8.98034 44.269 9.61649 43.983 9.93457C43.4426 10.6025 42.0442 10.3163 41.5992 9.39384C41.2178 8.66226 40.9953 4.62269 41.3449 4.62269C41.4085 4.62269 42.1395 5.73595 42.9023 7.07188ZM100.08 33.7903L100.779 33.9176L100.684 64.8347C100.652 81.8518 100.525 96.0698 100.462 96.4833C100.207 97.5648 99.2857 97.7556 94.0096 97.8828C89.4329 97.9783 89.1786 97.9465 88.5112 97.3103L87.8437 96.6105L88.4794 94.8929C88.829 93.9387 89.274 92.0302 89.4964 90.6307C89.9096 87.5453 89.9414 77.176 89.5282 70.1465C89.3693 67.252 89.1468 61.463 89.0515 57.2644C88.9561 53.0658 88.7654 46.1317 88.6701 41.8695C88.5112 35.6034 88.5747 34.0766 88.9243 33.8222C89.3375 33.5677 98.6818 33.5359 100.08 33.7903ZM113.175 35.3171C115.813 35.5716 118.038 35.7942 118.197 35.7942C118.61 35.7942 118.419 41.615 117.783 48.3583C117.021 55.8967 116.766 66.0433 117.148 71.2598C117.656 77.9712 117.815 79.8797 118.101 83.5058C118.292 85.5097 118.451 89.1993 118.483 91.7122C118.578 95.4655 118.483 96.2925 118.101 96.5469C117.847 96.706 114.637 96.865 110.95 96.865C107.295 96.865 103.99 96.9604 103.64 97.0558C103.004 97.2149 103.004 97.0877 103.068 70.0829C103.1 48.231 103.227 35.6988 103.449 34.9036C103.513 34.681 109.011 34.9036 113.175 35.3171Z" fill="#5CA1EA"/>
  <path d="M39.7812 45.79C39.1649 46.832 38.842 48.7206 39.0768 50.0231C39.1942 50.8046 39.3703 51 39.9573 51C40.8083 51 41.4247 49.8929 41.4247 48.3299C41.4247 47.7763 41.5714 47.1902 41.7181 47.0925C42.1584 46.7994 42.0703 46.083 41.542 45.4969C40.8964 44.748 40.3388 44.8456 39.7812 45.79Z" fill="#5CA1EA"/>
  <path d="M38.6604 60.4451C38.0583 60.7974 37.9453 61.2778 38.0206 63.3595C38.0959 66.7543 38.2464 67.1066 39.7142 66.9785L40.9185 66.8824L40.9938 64.0001C41.0691 60.253 40.4669 59.3242 38.6604 60.4451Z" fill="#5CA1EA"/>
  <path d="M38.5994 77.6339C38.0123 78.2817 37.7921 80.6372 38.2325 81.5206C38.5627 82.1978 40.4707 82.1389 40.7276 81.4617C41.0578 80.6961 41.0945 77.6928 40.801 77.31C40.3606 76.78 39.1865 76.9567 38.5994 77.6339Z" fill="#5CA1EA"/>
  <path d="M39.7035 91.2748C38.4811 91.8566 38.9627 94 40.2961 94C41.3703 94 42 93.4488 42 92.469C42 91.1523 40.9999 90.6318 39.7035 91.2748Z" fill="#5CA1EA"/>
  <path d="M110.053 83.1835C108.756 83.3881 108.365 83.729 107.611 85.3995C106.917 86.8996 106.797 89.2861 107.339 90.4111C107.792 91.4339 109.51 92.218 110.595 91.9453C111.801 91.6044 113.007 90.5475 113.58 89.3202C114.454 87.3769 113.882 83.6949 112.615 83.1494C112.103 82.9448 111.922 82.9448 110.053 83.1835ZM111.56 86.0473C112.314 87.5814 110.535 90.1043 109.51 88.9792C109.118 88.536 109.118 88.2974 109.45 87.3769C109.872 86.2177 110.535 85.3313 110.957 85.3313C111.108 85.3313 111.379 85.6382 111.56 86.0473Z" fill="#5CA1EA"/>
  <path d="M71.0079 5.64289C67.938 8.30183 67.4792 9.0152 68.4673 9.761C69.3141 10.4095 70.4433 9.79343 73.3368 7.23177C76.0186 4.79981 76.442 4.08644 75.6304 3.34064C74.8188 2.59484 74.1131 2.95153 71.0079 5.64289Z" fill="#5CA1EA"/>
  <path d="M12.1013 4.44505C11.7453 5.2951 12.309 6.23015 14.0889 7.70355C15.5425 8.92195 16.0171 9.14863 16.4028 8.92195C17.4411 8.29858 17.1444 7.42021 15.3645 5.69178C13.6142 3.9917 12.4573 3.56667 12.1013 4.44505Z" fill="#5CA1EA"/>
  <path d="M0.093162 23.5841C-0.191349 24.5565 0.0931619 24.8807 2.11635 25.7883C3.09633 26.2097 5.0563 27.1821 6.47885 27.8953C8.69171 29.0622 9.13428 29.1919 9.57686 28.8029C9.86137 28.576 10.051 28.0249 9.98782 27.5711C9.92459 26.9228 9.29235 26.469 6.44724 24.9779C2.46409 22.9358 0.440897 22.482 0.093162 23.5841Z" fill="#5CA1EA"/>
</svg>