<svg xmlns="http://www.w3.org/2000/svg" width="156" height="209" viewBox="0 0 156 209" fill="none">
  <path fill-rule="evenodd" clip-rule="evenodd" d="M72.722 34.9871C70.4041 32.3766 68.8354 29.1773 69.0975 25.5924C69.8528 15.2634 84.8378 17.5357 87.7527 22.7489C90.6676 27.9621 90.3213 41.1858 86.554 42.1175C85.0516 42.4891 81.8511 41.5789 78.5938 39.695L80.6384 53.5741H68.5659L72.722 34.9871Z" fill="#B28B67"/>
  <path fill-rule="evenodd" clip-rule="evenodd" d="M80.8714 16.741C79.2803 16.4906 74.9962 16.3185 74.2061 16.3186C73.7012 16.3186 73.154 16.4293 72.855 15.9844C72.6101 15.6202 72.6998 15.0041 72.6267 14.5814C72.5419 14.0903 72.4214 13.6056 72.2994 13.1221C71.9525 11.7463 71.4278 10.4374 70.6938 9.20845C69.3164 6.90286 67.2985 5.09688 64.7511 4.04598C61.938 2.88563 58.7547 2.61993 55.7288 2.85529C52.4907 3.1071 49.5595 4.13277 46.5022 5.09799C43.5887 6.01776 40.5372 6.3798 37.4901 5.93064C34.42 5.47814 32.1002 3.88152 29.5106 2.36612C26.8596 0.814724 23.83 -0.199946 20.696 0.0333024C17.7706 0.251105 15.0743 1.41012 12.6553 2.95841C10.392 4.40702 8.52445 6.14988 7.4701 8.60283C6.33585 11.2415 6.33689 14.1378 8.2021 16.4697C10.9056 19.8499 15.9247 20.724 20.1003 20.6371C22.5155 20.587 24.8876 20.1639 27.1679 19.3944C30.2089 18.368 32.8368 16.6285 35.6818 15.2171C37.0169 14.5548 38.397 14.0109 39.8435 13.6191C41.2473 13.2387 42.6299 13.0642 43.9008 13.8779C45.2453 14.7386 46.4501 15.5842 47.9882 16.123C49.4638 16.64 51.0267 16.9291 52.5988 16.9174C55.6575 16.8948 58.6726 15.9803 61.6433 15.3678C64.0658 14.8684 66.6579 14.3707 69.1276 14.8508C70.1582 15.0511 71.6635 15.4647 72.0357 16.4924C65.7709 17.5818 63.3104 25.016 65.0766 30.4734C66.0298 33.419 71.7597 36.8623 73.9875 35.3138C75.3989 34.3327 74.5421 33.0448 73.9875 32.1946C72.9256 30.5664 72.5622 28.475 74.5273 27.3414C76.2223 26.3637 78.0045 28.6854 78.0382 28.6829C78.5041 28.6476 82.5296 26.4632 85.3031 23.2756C88.0392 23.4312 88.4543 21.7001 87.801 20.2844C87.1476 18.8688 83.0698 17.0871 80.8714 16.741Z" fill="#191847"/>
  <path fill-rule="evenodd" clip-rule="evenodd" d="M65.5527 93.646L102.93 153.605L130.953 204.295H136.988L90.0365 93.646L65.5527 93.646Z" fill="#997659"/>
  <path fill-rule="evenodd" clip-rule="evenodd" d="M127.263 201.954C126.7 203.396 126.418 204.474 126.418 205.19C126.418 206.06 126.57 207.33 126.872 209C127.924 209 137.381 209 155.243 209C155.98 206.661 155.555 205.399 153.966 205.212C152.378 205.026 151.058 204.857 150.008 204.707L136.821 199.066C136.567 198.958 136.27 199.067 136.157 199.311C136.155 199.315 136.153 199.319 136.151 199.323L135.303 201.296C133.833 201.954 132.638 202.284 131.719 202.284C130.972 202.284 129.94 201.994 128.624 201.415C128.119 201.193 127.522 201.406 127.29 201.89C127.28 201.911 127.271 201.933 127.263 201.954Z" fill="#E4E4E4"/>
  <path fill-rule="evenodd" clip-rule="evenodd" d="M123.17 196.178L134.81 192.799C129.71 178.171 123.46 162.073 116.058 144.505C108.657 126.938 100.709 109.985 92.2126 93.646H59.3374C68.7831 114.314 78.7969 133.093 89.3786 149.984C99.9604 166.875 111.224 182.273 123.17 196.178Z" fill="#B72B27"/>
  <path fill-rule="evenodd" clip-rule="evenodd" d="M63.0963 93.646C59.5686 114.716 52.7645 141.635 52.1224 142.466C51.6943 143.02 36.2834 147.975 5.88965 157.331L7.19345 162.438C43.4379 157.42 62.5357 153.527 64.4867 150.759C67.4132 146.606 82.0258 113.803 87.6855 93.646H63.0963Z" fill="#B28B67"/>
  <path fill-rule="evenodd" clip-rule="evenodd" d="M16.5737 152.916L18.8702 161.141C45.979 163.423 62.5891 161.774 68.7007 156.196C74.8122 150.618 81.7775 129.768 89.5966 93.646H58.2481C53.2941 123.225 50.5245 138.635 49.9393 139.877C49.354 141.119 38.2322 145.465 16.5737 152.916Z" fill="#E04337"/>
  <path fill-rule="evenodd" clip-rule="evenodd" d="M7.3771 155.203C5.80018 154.922 4.64454 154.843 3.9102 154.967C3.01706 155.118 1.73999 155.481 0.0790015 156.057C0.261797 157.051 1.90461 165.988 5.00743 182.867C7.5354 183.157 8.7571 182.536 8.67253 181.003C8.58795 179.469 8.53151 178.193 8.5032 177.174L12.0008 163.734C12.0681 163.476 11.9042 163.214 11.6347 163.149C11.6301 163.148 11.6255 163.147 11.6208 163.146L9.44907 162.687C8.51808 161.412 7.97274 160.34 7.81303 159.471C7.68328 158.765 7.80112 157.74 8.16655 156.396C8.30679 155.88 7.98472 155.353 7.44719 155.218C7.42402 155.212 7.40064 155.207 7.3771 155.203Z" fill="#E4E4E4"/>
  <path fill-rule="evenodd" clip-rule="evenodd" d="M108.833 85.9766L123.083 99.3147C127.229 101.012 130.626 102.885 133.274 104.936C133.869 105.625 134.518 106.946 131.716 106.355C128.914 105.764 125.939 105.263 125.412 106.138C124.886 107.012 126.437 108.352 125.464 109.496C124.815 110.259 122.633 107.832 118.918 102.217L104.1 93.8341L108.833 85.9766ZM45.5853 87.8576L56.0971 87.8973C49.6066 108.002 46.1026 118.669 45.5853 119.899C44.4214 122.667 46.8844 126.882 47.9378 129.147C44.5072 130.62 44.8727 125.165 40.5451 127.097C36.595 128.861 33.5902 132.056 29.0265 129.354C28.4654 129.021 27.8506 127.771 29.3361 126.793C33.0372 124.358 38.3707 120.096 39.0914 118.694C40.0741 116.781 42.2387 106.502 45.5853 87.8576Z" fill="#B28B67"/>
  <path fill-rule="evenodd" clip-rule="evenodd" d="M75.4583 45.5347L79.808 44.8188C87.2967 62.7689 100.371 79.0787 119.031 93.7484L104.931 110.186C86.2727 89.2982 74.7718 67.7478 75.4583 45.5347Z" fill="#191847"/>
  <path fill-rule="evenodd" clip-rule="evenodd" d="M56.4976 97.9835H95.23C86.2566 77.0484 81.7699 59.2644 81.7699 44.6313L70.0862 42.9609C60.9039 57.1309 58.3109 74.577 56.4976 97.9835Z" fill="#DDE3E9"/>
  <path fill-rule="evenodd" clip-rule="evenodd" d="M69.8385 42.9689C69.8401 42.9662 69.8416 42.9636 69.8431 42.9609H70.6058C71.5184 42.9911 72.9084 43.0454 74.7758 43.1239L77.5989 50.8653C77.8976 60.3039 79.6415 79.3251 82.8308 107.929H57.441C57.5075 109.905 57.6173 111.899 57.7702 113.911H38.8916C41.7155 83.3417 52.028 59.6916 69.8292 42.9609L69.8385 42.9689Z" fill="#2F3676"/>
  <path fill-rule="evenodd" clip-rule="evenodd" d="M59.1183 82.6509C59.8409 94.9657 61.6501 103.455 64.5458 108.119H57.4477C57.137 99.2589 57.6939 90.7695 59.1183 82.6509Z" fill="black" fill-opacity="0.1"/>
  <path fill-rule="evenodd" clip-rule="evenodd" d="M63.0923 93.1574L75.612 87.5728V93.1574H63.0923Z" fill="white" fill-opacity="0.2"/>
</svg>