<svg width="232" height="334" viewBox="0 0 232 334" fill="none" xmlns="http://www.w3.org/2000/svg">
<path fill-rule="evenodd" clip-rule="evenodd" d="M148.443 15.3106C151.317 25.9434 155.061 49.8437 151.24 53.5927H127.067C127.064 53.5497 127.062 53.5067 127.059 53.4638C118.099 52.4681 111.131 44.8395 111.131 35.5764V17.9975C111.131 8.05775 119.155 0 129.053 0H130.72C139.709 0 147.152 6.64529 148.443 15.3106Z" fill="#191847"/>
<path fill-rule="evenodd" clip-rule="evenodd" d="M120.519 32.2196C116.678 27.6919 114.078 22.1433 114.513 15.9258C115.764 -1.98834 140.597 1.95255 145.427 10.9941C150.258 20.0356 149.684 42.9702 143.441 44.5862C140.951 45.2307 135.647 43.652 130.249 40.3847L133.638 64.4559H113.632L120.519 32.2196Z" fill="#D4A181"/>
<path fill-rule="evenodd" clip-rule="evenodd" d="M125.927 29.1933C126.849 39.1363 126.48 50.491 123.733 53.1863H99.5592C98.2123 29.686 111.229 38.7864 111.229 16.6603C112.041 15.864 112.808 15.0759 113.566 14.3962L113.54 13.7455C117.726 5.13977 123.036 0.836914 129.471 0.836914C139.124 0.836914 142.171 5.34744 144.765 9.17694C142.825 15.8612 135.297 16.8523 128.608 21.0188C127.82 20.3755 126.814 19.9899 125.719 19.9899C123.187 19.9899 121.134 22.0512 121.134 24.5939C121.134 27.1367 123.187 29.198 125.719 29.198C125.789 29.198 125.858 29.1964 125.927 29.1933Z" fill="#191847"/>
<path fill-rule="evenodd" clip-rule="evenodd" d="M81.4629 216.044C101.46 221.661 118.713 224.469 133.221 224.469C147.73 224.469 161.206 220.144 173.65 211.494C154.081 205.729 137.965 202.847 125.302 202.847C112.64 202.847 98.0265 207.246 81.4629 216.044Z" fill="#191847"/>
<path fill-rule="evenodd" clip-rule="evenodd" d="M150.532 232.564C150.34 232.273 150.177 231.957 150.048 231.614C147.375 224.515 104.561 147.935 100.295 133.935H148.498C151.741 144.58 166.337 211.382 168.391 224.71C174.873 245.734 188.217 313.822 189.92 318.539C191.713 323.501 181.629 328.67 178.942 322.57C174.667 312.863 164.48 286.005 159.944 269.606C155.691 254.231 152.229 240.4 150.532 232.564Z" fill="#BA8B72"/>
<path fill-rule="evenodd" clip-rule="evenodd" d="M111.096 241.914C91.522 246.882 19.9252 255.864 15.0119 257.272C9.95766 258.721 5.52606 248.259 11.7734 245.993C21.7139 242.387 49.1046 234.056 65.7116 230.656C79.0694 227.921 91.2584 225.689 99.4418 224.383C98.7486 201.298 95.5794 145.9 97.6566 133.935H140.307C138.315 145.408 121.476 229.127 118.347 237.507C117.354 240.499 114.39 241.821 111.096 241.914Z" fill="#D4A181"/>
<path fill-rule="evenodd" clip-rule="evenodd" d="M12.2268 243.208C9.61325 242.719 7.69788 242.583 6.48074 242.799C5.0004 243.061 2.8837 243.691 0.130647 244.689C0.433453 246.414 3.15482 261.912 8.29474 291.185C12.4846 291.689 14.5096 290.612 14.3697 287.952C14.2297 285.293 14.1364 283.08 14.0896 281.312L19.8889 258.003C20.0005 257.554 19.7288 257.1 19.2822 256.988C19.2746 256.986 19.2669 256.984 19.2592 256.982L15.6597 256.187C14.1169 253.976 13.2132 252.116 12.9486 250.61C12.7337 249.385 12.9292 247.608 13.5351 245.276C13.7676 244.382 13.2339 243.467 12.343 243.234C12.3046 243.224 12.2658 243.215 12.2268 243.208Z" fill="#DED5CB"/>
<path fill-rule="evenodd" clip-rule="evenodd" d="M175.882 321.78C174.949 324.28 174.483 326.151 174.483 327.392C174.483 328.901 174.733 331.104 175.234 334C176.978 334 192.65 334 222.249 334C223.471 329.944 222.766 327.754 220.134 327.431C217.501 327.108 215.315 326.816 213.573 326.555L191.721 316.772C191.301 316.584 190.808 316.773 190.62 317.196C190.617 317.203 190.614 317.21 190.611 317.217L189.207 320.639C186.77 321.781 184.79 322.352 183.266 322.352C182.028 322.352 180.319 321.85 178.138 320.846C177.301 320.46 176.311 320.829 175.927 321.67C175.911 321.706 175.896 321.743 175.882 321.78Z" fill="#DED5CB"/>
<path fill-rule="evenodd" clip-rule="evenodd" d="M97.7941 133.935C116.589 128.535 134.372 128.535 151.143 133.935C156.978 160.669 171.156 171.28 173.649 212.269C145.308 226.411 110.298 202.183 81.1226 215.974C72.7869 196.684 84.4569 150.228 97.7941 133.935Z" fill="#193274"/>
<path fill-rule="evenodd" clip-rule="evenodd" d="M178.651 100.711L211.563 96.2026C218.147 92.5252 224.203 90.0356 229.733 88.7339C231.289 88.6883 233.765 89.2563 230.077 92.3437C226.389 95.431 222.647 98.8462 223.304 100.494C223.961 102.141 227.391 101.528 227.959 104.063C228.338 105.752 222.772 106.027 211.261 104.886L184.556 115.518L178.651 100.711ZM75.2625 108.361L93.5157 108.43C73.5006 153.661 63.0645 177.343 62.2072 179.477C60.2783 184.277 64.36 191.588 66.1055 195.517C60.4205 198.072 61.0263 188.611 53.8548 191.961C47.3089 195.019 42.3296 200.561 34.7668 195.875C33.837 195.298 32.8181 193.129 35.2799 191.434C41.4132 187.211 50.2515 179.819 51.4457 177.386C53.0742 174.069 61.0132 151.06 75.2625 108.361Z" fill="#D4A181"/>
<path fill-rule="evenodd" clip-rule="evenodd" d="M125.26 50.225L139.551 51.1811C143.071 83.159 162.243 103.358 205.168 96.5196L210.87 137.7C170.751 142.907 135.566 126.777 128.355 83.1047C126.488 71.7993 125.014 60.0339 125.26 50.225Z" fill="#AFB9C5"/>
<path fill-rule="evenodd" clip-rule="evenodd" d="M118.209 46.0529L139.862 51.033C139.862 88.4336 151.726 112.296 157.811 139.794H99.3307C98.5069 149.296 98.001 159.062 97.7374 169.092H53.9492C63.8719 116.074 84.8152 75.0565 116.779 46.0396H118.197L118.209 46.0529Z" fill="#C5CFD6"/>
<path fill-rule="evenodd" clip-rule="evenodd" d="M108.558 86.4375C107.051 109.743 107.937 127.529 111.217 139.794H99.3311C100.963 120.971 103.843 103.186 108.558 86.4375Z" fill="black" fill-opacity="0.1"/>
</svg>
