<svg width="44" height="44" viewBox="0 0 44 44" fill="none" xmlns="http://www.w3.org/2000/svg">
<g id="icon_burger">
<path id="shape" fill-rule="evenodd" clip-rule="evenodd" d="M2.00002 16C1.44773 16 1.00002 16.4477 1.00002 17C1.00002 17.5523 1.44773 18 2.00002 18H41.9999C42.5522 18 42.9999 17.5523 42.9999 17C42.9999 16.4477 42.5522 16 41.9999 16H2.00002ZM2 26C1.44772 26 1 26.4477 1 27C1 27.5523 1.44772 28 2 28H2.09486H2.18953H2.284H2.37827H2.47236H2.56624H2.65994H2.75344H2.84675H2.93987H3.03281H3.12555H3.21811H3.31047H3.40265H3.49465H3.58646H3.67809H3.76953H3.86079H3.95187H4.04277H4.13348H4.22402H4.31438H4.40456H4.49456H4.58439H4.67404H4.76352H4.85282H4.94195H5.0309H5.11969H5.2083H5.29674H5.38502H5.47312H5.56106H5.64883H5.73643H5.82387H5.91114H5.99825H6.08519H6.17197H6.25859H6.34505H6.43135H6.51749H6.60347H6.68929H6.77496H6.86047H6.94582H7.03102H7.11606H7.20095H7.28569H7.37028H7.45471H7.539H7.62313H7.70712H7.79096H7.87465H7.95819H8.04159H8.12485H8.20796H8.29092H8.37375H8.45643H8.53897H8.62137H8.70363H8.78576H8.86774H8.94959H9.0313H9.11288H9.19432H9.27563H9.3568H9.43784H9.51875H9.59953H9.68017H9.76069H9.84108H9.92134H10.0015H10.0815H10.1614H10.2411H10.3208H10.4003H10.4797H10.5589H10.6381H10.7171H10.796H10.8748H10.9535H11.032H11.1104H11.1888H11.267H11.3451H11.423H11.5009H11.5787H11.6563H11.7338H11.8112H11.8886H11.9658H12.0429H12.1199H12.1967H12.2735H12.3502H12.4268H12.5033H12.5796H12.6559H12.7321H12.8081H12.8841H12.96H13.0358H13.1114H13.187H13.2625H13.3379H13.4132H13.4884H13.5635H13.6386H13.7135H13.7883H13.8631H13.9378H14.0124H14.0869H14.1613H14.2356H14.3098H14.384H14.4581H14.5321H14.606H14.6798H14.7536H14.8273H14.9009H14.9744H15.0478H15.1212H15.1945H15.2677H15.3409H15.4139H15.4869H15.5599H15.6327H15.7055H15.7783H15.8509H15.9235H15.996H16.0685H16.1409H16.2132H16.2855H16.3577H16.4298H16.5019H16.5739H16.6459H16.7178H16.7896H16.8614H16.9332H17.0048H17.0765H17.148H17.2195H17.291H17.3624H17.4338H17.5051H17.5763H17.6476H17.7187H17.7898H17.8609H17.9319H18.0029H18.0739H18.1447H18.2156H18.2864H18.3572H18.4279H18.4986H18.5692H18.6399H18.7104H18.781H18.8515H18.922H18.9924H19.0628H19.1332H19.2035H19.2738H19.3441H19.4143H19.4846H19.5548H19.6249H19.6951H19.7652H19.8353H19.9053H19.9754H20.0454H20.1154H20.1854H20.2553H20.3253H20.3952H20.4651H20.535H20.6048H20.6747H20.7445H20.8144H20.8842H20.954H21.0238H21.0935H21.1633H21.2331H21.3028H21.3725H21.4423H21.512H21.5817H21.6514H21.7212H21.7909H21.8606H21.9303H22H22.0697H22.1394H22.2091H22.2788H22.3486H22.4183H22.488H22.5577H22.6275H22.6972H22.7669H22.8367H22.9065H22.9762H23.046H23.1158H23.1856H23.2555H23.3253H23.3952H23.465H23.5349H23.6048H23.6747H23.7447H23.8146H23.8846H23.9546H24.0246H24.0947H24.1647H24.2348H24.3049H24.3751H24.4452H24.5154H24.5857H24.6559H24.7262H24.7965H24.8668H24.9372H25.0076H25.078H25.1485H25.219H25.2896H25.3601H25.4308H25.5014H25.5721H25.6428H25.7136H25.7844H25.8553H25.9261H25.9971H26.0681H26.1391H26.2102H26.2813H26.3524H26.4237H26.4949H26.5662H26.6376H26.709H26.7805H26.852H26.9235H26.9952H27.0668H27.1386H27.2104H27.2822H27.3541H27.4261H27.4981H27.5702H27.6423H27.7145H27.7868H27.8591H27.9315H28.004H28.0765H28.1491H28.2217H28.2945H28.3673H28.4401H28.5131H28.5861H28.6591H28.7323H28.8055H28.8788H28.9522H29.0256H29.0991H29.1727H29.2464H29.3202H29.394H29.4679H29.5419H29.616H29.6902H29.7644H29.8387H29.9131H29.9876H30.0622H30.1369H30.2117H30.2865H30.3614H30.4365H30.5116H30.5868H30.6621H30.7375H30.813H30.8886H30.9642H31.04H31.1159H31.1919H31.2679H31.3441H31.4204H31.4967H31.5732H31.6498H31.7265H31.8033H31.8801H31.9571H32.0342H32.1114H32.1887H32.2662H32.3437H32.4213H32.4991H32.577H32.6549H32.733H32.8112H32.8896H32.968H33.0465H33.1252H33.204H33.2829H33.3619H33.4411H33.5203H33.5997H33.6792H33.7589H33.8386H33.9185H33.9985H34.0787H34.1589H34.2393H34.3198H34.4005H34.4813H34.5622H34.6432H34.7244H34.8057H34.8871H34.9687H35.0504H35.1323H35.2142H35.2964H35.3786H35.461H35.5436H35.6263H35.7091H35.792H35.8752H35.9584H36.0418H36.1254H36.209H36.2929H36.3769H36.461H36.5453H36.6297H36.7143H36.799H36.8839H36.969H37.0542H37.1395H37.225H37.3107H37.3965H37.4825H37.5686H37.6549H37.7414H37.828H37.9148H38.0018H38.0889H38.1761H38.2636H38.3512H38.4389H38.5269H38.615H38.7033H38.7917H38.8803H38.9691H39.0581H39.1472H39.2365H39.326H39.4156H39.5054H39.5954H39.6856H39.776H39.8665H39.9572H40.0481H40.1392H40.2305H40.3219H40.4135H40.5053H40.5973H40.6895H40.7819H40.8745H40.9672H41.0601H41.1532H41.2466H41.3401H41.4338H41.5276H41.6217H41.716H41.8105H41.9051H42C42.5523 28 43 27.5523 43 27C43 26.4477 42.5523 26 42 26H41.9051H41.8105H41.716H41.6217H41.5276H41.4338H41.3401H41.2466H41.1532H41.0601H40.9672H40.8745H40.7819H40.6895H40.5973H40.5053H40.4135H40.3219H40.2305H40.1392H40.0481H39.9572H39.8665H39.776H39.6856H39.5954H39.5054H39.4156H39.326H39.2365H39.1472H39.0581H38.9691H38.8803H38.7917H38.7033H38.615H38.5269H38.4389H38.3512H38.2636H38.1761H38.0889H38.0018H37.9148H37.828H37.7414H37.6549H37.5686H37.4825H37.3965H37.3107H37.225H37.1395H37.0542H36.969H36.8839H36.799H36.7143H36.6297H36.5453H36.461H36.3769H36.2929H36.209H36.1254H36.0418H35.9584H35.8752H35.792H35.7091H35.6263H35.5436H35.461H35.3786H35.2964H35.2142H35.1323H35.0504H34.9687H34.8871H34.8057H34.7244H34.6432H34.5622H34.4813H34.4005H34.3198H34.2393H34.1589H34.0787H33.9985H33.9185H33.8386H33.7589H33.6792H33.5997H33.5203H33.4411H33.3619H33.2829H33.204H33.1252H33.0465H32.968H32.8896H32.8112H32.733H32.6549H32.577H32.4991H32.4213H32.3437H32.2662H32.1887H32.1114H32.0342H31.9571H31.8801H31.8033H31.7265H31.6498H31.5732H31.4967H31.4204H31.3441H31.2679H31.1919H31.1159H31.04H30.9642H30.8886H30.813H30.7375H30.6621H30.5868H30.5116H30.4365H30.3614H30.2865H30.2117H30.1369H30.0622H29.9876H29.9131H29.8387H29.7644H29.6902H29.616H29.5419H29.4679H29.394H29.3202H29.2464H29.1727H29.0991H29.0256H28.9522H28.8788H28.8055H28.7323H28.6591H28.5861H28.5131H28.4401H28.3673H28.2945H28.2217H28.1491H28.0765H28.004H27.9315H27.8591H27.7868H27.7145H27.6423H27.5702H27.4981H27.4261H27.3541H27.2822H27.2104H27.1386H27.0668H26.9952H26.9235H26.852H26.7805H26.709H26.6376H26.5662H26.4949H26.4237H26.3524H26.2813H26.2102H26.1391H26.0681H25.9971H25.9261H25.8553H25.7844H25.7136H25.6428H25.5721H25.5014H25.4308H25.3601H25.2896H25.219H25.1485H25.078H25.0076H24.9372H24.8668H24.7965H24.7262H24.6559H24.5857H24.5154H24.4452H24.3751H24.3049H24.2348H24.1647H24.0947H24.0246H23.9546H23.8846H23.8146H23.7447H23.6747H23.6048H23.5349H23.465H23.3952H23.3253H23.2555H23.1856H23.1158H23.046H22.9762H22.9065H22.8367H22.7669H22.6972H22.6275H22.5577H22.488H22.4183H22.3486H22.2788H22.2091H22.1394H22.0697H22H21.9303H21.8606H21.7909H21.7212H21.6514H21.5817H21.512H21.4423H21.3725H21.3028H21.2331H21.1633H21.0935H21.0238H20.954H20.8842H20.8144H20.7445H20.6747H20.6048H20.535H20.4651H20.3952H20.3253H20.2553H20.1854H20.1154H20.0454H19.9754H19.9053H19.8353H19.7652H19.6951H19.6249H19.5548H19.4846H19.4143H19.3441H19.2738H19.2035H19.1332H19.0628H18.9924H18.922H18.8515H18.781H18.7104H18.6399H18.5692H18.4986H18.4279H18.3572H18.2864H18.2156H18.1447H18.0739H18.0029H17.9319H17.8609H17.7898H17.7187H17.6476H17.5763H17.5051H17.4338H17.3624H17.291H17.2195H17.148H17.0765H17.0048H16.9332H16.8614H16.7896H16.7178H16.6459H16.5739H16.5019H16.4298H16.3577H16.2855H16.2132H16.1409H16.0685H15.996H15.9235H15.8509H15.7783H15.7055H15.6327H15.5599H15.4869H15.4139H15.3409H15.2677H15.1945H15.1212H15.0478H14.9744H14.9009H14.8273H14.7536H14.6798H14.606H14.5321H14.4581H14.384H14.3098H14.2356H14.1613H14.0869H14.0124H13.9378H13.8631H13.7883H13.7135H13.6386H13.5635H13.4884H13.4132H13.3379H13.2625H13.187H13.1114H13.0358H12.96H12.8841H12.8081H12.7321H12.6559H12.5796H12.5033H12.4268H12.3502H12.2735H12.1967H12.1199H12.0429H11.9658H11.8886H11.8112H11.7338H11.6563H11.5787H11.5009H11.423H11.3451H11.267H11.1888H11.1104H11.032H10.9535H10.8748H10.796H10.7171H10.6381H10.5589H10.4797H10.4003H10.3208H10.2411H10.1614H10.0815H10.0015H9.92134H9.84108H9.76069H9.68017H9.59953H9.51875H9.43784H9.3568H9.27563H9.19432H9.11288H9.0313H8.94959H8.86774H8.78576H8.70363H8.62137H8.53897H8.45643H8.37375H8.29092H8.20796H8.12485H8.04159H7.95819H7.87465H7.79096H7.70712H7.62313H7.539H7.45471H7.37028H7.28569H7.20095H7.11606H7.03102H6.94582H6.86047H6.77496H6.68929H6.60347H6.51749H6.43135H6.34505H6.25859H6.17197H6.08519H5.99825H5.91114H5.82387H5.73643H5.64883H5.56106H5.47312H5.38502H5.29674H5.2083H5.11969H5.0309H4.94195H4.85282H4.76352H4.67404H4.58439H4.49456H4.40456H4.31438H4.22402H4.13348H4.04277H3.95187H3.86079H3.76953H3.67809H3.58646H3.49465H3.40265H3.31047H3.21811H3.12555H3.03281H2.93987H2.84675H2.75344H2.65994H2.56624H2.47236H2.37827H2.284H2.18953H2.09486H2Z" fill="#1E1D1D"/>
</g>
</svg>
