<svg width="59" height="88" viewBox="0 0 59 88" fill="none" xmlns="http://www.w3.org/2000/svg">
<mask id="mask0_370_3521" style="mask-type:luminance" maskUnits="userSpaceOnUse" x="1" y="14" width="56" height="73">
<path d="M57 14C57 17.8192 57 21.6401 57 25.4593C47.2607 28.9394 41.4641 35.27 34.2491 42.7068C40.1873 48.381 52.3077 61.3998 52.3077 61.3998C52.0588 67.3287 51.9453 72.7544 51.9453 72.7544C51.9453 72.7544 38.5884 83.3699 33.7265 87C23.7244 74.5672 12.3957 62.6688 1 51.5111C1.3515 51.983 1.14309 51.4454 1.49459 51.9158C1.95184 46.0557 2.40755 40.1955 2.8648 34.3354L57 14Z" fill="white"/>
</mask>
<g mask="url(#mask0_370_3521)">
<mask id="mask1_370_3521" style="mask-type:luminance" maskUnits="userSpaceOnUse" x="-72" y="-264" width="202" height="360">
<path d="M-72 -264H130V96H-72V-264Z" fill="white"/>
</mask>
<g mask="url(#mask1_370_3521)">
<path d="M2.96115 111.994C3.16648 111.994 3.33603 111.833 3.35003 111.629L7.51572 45.4835L5.35976 98.8018C5.35199 99.017 5.51843 99.1978 5.73309 99.2072C5.93376 99.201 6.12819 99.0482 6.13753 98.833L8.99658 28.4701L8.73059 95.0318C8.73059 95.2376 8.88925 95.4075 9.09302 95.4216C9.30768 95.459 9.47724 95.289 9.50523 95.0848L14.0458 61.2699L11.179 94.2647C11.1603 94.4752 11.3128 94.6623 11.5227 94.6857C11.7219 94.7122 11.9225 94.5625 11.9505 94.352L22.8376 15.7318L19.6939 84.7414C19.6846 84.9581 19.8495 85.139 20.0641 85.1499C20.313 85.1577 20.4608 84.9909 20.4701 84.7788L23.9996 7.33579C24.0089 7.12687 23.8534 6.94915 23.6465 6.92888C23.4349 6.90705 23.2545 7.05672 23.2249 7.26409L13.2727 79.1285L16.2562 44.7881C16.2749 44.5777 16.1224 44.3906 15.9109 44.3672C15.7024 44.3485 15.5111 44.4919 15.4831 44.7024L9.53013 89.0368L9.85834 6.71995C9.85834 6.50634 9.69035 6.33327 9.47724 6.32859C9.29369 6.32703 9.08836 6.48917 9.08058 6.70277L8.91103 10.9031L3.11826 102.896L0.422535 0.996321C0.416311 0.785835 0.243649 0.61743 0.0336533 0.61743C-0.177898 0.61743 -0.349005 0.785799 -0.355227 0.997843L-0.723886 17.0664C-0.92766 14.1259 -1.16099 11.1869 -1.42232 8.25569C-1.44098 8.053 -1.61831 7.90956 -1.81742 7.90021C-2.02119 7.90332 -2.18763 8.06395 -2.19852 8.2682L-6.84487 92.5917L-7.94773 6.0963C-7.95085 5.88581 -8.11884 5.71585 -8.32883 5.71117C-8.55438 5.72988 -8.71305 5.87019 -8.72394 6.07912L-12.9596 85.4352L-13.7047 6.42994C-13.7078 6.21789 -13.8758 6.04641 -14.0874 6.04329C-14.3129 6.03082 -14.4731 6.20386 -14.4825 6.4159L-18.0026 85.8047L-18.0928 -3.14479C-18.0928 -3.35528 -18.2609 -3.52834 -18.4708 -3.53458C-18.4755 -3.53458 -18.4786 -3.53458 -18.4817 -3.53458C-18.6871 -3.53458 -18.8582 -3.37244 -18.8691 -3.16663L-23.4687 80.9698L-21.9381 8.5083C-21.9334 8.29625 -22.0999 8.12006 -22.3114 8.11071C-22.509 8.12006 -22.7019 8.26508 -22.7159 8.47556L-26.5424 69.6426C-26.2298 49.2941 -26.7836 28.9035 -28.2022 8.68916C-28.2162 8.48491 -28.3857 8.32744 -28.5895 8.32744H-28.5926C-28.798 8.329 -28.9675 8.49114 -28.9784 8.69539L-33.0632 85.4789L-33.4272 8.63772C-33.4272 8.42567 -33.5968 8.25413 -33.8083 8.24945C-33.8114 8.24945 -33.8145 8.24945 -33.8161 8.24945C-34.023 8.24945 -34.1956 8.41161 -34.2034 8.62054L-36.5522 58.8299C-36.4854 38.1618 -37.1807 17.4671 -38.6366 -3.04815C-38.6506 -3.2524 -38.8218 -3.40987 -39.024 -3.40987C-39.0271 -3.40987 -39.0286 -3.40987 -39.0302 -3.40987C-39.2371 -3.40675 -39.4051 -3.24149 -39.4129 -3.03412L-42.597 82.7722L-43.5739 8.89185C-43.577 8.69072 -43.7294 8.52701 -43.9285 8.5083C-44.1354 8.49426 -44.3081 8.62677 -44.3454 8.82167C-48.3929 29.8219 -50.7448 51.1729 -51.3779 72.5629L-54.0581 -8.82167C-54.0643 -9.02748 -54.2308 -9.19275 -54.4361 -9.19899C-54.6212 -9.18652 -54.8172 -9.04932 -54.8343 -8.84351C-56.0212 4.32196 -56.9094 17.5576 -57.4958 30.8228C-58.0776 20.1161 -58.874 9.4313 -59.8867 -1.19742C-59.9069 -1.40011 -60.0749 -1.54202 -60.2864 -1.54981C-60.4917 -1.54358 -60.6566 -1.3783 -60.6629 -1.17249L-62.7815 63.7381C-63.0677 41.3159 -64.3152 18.8735 -66.5194 -3.34749C-66.5396 -3.54706 -66.7061 -3.69831 -66.9052 -3.69831C-66.9067 -3.69831 -66.9083 -3.69831 -66.9083 -3.69831C-67.1105 -3.69675 -67.2769 -3.54239 -67.2925 -3.34126C-68.4918 10.992 -69.2634 25.4251 -69.6025 39.8737L-70.4409 8.26663C-70.4471 8.05458 -70.6198 7.88774 -70.8298 7.88774C-71.0164 7.91892 -71.2171 8.05926 -71.2186 8.27286L-71.8144 69.4586L-73.7168 0.714115C-73.723 0.50363 -73.8957 0.335222 -74.1057 0.335222C-74.3157 0.335222 -74.4883 0.503593 -74.4946 0.715637L-76.0719 65.938L-77.1778 12.3344C-77.1825 12.1208 -77.3552 11.9524 -77.5667 11.9524C-77.7783 11.9524 -77.9509 12.1224 -77.9556 12.3344L-79.1549 79.5089L-82.0731 -3.3709C-82.0809 -3.58138 -82.252 -3.74665 -82.462 -3.74665C-82.672 -3.74509 -82.8462 -3.57671 -82.8508 -3.36467L-84.2944 62.338C-84.8372 37.641 -86.4659 12.8895 -89.16 -11.5626C-89.1818 -11.7669 -89.3514 -11.9462 -89.566 -11.9088C-89.7714 -11.8994 -89.9331 -11.7295 -89.9363 -11.5237L-90.8058 72.6798L-93.1702 -0.0296326C-93.1764 -0.240118 -93.3257 -0.419426 -93.5622 -0.406954C-93.7722 -0.405394 -93.9448 -0.236965 -93.9479 -0.0249214L-94.9808 49.0774C-95.6186 29.7907 -97.2877 10.5118 -99.9771 -8.53478C-100.007 -8.73591 -100.2 -8.88559 -100.386 -8.86844C-100.588 -8.85597 -100.747 -8.68758 -100.75 -8.48489L-101.903 75.8277L-108.629 -18.0004C-108.645 -18.2078 -108.771 -18.3606 -109.027 -18.3621C-109.234 -18.3559 -109.402 -18.189 -109.407 -17.9817L-110.604 34.5243C-111.208 20.2035 -112.407 5.90919 -114.198 -8.26972C-114.224 -8.47397 -114.383 -8.63301 -114.608 -8.60962C-114.814 -8.59715 -114.972 -8.42564 -114.972 -8.21983L-114.963 52.7679L-118.183 -20.7383C-118.192 -20.9488 -118.328 -21.1405 -118.577 -21.1109C-118.787 -21.1078 -118.958 -20.9394 -118.961 -20.7289L-120.61 68.1364C-121.37 44.3064 -123.511 20.4654 -127.009 -3.04659C-127.039 -3.24615 -127.205 -3.38025 -127.42 -3.37713C-127.622 -3.3631 -127.781 -3.19783 -127.782 -2.99358L-128.989 74.2233L-132.794 -20.4654C-132.802 -20.6759 -133.001 -20.8225 -133.188 -20.8396C-133.398 -20.8381 -133.569 -20.6665 -133.572 -20.4561L-134.836 57.4953L-135.428 -9.89903C-135.429 -10.1142 -135.603 -10.2857 -135.816 -10.2857C-136.031 -10.2857 -136.204 -10.1126 -136.205 -9.89903L-136.487 28.6619C-137.146 18.1922 -138.106 7.74899 -139.366 -2.63496C-139.391 -2.83609 -139.582 -2.98421 -139.767 -2.97797C-139.97 -2.97018 -140.131 -2.80648 -140.141 -2.60379L-143.176 72.237L-144.702 -7.42779C-144.706 -7.63984 -144.882 -7.84876 -145.09 -7.80978C-145.3 -7.80978 -145.473 -7.64295 -145.479 -7.43091L-147.631 64.4786L-148.662 -0.297802C-148.667 -0.509846 -148.838 -0.681356 -149.049 -0.681356H-149.051C-149.262 -0.681356 -149.435 -0.511415 -149.44 -0.299372L-150.858 69.4134C-151.54 46.352 -153.459 23.2672 -156.598 0.49267C-156.626 0.29154 -156.774 0.129395 -157.006 0.157459C-157.208 0.168373 -157.367 0.33366 -157.373 0.53635L-158.571 47.236C-159.42 34.2795 -161.189 21.3822 -163.867 8.63615C-163.908 8.44593 -164.093 8.30402 -164.278 8.32896C-164.472 8.34455 -164.626 8.50049 -164.636 8.69539L-168.086 73.4173L-172.222 -23.6274C-172.231 -23.8363 -172.404 -24 -172.611 -24C-172.615 -24 -172.622 -24 -172.628 -24C-172.843 -23.9906 -173.009 -23.8098 -173 -23.5931L-168.518 81.5529C-168.509 81.7603 -168.339 81.924 -168.131 81.9255C-168.129 81.9255 -168.129 81.9255 -168.129 81.9255C-167.922 81.9255 -167.751 81.7634 -167.742 81.5576L-164.021 11.7685C-160.979 27.0747 -159.252 42.5882 -158.851 58.1532L-159.574 86.3676C-159.579 86.5796 -159.415 86.7574 -159.205 86.7683C-158.98 86.7745 -158.815 86.6186 -158.798 86.4097C-158.071 76.9955 -157.83 67.5658 -158.073 58.1547L-156.721 5.44609C-152.82 35.4691 -151.033 65.9879 -151.406 96.2417C-151.407 96.4568 -151.238 96.633 -151.023 96.6361C-151.022 96.6361 -151.02 96.6361 -151.017 96.6361C-150.805 96.6361 -150.633 96.4677 -150.628 96.2541L-149.101 21.1624L-148.141 81.4625C-148.138 81.6745 -147.967 81.8445 -147.755 81.846C-147.753 81.846 -147.753 81.846 -147.752 81.846C-147.542 81.846 -147.369 81.6792 -147.363 81.4687L-145.178 8.43345L-143.706 85.2793C-143.703 85.4898 -143.532 85.6597 -143.322 85.6613C-143.32 85.6613 -143.319 85.6613 -143.317 85.6613C-143.109 85.6613 -142.938 85.4976 -142.928 85.2871L-139.567 2.37928C-138.091 15.5525 -137.098 28.8131 -136.586 42.0924L-136.95 91.9291C-136.952 92.1411 -136.786 92.3157 -136.574 92.322C-136.333 92.3235 -136.184 92.1645 -136.174 91.954C-135.827 85.4352 -135.597 78.9008 -135.487 72.3617L-135.344 88.6362C-135.342 88.8498 -135.169 89.0212 -134.956 89.0228C-134.743 89.0228 -134.569 88.8529 -134.564 88.6392L-133.02 -6.64822L-129.209 88.1824C-129.201 88.3945 -129.019 88.5473 -128.815 88.5566C-128.605 88.5535 -128.434 88.3851 -128.431 88.1731L-127.081 1.89123C-122.677 33.2005 -120.678 65.0493 -121.138 96.6408C-121.142 96.856 -120.97 97.0337 -120.756 97.0369C-120.754 97.0369 -120.751 97.0369 -120.75 97.0369C-120.538 97.0369 -120.364 96.8669 -120.361 96.6549L-118.415 -8.23387L-114.96 70.6248C-114.951 70.8369 -114.739 70.9772 -114.563 70.9975C-114.352 70.9928 -114.182 70.8197 -114.182 70.6077L-114.195 -1.68699C-112.247 15.4917 -111.169 32.817 -110.962 50.1376L-111.777 85.8998C-111.782 86.1134 -111.616 86.2896 -111.404 86.299C-111.191 86.3021 -111.012 86.1431 -111 85.9326C-110.312 74.0363 -110.04 62.0885 -110.183 50.1438L-108.817 -9.72129L-102.027 84.9877C-102.012 85.1982 -101.824 85.3666 -101.628 85.3495C-101.419 85.3432 -101.253 85.1748 -101.25 84.9659L-100.044 -3.25708C-96.6546 22.5687 -95.1364 48.7827 -95.5206 74.833L-95.6606 81.5046C-95.6652 81.7198 -95.4957 81.8975 -95.281 81.9022C-95.0881 81.9069 -94.889 81.7385 -94.8828 81.5233V81.5186C-94.8222 79.2968 -94.7755 77.0735 -94.7428 74.8486L-93.4751 14.5235L-90.9925 90.8548C-90.9862 91.0669 -90.8136 91.2322 -90.6036 91.2322C-90.602 91.2322 -90.6005 91.2322 -90.5989 91.2322C-90.3874 91.229 -90.2163 91.0591 -90.2147 90.847L-89.2269 -4.81153C-85.965 27.1464 -84.523 59.5564 -84.9384 91.6375C-84.9415 91.8527 -84.7704 92.0273 -84.5557 92.032C-84.3286 92.032 -84.1653 91.8651 -84.1606 91.6515L-82.3717 10.2592L-79.4163 94.1976C-79.4085 94.4081 -79.2358 94.5734 -79.0274 94.5734C-79.0258 94.5734 -79.0243 94.5734 -79.0243 94.5734C-78.8127 94.5718 -78.6416 94.4019 -78.6385 94.1914L-77.5387 32.5769L-76.4919 83.3194C-76.4872 83.5315 -76.3145 83.7014 -76.103 83.7014C-75.8914 83.7014 -75.7188 83.5331 -75.7141 83.321L-74.0808 15.7412L-72.0182 90.2732C-72.0119 90.4853 -71.8393 90.6521 -71.6293 90.6521H-71.6262C-71.4146 90.6506 -71.2435 90.479 -71.2404 90.2654L-70.6509 29.7112L-69.7813 62.4128C-69.7129 71.5588 -69.4702 80.6923 -69.0533 89.7931C-69.044 90.0067 -68.9149 90.1797 -68.6505 90.1641C-68.4374 90.1563 -68.2709 89.9786 -68.2756 89.7634L-69.002 62.3988C-69.156 41.9521 -68.4436 21.4383 -66.8694 1.11637C-64.0306 31.4949 -62.9775 62.2553 -63.7257 92.7897L-64.1348 105.299C-64.141 105.514 -63.9746 105.693 -63.7599 105.701C-63.5359 105.693 -63.3663 105.54 -63.357 105.327C-63.1875 101.161 -63.0521 96.9885 -62.9495 92.8131L-60.0889 5.14519C-59.0887 16.619 -58.3389 28.1505 -57.8411 39.6991C-58.5722 61.1234 -58.5178 82.5944 -57.6747 103.911C-57.6669 104.12 -57.4942 104.285 -57.2858 104.285C-57.0774 104.285 -56.9047 104.119 -56.8969 103.911C-56.0849 82.5866 -56.1409 61.1093 -57.0634 39.696C-56.5843 25.673 -55.7707 11.6671 -54.6197 -2.26387L-51.3406 97.3206C-51.3344 97.5374 -51.1835 97.6948 -50.9393 97.6979C-50.7246 97.6901 -50.5566 97.5108 -50.5628 97.2957L-50.5644 97.2863C-51.4853 69.0283 -49.3791 40.6283 -44.3003 12.8115L-43.171 98.2421C-43.1679 98.4541 -42.9983 98.6241 -42.7868 98.6272C-42.5737 98.6537 -42.401 98.4635 -42.3932 98.253L-38.9135 4.51373C-37.148 33.0633 -36.8525 61.9139 -38.0331 90.5024L-38.4562 99.572C-38.4671 99.7872 -38.3007 99.9696 -38.0876 99.9805C-37.8713 99.9727 -37.6909 99.8246 -37.68 99.611C-37.5213 96.5894 -37.3798 93.5646 -37.2553 90.5368L-34.1303 23.7506L-33.7741 98.9234C-33.7725 99.1355 -33.6045 99.307 -33.3945 99.3116C-33.1597 99.3116 -33.0072 99.1526 -32.9979 98.9437L-28.5475 15.289C-26.8598 42.9983 -26.796 70.9928 -28.3577 98.7161L-28.9069 107.493C-28.9209 107.708 -28.7575 107.892 -28.5444 107.906C-28.3251 107.942 -28.1462 107.759 -28.1306 107.546C-27.93 104.621 -27.7464 101.694 -27.5816 98.7628L-23.1125 27.3054L-24.7349 104.178C-24.7396 104.39 -24.5732 104.568 -24.3601 104.575C-24.1298 104.56 -23.9696 104.418 -23.9572 104.207L-18.8535 10.847L-18.7602 102.977C-18.7602 103.189 -18.5906 103.362 -18.3791 103.367C-18.1675 103.348 -17.9917 103.206 -17.9824 102.994L-14.344 20.9175L-13.6192 97.8414C-13.6176 98.0534 -13.4496 98.2234 -13.2381 98.2281C-13.0343 98.2125 -12.8523 98.069 -12.8414 97.8601L-8.57306 17.8803L-7.47486 104.076C-7.47174 104.287 -7.30374 104.457 -7.09375 104.462C-6.8822 104.449 -6.70798 104.303 -6.69709 104.094L-1.73031 13.9497C-1.40831 18.1657 -1.14387 22.3894 -0.94165 26.6162L-2.41162 90.7551C-2.41629 90.9655 -2.25452 91.1401 -2.04608 91.1542C-1.83298 91.162 -1.65565 91.0092 -1.63542 90.8003C0.374311 69.521 0.864304 48 -0.163897 26.6069L0.061655 16.7749L2.57071 111.621C2.57538 111.83 2.74493 111.995 2.95337 112C2.95649 111.994 2.95804 111.994 2.96115 111.994ZM-57.3994 52.2081C-57.0416 65.2957 -57.0074 78.391 -57.2983 91.4442C-57.6265 78.3925 -57.6591 65.3019 -57.3994 52.2081ZM-0.484337 40.6252C-0.279007 52.6868 -0.554335 64.764 -1.31343 76.7913L-0.484337 40.6252ZM-135.779 38.4907L-135.729 44.1661C-135.754 43.4707 -135.779 42.7768 -135.806 42.0815L-135.779 38.4907Z" fill="black"/>
<path d="M7.96165 216C8.16698 216 8.33652 215.839 8.35052 215.635L12.5161 149.491L10.3602 202.808C10.3524 203.023 10.5189 203.204 10.7335 203.214C10.942 203.234 11.1286 203.055 11.138 202.839L13.9969 132.476L13.731 199.037C13.731 199.243 13.8896 199.413 14.0934 199.427C14.3111 199.47 14.4776 199.294 14.5056 199.09L19.046 165.276L16.1793 198.268C16.1606 198.479 16.3131 198.666 16.523 198.689C16.719 198.716 16.9228 198.566 16.9508 198.355L27.8377 119.738L24.694 188.747C24.6847 188.963 24.8496 189.144 25.0642 189.155C25.2851 189.147 25.4609 188.998 25.4702 188.784L28.9996 111.343C29.0089 111.134 28.8534 110.956 28.6465 110.936C28.4412 110.912 28.2545 111.063 28.225 111.271L18.273 183.132L21.2564 148.793C21.2751 148.582 21.1226 148.395 20.9111 148.372C20.6995 148.333 20.5113 148.498 20.4833 148.707L14.5305 193.04L14.8587 110.727C14.8587 110.513 14.6907 110.34 14.4776 110.335C14.476 110.335 14.4714 110.335 14.4698 110.335C14.2614 110.335 14.0903 110.499 14.0809 110.71L13.9114 114.91L8.11875 206.901L5.4231 105.002C5.41688 104.79 5.24422 104.623 5.03423 104.623C4.82268 104.623 4.65158 104.791 4.64536 105.003L4.2767 121.071C4.07294 118.133 3.83961 115.194 3.57829 112.262C3.55963 112.06 3.34185 111.91 3.18475 111.907C2.98098 111.91 2.81455 112.071 2.80366 112.275L-1.84257 196.597L-2.94543 110.103C-2.94854 109.893 -3.11652 109.723 -3.32651 109.718C-3.53183 109.72 -3.71071 109.879 -3.7216 110.086L-7.9572 189.44L-8.70227 110.437C-8.70383 110.225 -8.87338 110.053 -9.08493 110.05C-9.27158 110.048 -9.47068 110.212 -9.48001 110.423L-13.0001 189.81L-13.0903 100.862C-13.0903 100.65 -13.2583 100.479 -13.4683 100.472C-13.7156 100.471 -13.854 100.631 -13.8665 100.84L-18.4661 184.975L-16.9355 112.517C-16.9308 112.305 -17.0972 112.128 -17.3088 112.119C-17.5281 112.108 -17.7008 112.273 -17.7132 112.484L-21.5381 173.65C-21.2255 153.302 -21.7792 132.911 -23.1978 112.697C-23.2118 112.493 -23.3814 112.336 -23.5852 112.336C-23.7718 112.295 -23.9632 112.496 -23.974 112.704L-28.0587 189.486L-28.4227 112.646C-28.4243 112.434 -28.5923 112.262 -28.8038 112.258C-29.0465 112.287 -29.1911 112.418 -29.2005 112.629L-31.5508 162.85C-31.4839 142.177 -32.1777 121.48 -33.6336 100.962C-33.6492 100.756 -33.8436 100.63 -34.0287 100.6C-34.2356 100.603 -34.4036 100.769 -34.4114 100.974L-37.5954 186.777L-38.5723 112.9C-38.5754 112.699 -38.7278 112.535 -38.9269 112.517C-39.1229 112.499 -39.3049 112.635 -39.3438 112.83C-43.3912 133.83 -45.7431 155.179 -46.3762 176.568L-49.0563 95.1885C-49.0625 94.9812 -49.2289 94.8175 -49.4342 94.8112C-49.6287 94.8237 -49.8138 94.9625 -49.8324 95.1667C-51.0193 108.332 -51.9075 121.567 -52.4939 134.831C-53.0756 124.126 -53.872 113.441 -54.8847 102.813C-54.9033 102.608 -55.0993 102.449 -55.2844 102.459C-55.4897 102.465 -55.6546 102.63 -55.6609 102.836L-57.7794 167.753C-58.0656 145.325 -59.3131 122.883 -61.5173 100.663C-61.5375 100.463 -61.7039 100.312 -61.903 100.312H-61.9061C-62.1083 100.313 -62.2748 100.468 -62.2919 100.669C-63.4912 115 -64.2627 129.433 -64.6018 143.883L-65.4417 112.276C-65.448 112.064 -65.6206 111.898 -65.8306 111.898C-65.8306 111.898 -65.8322 111.898 -65.8337 111.898C-66.0453 111.899 -66.2179 112.071 -66.2195 112.283L-66.8168 173.467L-68.7176 104.724C-68.7238 104.512 -68.8965 104.345 -69.1065 104.345C-69.3165 104.345 -69.4891 104.514 -69.4953 104.726L-71.0726 169.947L-72.1786 116.344C-72.1832 116.131 -72.3559 115.962 -72.5674 115.962C-72.779 115.962 -72.9532 116.132 -72.9563 116.344L-74.1556 183.517L-77.0752 100.639C-77.083 100.429 -77.2541 100.263 -77.4641 100.263C-77.4657 100.263 -77.4657 100.263 -77.4672 100.263C-77.6772 100.265 -77.8499 100.433 -77.853 100.644L-79.2965 166.347C-79.8393 141.65 -81.4679 116.899 -84.162 92.4476C-84.1854 92.2434 -84.358 92.1015 -84.568 92.0999C-84.7733 92.1108 -84.9351 92.2792 -84.9382 92.485L-85.8077 176.687L-88.1736 103.98C-88.1799 103.77 -88.3525 103.603 -88.5625 103.603H-88.5656C-88.7756 103.605 -88.9483 103.773 -88.9514 103.985L-89.9842 153.085C-90.622 133.799 -92.291 114.52 -94.9804 95.4738C-95.01 95.2711 -95.2013 95.1168 -95.3895 95.1402C-95.5918 95.1527 -95.7504 95.3195 -95.7535 95.5222L-96.9061 179.833L-103.632 86.0069C-103.648 85.798 -103.808 85.6545 -104.03 85.6436C-104.237 85.6483 -104.405 85.8166 -104.41 86.024L-105.608 138.526C-106.211 124.207 -107.41 109.914 -109.201 95.7373C-109.227 95.5331 -109.389 95.3507 -109.611 95.3975C-109.817 95.4099 -109.975 95.5799 -109.975 95.7857L-109.966 156.774L-113.186 83.2675C-113.195 83.057 -113.397 82.8762 -113.579 82.8949C-113.789 82.898 -113.96 83.0664 -113.964 83.2768L-115.612 172.136C-116.373 148.308 -118.513 124.467 -122.012 100.959C-122.041 100.759 -122.208 100.606 -122.422 100.628C-122.625 100.641 -122.782 100.808 -122.785 101.01L-123.992 178.226L-127.797 83.5388C-127.804 83.3267 -127.966 83.1911 -128.19 83.1646C-128.4 83.1677 -128.571 83.3361 -128.574 83.5482L-129.839 161.496L-130.43 94.1049C-130.432 93.8898 -130.606 93.7183 -130.819 93.7183C-131.033 93.7183 -131.206 93.8913 -131.208 94.1049L-131.489 132.667C-132.149 122.196 -133.11 111.753 -134.37 101.367C-134.395 101.166 -134.575 101.043 -134.771 101.024C-134.974 101.034 -135.135 101.194 -135.145 101.399L-138.178 176.236L-139.704 96.5746C-139.707 96.3625 -139.88 96.1941 -140.09 96.1926H-140.093C-140.303 96.1926 -140.475 96.361 -140.482 96.5699L-142.633 168.478L-143.664 103.703C-143.667 103.489 -143.84 103.319 -144.053 103.319C-144.264 103.319 -144.437 103.488 -144.442 103.701L-145.86 173.413C-146.542 150.352 -148.461 127.267 -151.599 104.493C-151.627 104.292 -151.774 104.146 -152.006 104.157C-152.208 104.169 -152.367 104.333 -152.373 104.535L-153.571 151.236C-154.42 138.279 -156.189 125.382 -158.867 112.637C-158.908 112.446 -159.09 112.303 -159.278 112.329C-159.472 112.345 -159.626 112.501 -159.636 112.696L-163.086 177.418L-167.222 80.3738C-167.231 80.1586 -167.37 79.984 -167.628 80.0012C-167.843 80.0105 -168.009 80.1929 -168 80.4081L-163.518 185.553C-163.509 185.761 -163.339 185.925 -163.133 185.926C-163.131 185.926 -163.131 185.926 -163.129 185.926C-162.923 185.926 -162.751 185.764 -162.742 185.558L-159.021 115.77C-155.979 131.076 -154.252 146.59 -153.851 162.154L-154.574 190.368C-154.58 190.58 -154.416 190.758 -154.206 190.769C-153.978 190.764 -153.815 190.619 -153.798 190.41C-153.072 180.996 -152.831 171.567 -153.073 162.156L-151.721 109.447C-147.82 139.471 -146.033 169.989 -146.408 200.242C-146.409 200.457 -146.24 200.633 -146.025 200.636C-146.024 200.636 -146.021 200.636 -146.019 200.636C-145.808 200.636 -145.635 200.468 -145.63 200.254L-144.103 125.163L-143.143 185.463C-143.14 185.675 -142.969 185.845 -142.757 185.847H-142.754C-142.544 185.847 -142.371 185.68 -142.365 185.469L-140.18 112.435L-138.708 189.28C-138.705 189.49 -138.534 189.66 -138.324 189.662C-138.322 189.662 -138.323 189.662 -138.319 189.662C-138.111 189.662 -137.94 189.498 -137.931 189.288L-134.571 106.38C-133.095 119.554 -132.101 132.815 -131.59 146.097L-131.954 195.929C-131.956 196.141 -131.788 196.316 -131.578 196.322C-131.34 196.335 -131.189 196.163 -131.178 195.954C-130.831 189.436 -130.601 182.901 -130.491 176.363L-130.348 192.637C-130.346 192.85 -130.173 193.022 -129.96 193.023C-129.747 193.023 -129.573 192.853 -129.57 192.64L-128.025 97.3526L-124.214 192.183C-124.206 192.395 -123.987 192.559 -123.821 192.557C-123.611 192.554 -123.44 192.386 -123.436 192.174L-122.086 105.893C-117.683 137.201 -115.684 169.049 -116.144 200.641C-116.148 200.856 -115.976 201.034 -115.762 201.037C-115.76 201.037 -115.759 201.037 -115.756 201.037C-115.544 201.037 -115.37 200.867 -115.367 200.655L-113.422 95.767L-109.968 174.626C-109.958 174.838 -109.742 174.995 -109.571 174.998C-109.359 174.994 -109.19 174.821 -109.19 174.609L-109.202 102.315C-107.256 119.491 -106.177 136.812 -105.97 154.128L-106.787 189.897C-106.791 190.111 -106.625 190.287 -106.413 190.296C-106.203 190.296 -106.021 190.14 -106.009 189.93C-105.321 178.031 -105.049 166.082 -105.192 154.133L-103.826 94.2764L-97.0368 188.985C-97.0212 189.194 -96.8486 189.369 -96.637 189.347C-96.4286 189.341 -96.2622 189.172 -96.259 188.963L-95.0535 100.742C-91.6641 126.567 -90.146 152.781 -90.5302 178.831L-90.6702 185.502C-90.6749 185.717 -90.5053 185.895 -90.2907 185.9C-90.0744 185.925 -89.8987 185.736 -89.8924 185.521V185.516C-89.8318 183.294 -89.7851 181.071 -89.7525 178.846L-88.4847 118.522L-86.0022 194.851C-85.9959 195.063 -85.8233 195.228 -85.6133 195.228C-85.6117 195.228 -85.6102 195.228 -85.6086 195.228C-85.3971 195.225 -85.226 195.055 -85.2244 194.843L-84.2367 99.1861C-80.9748 131.145 -79.5329 163.556 -79.9482 195.635C-79.9513 195.85 -79.7802 196.025 -79.5656 196.029C-79.3509 196.067 -79.1751 195.861 -79.1705 195.649L-77.3817 114.258L-74.4262 198.195C-74.4185 198.405 -74.2458 198.571 -74.0374 198.571C-73.8258 198.569 -73.6532 198.399 -73.6485 198.189L-72.5503 136.577L-71.5035 187.318C-71.4988 187.53 -71.3262 187.7 -71.1146 187.7C-70.9031 187.7 -70.7304 187.532 -70.7257 187.32L-69.0925 119.745L-67.0315 194.272C-67.0252 194.484 -66.8526 194.651 -66.6426 194.651C-66.6426 194.651 -66.641 194.651 -66.6395 194.651C-66.4279 194.649 -66.2568 194.478 -66.2537 194.266L-65.6626 133.705L-64.7931 166.412C-64.7247 175.558 -64.482 184.691 -64.0651 193.79C-64.0558 193.999 -63.8847 194.161 -63.6763 194.161C-63.6716 194.161 -63.6669 194.161 -63.6623 194.161C-63.4492 194.154 -63.2827 193.976 -63.2874 193.761L-64.0138 166.397C-64.1678 145.95 -63.4554 125.439 -61.8812 105.115C-59.0425 135.498 -57.9894 166.266 -58.7392 196.812L-59.1467 209.297C-59.1529 209.512 -58.9865 209.692 -58.7718 209.7C-58.5432 209.715 -58.3783 209.539 -58.3689 209.325C-58.1994 205.167 -58.0641 201.004 -57.9614 196.835L-55.0993 109.146C-54.0991 120.621 -53.3494 132.149 -52.8516 143.699C-53.5827 165.123 -53.5283 186.592 -52.6852 207.908C-52.6774 208.117 -52.5048 208.282 -52.2963 208.282C-52.0879 208.282 -51.9152 208.116 -51.9075 207.908C-51.0955 186.586 -51.1515 165.109 -52.0739 143.696C-51.5948 129.673 -50.7797 115.668 -49.6302 101.737L-46.3513 201.318C-46.345 201.533 -46.2113 201.717 -45.95 201.695C-45.7353 201.687 -45.5673 201.508 -45.5735 201.293V201.282C-46.4944 173.024 -44.3882 144.628 -39.3096 116.812L-38.1803 202.241C-38.1772 202.453 -38.0076 202.623 -37.7961 202.626C-37.7945 202.626 -37.793 202.626 -37.7914 202.626C-37.583 202.626 -37.4103 202.461 -37.4025 202.252L-33.9229 108.516C-32.1574 137.074 -31.8635 165.938 -33.0441 194.536L-33.4656 203.572C-33.4765 203.787 -33.3101 203.97 -33.097 203.981C-32.8932 203.97 -32.7019 203.825 -32.6894 203.611C-32.5308 200.599 -32.3908 197.588 -32.2663 194.57L-29.1398 127.752L-28.7836 202.924C-28.7821 203.136 -28.6141 203.307 -28.4041 203.312C-28.1832 203.271 -28.0168 203.153 -28.0074 202.944L-23.5572 119.291C-21.8695 147 -21.8057 174.994 -23.3658 202.716L-23.9149 211.493C-23.9289 211.708 -23.7656 211.892 -23.5525 211.906C-23.3363 211.956 -23.1543 211.759 -23.1387 211.546C-22.9381 208.621 -22.7545 205.694 -22.5897 202.763L-18.1207 131.307L-19.7431 208.176C-19.7478 208.388 -19.5813 208.566 -19.3682 208.574C-19.1505 208.56 -18.9778 208.416 -18.9654 208.206L-13.8618 114.847L-13.7685 206.977C-13.7685 207.189 -13.5989 207.362 -13.3874 207.367C-13.1712 207.367 -13.0001 207.205 -12.9908 206.995L-9.35247 124.919L-8.62762 201.842C-8.6245 202.054 -8.45807 202.224 -8.24652 202.228C-8.05675 202.224 -7.86076 202.068 -7.84987 201.86L-3.58161 121.882L-2.48344 208.077C-2.48033 208.287 -2.31234 208.457 -2.10235 208.462C-2.09924 208.462 -2.09612 208.462 -2.09457 208.462C-1.88924 208.462 -1.71814 208.299 -1.70569 208.094L3.26097 117.952C3.58295 122.166 3.84583 126.39 4.0496 130.616L2.57967 194.755C2.575 194.966 2.73677 195.141 2.94521 195.155C3.16298 195.145 3.33563 195.01 3.35585 194.801C5.36554 173.519 5.85552 151.998 4.82734 130.607L5.05289 120.774L7.56189 215.621C7.56656 215.83 7.7361 215.995 7.94454 216C7.95698 216 7.95854 216 7.96165 216ZM-52.3974 156.219C-52.0397 169.304 -52.0055 182.399 -52.2963 195.451C-52.6245 182.401 -52.6572 169.309 -52.3974 156.219ZM4.51625 144.633C4.72157 156.694 4.44625 168.771 3.68718 180.797L4.51625 144.633ZM-130.775 142.5L-130.726 148.18C-130.75 147.483 -130.775 146.789 -130.802 146.092L-130.775 142.5Z" fill="black"/>
</g>
<mask id="mask2_370_3521" style="mask-type:luminance" maskUnits="userSpaceOnUse" x="-72" y="-264" width="202" height="360">
<path d="M-72 -264H130V96H-72V-264Z" fill="white"/>
</mask>
<g mask="url(#mask2_370_3521)">
<path d="M204.963 111.995C205.169 111.995 205.338 111.835 205.352 111.63L209.518 45.4612L207.36 98.8029C207.353 99.0181 207.519 99.199 207.734 99.2083C207.944 99.2021 208.129 99.0493 208.138 98.8341L208.141 98.725L210.997 28.4535L210.731 95.0328C210.731 95.2386 210.89 95.4085 211.093 95.4226C211.302 95.46 211.478 95.29 211.506 95.0858L216.046 61.2699L213.179 94.2656C213.161 94.4761 213.313 94.6633 213.523 94.6867C213.722 94.7132 213.923 94.5635 213.951 94.353L224.838 15.7304L221.694 84.7421C221.685 84.9588 221.85 85.1397 222.064 85.1506C222.307 85.1584 222.461 84.9916 222.47 84.7795L226 7.33413C226.009 7.1252 225.853 6.94747 225.647 6.9272C225.438 6.90537 225.255 7.05505 225.225 7.26242L215.273 79.129L218.256 44.7876C218.275 44.5771 218.123 44.39 217.911 44.3667C217.698 44.3479 217.511 44.4914 217.483 44.7019L211.531 89.0377L211.859 6.71984C211.859 6.50623 211.691 6.33315 211.478 6.32847C211.476 6.32847 211.473 6.32847 211.47 6.32847C211.261 6.32847 211.09 6.49217 211.081 6.70266L210.913 10.8688L205.119 102.899L202.423 0.995989C202.417 0.785498 202.244 0.617134 202.034 0.617134C201.823 0.617134 201.652 0.785509 201.646 0.997561L201.277 17.0651C201.073 14.126 200.84 11.1869 200.578 8.25562C200.56 8.05293 200.39 7.90949 200.185 7.90013C199.981 7.90325 199.815 8.06384 199.804 8.26809L195.158 92.5942L194.055 6.09612C194.052 5.88563 193.884 5.71571 193.674 5.71103C193.672 5.71103 193.669 5.71103 193.666 5.71103C193.459 5.71103 193.288 5.87318 193.277 6.07899L189.042 85.4375L188.296 6.42982C188.295 6.21777 188.125 6.04623 187.914 6.04311C187.718 6.03064 187.528 6.20373 187.519 6.41578L183.999 85.807L183.908 -3.1452C183.908 -3.35569 183.74 -3.52876 183.53 -3.535C183.527 -3.535 183.523 -3.535 183.52 -3.535C183.314 -3.535 183.143 -3.37286 183.131 -3.16704L178.531 80.9719L180.062 8.50824C180.066 8.29619 179.9 8.12 179.688 8.11064C179.469 8.12 179.298 8.26497 179.284 8.47546L175.458 69.6522C175.772 49.2984 175.218 28.9041 173.798 8.68911C173.784 8.48485 173.614 8.32733 173.409 8.32733C173.202 8.32889 173.033 8.49109 173.022 8.69534L168.935 85.4811L168.572 8.63762C168.572 8.42557 168.402 8.25407 168.19 8.24939C167.938 8.2681 167.803 8.40844 167.794 8.62049L165.443 58.8454C165.51 38.172 164.817 17.4705 163.359 -3.04699C163.345 -3.25125 163.174 -3.40872 162.97 -3.40872C162.969 -3.40872 162.966 -3.40872 162.964 -3.40872C162.757 -3.4056 162.589 -3.24033 162.581 -3.03295L159.397 82.7759L158.42 8.89333C158.417 8.6922 158.265 8.52848 158.066 8.50977C157.868 8.49573 157.688 8.62829 157.649 8.82319C153.602 29.824 151.25 51.1757 150.617 72.5663L147.937 -8.8207C147.93 -9.02652 147.764 -9.1918 147.559 -9.19804C147.372 -9.18556 147.178 -9.04836 147.16 -8.84255C145.972 4.32176 145.085 17.5609 144.499 30.8266C143.917 20.1196 143.121 9.43597 142.108 -1.19621C142.088 -1.3989 141.901 -1.54081 141.708 -1.5486C141.503 -1.54237 141.338 -1.37708 141.332 -1.17127L139.215 63.7366C138.929 41.3138 137.681 18.8737 135.477 -3.34638C135.457 -3.54596 135.289 -3.69716 135.09 -3.69716C135.088 -3.69716 135.087 -3.69716 135.087 -3.69716C134.885 -3.6956 134.718 -3.54124 134.703 -3.3401C133.503 10.9936 132.732 25.4271 132.393 39.8762L131.553 8.26809C131.547 8.05604 131.374 7.88923 131.164 7.88923C131.164 7.88923 131.162 7.88923 131.161 7.88923C130.949 7.89079 130.777 8.06227 130.775 8.27432L130.178 69.4666L128.275 0.715345C128.269 0.504854 128.097 0.336443 127.887 0.336443C127.675 0.336443 127.502 0.504864 127.498 0.716915L125.92 65.9366L124.816 12.3361C124.811 12.1224 124.639 11.9541 124.427 11.9541C124.216 11.9541 124.043 12.124 124.038 12.3361L122.839 79.5125L119.919 -3.36975C119.912 -3.58024 119.741 -3.74551 119.531 -3.74551C119.529 -3.74551 119.529 -3.74551 119.527 -3.74551C119.317 -3.74395 119.145 -3.57556 119.142 -3.36351L117.698 62.3364C117.155 37.6403 115.528 12.8896 112.833 -11.5618C112.809 -11.766 112.634 -11.9453 112.427 -11.9079C112.221 -11.8986 112.06 -11.7286 112.056 -11.5228L111.187 72.6801L108.823 -0.0283756C108.816 -0.238869 108.656 -0.418182 108.432 -0.405708C108.222 -0.40415 108.05 -0.235764 108.045 -0.0237122L107.012 49.0816C106.374 29.7912 104.705 10.5149 102.016 -8.5338C101.988 -8.73494 101.837 -8.90178 101.607 -8.86748C101.405 -8.85501 101.244 -8.68661 101.243 -8.48391L100.09 75.8313L93.3628 -17.9997C93.3472 -18.2071 93.1808 -18.3599 92.9646 -18.3614C92.7577 -18.3552 92.5897 -18.1884 92.585 -17.981L91.3873 34.525C90.7838 20.2037 89.5861 5.91216 87.7957 -8.26874C87.7693 -8.473 87.62 -8.63204 87.3851 -8.60865C87.1798 -8.59618 87.0211 -8.42467 87.0211 -8.21885L87.0304 52.7738L83.8106 -20.7377C83.8013 -20.9482 83.6597 -21.1399 83.4186 -21.1103C83.2086 -21.1072 83.0375 -20.9388 83.0344 -20.7283L81.3872 68.1366C80.6266 44.3074 78.4862 20.4657 74.988 -3.04542C74.9584 -3.245 74.778 -3.3791 74.5773 -3.37598C74.3751 -3.36195 74.218 -3.19667 74.2149 -2.99241L73.0078 74.2269L69.2032 -20.4648C69.1954 -20.6753 68.9885 -20.8219 68.8096 -20.839C68.5996 -20.8375 68.4285 -20.6659 68.4254 -20.4554L67.1608 57.4966L66.5697 -9.8981C66.5682 -10.1133 66.394 -10.2848 66.1809 -10.2848C65.9662 -10.2848 65.7935 -10.1117 65.792 -9.8981L65.5105 28.6655C64.8509 18.1939 63.8896 7.75047 62.6297 -2.63535C62.6048 -2.83649 62.4244 -2.98461 62.2284 -2.97838C62.0262 -2.97058 61.8644 -2.80688 61.8551 -2.60418L58.8219 72.2389L57.296 -7.42679C57.2913 -7.63884 57.0907 -7.84776 56.9071 -7.80878C56.6971 -7.80878 56.5245 -7.64195 56.5183 -7.4299L54.367 64.4819L53.3358 -0.296553C53.3326 -0.508604 53.16 -0.68012 52.9469 -0.68012C52.7354 -0.68012 52.5627 -0.510174 52.558 -0.298124L51.1394 69.4183C50.4581 46.3593 48.5387 23.2723 45.4013 0.493942C45.3748 0.292805 45.2146 0.130655 44.9938 0.15872C44.7915 0.169634 44.6313 0.334927 44.6267 0.537622L43.429 47.2402C42.5797 34.2817 40.8111 21.3841 38.1326 8.63762C38.0921 8.4474 37.9132 8.30553 37.7219 8.33047C37.5275 8.34607 37.3735 8.50196 37.3642 8.69686L33.9141 73.4223L29.7781 -23.6269C29.7688 -23.842 29.6303 -24.0104 29.3721 -23.9995C29.1575 -23.9901 28.991 -23.8093 29.0004 -23.5925L33.4817 81.5566C33.491 81.764 33.6606 81.9277 33.8674 81.9293C34.0743 81.9293 34.247 81.7672 34.2579 81.5613L37.9786 11.7701C41.0211 27.0767 42.7477 42.5907 43.149 58.1562L42.4257 86.3714C42.421 86.5835 42.5843 86.7612 42.7943 86.7721C43.0323 86.7784 43.1863 86.6225 43.2018 86.4136C43.9283 76.9991 44.1694 67.5691 43.9267 58.1578L45.2784 5.44752C49.1795 35.4761 50.9668 65.9959 50.5935 96.2459C50.5903 96.461 50.7615 96.6372 50.9761 96.6403C50.9777 96.6403 50.9792 96.6403 50.9823 96.6403C51.1939 96.6403 51.3665 96.4719 51.3712 96.2583L52.8987 21.1627L53.8584 81.4662C53.8615 81.6783 54.0326 81.8482 54.2442 81.8498C54.2457 81.8498 54.2473 81.8498 54.2473 81.8498C54.4573 81.8498 54.6299 81.6829 54.6361 81.4725L56.8216 8.43492L58.2931 85.2831C58.2962 85.4936 58.4673 85.6636 58.6773 85.6651C58.6788 85.6651 58.6804 85.6651 58.6819 85.6651C58.8904 85.6651 59.0615 85.5014 59.0708 85.2909L62.4446 2.37589C63.9208 15.5511 64.9147 28.8121 65.4249 42.0949L65.0609 91.93C65.0594 92.142 65.2258 92.3166 65.4373 92.3229C65.694 92.3244 65.8262 92.1654 65.8371 91.9549C66.1855 85.4359 66.4142 78.9013 66.5246 72.362L66.6677 88.637C66.6693 88.8521 66.8544 89.0049 67.0566 89.0236C67.2681 89.0236 67.4424 88.8537 67.4455 88.6401L68.9901 -6.6503L72.801 88.1832C72.8087 88.3953 72.983 88.5481 73.1945 88.5575C73.4045 88.5543 73.5756 88.3859 73.5787 88.1739L74.9288 1.88941C79.3324 33.1997 81.3312 65.0494 80.8708 96.6419C80.8677 96.8571 81.0388 97.0348 81.2534 97.0379C81.255 97.0379 81.2565 97.0379 81.2596 97.0379C81.4712 97.0379 81.6454 96.868 81.6485 96.6559L83.5944 -8.23601L87.0476 70.622C87.0569 70.834 87.2575 70.9744 87.4442 70.9946C87.6557 70.99 87.8253 70.8169 87.8253 70.6048L87.8128 -1.69207C89.7587 15.4872 90.8382 32.8099 91.0451 50.1326L90.2301 85.8974C90.2254 86.111 90.3918 86.2872 90.6034 86.2966C90.8056 86.2997 90.9938 86.1407 91.0078 85.9302C91.6953 74.032 91.9675 62.0869 91.8244 50.1388L93.1901 -9.72816L99.9798 84.9853C99.9953 85.1958 100.159 85.3642 100.38 85.347C100.588 85.3408 100.754 85.1724 100.757 84.9635L101.963 -3.26373C105.352 22.5628 106.871 48.776 106.486 74.8287L106.346 81.5005C106.342 81.7157 106.511 81.8934 106.726 81.8981C106.944 81.9028 107.118 81.7344 107.124 81.5192C107.185 79.2943 107.231 77.0693 107.264 74.8427L108.532 14.5189L111.014 90.851C111.021 91.063 111.193 91.2283 111.403 91.2283C111.405 91.2283 111.406 91.2283 111.408 91.2283C111.619 91.2252 111.79 91.0553 111.792 90.8432L112.78 -4.81827C116.043 27.1406 117.485 59.5533 117.068 91.6353C117.065 91.8505 117.236 92.0251 117.451 92.0298C117.667 92.0298 117.843 91.863 117.846 91.6493L119.635 10.253L122.592 94.1955C122.599 94.406 122.771 94.5713 122.981 94.5713H122.984C123.195 94.5697 123.366 94.3998 123.369 94.1893L124.469 32.5791L125.514 83.317C125.519 83.529 125.692 83.699 125.903 83.699C126.115 83.699 126.287 83.5306 126.292 83.3185L127.925 15.7367L129.988 90.271C129.994 90.4831 130.167 90.6499 130.377 90.6499C130.377 90.6499 130.378 90.6499 130.38 90.6499C130.591 90.6483 130.763 90.4768 130.766 90.2648L131.357 29.7008L132.226 62.4097C132.295 71.5575 132.537 80.6897 132.954 89.7908C132.964 89.9997 133.135 90.1619 133.343 90.1619C133.348 90.1619 133.352 90.1619 133.357 90.1619C133.57 90.1541 133.737 89.9763 133.732 89.7612L133.006 62.3956C132.852 41.9468 133.564 21.434 135.138 1.11138C137.977 31.4892 139.03 62.2506 138.282 92.7875L137.873 105.297C137.866 105.512 138.033 105.691 138.248 105.699C138.486 105.691 138.641 105.539 138.65 105.325C138.82 101.16 138.955 96.9865 139.058 92.8125L141.918 5.14189C142.919 16.6176 143.668 28.151 144.166 39.6984C143.437 61.1218 143.489 82.5904 144.333 103.911C144.34 104.12 144.513 104.285 144.721 104.285C144.93 104.285 145.103 104.118 145.11 103.911C145.924 82.5904 145.866 61.1109 144.944 39.6953C145.423 25.6672 146.238 11.664 147.388 -2.26896L150.666 97.3201C150.673 97.5369 150.83 97.6944 151.068 97.6975C151.282 97.6897 151.45 97.5104 151.444 97.2952V97.2858C150.523 69.0285 152.629 40.6277 157.707 12.8085L158.837 98.2416C158.84 98.4537 159.01 98.6236 159.222 98.6267C159.422 98.6532 159.607 98.463 159.615 98.2525L163.093 4.51042C164.859 33.0687 165.154 61.9357 163.972 90.536L163.55 99.5732C163.54 99.7884 163.706 99.9708 163.919 99.9817C164.126 99.9739 164.314 99.8258 164.327 99.6122C164.485 96.6029 164.625 93.5874 164.75 90.5704L167.876 23.7525L168.232 98.9245C168.232 99.1366 168.402 99.3081 168.612 99.3128C168.841 99.3128 168.999 99.1537 169.009 98.9448L173.459 15.2876C175.146 43.0024 175.209 71.004 173.647 98.7437L173.099 107.492C173.085 107.707 173.249 107.891 173.462 107.906C173.675 107.937 173.862 107.759 173.876 107.545C174.076 104.63 174.258 101.712 174.423 98.7905L178.894 27.3059L177.27 104.177C177.265 104.39 177.431 104.567 177.645 104.575C177.865 104.559 178.035 104.418 178.047 104.207L183.153 10.8408L183.246 102.977C183.246 103.189 183.415 103.362 183.627 103.367C183.828 103.348 184.014 103.206 184.024 102.994L187.662 20.9163L188.387 97.8409C188.39 98.0529 188.556 98.2229 188.768 98.2276C188.965 98.212 189.154 98.0686 189.164 97.8596L193.434 17.8774L194.534 104.076C194.537 104.287 194.705 104.457 194.915 104.461C194.918 104.461 194.921 104.461 194.923 104.461C195.128 104.461 195.299 104.299 195.312 104.093L200.278 13.9467C200.6 18.1612 200.863 22.3851 201.067 26.6121L199.597 90.7544C199.592 90.9649 199.754 91.1395 199.963 91.1535C200.173 91.1613 200.353 91.0085 200.373 90.7996C202.383 69.5165 202.874 47.9949 201.845 26.6011L202.07 16.7688L204.579 111.621C204.585 111.83 204.753 111.995 204.962 112C204.959 111.995 204.96 111.995 204.963 111.995ZM144.603 52.211C144.961 65.2989 144.995 78.3946 144.704 91.4466C144.378 78.3946 144.345 65.302 144.603 52.211ZM201.52 40.623C201.725 52.685 201.45 64.7641 200.69 76.7902L201.52 40.623ZM66.2275 38.4885L66.2773 44.1686C66.2524 43.4716 66.2275 42.7778 66.2011 42.0809L66.2275 38.4885Z" fill="black"/>
<path d="M209.962 215.995C210.167 215.995 210.337 215.835 210.351 215.63L214.517 149.463L212.359 202.804C212.351 203.019 212.518 203.2 212.733 203.209C212.95 203.229 213.128 203.05 213.137 202.835L215.996 132.456L215.73 199.032C215.729 199.238 215.889 199.408 216.093 199.422C216.304 199.466 216.477 199.289 216.505 199.085L221.046 165.269L218.179 198.263C218.16 198.474 218.314 198.661 218.522 198.684C218.718 198.711 218.922 198.561 218.95 198.351L229.838 119.734L226.694 188.742C226.684 188.959 226.849 189.139 227.064 189.15C227.308 189.143 227.461 188.993 227.47 188.779L231 111.338C231.009 111.129 230.853 110.951 230.646 110.931C230.446 110.908 230.253 111.059 230.225 111.266L220.272 183.128L223.256 148.788C223.275 148.577 223.121 148.39 222.911 148.367C222.707 148.328 222.511 148.493 222.483 148.702L216.53 193.036L216.858 110.722C216.858 110.508 216.69 110.335 216.477 110.331C216.293 110.351 216.089 110.493 216.08 110.705L215.912 114.871L210.118 206.896L207.422 104.997C207.416 104.785 207.243 104.618 207.033 104.618C206.821 104.618 206.65 104.786 206.644 104.999L206.275 121.067C206.072 118.126 205.838 115.189 205.577 112.258C205.558 112.055 205.348 111.905 205.183 111.902C204.98 111.905 204.813 112.066 204.802 112.27L200.156 196.592L199.053 110.098C199.05 109.888 198.882 109.718 198.672 109.713C198.459 109.715 198.287 109.874 198.277 110.081L194.041 189.436L193.296 110.432C193.294 110.22 193.125 110.048 192.913 110.045C192.684 110.044 192.527 110.208 192.518 110.418L188.998 189.807L188.907 100.857C188.907 100.645 188.739 100.474 188.529 100.468C188.274 100.466 188.144 100.627 188.131 100.836L183.531 184.966L185.062 112.512C185.067 112.3 184.9 112.124 184.689 112.114C184.477 112.103 184.298 112.269 184.284 112.479L180.458 173.647C180.77 153.295 180.218 132.907 178.798 112.693C178.784 112.489 178.614 112.331 178.409 112.331C178.202 112.333 178.032 112.493 178.021 112.699L173.937 189.481L173.573 112.641C173.573 112.429 173.403 112.258 173.191 112.253C173.188 112.253 173.185 112.253 173.184 112.253C172.977 112.253 172.804 112.415 172.795 112.624L170.444 162.846C170.511 142.174 169.817 121.474 168.36 100.957C168.344 100.751 168.156 100.625 167.965 100.596C167.758 100.599 167.59 100.764 167.582 100.97L164.398 186.774L163.421 112.895C163.418 112.694 163.265 112.531 163.066 112.512C162.867 112.495 162.688 112.63 162.649 112.825C158.602 133.827 156.25 155.177 155.617 176.568L152.936 95.1839C152.93 94.9765 152.764 94.8128 152.558 94.8066C152.364 94.819 152.179 94.9578 152.16 95.162C150.972 108.326 150.085 121.564 149.499 134.828C148.917 124.12 148.12 113.438 147.108 102.808C147.087 102.604 146.915 102.445 146.708 102.454C146.502 102.46 146.338 102.626 146.331 102.831L144.214 167.736C143.928 145.314 142.68 122.875 140.476 100.658C140.456 100.458 140.288 100.307 140.089 100.307C139.887 100.309 139.719 100.463 139.702 100.664C138.502 114.997 137.731 129.436 137.391 143.888L136.551 112.272C136.545 112.06 136.373 111.893 136.163 111.893C135.949 111.894 135.777 112.066 135.774 112.278L135.178 173.463L133.275 104.719C133.269 104.507 133.097 104.341 132.887 104.341C132.675 104.341 132.504 104.509 132.498 104.721L130.92 169.937L129.816 116.34C129.811 116.126 129.639 115.958 129.427 115.958C129.215 115.958 129.043 116.128 129.038 116.34L127.839 183.513L124.92 100.635C124.913 100.424 124.742 100.259 124.532 100.259C124.532 100.259 124.53 100.259 124.528 100.259C124.318 100.26 124.146 100.429 124.143 100.639L122.699 166.337C122.156 141.642 120.528 116.893 117.833 92.4414C117.81 92.2371 117.628 92.0953 117.427 92.0937C117.222 92.1046 117.06 92.273 117.057 92.4788L116.187 176.677L113.823 103.974C113.817 103.764 113.644 103.597 113.434 103.597C113.434 103.597 113.433 103.597 113.431 103.597C113.221 103.598 113.048 103.767 113.045 103.979L112.012 153.08C111.375 133.791 109.705 114.515 107.016 95.4676C106.988 95.2665 106.837 95.0794 106.607 95.134C106.404 95.1464 106.246 95.3133 106.243 95.5159L105.09 179.827L98.3684 86.0084C98.3528 85.7995 98.2035 85.6561 97.9702 85.6452C97.7633 85.6498 97.5953 85.8182 97.5906 86.0256L96.3928 138.532C95.7893 124.213 94.5899 109.919 92.7995 95.7389C92.773 95.5347 92.6206 95.3523 92.3888 95.399C92.1834 95.4115 92.0248 95.5814 92.0248 95.7872L92.0357 156.772L88.8156 83.2675C88.8063 83.057 88.5979 82.8762 88.4236 82.8949C88.2136 82.898 88.0425 83.0664 88.0394 83.2768L86.3905 172.136C85.6298 148.308 83.4893 124.467 79.9909 100.959C79.9598 100.759 79.7824 100.606 79.5802 100.628C79.378 100.641 79.2209 100.808 79.2178 101.01L78.0091 178.226L74.2057 83.5388C74.1979 83.3267 74.0299 83.1911 73.8121 83.1646C73.6021 83.1677 73.431 83.3361 73.4279 83.5482L72.1632 161.496L71.5721 94.1049C71.5706 93.8898 71.3963 93.7183 71.1832 93.7183C70.9686 93.7183 70.7959 93.8913 70.7943 94.1049L70.5128 132.667C69.8532 122.196 68.8919 111.753 67.6319 101.367C67.607 101.166 67.4359 101.043 67.2305 101.024C67.0283 101.034 66.8665 101.194 66.8572 101.399L63.8238 176.236L62.2978 96.5746C62.2947 96.3626 62.122 96.1942 61.912 96.1926C61.912 96.1926 61.9104 96.1926 61.9089 96.1926C61.6989 96.1926 61.5262 96.361 61.52 96.5699L59.3687 168.478L58.3373 103.703C58.3342 103.489 58.1615 103.319 57.95 103.319C57.7384 103.319 57.5642 103.488 57.5595 103.701L56.1408 173.416C55.4595 150.356 53.5399 127.269 50.4008 104.493C50.3743 104.292 50.2157 104.146 49.9932 104.157C49.791 104.169 49.6323 104.333 49.6261 104.535L48.4299 151.233C47.5805 138.276 45.8118 125.381 43.1331 112.637C43.0927 112.446 42.9014 112.303 42.7225 112.329C42.528 112.345 42.374 112.501 42.3647 112.696L38.9144 177.418L34.7782 80.3738C34.7688 80.1586 34.6195 79.984 34.3722 80.0012C34.1575 80.0105 33.991 80.1929 34.0004 80.4081L38.482 185.553C38.4913 185.761 38.6609 185.925 38.8678 185.926H38.8709C39.0778 185.926 39.2489 185.764 39.2582 185.558L42.9791 115.77C46.0203 131.075 47.747 146.586 48.1499 162.15L47.4265 190.368C47.4219 190.58 47.5852 190.758 47.7952 190.769C48.0347 190.764 48.1872 190.619 48.2028 190.41C48.9292 180.995 49.1703 171.564 48.9276 162.15L50.2779 109.448C54.1793 139.474 55.9682 169.992 55.5933 200.242C55.5917 200.457 55.7613 200.633 55.976 200.636C55.976 200.636 55.9791 200.636 55.9822 200.636C56.1937 200.636 56.3664 200.468 56.3711 200.254L57.9002 125.164L58.86 185.463C58.8631 185.675 59.0342 185.845 59.2458 185.847C59.2473 185.847 59.2473 185.847 59.2489 185.847C59.4589 185.847 59.6315 185.68 59.6378 185.469L61.8233 112.436L63.2949 189.28C63.2996 189.49 63.4691 189.66 63.6807 189.662C63.6807 189.662 63.6823 189.662 63.6838 189.662C63.8922 189.662 64.0634 189.498 64.0727 189.288L67.4327 106.38C68.909 119.554 69.903 132.815 70.4132 146.097L70.0492 195.929C70.0477 196.142 70.2141 196.316 70.4257 196.322C70.6777 196.335 70.8145 196.163 70.8254 195.954C71.1739 189.436 71.4026 182.901 71.513 176.363L71.6561 192.637C71.6577 192.85 71.8303 193.022 72.0434 193.023C72.2566 193.023 72.4292 192.853 72.4323 192.64L73.977 97.3542L77.7866 192.183C77.7944 192.395 78.0075 192.559 78.1802 192.557C78.3902 192.554 78.5613 192.386 78.5644 192.174L79.9147 105.893C84.3185 137.199 86.3174 169.049 85.8569 200.641C85.8538 200.856 86.0249 201.034 86.2396 201.037C86.2411 201.037 86.2427 201.037 86.2458 201.037C86.4574 201.037 86.6316 200.867 86.6347 200.655L88.5807 95.7685L92.0357 174.626C92.045 174.838 92.2503 174.995 92.4323 174.998C92.6439 174.994 92.8135 174.821 92.8135 174.609L92.801 102.315C94.747 119.492 95.8266 136.817 96.0335 154.137L95.2184 189.899C95.2137 190.112 95.3801 190.289 95.5917 190.298C95.7908 190.298 95.9837 190.142 95.9962 189.932C96.6837 178.034 96.9559 166.089 96.8128 154.143L98.1786 94.2796L104.969 188.988C104.984 189.197 105.172 189.372 105.368 189.35C105.577 189.344 105.743 189.175 105.746 188.966L106.952 100.745C110.342 126.569 111.86 152.782 111.476 178.834L111.336 185.505C111.331 185.72 111.501 185.898 111.715 185.903C111.902 185.928 112.106 185.739 112.113 185.524C112.174 183.299 112.221 181.074 112.253 178.848L113.521 118.529L116.004 194.854C116.01 195.066 116.183 195.231 116.393 195.231C116.394 195.231 116.396 195.231 116.397 195.231C116.609 195.228 116.78 195.058 116.782 194.846L117.77 99.1893C121.033 131.147 122.475 163.559 122.058 195.638C122.055 195.853 122.226 196.028 122.441 196.032C122.645 196.07 122.833 195.864 122.836 195.652L124.625 114.26L127.58 198.198C127.588 198.408 127.761 198.574 127.969 198.574C127.969 198.574 127.971 198.574 127.972 198.574C128.184 198.572 128.355 198.402 128.358 198.192L129.458 136.58L130.503 187.32C130.508 187.532 130.681 187.702 130.891 187.702C131.102 187.702 131.275 187.534 131.281 187.322L132.915 119.743L134.977 194.274C134.983 194.486 135.156 194.653 135.366 194.653C135.366 194.653 135.369 194.653 135.371 194.653C135.582 194.651 135.753 194.479 135.755 194.267L136.345 133.707L137.214 166.426C137.283 175.566 137.525 184.698 137.942 193.792C137.951 194.001 138.123 194.163 138.329 194.163C138.334 194.163 138.339 194.163 138.343 194.163C138.557 194.155 138.723 193.977 138.718 193.762L137.992 166.412C137.836 145.961 138.55 125.445 140.125 105.117C142.964 135.493 144.017 166.252 143.268 196.789L142.859 209.297C142.853 209.512 143.02 209.692 143.234 209.7C143.477 209.715 143.628 209.539 143.637 209.325C143.807 205.161 143.942 200.987 144.045 196.813L146.905 109.146C147.906 120.621 148.655 132.151 149.153 143.697C148.422 165.121 148.477 186.592 149.32 207.908C149.327 208.117 149.5 208.282 149.709 208.282C149.917 208.282 150.09 208.116 150.097 207.908C150.911 186.586 150.853 165.11 149.931 143.694C150.41 129.672 151.225 115.666 152.375 101.735L155.654 201.318C155.66 201.533 155.802 201.717 156.055 201.695C156.27 201.687 156.438 201.508 156.432 201.293V201.282C155.511 173.026 157.619 144.628 162.696 116.812L163.827 202.241C163.83 202.453 164 202.623 164.211 202.626C164.469 202.617 164.597 202.462 164.605 202.252L168.083 108.514C169.849 137.071 170.144 165.937 168.962 194.536L168.539 203.572C168.528 203.787 168.694 203.97 168.907 203.981C169.127 203.97 169.304 203.825 169.315 203.611C169.474 200.602 169.614 197.587 169.738 194.57L172.865 127.755L173.221 202.924C173.223 203.136 173.391 203.307 173.601 203.312C173.815 203.271 173.988 203.153 173.997 202.944L178.448 119.291C180.136 147 180.198 174.994 178.637 202.726L178.088 211.493C178.074 211.708 178.238 211.892 178.451 211.906C178.675 211.956 178.849 211.759 178.865 211.546C179.065 208.624 179.249 205.699 179.414 202.772L183.884 131.307L182.26 208.176C182.256 208.388 182.422 208.566 182.635 208.574C182.876 208.56 183.026 208.416 183.038 208.206L188.142 114.846L188.235 206.977C188.235 207.189 188.405 207.363 188.616 207.367C188.82 207.367 189.004 207.205 189.013 206.995L192.652 124.921L193.377 201.842C193.378 202.054 193.546 202.224 193.758 202.228C193.993 202.224 194.143 202.068 194.154 201.86L198.424 121.882L199.523 208.077C199.526 208.287 199.694 208.457 199.904 208.462C199.907 208.462 199.908 208.462 199.911 208.462C200.117 208.462 200.288 208.299 200.3 208.094L205.267 117.952C205.589 122.166 205.852 126.39 206.056 130.616L204.586 194.755C204.581 194.966 204.743 195.141 204.952 195.155C205.165 195.145 205.344 195.01 205.362 194.801C207.372 173.519 207.862 151.998 206.834 130.605L207.059 120.772L209.568 215.621C209.573 215.83 209.743 215.995 209.951 216C209.957 215.995 209.959 215.995 209.962 215.995ZM149.598 156.209C149.956 169.3 149.992 182.396 149.699 195.451C149.373 182.398 149.338 169.3 149.598 156.209ZM206.516 144.628C206.722 156.69 206.446 168.766 205.687 180.792L206.516 144.628ZM71.2174 142.494L71.2672 148.175C71.2423 147.478 71.2174 146.784 71.191 146.088L71.2174 142.494Z" fill="black"/>
</g>
<mask id="mask3_370_3521" style="mask-type:luminance" maskUnits="userSpaceOnUse" x="-72" y="-264" width="202" height="360">
<path d="M-72 -264H130V96H-72V-264Z" fill="white"/>
</mask>
<g mask="url(#mask3_370_3521)">
<path d="M108.962 36C109.167 36 109.337 35.8394 109.351 35.6351L113.517 -30.5327L111.361 22.8083C111.353 23.0234 111.519 23.2043 111.734 23.2136C111.931 23.2199 112.129 23.053 112.138 22.8394L112.141 22.7303L114.996 -47.5276L114.73 19.0363C114.728 19.2421 114.889 19.4121 115.092 19.4261C115.298 19.462 115.477 19.2935 115.505 19.0893L120.045 -14.7306L117.178 18.2691C117.16 18.4796 117.314 18.6667 117.522 18.6901C117.718 18.7088 117.922 18.5669 117.95 18.3564L128.838 -60.2703L125.694 8.74637C125.684 8.96312 125.849 9.14399 126.064 9.1549C126.311 9.17049 126.461 8.9974 126.47 8.78378L130 -68.6672C130.009 -68.8746 129.853 -69.0539 129.648 -69.0726C129.44 -69.0851 129.254 -68.9448 129.226 -68.7374L119.274 3.13127L122.256 -31.211C122.275 -31.4215 122.122 -31.6086 121.911 -31.632C121.697 -31.6523 121.511 -31.5073 121.483 -31.2967L115.53 13.0439L115.858 -69.28C115.858 -69.4921 115.69 -69.6667 115.477 -69.6714C115.306 -69.6589 115.088 -69.5092 115.08 -69.2971L114.91 -65.1011L109.117 26.9061L106.423 -75.0042C106.417 -75.2147 106.244 -75.3831 106.034 -75.3831H106.033C105.821 -75.3831 105.65 -75.2147 105.645 -75.0027L105.277 -58.9309C105.073 -61.8733 104.84 -64.8094 104.578 -67.7441C104.56 -67.9468 104.379 -68.0762 104.185 -68.098C103.981 -68.0949 103.814 -67.9343 103.804 -67.73L99.157 16.6037L98.0541 -69.9037C98.051 -70.1142 97.883 -70.2842 97.673 -70.2889C97.4988 -70.2889 97.2872 -70.1298 97.2779 -69.9193L93.042 9.44494L92.2969 -69.5685C92.2938 -69.779 92.1258 -69.9505 91.9142 -69.9552C91.7073 -69.9832 91.5284 -69.793 91.5191 -69.5825L88.0004 9.8145L87.9101 -79.1442C87.9101 -79.3547 87.7421 -79.5278 87.5321 -79.5325C87.2801 -79.5371 87.1464 -79.3734 87.1339 -79.1645L82.534 4.98219L84.0663 -67.4915C84.071 -67.7035 83.9045 -67.8797 83.693 -67.8891C83.4938 -67.8953 83.3025 -67.7347 83.2885 -67.5242L79.4633 -6.34932C79.776 -26.6999 79.2222 -47.091 77.8035 -67.309C77.7895 -67.5133 77.5717 -67.6848 77.4131 -67.6708C77.2077 -67.6692 77.0382 -67.5071 77.0273 -67.3012L72.9423 9.49015L72.5783 -67.3589C72.5783 -67.571 72.4087 -67.7425 72.1972 -67.7472C72.1941 -67.7472 72.191 -67.7472 72.1894 -67.7472C71.9825 -67.7472 71.8098 -67.5835 71.8005 -67.3761L69.45 -17.1538C69.5185 -37.8256 68.8231 -58.527 67.3655 -79.046C67.35 -79.2533 67.1586 -79.3781 66.9704 -79.4077C66.7635 -79.403 66.5955 -79.2393 66.5878 -79.0319L63.4035 6.7832L62.4266 -67.1047C62.4234 -67.3043 62.271 -67.4696 62.0719 -67.4883C61.8681 -67.4946 61.6923 -67.3698 61.6565 -67.1734C57.6089 -46.1741 55.2569 -24.8178 54.6237 -3.42252L51.9435 -84.8201C51.9373 -85.0259 51.7708 -85.1912 51.5655 -85.1975C51.3508 -85.1959 51.1859 -85.0493 51.1672 -84.8419C49.9803 -71.6782 49.0921 -58.4365 48.5056 -45.173C47.9238 -55.8793 47.1274 -66.5637 46.1147 -77.1951C46.0945 -77.3993 45.9109 -77.5537 45.7149 -77.5475C45.5096 -77.5412 45.3447 -77.3759 45.3385 -77.1701L43.2213 -12.2591C42.9351 -34.6836 41.6875 -57.1252 39.4832 -79.3454C39.463 -79.5449 39.295 -79.6962 39.0959 -79.6962C39.0959 -79.6962 39.0943 -79.6962 39.0928 -79.6962C38.8921 -79.6946 38.7257 -79.5403 38.7086 -79.3391C37.5092 -65.0059 36.7376 -50.5683 36.3985 -36.1166L35.5585 -67.73C35.5523 -67.9405 35.3796 -68.1089 35.1696 -68.1089C34.9565 -68.1074 34.7838 -67.9359 34.7807 -67.7238L34.1849 -6.53176L32.2824 -75.2834C32.2762 -75.4939 32.1036 -75.6623 31.8935 -75.6623C31.682 -75.6623 31.5109 -75.4938 31.5047 -75.2818L29.9273 -10.0558L28.8213 -63.6618C28.8166 -63.8739 28.6439 -64.0438 28.4324 -64.0438C28.2208 -64.0438 28.0481 -63.8739 28.0435 -63.6602L26.8441 3.52267L23.9258 -79.3672C23.9181 -79.5777 23.747 -79.743 23.5369 -79.743C23.3254 -79.7414 23.1527 -79.573 23.1481 -79.3609L21.7045 -13.6516C21.1616 -38.3511 19.5329 -63.1051 16.8386 -87.5598C16.8153 -87.7641 16.6379 -87.9465 16.4326 -87.906C16.2273 -87.8966 16.0655 -87.7266 16.0624 -87.5208L15.1928 -3.31178L12.8283 -76.0256C12.8221 -76.2361 12.6494 -76.4029 12.4394 -76.4029H12.4363C12.2263 -76.4014 12.0536 -76.233 12.0505 -76.0209L11.0176 -26.9042C10.3798 -46.1975 8.71067 -65.4815 6.02106 -84.5332C5.99306 -84.7343 5.81261 -84.8809 5.61195 -84.8669C5.40972 -84.8544 5.25105 -84.686 5.24794 -84.4833L4.09525 -0.161995L-2.63109 -93.9997C-2.64664 -94.2071 -2.77577 -94.3584 -3.02933 -94.3615C-3.23622 -94.3568 -3.40422 -94.1884 -3.40887 -93.981L-4.60669 -41.4697C-5.21025 -55.7919 -6.40961 -70.0877 -8.20009 -84.2681C-8.22653 -84.4724 -8.38364 -84.6252 -8.61076 -84.608C-8.8161 -84.5956 -8.97476 -84.424 -8.97476 -84.2197L-8.96387 -23.2273L-12.1839 -96.7395C-12.1933 -96.95 -12.3457 -97.1574 -12.5759 -97.1121C-12.7859 -97.109 -12.9571 -96.9406 -12.9602 -96.7301L-14.6091 -7.8525C-15.3698 -31.6897 -17.5103 -55.5347 -21.0103 -79.046C-21.0399 -79.2456 -21.211 -79.3797 -21.421 -79.3765C-21.6232 -79.3625 -21.7803 -79.1972 -21.7834 -78.993L-22.9906 -1.76808L-26.7955 -96.4666C-26.8033 -96.6771 -27.0211 -96.8393 -27.1891 -96.8408C-27.3991 -96.8393 -27.5702 -96.6677 -27.5733 -96.4572L-28.838 -18.4995L-29.4291 -85.8991C-29.4307 -86.1128 -29.6049 -86.2859 -29.818 -86.2859C-30.0327 -86.2859 -30.2054 -86.1128 -30.2069 -85.8991L-30.4885 -47.3311C-31.1481 -57.8035 -32.1079 -68.2493 -33.3679 -78.6343C-33.3928 -78.8354 -33.5826 -78.9633 -33.7692 -78.9773C-33.9715 -78.9695 -34.1332 -78.8058 -34.1426 -78.6031L-37.1759 -3.75462L-38.702 -83.4276C-38.7051 -83.6397 -38.9073 -83.8455 -39.0909 -83.8096C-39.3009 -83.8096 -39.4736 -83.6428 -39.4798 -83.4307L-41.6311 -11.5137L-42.6625 -76.2969C-42.6656 -76.509 -42.8383 -76.6805 -43.0514 -76.6805C-43.263 -76.6805 -43.4356 -76.5105 -43.4403 -76.2985L-44.859 -6.58478C-45.5403 -29.6439 -47.4599 -52.7295 -50.5975 -75.5048C-50.6255 -75.7059 -50.778 -75.8821 -51.0051 -75.84C-51.2073 -75.8291 -51.366 -75.6638 -51.3722 -75.4611L-52.57 -28.7551C-53.4194 -41.7129 -55.1881 -54.6116 -57.8668 -67.3605C-57.9072 -67.5507 -58.0939 -67.6957 -58.2775 -67.6677C-58.4719 -67.6536 -58.6259 -67.4961 -58.6352 -67.2997L-62.0855 -2.5711L-66.2218 -99.6273C-66.2312 -99.8425 -66.3758 -100.002 -66.6278 -100C-66.8425 -99.9906 -67.009 -99.8082 -66.9996 -99.593L-62.518 5.56536C-62.5087 5.77275 -62.3391 5.9365 -62.1322 5.93806H-62.1291C-61.9222 5.93806 -61.7511 5.77747 -61.7402 5.57008L-58.0192 -64.2278C-54.9765 -48.9185 -53.2498 -33.4034 -52.8485 -17.8368L-53.5718 10.3805C-53.578 10.5926 -53.4131 10.7703 -53.2031 10.7813C-52.9823 10.7766 -52.8127 10.6316 -52.7956 10.4227C-52.0691 1.00753 -51.828 -8.42319 -52.0707 -17.8352L-50.7189 -70.5493C-46.8175 -40.5201 -45.0285 -9.99653 -45.405 20.2557C-45.4066 20.4708 -45.237 20.647 -45.0223 20.6502C-44.8325 20.6377 -44.6319 20.4833 -44.6272 20.2681L-43.0981 -54.8314L-42.1383 5.47495C-42.1352 5.68702 -41.9641 5.85699 -41.7525 5.85854C-41.7509 5.85854 -41.7509 5.85854 -41.7494 5.85854C-41.5394 5.85854 -41.3667 5.69169 -41.3605 5.48119L-39.1749 -67.5647L-37.7017 9.29214C-37.6986 9.50265 -37.5275 9.67261 -37.316 9.67416H-37.3128C-37.1044 9.67416 -36.9333 9.51045 -36.924 9.29994L-33.5639 -73.6164C-32.0876 -60.4403 -31.0936 -47.1752 -30.5849 -33.8914L-30.949 15.9426C-30.9505 16.1546 -30.7841 16.3293 -30.5725 16.3355C-30.3283 16.3215 -30.1836 16.1765 -30.1727 15.9676C-29.8258 9.4512 -29.5956 2.92547 -29.4851 -3.61272L-29.342 12.6477C-29.3405 12.8614 -29.1678 13.0329 -28.9547 13.0345C-28.7416 13.0345 -28.5689 12.8645 -28.5642 12.6509L-27.0195 -82.6464L-23.2084 12.194C-23.2006 12.4061 -23.0372 12.5448 -22.8148 12.5682C-22.6048 12.5651 -22.4337 12.3967 -22.4306 12.1846L-21.0803 -74.1061C-16.678 -42.7998 -14.6775 -10.9477 -15.1364 20.6533C-15.1395 20.8684 -14.9684 21.0462 -14.7538 21.0493C-14.7522 21.0493 -14.7507 21.0493 -14.7475 21.0493C-14.536 21.0493 -14.3618 20.8794 -14.3586 20.6673L-12.4126 -84.2322L-8.95766 -5.36537C-8.94832 -5.15331 -8.73833 -4.98804 -8.56099 -4.99272C-8.34943 -4.99741 -8.17986 -5.17049 -8.17986 -5.38255L-8.19231 -77.6847C-6.24628 -60.5042 -5.16669 -43.1787 -4.95981 -25.8563L-5.77493 9.90962C-5.7796 10.1232 -5.61314 10.2994 -5.40158 10.3088C-5.1978 10.3228 -5.00958 10.1544 -4.99713 9.94236C-4.30957 -1.95518 -4.03734 -13.9042 -4.18045 -25.8516L-2.81465 -85.7229L3.97547 8.99586C3.99103 9.20638 4.15126 9.35452 4.37526 9.35919C4.58371 9.35295 4.75015 9.18454 4.75327 8.97559L5.95884 -79.2565C9.35001 -53.4202 10.8683 -27.1989 10.4825 -1.13656L10.3425 5.5155C10.3378 5.73067 10.5074 5.9084 10.722 5.91308C10.8963 5.91463 11.1141 5.74938 11.1203 5.53419C11.1809 3.31686 11.2276 1.10107 11.2603 -1.11938L12.5281 -61.471L15.0108 14.8651C15.017 15.0772 15.1897 15.2424 15.3997 15.2424C15.4012 15.2424 15.4028 15.2424 15.4044 15.2424C15.6159 15.2393 15.787 15.0694 15.7886 14.8573L16.7764 -80.8111C20.0384 -48.8499 21.4805 -16.4365 21.0651 15.6479C21.062 15.8631 21.2331 16.0377 21.4478 16.0424C21.4494 16.0424 21.4525 16.0424 21.454 16.0424C21.6656 16.0424 21.8382 15.874 21.8429 15.6619L23.6318 -65.7388L26.5874 18.2083C26.5952 18.4188 26.7679 18.5841 26.9763 18.5841C27.1879 18.5825 27.3606 18.4125 27.3652 18.202L28.465 -43.4173L29.5104 7.32896C29.5151 7.54103 29.6877 7.71098 29.8993 7.71098C30.1108 7.71098 30.2835 7.5426 30.2882 7.33054L31.9215 -60.2547L33.9843 14.2835C33.9905 14.4955 34.1631 14.6624 34.3731 14.6624C34.3731 14.6624 34.3747 14.6624 34.3763 14.6624C34.5878 14.6609 34.7589 14.4893 34.762 14.2772L35.3516 -46.2848L36.2212 -13.5799C36.2896 -4.43449 36.5323 4.70152 36.9492 13.8017C36.9585 14.0153 37.0923 14.1962 37.3521 14.1728C37.5652 14.165 37.7317 13.9872 37.727 13.772L37.0005 -13.5939C36.8465 -34.0442 37.559 -54.5601 39.1348 -74.8841C41.9737 -44.5072 43.0269 -13.7436 42.2771 16.7955L41.868 29.309C41.8617 29.5242 42.0282 29.7035 42.2429 29.7113C42.4964 29.7238 42.6364 29.5507 42.6457 29.3371C42.8153 25.169 42.9522 20.9948 43.0533 16.8189L45.914 -70.8533C46.9143 -59.3784 47.6641 -47.8473 48.1618 -36.299C47.4307 -14.8694 47.4852 6.5992 48.3283 27.9212C48.3361 28.1302 48.5087 28.2954 48.7172 28.2954C48.9256 28.2954 49.0983 28.1286 49.1061 27.9212C49.9197 6.59608 49.8621 -14.885 48.9396 -36.3021C49.4188 -50.3266 50.2339 -64.3307 51.3835 -78.2632L54.6626 21.33C54.6689 21.5421 54.8431 21.7074 55.0515 21.7074C55.0546 21.7074 55.0593 21.7074 55.064 21.7074C55.2787 21.6996 55.4467 21.5202 55.4404 21.305V21.2941C54.5195 -6.96837 56.6273 -35.3697 61.7048 -63.1847L62.8341 22.2547C62.8372 22.4667 63.0068 22.6367 63.2184 22.6398C63.2199 22.6398 63.2215 22.6398 63.223 22.6398C63.4315 22.6398 63.6041 22.4745 63.6119 22.2656L67.0902 -71.4833C68.8558 -42.9276 69.1514 -14.0663 67.9707 14.5283L67.546 23.5863C67.5351 23.8015 67.7015 23.9839 67.9147 23.9949C68.1262 23.9949 68.3113 23.8389 68.3222 23.6253C68.4809 20.6065 68.6209 17.5877 68.7469 14.5626L71.8721 -52.243L72.2283 22.9361C72.2283 23.1482 72.3979 23.3197 72.6079 23.3244C72.8256 23.3088 72.9952 23.1653 73.0045 22.9564L77.4551 -60.7069C79.1429 -32.9917 79.2051 -4.99274 77.6448 22.7365L77.0973 31.5045C77.0833 31.7197 77.2466 31.9037 77.4597 31.9177C77.69 31.9645 77.858 31.7711 77.8735 31.556C78.0742 28.6322 78.2577 25.7086 78.4211 22.7802L82.8918 -48.6924L81.2694 28.1863C81.2647 28.3984 81.4311 28.5761 81.6443 28.5839C81.8558 28.5605 82.0363 28.4264 82.0471 28.2159L87.151 -65.1556L87.2444 26.9872C87.2444 27.1993 87.4139 27.3723 87.6255 27.377C87.8355 27.3848 88.0128 27.2148 88.0222 27.0043L91.6576 -55.0903L92.3825 21.8399C92.3856 22.052 92.552 22.2219 92.7636 22.2266C93.0016 22.2484 93.1494 22.0676 93.1602 21.8586L97.4288 -58.1309L98.5286 28.074C98.5317 28.2845 98.6997 28.4545 98.9097 28.4592C99.1384 28.4451 99.2955 28.3001 99.3064 28.0912L104.273 -62.0619C104.595 -57.8456 104.858 -53.6214 105.062 -49.3925L103.592 14.7497C103.587 14.9602 103.749 15.1348 103.958 15.1489C104.163 15.1567 104.348 15.0039 104.368 14.7949C106.376 -6.48654 106.868 -28.0066 105.84 -49.4019L106.065 -59.238L108.573 35.6196C108.578 35.8285 108.747 35.9938 108.956 35.9984C108.957 36 108.96 36 108.962 36ZM48.599 -23.798C48.9568 -10.706 48.991 2.39372 48.7001 15.4514C48.3718 2.3984 48.3392 -10.7014 48.599 -23.798ZM105.518 -35.3697C105.723 -23.31 105.448 -11.2331 104.69 0.790787L105.518 -35.3697ZM-29.7823 -37.4888L-29.7325 -31.8378C-29.7574 -32.5286 -29.7823 -33.2225 -29.8087 -33.9133L-29.7823 -37.4888Z" fill="black"/>
</g>
</g>
<path d="M33.7626 88C33.9256 88 34.0886 87.9497 34.2296 87.8444C39.0821 84.2276 52.4735 73.6068 52.6083 73.5015C52.7917 73.3553 52.9014 73.1368 52.9061 72.9011C52.9077 72.8461 53.0237 67.384 53.2698 61.4975C53.2792 61.2853 53.2024 61.081 53.0597 60.927C52.9406 60.7996 41.5084 48.5504 35.4005 42.6419L35.9161 42.1107C42.5711 35.2465 48.3201 29.3176 57.4781 26.0514C57.79 25.9414 58 25.6443 58 25.311V13.7849C58 13.5271 57.873 13.2866 57.663 13.1389C57.4514 12.9927 57.1834 12.9612 56.942 13.0477L2.38748 33.5065C2.10222 33.6134 1.90474 33.8775 1.88123 34.1824L0.586594 50.7573C0.472179 50.7887 0.362473 50.8453 0.266865 50.927C-0.0403328 51.1974 -0.0889206 51.6611 0.155586 51.9896C0.273136 52.1468 0.393814 52.2694 0.517635 52.3558C13.7006 65.2542 24.3773 76.8181 33.1529 87.706C33.3065 87.8994 33.5338 88 33.7626 88ZM51.3451 72.4971C49.4439 74.0029 38.6982 82.508 33.8942 86.1311C25.2754 75.4977 14.8557 64.2183 2.08341 51.6956L3.40155 34.8049L56.4295 14.9198V24.7625C47.2323 28.1843 41.4567 34.1415 34.7892 41.0167L33.7234 42.1154C33.5776 42.2663 33.4961 42.4691 33.5008 42.6781C33.504 42.8887 33.5933 43.0883 33.7438 43.2314C39.1981 48.4325 49.994 59.9524 51.6867 61.76C51.4877 66.6594 51.3748 71.1957 51.3451 72.4971Z" fill="black"/>
<path d="M34.9376 75C24.2923 61.1858 13.6454 47.37 3 33.5558C14.1902 20.5523 27.5008 8.24649 42.9816 1C46.665 6.58256 52.7723 10.4823 58 14.6257C47.3297 20.3622 37.3507 27.4107 28.3571 35.5654C37.1281 43.4828 45.4367 51.9219 53.2238 60.826C55.3986 61.1842 34.9376 75 34.9376 75Z" fill="#F6F7F8"/>
<path d="M34.9738 76C35.1244 76 35.275 75.9573 35.4084 75.8672C54.7433 62.8392 54.4515 61.485 54.3275 60.9051C54.2695 60.6365 54.1016 60.4184 53.8647 60.2888C46.2565 51.6203 38.0695 43.301 29.5168 35.5521C38.3676 27.6388 48.1425 20.7906 58.5842 15.1891C58.818 15.0642 58.9749 14.8272 58.9969 14.5617C59.0204 14.2963 58.909 14.0356 58.7004 13.8697C57.6162 13.0117 56.4928 12.1647 55.3615 11.3099C51.0593 8.06116 46.6096 4.70183 43.732 0.351762C43.5186 0.0278377 43.1044 -0.0907114 42.7498 0.0736211C29.0586 6.46837 15.7911 17.2432 2.19248 33.0128C1.94615 33.2988 1.93517 33.7176 2.16581 34.0162L34.354 75.695C34.5078 75.8957 34.7384 76 34.9738 76ZM52.5953 61.229C51.0922 62.9513 42.9412 68.8689 35.1432 74.1433L3.80072 33.558C16.9035 18.4568 29.6752 8.05485 42.8094 1.78968C45.8282 6.0876 50.1932 9.38372 54.4201 12.5756C55.214 13.176 56.0048 13.7717 56.7815 14.3721C46.3711 20.0653 36.6322 26.9878 27.816 34.9627C27.6497 35.1128 27.5555 35.3261 27.5555 35.5521C27.5555 35.7764 27.6497 35.9898 27.8175 36.1399C36.5255 43.9836 44.8601 52.4246 52.5953 61.229Z" fill="black"/>
</svg>
