<svg xmlns="http://www.w3.org/2000/svg" width="82" height="125" viewBox="0 0 82 125" fill="none">
  <path d="M18.711 0.19471C7.33822 0.547318 4.73622 1.19376 1.60798 4.45537L0 6.10086V9.8326C0 13.917 0.438539 31.1359 0.584719 32.7814C0.93555 36.8364 1.16944 51.2932 1.11097 66.7197C1.05249 85.7898 1.08173 86.7889 2.30964 89.1984C3.7422 91.9898 6.11031 93.841 9.26779 94.6931C10.8465 95.1045 12.2499 95.1339 19.2957 94.9576C23.7981 94.8401 28.0373 94.6931 28.7097 94.605L29.9084 94.4581L29.5283 95.751C29.3237 96.4562 28.9144 98.6893 28.622 100.746C28.1542 103.949 28.125 104.86 28.4466 107.563C29.0021 112.5 31.2825 118.641 34.4107 123.431C35.1124 124.518 35.5801 124.929 36.1649 124.988C37.4512 125.135 37.5682 123.93 36.3988 122.255C34.9077 120.081 32.0718 113.94 31.3994 111.383C30.4931 108.033 30.4931 101.246 31.3994 97.896C31.721 96.6031 32.0134 95.3396 32.0134 95.0457C32.0134 94.3699 32.6566 94.2524 38.0067 94.0173C40.4333 93.9292 42.8891 93.6647 43.5031 93.459C44.7895 93.0183 44.7018 92.8713 45.1403 95.8097C45.725 99.659 46.5729 101.216 47.7423 100.482C48.3563 100.07 48.327 99.8353 47.5376 96.0742C47.2161 94.4287 46.8068 91.1965 46.6313 88.8751C46.2805 83.733 45.9881 82.7339 43.4446 77.2098C40.9303 71.8031 40.4041 70.0401 40.5503 67.4543C40.638 65.897 40.8134 65.2211 41.4566 64.2515C42.0413 63.37 42.4214 63.0467 42.743 63.1643C43.0061 63.2818 43.4446 63.1349 43.7077 62.8998C45.1111 61.6069 47.6254 63.9576 51.5137 70.0989C52.9755 72.4496 54.5835 74.7415 55.0805 75.2117C55.5775 75.7112 55.9868 76.2989 55.9868 76.5633C55.9868 77.0335 56.8347 78.0325 57.2732 78.0325C57.3609 78.0325 58.1211 78.5614 58.9397 79.2079C60.4892 80.442 61.1908 80.6183 61.7756 80.0306C62.4187 79.3842 62.1264 78.8552 60.2553 77.1216L58.3842 75.388L58.2088 72.9785C58.1211 71.6268 57.9749 64.7804 57.8579 57.7577L57.6825 44.9757L62.4187 49.6771C70.7802 58.0221 74.5224 62.6648 77.066 67.8951C79.1125 72.1263 79.7264 74.7121 79.7849 79.2079C79.7849 82.4401 79.6972 83.2922 78.8786 86.4069C76.8613 93.9585 72.739 104.831 68.9676 112.412C65.0207 120.404 64.1437 122.99 65.1669 123.842C65.7809 124.371 66.658 123.813 67.0673 122.637C68.2075 119.522 68.9676 117.789 71.8035 111.824C74.8148 105.448 76.6859 100.805 79.1417 93.6059C82.5915 83.4979 82.9131 75.623 80.1357 68.7472C77.8261 63.0174 74.8148 59.1093 64.3776 48.443L57.4486 41.3027L57.5071 26.4051C57.5948 13.3293 57.5363 11.2136 57.0978 9.39185C56.4838 6.71792 55.4606 4.71982 54.028 3.36816C51.1921 0.635468 48.327 0.10656 35.814 0.0184021C30.7562 -0.0403595 23.0672 0.0477905 18.711 0.19471ZM48.2393 2.89802C51.8938 3.95584 53.648 5.74825 54.7297 9.42123C55.1682 11.008 55.2559 12.9473 55.2852 27.6392C55.3729 46.7093 55.636 64.8098 55.8991 69.1292C55.9868 70.8335 55.9576 72.1557 55.8114 72.1557C55.6652 72.1557 55.0805 71.5387 54.525 70.7747C53.6772 69.6581 53.4725 69.0998 53.2971 67.3368C53.034 64.7216 52.8294 56.4941 52.6247 42.0373C52.2739 15.9444 51.923 10.0677 50.6074 9.09801C49.2918 8.15773 46.6021 8.01081 28.7974 8.04019C10.2618 8.09896 8.65384 8.18711 7.27975 9.36246C5.84719 10.626 5.78872 11.5369 5.87643 33.2221C6.05184 70.5102 6.37344 82.4695 7.25051 84.5557C7.4844 85.114 8.12759 85.9368 8.65384 86.4069L9.64786 87.2296L26.4001 87.0533C35.6386 86.9358 43.2692 86.7889 43.3861 86.7301C43.9124 86.3775 44.234 87.2003 44.4386 89.4334L44.6433 91.9017L44.0001 91.5491C43.5031 91.2846 42.5675 91.2552 40.0825 91.5197C38.2991 91.696 35.4047 91.9017 33.6213 91.9898C31.8672 92.078 28.9144 92.2837 27.1017 92.46C21.1084 92.9595 15.6705 92.9889 12.016 92.5481C8.01065 92.078 6.6658 91.4903 5.23323 89.5803C3.39137 87.1415 3.36213 86.9064 3.24519 59.0799C3.15748 45.3283 3.04054 33.6335 2.98207 33.0752C2.71894 31.1065 2.48506 25.8174 2.30964 16.9141C2.13422 9.00986 2.16346 7.8345 2.57276 7.01176C3.88838 4.48475 7.51364 3.07433 14.0625 2.54542C15.6705 2.42788 23.5934 2.33973 31.721 2.33973C44.7895 2.3985 46.6898 2.45726 48.2393 2.89802ZM45.725 10.479C47.4792 10.626 48.8825 10.8904 48.9994 11.0667C49.1164 11.2724 49.2918 12.4184 49.3795 13.6525C49.4965 14.8866 49.6426 16.5321 49.7303 17.3549C50.1104 21.0866 50.3735 31.1359 50.4028 43.3596C50.432 50.7055 50.5197 58.4922 50.6367 60.6666L50.8121 64.5747L49.4087 63.0761C47.4792 61.0193 46.3097 60.3434 44.4386 60.2259C43.5616 60.1671 42.4798 59.9321 42.0413 59.697C40.024 58.6685 37.4805 58.2572 32.1595 58.1984C24.7921 58.0809 20.699 58.4041 18.7695 59.315C15.4658 60.8136 13.7117 63.3112 13.9455 66.1027C14.121 68.1008 14.9396 69.2761 16.8984 70.2164C19.9389 71.6856 22.2778 71.9207 30.8732 71.715L38.6792 71.5093L39.1762 73.0666C39.4685 73.9481 40.4333 76.2989 41.3689 78.3263C43.2984 82.5282 43.8832 84.115 43.6493 84.35C43.5616 84.4382 39.9655 84.5851 35.6386 84.6439C31.3117 84.732 24.1197 84.8496 19.6758 84.9377C12.8931 85.0846 11.4313 85.0259 10.5542 84.6732C9.96946 84.4382 9.50168 84.2031 9.50168 84.1443C9.50168 84.0856 9.38474 83.3216 9.23856 82.4401C9.09238 81.5292 8.88773 79.296 8.77078 77.4448C8.68308 75.5936 8.5369 73.3899 8.47842 72.5671C8.24454 69.57 8.03989 15.2392 8.24454 13.2705C8.50766 10.9786 8.47842 11.008 11.6944 10.5084C13.6824 10.2146 41.9243 10.1852 45.725 10.479ZM38.4453 60.9605C40.638 61.5188 40.6087 61.4894 39.7901 62.5472C38.6499 64.0458 38.1529 65.515 38.1529 67.3955V69.1292L35.9017 69.2761C30.4639 69.6581 22.2486 69.5406 20.4652 69.0704C18.1555 68.4828 16.4014 67.2486 16.2844 66.1614C15.9628 63.3112 18.2725 61.3719 22.7748 60.696C24.909 60.3728 36.8665 60.5785 38.4453 60.9605Z" fill="#5CA1EA"/>
  <path d="M24.7795 15.0506C22.8178 15.2067 20.1925 15.6751 19.1251 16.0654C18.2885 16.3516 18 16.6118 18 17.0282C18 18.017 18.4904 18.1992 20.0771 17.8088C22.8755 17.1583 26.9432 16.8721 30.4051 17.0802C35.5691 17.4185 36.4923 17.3925 36.8673 16.8721C37.3289 16.1955 36.5788 15.6751 34.7325 15.3628C33.2035 15.1286 26.5393 14.8944 24.7795 15.0506Z" fill="#5CA1EA"/>
  <path d="M25.7921 20.1327C22.6658 20.2314 22 20.4287 22 21.2181C22 21.9088 23.1289 22.0568 27.9342 21.9828C32.3342 21.9088 33 21.7608 33 20.9221C33 20.3054 31.8711 19.9354 30.1632 20.0094C29.4105 20.034 27.4421 20.108 25.7921 20.1327Z" fill="#5CA1EA"/>
  <path d="M27.4786 26.971C27.2202 27.605 26.7322 28.1813 26.1007 28.4984C23.2299 29.9681 23.1725 33.7434 26.0432 35.1555C27.0193 35.6454 27.0767 35.9048 27.3638 40.4581L27.4786 42.4466L26.7035 42.2449C26.3016 42.1584 25.3543 41.438 24.6366 40.6311C23.316 39.1901 23.0577 39.046 22.4835 39.4495C21.9093 39.8241 21.8519 40.5734 22.2825 41.4668C22.7993 42.5619 25.8423 44.6945 26.847 44.6945C27.4212 44.6945 27.536 44.8386 27.536 45.5014C27.536 46.4236 27.9954 47 28.7417 47C29.2872 47 29.8326 46.1931 29.8326 45.3285C29.8326 44.9539 30.091 44.7233 30.6364 44.608C31.7273 44.3775 33.7656 42.8501 34.4258 41.7262C34.7703 41.1786 35 40.2852 35 39.5648C35 37.3169 33.823 35.876 31.0958 34.752L29.402 34.0604L29.3159 32.0431C29.2298 30.2563 29.2872 30.0257 29.8039 29.8528C30.1484 29.7664 30.5503 29.7664 30.6939 29.8528C31.0958 30.1122 32.4163 29.2476 32.4163 28.7289C32.4163 28.0949 31.6986 27.6914 30.6077 27.6338C29.7178 27.605 29.5743 27.4897 29.4881 26.8557C29.4307 26.2793 29.2298 26.0776 28.6556 26.0199C28.0241 25.9335 27.8231 26.1064 27.4786 26.971ZM26.9619 31.9278C26.9619 32.9076 26.9332 32.9653 26.5026 32.533C26.2155 32.2448 26.1007 31.8701 26.2442 31.4667C26.5313 30.4868 26.9619 30.775 26.9619 31.9278ZM31.1245 37.2881C33.134 38.4408 33.2201 40.4293 31.2967 41.7262C29.6891 42.8213 29.603 42.706 29.4881 39.5071C29.4307 37.7204 29.5169 36.6252 29.6891 36.6252C29.8613 36.6252 30.4929 36.9134 31.1245 37.2881Z" fill="#5CA1EA"/>
  <path d="M27.2027 64.0929C25.0528 64.1691 23.4188 64.3468 23.2468 64.4991C23.0461 64.6768 22.9601 65.0575 23.0174 65.3875L23.1034 65.9967H28.6647C34.3407 66.0221 35 65.9205 35 65.0067C35 64.0168 33.6813 63.8645 27.2027 64.0929Z" fill="#5CA1EA"/>
  <path d="M45.7085 66.7864C45.1623 67.24 44.1274 67.9204 43.3799 68.3091C42.23 68.8923 42 69.1515 42 69.8967C42 71.1278 42.7475 71.3222 44.6161 70.5122C47.2322 69.4431 48.6696 67.4668 47.6921 66.3653C47.1747 65.7821 46.8009 65.8793 45.7085 66.7864Z" fill="#5CA1EA"/>
</svg>