<svg width="59" height="88" viewBox="0 0 59 88" fill="none" xmlns="http://www.w3.org/2000/svg">
<mask id="mask0_370_2588" style="mask-type:luminance" maskUnits="userSpaceOnUse" x="2" y="14" width="56" height="73">
<path d="M2 14C2 17.8192 2 21.6401 2 25.4593C11.7393 28.9394 17.5359 35.27 24.7509 42.7068C18.8127 48.381 6.69233 61.3998 6.69233 61.3998C6.94117 67.3287 7.05471 72.7544 7.05471 72.7544C7.05471 72.7544 20.4116 83.3699 25.2735 87C35.2756 74.5672 46.6043 62.6688 58 51.5111C57.6485 51.983 57.8569 51.4454 57.5054 51.9158C57.0482 46.0557 56.5925 40.1955 56.1352 34.3354L2 14Z" fill="white"/>
</mask>
<g mask="url(#mask0_370_2588)">
<mask id="mask1_370_2588" style="mask-type:luminance" maskUnits="userSpaceOnUse" x="-71" y="-264" width="202" height="360">
<path d="M131 -264H-71V96H131V-264Z" fill="white"/>
</mask>
<g mask="url(#mask1_370_2588)">
<path d="M56.0389 111.994C55.8335 111.994 55.664 111.833 55.65 111.629L51.4843 45.4835L53.6402 98.8018C53.648 99.017 53.4816 99.1978 53.2669 99.2072C53.0662 99.201 52.8718 99.0482 52.8625 98.833L50.0034 28.4701L50.2694 95.0318C50.2694 95.2376 50.1108 95.4075 49.907 95.4216C49.6923 95.459 49.5228 95.289 49.4948 95.0848L44.9542 61.2699L47.821 94.2647C47.8397 94.4752 47.6872 94.6623 47.4773 94.6857C47.2781 94.7122 47.0775 94.5625 47.0495 94.352L36.1624 15.7318L39.3061 84.7414C39.3154 84.9581 39.1505 85.139 38.9359 85.1499C38.687 85.1577 38.5392 84.9909 38.5299 84.7788L35.0004 7.33579C34.9911 7.12687 35.1466 6.94915 35.3535 6.92888C35.5651 6.90705 35.7455 7.05672 35.7751 7.26409L45.7273 79.1285L42.7438 44.7881C42.7251 44.5777 42.8776 44.3906 43.0891 44.3672C43.2976 44.3485 43.4889 44.4919 43.5169 44.7024L49.4699 89.0368L49.1417 6.71995C49.1417 6.50634 49.3097 6.33327 49.5228 6.32859C49.7063 6.32703 49.9116 6.48917 49.9194 6.70277L50.089 10.9031L55.8817 102.896L58.5775 0.996321C58.5837 0.785835 58.7564 0.61743 58.9663 0.61743C59.1779 0.61743 59.349 0.785799 59.3552 0.997843L59.7239 17.0664C59.9277 14.1259 60.161 11.1869 60.4223 8.25569C60.441 8.053 60.6183 7.90956 60.8174 7.90021C61.0212 7.90332 61.1876 8.06395 61.1985 8.2682L65.8449 92.5917L66.9477 6.0963C66.9508 5.88581 67.1188 5.71585 67.3288 5.71117C67.5544 5.72988 67.7131 5.87019 67.7239 6.07912L71.9596 85.4352L72.7047 6.42994C72.7078 6.21789 72.8758 6.04641 73.0874 6.04329C73.3129 6.03082 73.4731 6.20386 73.4825 6.4159L77.0026 85.8047L77.0928 -3.14479C77.0928 -3.35528 77.2609 -3.52834 77.4708 -3.53458C77.4755 -3.53458 77.4786 -3.53458 77.4817 -3.53458C77.6871 -3.53458 77.8582 -3.37244 77.8691 -3.16663L82.4687 80.9698L80.9381 8.5083C80.9334 8.29625 81.0999 8.12006 81.3114 8.11071C81.509 8.12006 81.7019 8.26508 81.7159 8.47556L85.5424 69.6426C85.2298 49.2941 85.7836 28.9035 87.2022 8.68916C87.2162 8.48491 87.3857 8.32744 87.5895 8.32744H87.5926C87.798 8.329 87.9675 8.49114 87.9784 8.69539L92.0632 85.4789L92.4272 8.63772C92.4272 8.42567 92.5968 8.25413 92.8083 8.24945C92.8114 8.24945 92.8145 8.24945 92.8161 8.24945C93.023 8.24945 93.1956 8.41161 93.2034 8.62054L95.5522 58.8299C95.4854 38.1618 96.1807 17.4671 97.6366 -3.04815C97.6506 -3.2524 97.8218 -3.40987 98.024 -3.40987C98.0271 -3.40987 98.0286 -3.40987 98.0302 -3.40987C98.2371 -3.40675 98.4051 -3.24149 98.4129 -3.03412L101.597 82.7722L102.574 8.89185C102.577 8.69072 102.729 8.52701 102.929 8.5083C103.135 8.49426 103.308 8.62677 103.345 8.82167C107.393 29.8219 109.745 51.1729 110.378 72.5629L113.058 -8.82167C113.064 -9.02748 113.231 -9.19275 113.436 -9.19899C113.621 -9.18652 113.817 -9.04932 113.834 -8.84351C115.021 4.32196 115.909 17.5576 116.496 30.8228C117.078 20.1161 117.874 9.4313 118.887 -1.19742C118.907 -1.40011 119.075 -1.54202 119.286 -1.54981C119.492 -1.54358 119.657 -1.3783 119.663 -1.17249L121.781 63.7381C122.068 41.3159 123.315 18.8735 125.519 -3.34749C125.54 -3.54706 125.706 -3.69831 125.905 -3.69831C125.907 -3.69831 125.908 -3.69831 125.908 -3.69831C126.111 -3.69675 126.277 -3.54239 126.293 -3.34126C127.492 10.992 128.263 25.4251 128.602 39.8737L129.441 8.26663C129.447 8.05458 129.62 7.88774 129.83 7.88774C130.016 7.91892 130.217 8.05926 130.219 8.27286L130.814 69.4586L132.717 0.714115C132.723 0.50363 132.896 0.335222 133.106 0.335222C133.316 0.335222 133.488 0.503593 133.495 0.715637L135.072 65.938L136.178 12.3344C136.183 12.1208 136.355 11.9524 136.567 11.9524C136.778 11.9524 136.951 12.1224 136.956 12.3344L138.155 79.5089L141.073 -3.3709C141.081 -3.58138 141.252 -3.74665 141.462 -3.74665C141.672 -3.74509 141.846 -3.57671 141.851 -3.36467L143.294 62.338C143.837 37.641 145.466 12.8895 148.16 -11.5626C148.182 -11.7669 148.351 -11.9462 148.566 -11.9088C148.771 -11.8994 148.933 -11.7295 148.936 -11.5237L149.806 72.6798L152.17 -0.0296326C152.176 -0.240118 152.326 -0.419426 152.562 -0.406954C152.772 -0.405394 152.945 -0.236965 152.948 -0.0249214L153.981 49.0774C154.619 29.7907 156.288 10.5118 158.977 -8.53478C159.007 -8.73591 159.2 -8.88559 159.386 -8.86844C159.588 -8.85597 159.747 -8.68758 159.75 -8.48489L160.903 75.8277L167.629 -18.0004C167.645 -18.2078 167.771 -18.3606 168.027 -18.3621C168.234 -18.3559 168.402 -18.189 168.407 -17.9817L169.604 34.5243C170.208 20.2035 171.407 5.90919 173.198 -8.26972C173.224 -8.47397 173.383 -8.63301 173.608 -8.60962C173.814 -8.59715 173.972 -8.42564 173.972 -8.21983L173.963 52.7679L177.183 -20.7383C177.192 -20.9488 177.328 -21.1405 177.577 -21.1109C177.787 -21.1078 177.958 -20.9394 177.961 -20.7289L179.61 68.1364C180.37 44.3064 182.511 20.4654 186.009 -3.04659C186.039 -3.24615 186.205 -3.38025 186.42 -3.37713C186.622 -3.3631 186.781 -3.19783 186.782 -2.99358L187.989 74.2233L191.794 -20.4654C191.802 -20.6759 192.001 -20.8225 192.188 -20.8396C192.398 -20.8381 192.569 -20.6665 192.572 -20.4561L193.836 57.4953L194.428 -9.89903C194.429 -10.1142 194.603 -10.2857 194.816 -10.2857C195.031 -10.2857 195.204 -10.1126 195.205 -9.89903L195.487 28.6619C196.146 18.1922 197.106 7.74899 198.366 -2.63496C198.391 -2.83609 198.582 -2.98421 198.767 -2.97797C198.97 -2.97018 199.131 -2.80648 199.141 -2.60379L202.176 72.237L203.702 -7.42779C203.706 -7.63984 203.882 -7.84876 204.09 -7.80978C204.3 -7.80978 204.473 -7.64295 204.479 -7.43091L206.631 64.4786L207.662 -0.297802C207.667 -0.509846 207.838 -0.681356 208.049 -0.681356H208.051C208.262 -0.681356 208.435 -0.511415 208.44 -0.299372L209.858 69.4134C210.54 46.352 212.459 23.2672 215.598 0.49267C215.626 0.29154 215.774 0.129395 216.006 0.157459C216.208 0.168373 216.367 0.33366 216.373 0.53635L217.571 47.236C218.42 34.2795 220.189 21.3822 222.867 8.63615C222.908 8.44593 223.093 8.30402 223.278 8.32896C223.472 8.34455 223.626 8.50049 223.636 8.69539L227.086 73.4173L231.222 -23.6274C231.231 -23.8363 231.404 -24 231.611 -24C231.615 -24 231.622 -24 231.628 -24C231.843 -23.9906 232.009 -23.8098 232 -23.5931L227.518 81.5529C227.509 81.7603 227.339 81.924 227.131 81.9255C227.129 81.9255 227.129 81.9255 227.129 81.9255C226.922 81.9255 226.751 81.7634 226.742 81.5576L223.021 11.7685C219.979 27.0747 218.252 42.5882 217.851 58.1532L218.574 86.3676C218.579 86.5796 218.415 86.7574 218.205 86.7683C217.98 86.7745 217.815 86.6186 217.798 86.4097C217.071 76.9955 216.83 67.5658 217.073 58.1547L215.721 5.44609C211.82 35.4691 210.033 65.9879 210.406 96.2417C210.407 96.4568 210.238 96.633 210.023 96.6361C210.022 96.6361 210.02 96.6361 210.017 96.6361C209.805 96.6361 209.633 96.4677 209.628 96.2541L208.101 21.1624L207.141 81.4625C207.138 81.6745 206.967 81.8445 206.755 81.846C206.753 81.846 206.753 81.846 206.752 81.846C206.542 81.846 206.369 81.6792 206.363 81.4687L204.178 8.43345L202.706 85.2793C202.703 85.4898 202.532 85.6597 202.322 85.6613C202.32 85.6613 202.319 85.6613 202.317 85.6613C202.109 85.6613 201.938 85.4976 201.928 85.2871L198.567 2.37928C197.091 15.5525 196.098 28.8131 195.586 42.0924L195.95 91.9291C195.952 92.1411 195.786 92.3157 195.574 92.322C195.333 92.3235 195.184 92.1645 195.174 91.954C194.827 85.4352 194.597 78.9008 194.487 72.3617L194.344 88.6362C194.342 88.8498 194.169 89.0212 193.956 89.0228C193.743 89.0228 193.569 88.8529 193.564 88.6392L192.02 -6.64822L188.209 88.1824C188.201 88.3945 188.019 88.5473 187.815 88.5566C187.605 88.5535 187.434 88.3851 187.431 88.1731L186.081 1.89123C181.677 33.2005 179.678 65.0493 180.138 96.6408C180.142 96.856 179.97 97.0337 179.756 97.0369C179.754 97.0369 179.751 97.0369 179.75 97.0369C179.538 97.0369 179.364 96.8669 179.361 96.6549L177.415 -8.23387L173.96 70.6248C173.951 70.8369 173.739 70.9772 173.563 70.9975C173.352 70.9928 173.182 70.8197 173.182 70.6077L173.195 -1.68699C171.247 15.4917 170.169 32.817 169.962 50.1376L170.777 85.8998C170.782 86.1134 170.616 86.2896 170.404 86.299C170.191 86.3021 170.012 86.1431 170 85.9326C169.312 74.0363 169.04 62.0885 169.183 50.1438L167.817 -9.72129L161.027 84.9877C161.012 85.1982 160.824 85.3666 160.628 85.3495C160.419 85.3432 160.253 85.1748 160.25 84.9659L159.044 -3.25708C155.655 22.5687 154.136 48.7827 154.521 74.833L154.661 81.5046C154.665 81.7198 154.496 81.8975 154.281 81.9022C154.088 81.9069 153.889 81.7385 153.883 81.5233V81.5186C153.822 79.2968 153.775 77.0735 153.743 74.8486L152.475 14.5235L149.992 90.8548C149.986 91.0669 149.814 91.2322 149.604 91.2322C149.602 91.2322 149.6 91.2322 149.599 91.2322C149.387 91.229 149.216 91.0591 149.215 90.847L148.227 -4.81153C144.965 27.1464 143.523 59.5564 143.938 91.6375C143.941 91.8527 143.77 92.0273 143.556 92.032C143.329 92.032 143.165 91.8651 143.161 91.6515L141.372 10.2592L138.416 94.1976C138.408 94.4081 138.236 94.5734 138.027 94.5734C138.026 94.5734 138.024 94.5734 138.024 94.5734C137.813 94.5718 137.642 94.4019 137.638 94.1914L136.539 32.5769L135.492 83.3194C135.487 83.5315 135.315 83.7014 135.103 83.7014C134.891 83.7014 134.719 83.5331 134.714 83.321L133.081 15.7412L131.018 90.2732C131.012 90.4853 130.839 90.6521 130.629 90.6521H130.626C130.415 90.6506 130.244 90.479 130.24 90.2654L129.651 29.7112L128.781 62.4128C128.713 71.5588 128.47 80.6923 128.053 89.7931C128.044 90.0067 127.915 90.1797 127.65 90.1641C127.437 90.1563 127.271 89.9786 127.276 89.7634L128.002 62.3988C128.156 41.9521 127.444 21.4383 125.869 1.11637C123.031 31.4949 121.977 62.2553 122.726 92.7897L123.135 105.299C123.141 105.514 122.975 105.693 122.76 105.701C122.536 105.693 122.366 105.54 122.357 105.327C122.187 101.161 122.052 96.9885 121.949 92.8131L119.089 5.14519C118.089 16.619 117.339 28.1505 116.841 39.6991C117.572 61.1234 117.518 82.5944 116.675 103.911C116.667 104.12 116.494 104.285 116.286 104.285C116.077 104.285 115.905 104.119 115.897 103.911C115.085 82.5866 115.141 61.1093 116.063 39.696C115.584 25.673 114.771 11.6671 113.62 -2.26387L110.341 97.3206C110.334 97.5374 110.184 97.6948 109.939 97.6979C109.725 97.6901 109.557 97.5108 109.563 97.2957L109.564 97.2863C110.485 69.0283 108.379 40.6283 103.3 12.8115L102.171 98.2421C102.168 98.4541 101.998 98.6241 101.787 98.6272C101.574 98.6537 101.401 98.4635 101.393 98.253L97.9135 4.51373C96.148 33.0633 95.8525 61.9139 97.0331 90.5024L97.4562 99.572C97.4671 99.7872 97.3007 99.9696 97.0876 99.9805C96.8713 99.9727 96.6909 99.8246 96.68 99.611C96.5213 96.5894 96.3798 93.5646 96.2553 90.5368L93.1303 23.7506L92.7741 98.9234C92.7725 99.1355 92.6045 99.307 92.3945 99.3116C92.1597 99.3116 92.0072 99.1526 91.9979 98.9437L87.5475 15.289C85.8598 42.9983 85.796 70.9928 87.3577 98.7161L87.9069 107.493C87.9209 107.708 87.7575 107.892 87.5444 107.906C87.3251 107.942 87.1462 107.759 87.1306 107.546C86.93 104.621 86.7464 101.694 86.5816 98.7628L82.1125 27.3054L83.7349 104.178C83.7396 104.39 83.5732 104.568 83.3601 104.575C83.1298 104.56 82.9696 104.418 82.9572 104.207L77.8535 10.847L77.7602 102.977C77.7602 103.189 77.5906 103.362 77.3791 103.367C77.1675 103.348 76.9917 103.206 76.9824 102.994L73.344 20.9175L72.6192 97.8414C72.6176 98.0534 72.4496 98.2234 72.2381 98.2281C72.0343 98.2125 71.8523 98.069 71.8414 97.8601L67.5731 17.8803L66.4749 104.076C66.4717 104.287 66.3037 104.457 66.0937 104.462C65.8822 104.449 65.708 104.303 65.6971 104.094L60.7303 13.9497C60.4083 18.1657 60.1439 22.3894 59.9417 26.6162L61.4116 90.7551C61.4163 90.9655 61.2545 91.1401 61.0461 91.1542C60.833 91.162 60.6556 91.0092 60.6354 90.8003C58.6257 69.521 58.1357 48 59.1639 26.6069L58.9383 16.7749L56.4293 111.621C56.4246 111.83 56.2551 111.995 56.0466 112C56.0435 111.994 56.042 111.994 56.0389 111.994ZM116.399 52.2081C116.042 65.2957 116.007 78.391 116.298 91.4442C116.626 78.3925 116.659 65.3019 116.399 52.2081ZM59.4843 40.6252C59.279 52.6868 59.5543 64.764 60.3134 76.7913L59.4843 40.6252ZM194.779 38.4907L194.729 44.1661C194.754 43.4707 194.779 42.7768 194.806 42.0815L194.779 38.4907Z" fill="black"/>
<path d="M51.0383 216C50.833 216 50.6635 215.839 50.6495 215.635L46.4839 149.491L48.6398 202.808C48.6476 203.023 48.4811 203.204 48.2665 203.214C48.058 203.234 47.8714 203.055 47.862 202.839L45.0031 132.476L45.269 199.037C45.269 199.243 45.1104 199.413 44.9066 199.427C44.6889 199.47 44.5224 199.294 44.4944 199.09L39.954 165.276L42.8207 198.268C42.8394 198.479 42.6869 198.666 42.477 198.689C42.281 198.716 42.0772 198.566 42.0492 198.355L31.1623 119.738L34.306 188.747C34.3153 188.963 34.1504 189.144 33.9358 189.155C33.7149 189.147 33.5391 188.998 33.5298 188.784L30.0004 111.343C29.9911 111.134 30.1466 110.956 30.3535 110.936C30.5588 110.912 30.7455 111.063 30.775 111.271L40.727 183.132L37.7436 148.793C37.7249 148.582 37.8774 148.395 38.0889 148.372C38.3005 148.333 38.4887 148.498 38.5167 148.707L44.4695 193.04L44.1413 110.727C44.1413 110.513 44.3093 110.34 44.5224 110.335C44.524 110.335 44.5286 110.335 44.5302 110.335C44.7386 110.335 44.9097 110.499 44.9191 110.71L45.0886 114.91L50.8812 206.901L53.5769 105.002C53.5831 104.79 53.7558 104.623 53.9658 104.623C54.1773 104.623 54.3484 104.791 54.3546 105.003L54.7233 121.071C54.9271 118.133 55.1604 115.194 55.4217 112.262C55.4404 112.06 55.6581 111.91 55.8153 111.907C56.019 111.91 56.1855 112.071 56.1963 112.275L60.8426 196.597L61.9454 110.103C61.9485 109.893 62.1165 109.723 62.3265 109.718C62.5318 109.72 62.7107 109.879 62.7216 110.086L66.9572 189.44L67.7023 110.437C67.7038 110.225 67.8734 110.053 68.0849 110.05C68.2716 110.048 68.4707 110.212 68.48 110.423L72.0001 189.81L72.0903 100.862C72.0903 100.65 72.2583 100.479 72.4683 100.472C72.7156 100.471 72.854 100.631 72.8665 100.84L77.4661 184.975L75.9355 112.517C75.9308 112.305 76.0972 112.128 76.3088 112.119C76.5281 112.108 76.7008 112.273 76.7132 112.484L80.5381 173.65C80.2255 153.302 80.7792 132.911 82.1978 112.697C82.2118 112.493 82.3814 112.336 82.5852 112.336C82.7718 112.295 82.9632 112.496 82.974 112.704L87.0587 189.486L87.4227 112.646C87.4243 112.434 87.5923 112.262 87.8038 112.258C88.0465 112.287 88.1911 112.418 88.2005 112.629L90.5508 162.85C90.4839 142.177 91.1777 121.48 92.6336 100.962C92.6492 100.756 92.8436 100.63 93.0287 100.6C93.2356 100.603 93.4036 100.769 93.4114 100.974L96.5954 186.777L97.5723 112.9C97.5754 112.699 97.7278 112.535 97.9269 112.517C98.1229 112.499 98.3049 112.635 98.3438 112.83C102.391 133.83 104.743 155.179 105.376 176.568L108.056 95.1885C108.062 94.9812 108.229 94.8175 108.434 94.8112C108.629 94.8237 108.814 94.9625 108.832 95.1667C110.019 108.332 110.907 121.567 111.494 134.831C112.076 124.126 112.872 113.441 113.885 102.813C113.903 102.608 114.099 102.449 114.284 102.459C114.49 102.465 114.655 102.63 114.661 102.836L116.779 167.753C117.066 145.325 118.313 122.883 120.517 100.663C120.537 100.463 120.704 100.312 120.903 100.312H120.906C121.108 100.313 121.275 100.468 121.292 100.669C122.491 115 123.263 129.433 123.602 143.883L124.442 112.276C124.448 112.064 124.621 111.898 124.831 111.898C124.831 111.898 124.832 111.898 124.834 111.898C125.045 111.899 125.218 112.071 125.219 112.283L125.817 173.467L127.718 104.724C127.724 104.512 127.896 104.345 128.106 104.345C128.316 104.345 128.489 104.514 128.495 104.726L130.073 169.947L131.179 116.344C131.183 116.131 131.356 115.962 131.567 115.962C131.779 115.962 131.953 116.132 131.956 116.344L133.156 183.517L136.075 100.639C136.083 100.429 136.254 100.263 136.464 100.263C136.466 100.263 136.466 100.263 136.467 100.263C136.677 100.265 136.85 100.433 136.853 100.644L138.296 166.347C138.839 141.65 140.468 116.899 143.162 92.4476C143.185 92.2434 143.358 92.1015 143.568 92.0999C143.773 92.1108 143.935 92.2792 143.938 92.485L144.808 176.687L147.174 103.98C147.18 103.77 147.353 103.603 147.563 103.603H147.566C147.776 103.605 147.948 103.773 147.951 103.985L148.984 153.085C149.622 133.799 151.291 114.52 153.98 95.4738C154.01 95.2711 154.201 95.1168 154.39 95.1402C154.592 95.1527 154.75 95.3195 154.754 95.5222L155.906 179.833L162.632 86.0069C162.648 85.798 162.808 85.6545 163.03 85.6436C163.237 85.6483 163.405 85.8166 163.41 86.024L164.608 138.526C165.211 124.207 166.41 109.914 168.201 95.7373C168.227 95.5331 168.389 95.3507 168.611 95.3975C168.817 95.4099 168.975 95.5799 168.975 95.7857L168.966 156.774L172.186 83.2675C172.195 83.057 172.397 82.8762 172.579 82.8949C172.789 82.898 172.96 83.0664 172.964 83.2768L174.612 172.136C175.373 148.308 177.513 124.467 181.012 100.959C181.041 100.759 181.208 100.606 181.422 100.628C181.625 100.641 181.782 100.808 181.785 101.01L182.992 178.226L186.797 83.5388C186.804 83.3267 186.966 83.1911 187.19 83.1646C187.4 83.1677 187.571 83.3361 187.574 83.5482L188.839 161.496L189.43 94.1049C189.432 93.8898 189.606 93.7183 189.819 93.7183C190.033 93.7183 190.206 93.8913 190.208 94.1049L190.489 132.667C191.149 122.196 192.11 111.753 193.37 101.367C193.395 101.166 193.575 101.043 193.771 101.024C193.974 101.034 194.135 101.194 194.145 101.399L197.178 176.236L198.704 96.5746C198.707 96.3625 198.88 96.1941 199.09 96.1926H199.093C199.303 96.1926 199.475 96.361 199.482 96.5699L201.633 168.478L202.664 103.703C202.667 103.489 202.84 103.319 203.053 103.319C203.264 103.319 203.437 103.488 203.442 103.701L204.86 173.413C205.542 150.352 207.461 127.267 210.599 104.493C210.627 104.292 210.774 104.146 211.006 104.157C211.208 104.169 211.367 104.333 211.373 104.535L212.571 151.236C213.42 138.279 215.189 125.382 217.867 112.637C217.908 112.446 218.09 112.303 218.278 112.329C218.472 112.345 218.626 112.501 218.636 112.696L222.086 177.418L226.222 80.3738C226.231 80.1586 226.37 79.984 226.628 80.0012C226.843 80.0105 227.009 80.1929 227 80.4081L222.518 185.553C222.509 185.761 222.339 185.925 222.133 185.926C222.131 185.926 222.131 185.926 222.129 185.926C221.923 185.926 221.751 185.764 221.742 185.558L218.021 115.77C214.979 131.076 213.252 146.59 212.851 162.154L213.574 190.368C213.58 190.58 213.416 190.758 213.206 190.769C212.978 190.764 212.815 190.619 212.798 190.41C212.072 180.996 211.831 171.567 212.073 162.156L210.721 109.447C206.82 139.471 205.033 169.989 205.408 200.242C205.409 200.457 205.24 200.633 205.025 200.636C205.024 200.636 205.021 200.636 205.019 200.636C204.808 200.636 204.635 200.468 204.63 200.254L203.103 125.163L202.143 185.463C202.14 185.675 201.969 185.845 201.757 185.847H201.754C201.544 185.847 201.371 185.68 201.365 185.469L199.18 112.435L197.708 189.28C197.705 189.49 197.534 189.66 197.324 189.662C197.322 189.662 197.323 189.662 197.319 189.662C197.111 189.662 196.94 189.498 196.931 189.288L193.571 106.38C192.095 119.554 191.101 132.815 190.59 146.097L190.954 195.929C190.956 196.141 190.788 196.316 190.578 196.322C190.34 196.335 190.189 196.163 190.178 195.954C189.831 189.436 189.601 182.901 189.491 176.363L189.348 192.637C189.346 192.85 189.173 193.022 188.96 193.023C188.747 193.023 188.573 192.853 188.57 192.64L187.025 97.3526L183.214 192.183C183.206 192.395 182.987 192.559 182.821 192.557C182.611 192.554 182.44 192.386 182.436 192.174L181.086 105.893C176.683 137.201 174.684 169.049 175.144 200.641C175.148 200.856 174.976 201.034 174.762 201.037C174.76 201.037 174.759 201.037 174.756 201.037C174.544 201.037 174.37 200.867 174.367 200.655L172.422 95.767L168.968 174.626C168.958 174.838 168.742 174.995 168.571 174.998C168.359 174.994 168.19 174.821 168.19 174.609L168.202 102.315C166.256 119.491 165.177 136.812 164.97 154.128L165.787 189.897C165.791 190.111 165.625 190.287 165.413 190.296C165.203 190.296 165.021 190.14 165.009 189.93C164.321 178.031 164.049 166.082 164.192 154.133L162.826 94.2764L156.037 188.985C156.021 189.194 155.849 189.369 155.637 189.347C155.429 189.341 155.262 189.172 155.259 188.963L154.054 100.742C150.664 126.567 149.146 152.781 149.53 178.831L149.67 185.502C149.675 185.717 149.505 185.895 149.291 185.9C149.074 185.925 148.899 185.736 148.892 185.521V185.516C148.832 183.294 148.785 181.071 148.752 178.846L147.485 118.522L145.002 194.851C144.996 195.063 144.823 195.228 144.613 195.228C144.612 195.228 144.61 195.228 144.609 195.228C144.397 195.225 144.226 195.055 144.224 194.843L143.237 99.1861C139.975 131.145 138.533 163.556 138.948 195.635C138.951 195.85 138.78 196.025 138.566 196.029C138.351 196.067 138.175 195.861 138.17 195.649L136.382 114.258L133.426 198.195C133.418 198.405 133.246 198.571 133.037 198.571C132.826 198.569 132.653 198.399 132.648 198.189L131.55 136.577L130.503 187.318C130.499 187.53 130.326 187.7 130.115 187.7C129.903 187.7 129.73 187.532 129.726 187.32L128.092 119.745L126.031 194.272C126.025 194.484 125.853 194.651 125.643 194.651C125.643 194.651 125.641 194.651 125.639 194.651C125.428 194.649 125.257 194.478 125.254 194.266L124.663 133.705L123.793 166.412C123.725 175.558 123.482 184.691 123.065 193.79C123.056 193.999 122.885 194.161 122.676 194.161C122.672 194.161 122.667 194.161 122.662 194.161C122.449 194.154 122.283 193.976 122.287 193.761L123.014 166.397C123.168 145.95 122.455 125.439 120.881 105.115C118.042 135.498 116.989 166.266 117.739 196.812L118.147 209.297C118.153 209.512 117.986 209.692 117.772 209.7C117.543 209.715 117.378 209.539 117.369 209.325C117.199 205.167 117.064 201.004 116.961 196.835L114.099 109.146C113.099 120.621 112.349 132.149 111.852 143.699C112.583 165.123 112.528 186.592 111.685 207.908C111.677 208.117 111.505 208.282 111.296 208.282C111.088 208.282 110.915 208.116 110.907 207.908C110.095 186.586 110.151 165.109 111.074 143.696C110.595 129.673 109.78 115.668 108.63 101.737L105.351 201.318C105.345 201.533 105.211 201.717 104.95 201.695C104.735 201.687 104.567 201.508 104.574 201.293V201.282C105.494 173.024 103.388 144.628 98.3096 116.812L97.1803 202.241C97.1772 202.453 97.0076 202.623 96.7961 202.626C96.7945 202.626 96.793 202.626 96.7914 202.626C96.583 202.626 96.4103 202.461 96.4025 202.252L92.9229 108.516C91.1574 137.074 90.8635 165.938 92.0441 194.536L92.4656 203.572C92.4765 203.787 92.3101 203.97 92.097 203.981C91.8932 203.97 91.7019 203.825 91.6894 203.611C91.5308 200.599 91.3908 197.588 91.2663 194.57L88.1398 127.752L87.7836 202.924C87.7821 203.136 87.6141 203.307 87.4041 203.312C87.1832 203.271 87.0168 203.153 87.0074 202.944L82.5572 119.291C80.8695 147 80.8057 174.994 82.3658 202.716L82.9149 211.493C82.9289 211.708 82.7656 211.892 82.5525 211.906C82.3363 211.956 82.1543 211.759 82.1387 211.546C81.9381 208.621 81.7545 205.694 81.5897 202.763L77.1207 131.307L78.7431 208.176C78.7478 208.388 78.5813 208.566 78.3682 208.574C78.1505 208.56 77.9778 208.416 77.9654 208.206L72.8618 114.847L72.7685 206.977C72.7685 207.189 72.5989 207.362 72.3874 207.367C72.1712 207.367 72.0001 207.205 71.9908 206.995L68.3525 124.919L67.6276 201.842C67.6245 202.054 67.4581 202.224 67.2465 202.228C67.0567 202.224 66.8608 202.068 66.8499 201.86L62.5816 121.882L61.4834 208.077C61.4803 208.287 61.3123 208.457 61.1024 208.462C61.0992 208.462 61.0961 208.462 61.0946 208.462C60.8892 208.462 60.7181 208.299 60.7057 208.094L55.739 117.952C55.417 122.166 55.1542 126.39 54.9504 130.616L56.4203 194.755C56.425 194.966 56.2632 195.141 56.0548 195.155C55.837 195.145 55.6644 195.01 55.6441 194.801C53.6345 173.519 53.1445 151.998 54.1727 130.607L53.9471 120.774L51.4381 215.621C51.4334 215.83 51.2639 215.995 51.0555 216C51.043 216 51.0415 216 51.0383 216ZM111.397 156.219C111.04 169.304 111.005 182.399 111.296 195.451C111.625 182.401 111.657 169.309 111.397 156.219ZM54.4838 144.633C54.2784 156.694 54.5537 168.771 55.3128 180.797L54.4838 144.633ZM189.775 142.5L189.726 148.18C189.75 147.483 189.775 146.789 189.802 146.092L189.775 142.5Z" fill="black"/>
</g>
<mask id="mask2_370_2588" style="mask-type:luminance" maskUnits="userSpaceOnUse" x="-71" y="-264" width="202" height="360">
<path d="M131 -264H-71V96H131V-264Z" fill="white"/>
</mask>
<g mask="url(#mask2_370_2588)">
<path d="M-145.963 111.995C-146.169 111.995 -146.338 111.835 -146.352 111.63L-150.518 45.4612L-148.36 98.8029C-148.353 99.0181 -148.519 99.199 -148.734 99.2083C-148.944 99.2021 -149.129 99.0493 -149.138 98.8341L-149.141 98.725L-151.997 28.4535L-151.731 95.0328C-151.731 95.2386 -151.89 95.4085 -152.093 95.4226C-152.302 95.46 -152.478 95.29 -152.506 95.0858L-157.046 61.2699L-154.179 94.2656C-154.161 94.4761 -154.313 94.6633 -154.523 94.6867C-154.722 94.7132 -154.923 94.5635 -154.951 94.353L-165.838 15.7304L-162.694 84.7421C-162.685 84.9588 -162.85 85.1397 -163.064 85.1506C-163.307 85.1584 -163.461 84.9916 -163.47 84.7795L-167 7.33413C-167.009 7.1252 -166.853 6.94747 -166.647 6.9272C-166.438 6.90537 -166.255 7.05505 -166.225 7.26242L-156.273 79.129L-159.256 44.7876C-159.275 44.5771 -159.123 44.39 -158.911 44.3667C-158.698 44.3479 -158.511 44.4914 -158.483 44.7019L-152.531 89.0377L-152.859 6.71984C-152.859 6.50623 -152.691 6.33315 -152.478 6.32847C-152.476 6.32847 -152.473 6.32847 -152.47 6.32847C-152.261 6.32847 -152.09 6.49217 -152.081 6.70266L-151.913 10.8688L-146.119 102.899L-143.423 0.995989C-143.417 0.785498 -143.244 0.617134 -143.034 0.617134C-142.823 0.617134 -142.652 0.785509 -142.646 0.997561L-142.277 17.0651C-142.073 14.126 -141.84 11.1869 -141.578 8.25562C-141.56 8.05293 -141.39 7.90949 -141.185 7.90013C-140.981 7.90325 -140.815 8.06384 -140.804 8.26809L-136.158 92.5942L-135.055 6.09612C-135.052 5.88563 -134.884 5.71571 -134.674 5.71103C-134.672 5.71103 -134.669 5.71103 -134.666 5.71103C-134.459 5.71103 -134.288 5.87318 -134.277 6.07899L-130.042 85.4375L-129.296 6.42982C-129.295 6.21777 -129.125 6.04623 -128.914 6.04311C-128.718 6.03064 -128.528 6.20373 -128.519 6.41578L-124.999 85.807L-124.908 -3.1452C-124.908 -3.35569 -124.74 -3.52876 -124.53 -3.535C-124.527 -3.535 -124.523 -3.535 -124.52 -3.535C-124.314 -3.535 -124.143 -3.37286 -124.131 -3.16704L-119.531 80.9719L-121.062 8.50824C-121.066 8.29619 -120.9 8.12 -120.688 8.11064C-120.469 8.12 -120.298 8.26497 -120.284 8.47546L-116.458 69.6522C-116.772 49.2984 -116.218 28.9041 -114.798 8.68911C-114.784 8.48485 -114.614 8.32733 -114.409 8.32733C-114.202 8.32889 -114.033 8.49109 -114.022 8.69534L-109.935 85.4811L-109.572 8.63762C-109.572 8.42557 -109.402 8.25407 -109.19 8.24939C-108.938 8.2681 -108.803 8.40844 -108.794 8.62049L-106.443 58.8454C-106.51 38.172 -105.817 17.4705 -104.359 -3.04699C-104.345 -3.25125 -104.174 -3.40872 -103.97 -3.40872C-103.969 -3.40872 -103.966 -3.40872 -103.964 -3.40872C-103.757 -3.4056 -103.589 -3.24033 -103.581 -3.03295L-100.397 82.7759L-99.4205 8.89333C-99.4174 8.6922 -99.2649 8.52848 -99.0658 8.50977C-98.8683 8.49573 -98.6879 8.62829 -98.649 8.82319C-94.6016 29.824 -92.2497 51.1757 -91.6167 72.5663L-88.9366 -8.8207C-88.9304 -9.02652 -88.7639 -9.1918 -88.5586 -9.19804C-88.3719 -9.18556 -88.1775 -9.04836 -88.1604 -8.84255C-86.972 4.32176 -86.0854 17.5609 -85.499 30.8266C-84.9172 20.1196 -84.1208 9.43597 -83.1082 -1.19621C-83.088 -1.3989 -82.9013 -1.54081 -82.7085 -1.5486C-82.5031 -1.54237 -82.3383 -1.37708 -82.332 -1.17127L-80.215 63.7366C-79.9288 41.3138 -78.6813 18.8737 -76.4772 -3.34638C-76.457 -3.54596 -76.289 -3.69716 -76.0899 -3.69716C-76.0884 -3.69716 -76.0868 -3.69716 -76.0868 -3.69716C-75.8846 -3.6956 -75.7182 -3.54124 -75.7026 -3.3401C-74.5033 10.9936 -73.7318 25.4271 -73.3927 39.8762L-72.5528 8.26809C-72.5466 8.05604 -72.3739 7.88923 -72.1639 7.88923C-72.1639 7.88923 -72.1623 7.88923 -72.1608 7.88923C-71.9492 7.89079 -71.7766 8.06227 -71.775 8.27432L-71.1777 69.4666L-69.2754 0.715345C-69.2692 0.504854 -69.0965 0.336443 -68.8865 0.336443C-68.675 0.336443 -68.5023 0.504864 -68.4977 0.716915L-66.9204 65.9366L-65.816 12.3361C-65.8113 12.1224 -65.6387 11.9541 -65.4271 11.9541C-65.2156 11.9541 -65.0429 12.124 -65.0383 12.3361L-63.839 79.5125L-60.9194 -3.36975C-60.9116 -3.58024 -60.7405 -3.74551 -60.5305 -3.74551C-60.529 -3.74551 -60.529 -3.74551 -60.5274 -3.74551C-60.3174 -3.74395 -60.1448 -3.57556 -60.1416 -3.36351L-58.6982 62.3364C-58.1553 37.6403 -56.5283 12.8896 -53.8326 -11.5618C-53.8093 -11.766 -53.6336 -11.9453 -53.4267 -11.9079C-53.2214 -11.8986 -53.0596 -11.7286 -53.0565 -11.5228L-52.187 72.6801L-49.8226 -0.0283756C-49.8164 -0.238869 -49.6562 -0.418182 -49.4322 -0.405708C-49.2222 -0.40415 -49.0496 -0.235764 -49.0449 -0.0237122L-48.0121 49.0816C-47.3743 29.7912 -45.7053 10.5149 -43.0159 -8.5338C-42.9879 -8.73494 -42.837 -8.90178 -42.6068 -8.86748C-42.4046 -8.85501 -42.2444 -8.68661 -42.2428 -8.48391L-41.0902 75.8313L-34.3628 -17.9997C-34.3472 -18.2071 -34.1808 -18.3599 -33.9646 -18.3614C-33.7577 -18.3552 -33.5897 -18.1884 -33.585 -17.981L-32.3873 34.525C-31.7838 20.2037 -30.5861 5.91216 -28.7957 -8.26874C-28.7693 -8.473 -28.62 -8.63204 -28.3851 -8.60865C-28.1798 -8.59618 -28.0211 -8.42467 -28.0211 -8.21885L-28.0304 52.7738L-24.8106 -20.7377C-24.8013 -20.9482 -24.6597 -21.1399 -24.4186 -21.1103C-24.2086 -21.1072 -24.0375 -20.9388 -24.0344 -20.7283L-22.3872 68.1366C-21.6266 44.3074 -19.4862 20.4657 -15.988 -3.04542C-15.9584 -3.245 -15.778 -3.3791 -15.5773 -3.37598C-15.3751 -3.36195 -15.218 -3.19667 -15.2149 -2.99241L-14.0078 74.2269L-10.2032 -20.4648C-10.1954 -20.6753 -9.98851 -20.8219 -9.80963 -20.839C-9.59964 -20.8375 -9.42853 -20.6659 -9.42542 -20.4554L-8.16081 57.4966L-7.56973 -9.8981C-7.56818 -10.1133 -7.39397 -10.2848 -7.18086 -10.2848C-6.96622 -10.2848 -6.79355 -10.1117 -6.79201 -9.8981L-6.51047 28.6655C-5.85094 18.1939 -4.88965 7.75047 -3.62971 -2.63535C-3.60483 -2.83649 -3.42439 -2.98461 -3.22841 -2.97838C-3.0262 -2.97058 -2.86443 -2.80688 -2.8551 -2.60418L0.178085 72.2389L1.70399 -7.42679C1.70866 -7.63884 1.90932 -7.84776 2.09286 -7.80878C2.30286 -7.80878 2.47551 -7.64195 2.48174 -7.4299L4.63297 64.4819L5.66425 -0.296553C5.66736 -0.508604 5.84001 -0.68012 6.05312 -0.68012C6.26465 -0.68012 6.43732 -0.510174 6.44197 -0.298124L7.86057 69.4183C8.54185 46.3593 10.4613 23.2723 13.5987 0.493942C13.6252 0.292805 13.7854 0.130655 14.0062 0.15872C14.2085 0.169634 14.3687 0.334927 14.3733 0.537622L15.571 47.2402C16.4203 34.2817 18.1889 21.3841 20.8674 8.63762C20.9079 8.4474 21.0868 8.30553 21.2781 8.33047C21.4725 8.34607 21.6265 8.50196 21.6358 8.69686L25.0859 73.4223L29.2219 -23.6269C29.2312 -23.842 29.3697 -24.0104 29.6279 -23.9995C29.8425 -23.9901 30.009 -23.8093 29.9996 -23.5925L25.5183 81.5566C25.509 81.764 25.3394 81.9277 25.1326 81.9293C24.9257 81.9293 24.753 81.7672 24.7421 81.5613L21.0214 11.7701C17.9789 27.0767 16.2523 42.5907 15.851 58.1562L16.5743 86.3714C16.579 86.5835 16.4157 86.7612 16.2057 86.7721C15.9677 86.7784 15.8137 86.6225 15.7982 86.4136C15.0717 76.9991 14.8306 67.5691 15.0733 58.1578L13.7216 5.44752C9.82047 35.4761 8.03323 65.9959 8.40654 96.2459C8.40965 96.461 8.23854 96.6372 8.0239 96.6403C8.02234 96.6403 8.02078 96.6403 8.01767 96.6403C7.80612 96.6403 7.63347 96.4719 7.6288 96.2583L6.10133 21.1627L5.1416 81.4662C5.13849 81.6783 4.96739 81.8482 4.75584 81.8498C4.75429 81.8498 4.75273 81.8498 4.75273 81.8498C4.54274 81.8498 4.37009 81.6829 4.36386 81.4725L2.17842 8.43492L0.70694 85.2831C0.703827 85.4936 0.53273 85.6636 0.322739 85.6651C0.321182 85.6651 0.319626 85.6651 0.318069 85.6651C0.109634 85.6651 -0.0614624 85.5014 -0.0708008 85.2909L-3.44463 2.37589C-4.92076 15.5511 -5.91472 28.8121 -6.42491 42.0949L-6.06093 91.93C-6.05937 92.142 -6.2258 92.3166 -6.43735 92.3229C-6.694 92.3244 -6.82622 92.1654 -6.83711 91.9549C-7.18553 85.4359 -7.41418 78.9013 -7.52463 72.362L-7.66772 88.637C-7.66928 88.8521 -7.85439 89.0049 -8.05659 89.0236C-8.26814 89.0236 -8.44235 88.8537 -8.44547 88.6401L-9.99005 -6.6503L-13.801 88.1832C-13.8087 88.3953 -13.983 88.5481 -14.1945 88.5575C-14.4045 88.5543 -14.5756 88.3859 -14.5787 88.1739L-15.9288 1.88941C-20.3324 33.1997 -22.3312 65.0494 -21.8708 96.6419C-21.8677 96.8571 -22.0388 97.0348 -22.2534 97.0379C-22.255 97.0379 -22.2565 97.0379 -22.2596 97.0379C-22.4712 97.0379 -22.6454 96.868 -22.6485 96.6559L-24.5944 -8.23601L-28.0476 70.622C-28.0569 70.834 -28.2575 70.9744 -28.4442 70.9946C-28.6557 70.99 -28.8253 70.8169 -28.8253 70.6048L-28.8128 -1.69207C-30.7587 15.4872 -31.8382 32.8099 -32.0451 50.1326L-31.2301 85.8974C-31.2254 86.111 -31.3918 86.2872 -31.6034 86.2966C-31.8056 86.2997 -31.9938 86.1407 -32.0078 85.9302C-32.6953 74.032 -32.9675 62.0869 -32.8244 50.1388L-34.1901 -9.72816L-40.9798 84.9853C-40.9953 85.1958 -41.1586 85.3642 -41.3795 85.347C-41.588 85.3408 -41.7544 85.1724 -41.7575 84.9635L-42.963 -3.26373C-46.3524 22.5628 -47.8705 48.776 -47.4863 74.8287L-47.3463 81.5005C-47.3417 81.7157 -47.5112 81.8934 -47.7259 81.8981C-47.9436 81.9028 -48.1178 81.7344 -48.1241 81.5192C-48.1847 79.2943 -48.2314 77.0693 -48.2641 74.8427L-49.5318 14.5189L-52.0143 90.851C-52.0205 91.063 -52.1932 91.2283 -52.4032 91.2283C-52.4047 91.2283 -52.4063 91.2283 -52.4078 91.2283C-52.6194 91.2252 -52.7905 91.0553 -52.792 90.8432L-53.7798 -4.81827C-57.0431 27.1406 -58.4851 59.5533 -58.0682 91.6353C-58.0651 91.8505 -58.2362 92.0251 -58.4508 92.0298C-58.6671 92.0298 -58.8428 91.863 -58.8459 91.6493L-60.6347 10.253L-63.5917 94.1955C-63.5995 94.406 -63.7706 94.5713 -63.9806 94.5713H-63.9837C-64.1952 94.5697 -64.3663 94.3998 -64.3694 94.1893L-65.4691 32.5791L-66.5144 83.317C-66.5191 83.529 -66.6917 83.699 -66.9033 83.699C-67.1148 83.699 -67.2875 83.5306 -67.2922 83.3185L-68.9254 15.7367L-70.988 90.271C-70.9942 90.4831 -71.1668 90.6499 -71.3768 90.6499C-71.3768 90.6499 -71.3784 90.6499 -71.3799 90.6499C-71.5915 90.6483 -71.7626 90.4768 -71.7657 90.2648L-72.3568 29.7008L-73.2263 62.4097C-73.2947 71.5575 -73.5374 80.6897 -73.9543 89.7908C-73.9636 89.9997 -74.1347 90.1619 -74.3431 90.1619C-74.3478 90.1619 -74.3525 90.1619 -74.3571 90.1619C-74.5702 90.1541 -74.7367 89.9763 -74.732 89.7612L-74.0056 62.3956C-73.8516 41.9468 -74.564 21.434 -76.1381 1.11138C-78.9769 31.4892 -80.0299 62.2506 -79.2818 92.7875L-78.8727 105.297C-78.8664 105.512 -79.0329 105.691 -79.2475 105.699C-79.4855 105.691 -79.6411 105.539 -79.6504 105.325C-79.82 101.16 -79.9553 96.9865 -80.0579 92.8125L-82.9184 5.14189C-83.9186 16.6176 -84.6684 28.151 -85.1661 39.6984C-84.4366 61.1218 -84.4895 82.5904 -85.3326 103.911C-85.3403 104.12 -85.513 104.285 -85.7214 104.285C-85.9299 104.285 -86.1025 104.118 -86.1103 103.911C-86.9238 82.5904 -86.8662 61.1109 -85.9438 39.6953C-86.4229 25.6672 -87.238 11.664 -88.3875 -2.26896L-91.6664 97.3201C-91.6727 97.5369 -91.8298 97.6944 -92.0678 97.6975C-92.2824 97.6897 -92.4504 97.5104 -92.4442 97.2952V97.2858C-91.5233 69.0285 -93.6294 40.6277 -98.7065 12.8085L-99.8373 98.2416C-99.8405 98.4537 -100.01 98.6236 -100.222 98.6267C-100.422 98.6532 -100.607 98.463 -100.615 98.2525L-104.093 4.51042C-105.859 33.0687 -106.154 61.9357 -104.972 90.536L-104.55 99.5732C-104.54 99.7884 -104.706 99.9708 -104.919 99.9817C-105.126 99.9739 -105.314 99.8258 -105.327 99.6122C-105.485 96.6029 -105.625 93.5874 -105.75 90.5704L-108.876 23.7525L-109.232 98.9245C-109.232 99.1366 -109.402 99.3081 -109.612 99.3128C-109.841 99.3128 -109.999 99.1537 -110.009 98.9448L-114.459 15.2876C-116.146 43.0024 -116.209 71.004 -114.647 98.7437L-114.099 107.492C-114.085 107.707 -114.249 107.891 -114.462 107.906C-114.675 107.937 -114.862 107.759 -114.876 107.545C-115.076 104.63 -115.258 101.712 -115.423 98.7905L-119.894 27.3059L-118.27 104.177C-118.265 104.39 -118.431 104.567 -118.645 104.575C-118.865 104.559 -119.035 104.418 -119.047 104.207L-124.153 10.8408L-124.246 102.977C-124.246 103.189 -124.415 103.362 -124.627 103.367C-124.828 103.348 -125.014 103.206 -125.024 102.994L-128.662 20.9163L-129.387 97.8409C-129.39 98.0529 -129.556 98.2229 -129.768 98.2276C-129.965 98.212 -130.154 98.0686 -130.164 97.8596L-134.434 17.8774L-135.534 104.076C-135.537 104.287 -135.705 104.457 -135.915 104.461C-135.918 104.461 -135.921 104.461 -135.923 104.461C-136.128 104.461 -136.299 104.299 -136.312 104.093L-141.278 13.9467C-141.6 18.1612 -141.863 22.3851 -142.067 26.6121L-140.597 90.7544C-140.592 90.9649 -140.754 91.1395 -140.963 91.1535C-141.173 91.1613 -141.353 91.0085 -141.373 90.7996C-143.383 69.5165 -143.874 47.9949 -142.845 26.6011L-143.07 16.7688L-145.579 111.621C-145.585 111.83 -145.753 111.995 -145.962 112C-145.959 111.995 -145.96 111.995 -145.963 111.995ZM-85.6032 52.211C-85.961 65.2989 -85.9952 78.3946 -85.7043 91.4466C-85.3777 78.3946 -85.345 65.302 -85.6032 52.211ZM-142.52 40.623C-142.725 52.685 -142.45 64.7641 -141.69 76.7902L-142.52 40.623ZM-7.22752 38.4885L-7.2773 44.1686C-7.25241 43.4716 -7.22754 42.7778 -7.2011 42.0809L-7.22752 38.4885Z" fill="black"/>
<path d="M-150.962 215.995C-151.167 215.995 -151.337 215.835 -151.351 215.63L-155.517 149.463L-153.359 202.804C-153.351 203.019 -153.518 203.2 -153.733 203.209C-153.95 203.229 -154.128 203.05 -154.137 202.835L-156.996 132.456L-156.73 199.032C-156.729 199.238 -156.889 199.408 -157.093 199.422C-157.304 199.466 -157.477 199.289 -157.505 199.085L-162.046 165.269L-159.179 198.263C-159.16 198.474 -159.314 198.661 -159.522 198.684C-159.718 198.711 -159.922 198.561 -159.95 198.351L-170.838 119.734L-167.694 188.742C-167.684 188.959 -167.849 189.139 -168.064 189.15C-168.308 189.143 -168.461 188.993 -168.47 188.779L-172 111.338C-172.009 111.129 -171.853 110.951 -171.646 110.931C-171.446 110.908 -171.253 111.059 -171.225 111.266L-161.272 183.128L-164.256 148.788C-164.275 148.577 -164.121 148.39 -163.911 148.367C-163.707 148.328 -163.511 148.493 -163.483 148.702L-157.53 193.036L-157.858 110.722C-157.858 110.508 -157.69 110.335 -157.477 110.331C-157.293 110.351 -157.089 110.493 -157.08 110.705L-156.912 114.871L-151.118 206.896L-148.422 104.997C-148.416 104.785 -148.243 104.618 -148.033 104.618C-147.821 104.618 -147.65 104.786 -147.644 104.999L-147.275 121.067C-147.072 118.126 -146.838 115.189 -146.577 112.258C-146.558 112.055 -146.348 111.905 -146.183 111.902C-145.98 111.905 -145.813 112.066 -145.802 112.27L-141.156 196.592L-140.053 110.098C-140.05 109.888 -139.882 109.718 -139.672 109.713C-139.459 109.715 -139.287 109.874 -139.277 110.081L-135.041 189.436L-134.296 110.432C-134.294 110.22 -134.125 110.048 -133.913 110.045C-133.684 110.044 -133.527 110.208 -133.518 110.418L-129.998 189.807L-129.907 100.857C-129.907 100.645 -129.739 100.474 -129.529 100.468C-129.274 100.466 -129.144 100.627 -129.131 100.836L-124.531 184.966L-126.062 112.512C-126.067 112.3 -125.9 112.124 -125.689 112.114C-125.477 112.103 -125.298 112.269 -125.284 112.479L-121.458 173.647C-121.77 153.295 -121.218 132.907 -119.798 112.693C-119.784 112.489 -119.614 112.331 -119.409 112.331C-119.202 112.333 -119.032 112.493 -119.021 112.699L-114.937 189.481L-114.573 112.641C-114.573 112.429 -114.403 112.258 -114.191 112.253C-114.188 112.253 -114.185 112.253 -114.184 112.253C-113.977 112.253 -113.804 112.415 -113.795 112.624L-111.444 162.846C-111.511 142.174 -110.817 121.474 -109.36 100.957C-109.344 100.751 -109.156 100.625 -108.965 100.596C-108.758 100.599 -108.59 100.764 -108.582 100.97L-105.398 186.774L-104.421 112.895C-104.418 112.694 -104.265 112.531 -104.066 112.512C-103.867 112.495 -103.688 112.63 -103.649 112.825C-99.6017 133.827 -97.2497 155.177 -96.6166 176.568L-93.9363 95.1839C-93.9301 94.9765 -93.7636 94.8128 -93.5583 94.8066C-93.3639 94.819 -93.1788 94.9578 -93.1601 95.162C-91.9716 108.326 -91.085 121.564 -90.4985 134.828C-89.9167 124.12 -89.1203 113.438 -88.1076 102.808C-88.0874 102.604 -87.9147 102.445 -87.7078 102.454C-87.5025 102.46 -87.3376 102.626 -87.3314 102.831L-85.2142 167.736C-84.928 145.314 -83.6804 122.875 -81.4762 100.658C-81.456 100.458 -81.288 100.307 -81.0889 100.307C-80.8866 100.309 -80.7186 100.463 -80.7015 100.664C-79.5022 114.997 -78.7306 129.436 -78.3915 143.888L-77.5515 112.272C-77.5453 112.06 -77.3726 111.893 -77.1626 111.893C-76.9495 111.894 -76.7768 112.066 -76.7737 112.278L-76.1779 173.463L-74.2754 104.719C-74.2692 104.507 -74.0965 104.341 -73.8866 104.341C-73.675 104.341 -73.5039 104.509 -73.4977 104.721L-71.9203 169.937L-70.8158 116.34C-70.8112 116.126 -70.6385 115.958 -70.427 115.958C-70.2154 115.958 -70.0427 116.128 -70.0381 116.34L-68.8387 183.513L-65.9205 100.635C-65.9127 100.424 -65.7416 100.259 -65.5316 100.259C-65.5316 100.259 -65.53 100.259 -65.5285 100.259C-65.3185 100.26 -65.1458 100.429 -65.1427 100.639L-63.6991 166.337C-63.1562 141.642 -61.5275 116.893 -58.8333 92.4414C-58.8099 92.2371 -58.6279 92.0953 -58.4273 92.0937C-58.2219 92.1046 -58.0602 92.273 -58.0571 92.4788L-57.1875 176.677L-54.823 103.974C-54.8168 103.764 -54.6441 103.597 -54.4341 103.597C-54.4341 103.597 -54.4326 103.597 -54.431 103.597C-54.221 103.598 -54.0483 103.767 -54.0452 103.979L-53.0123 153.08C-52.3745 133.791 -50.7054 114.515 -48.0158 95.4676C-47.9878 95.2665 -47.8369 95.0794 -47.6067 95.134C-47.4045 95.1464 -47.2458 95.3133 -47.2427 95.5159L-46.09 179.827L-39.3684 86.0084C-39.3528 85.7995 -39.2035 85.6561 -38.9702 85.6452C-38.7633 85.6498 -38.5953 85.8182 -38.5906 86.0256L-37.3928 138.532C-36.7893 124.213 -35.5899 109.919 -33.7995 95.7389C-33.773 95.5347 -33.6206 95.3523 -33.3888 95.399C-33.1834 95.4115 -33.0248 95.5814 -33.0248 95.7872L-33.0357 156.772L-29.8156 83.2675C-29.8063 83.057 -29.5979 82.8762 -29.4236 82.8949C-29.2136 82.898 -29.0425 83.0664 -29.0394 83.2768L-27.3905 172.136C-26.6298 148.308 -24.4893 124.467 -20.9909 100.959C-20.9598 100.759 -20.7824 100.606 -20.5802 100.628C-20.378 100.641 -20.2209 100.808 -20.2178 101.01L-19.0091 178.226L-15.2057 83.5388C-15.1979 83.3267 -15.0299 83.1911 -14.8121 83.1646C-14.6021 83.1677 -14.431 83.3361 -14.4279 83.5482L-13.1632 161.496L-12.5721 94.1049C-12.5706 93.8898 -12.3963 93.7183 -12.1832 93.7183C-11.9686 93.7183 -11.7959 93.8913 -11.7943 94.1049L-11.5128 132.667C-10.8532 122.196 -9.89186 111.753 -8.63185 101.367C-8.60696 101.166 -8.43585 101.043 -8.23051 101.024C-8.02829 101.034 -7.8665 101.194 -7.85718 101.399L-4.82381 176.236L-3.29779 96.5746C-3.29468 96.3626 -3.12201 96.1942 -2.912 96.1926C-2.912 96.1926 -2.91045 96.1926 -2.90889 96.1926C-2.6989 96.1926 -2.52623 96.361 -2.52 96.5699L-0.368652 168.478L0.662689 103.703C0.665802 103.489 0.83847 103.319 1.05003 103.319C1.2616 103.319 1.43582 103.488 1.44048 103.701L2.85916 173.416C3.54051 150.356 5.46008 127.269 8.59923 104.493C8.62567 104.292 8.78433 104.146 9.00677 104.157C9.209 104.169 9.36768 104.333 9.3739 104.535L10.5701 151.233C11.4195 138.276 13.1882 125.381 15.8669 112.637C15.9073 112.446 16.0986 112.303 16.2775 112.329C16.472 112.345 16.626 112.501 16.6353 112.696L20.0856 177.418L24.2218 80.3738C24.2312 80.1586 24.3805 79.984 24.6278 80.0012C24.8425 80.0105 25.009 80.1929 24.9996 80.4081L20.518 185.553C20.5087 185.761 20.3391 185.925 20.1322 185.926H20.1291C19.9222 185.926 19.7511 185.764 19.7418 185.558L16.0209 115.77C12.9797 131.075 11.253 146.586 10.8501 162.15L11.5735 190.368C11.5781 190.58 11.4148 190.758 11.2048 190.769C10.9653 190.764 10.8128 190.619 10.7972 190.41C10.0708 180.995 9.82968 171.564 10.0724 162.15L8.72211 109.448C4.82074 139.474 3.03183 169.992 3.40672 200.242C3.40828 200.457 3.23872 200.633 3.02405 200.636C3.02405 200.636 3.02094 200.636 3.01784 200.636C2.80627 200.636 2.63361 200.468 2.62894 200.254L1.09981 125.164L0.14003 185.463C0.136917 185.675 -0.0341949 185.845 -0.245758 185.847C-0.247314 185.847 -0.247314 185.847 -0.248871 185.847C-0.458878 185.847 -0.631546 185.68 -0.637756 185.469L-2.82333 112.436L-4.29491 189.28C-4.29958 189.49 -4.46913 189.66 -4.68069 189.662C-4.68069 189.662 -4.68225 189.662 -4.68381 189.662C-4.89224 189.662 -5.06335 189.498 -5.07269 189.288L-8.43274 106.38C-9.90898 119.554 -10.903 132.815 -11.4132 146.097L-11.0492 195.929C-11.0477 196.142 -11.2141 196.316 -11.4257 196.322C-11.6777 196.335 -11.8145 196.163 -11.8254 195.954C-12.1739 189.436 -12.4026 182.901 -12.513 176.363L-12.6561 192.637C-12.6577 192.85 -12.8303 193.022 -13.0434 193.023C-13.2566 193.023 -13.4292 192.853 -13.4323 192.64L-14.977 97.3542L-18.7866 192.183C-18.7944 192.395 -19.0075 192.559 -19.1802 192.557C-19.3902 192.554 -19.5613 192.386 -19.5644 192.174L-20.9147 105.893C-25.3185 137.199 -27.3174 169.049 -26.8569 200.641C-26.8538 200.856 -27.0249 201.034 -27.2396 201.037C-27.2411 201.037 -27.2427 201.037 -27.2458 201.037C-27.4574 201.037 -27.6316 200.867 -27.6347 200.655L-29.5807 95.7685L-33.0357 174.626C-33.045 174.838 -33.2503 174.995 -33.4323 174.998C-33.6439 174.994 -33.8135 174.821 -33.8135 174.609L-33.801 102.315C-35.747 119.492 -36.8266 136.817 -37.0335 154.137L-36.2184 189.899C-36.2137 190.112 -36.3801 190.289 -36.5917 190.298C-36.7908 190.298 -36.9837 190.142 -36.9962 189.932C-37.6837 178.034 -37.9559 166.089 -37.8128 154.143L-39.1786 94.2796L-45.9687 188.988C-45.9842 189.197 -46.1725 189.372 -46.3685 189.35C-46.5769 189.344 -46.7434 189.175 -46.7465 188.966L-47.952 100.745C-51.3416 126.569 -52.8599 152.782 -52.4757 178.834L-52.3357 185.505C-52.331 185.72 -52.5005 185.898 -52.7152 185.903C-52.9019 185.928 -53.1057 185.739 -53.1134 185.524C-53.1741 183.299 -53.2208 181.074 -53.2534 178.848L-54.5212 118.529L-57.0039 194.854C-57.0101 195.066 -57.1828 195.231 -57.3928 195.231C-57.3944 195.231 -57.3959 195.231 -57.3975 195.231C-57.609 195.228 -57.7802 195.058 -57.7817 194.846L-58.7695 99.1893C-62.0331 131.147 -63.4751 163.559 -63.0582 195.638C-63.0551 195.853 -63.2262 196.028 -63.4409 196.032C-63.6447 196.07 -63.8329 195.864 -63.836 195.652L-65.6249 114.26L-68.5805 198.198C-68.5883 198.408 -68.7609 198.574 -68.9694 198.574C-68.9694 198.574 -68.9709 198.574 -68.9725 198.574C-69.1841 198.572 -69.3552 198.402 -69.3583 198.192L-70.4581 136.58L-71.5034 187.32C-71.5081 187.532 -71.6807 187.702 -71.8907 187.702C-72.1023 187.702 -72.275 187.534 -72.2812 187.322L-73.9146 119.743L-75.9772 194.274C-75.9835 194.486 -76.1561 194.653 -76.3661 194.653C-76.3661 194.653 -76.3692 194.653 -76.3708 194.653C-76.5824 194.651 -76.7535 194.479 -76.755 194.267L-77.3446 133.707L-78.2142 166.426C-78.2826 175.566 -78.5253 184.698 -78.9422 193.792C-78.9515 194.001 -79.1226 194.163 -79.3295 194.163C-79.3342 194.163 -79.3388 194.163 -79.3435 194.163C-79.5566 194.155 -79.7231 193.977 -79.7184 193.762L-78.9919 166.412C-78.8364 145.961 -79.5504 125.445 -81.1246 105.117C-83.9635 135.493 -85.0167 166.252 -84.2684 196.789L-83.8593 209.297C-83.8531 209.512 -84.0195 209.692 -84.2342 209.7C-84.4769 209.715 -84.6278 209.539 -84.6371 209.325C-84.8067 205.161 -84.942 200.987 -85.0447 196.813L-87.9054 109.146C-88.9056 120.621 -89.6554 132.151 -90.1532 143.697C-89.4221 165.121 -89.4765 186.592 -90.3196 207.908C-90.3274 208.117 -90.5001 208.282 -90.7085 208.282C-90.917 208.282 -91.0896 208.116 -91.0974 207.908C-91.911 186.586 -91.8534 165.11 -90.931 143.694C-91.4101 129.672 -92.2252 115.666 -93.3748 101.735L-96.6539 201.318C-96.6601 201.533 -96.8017 201.717 -97.0552 201.695C-97.2699 201.687 -97.4379 201.508 -97.4317 201.293V201.282C-96.5108 173.026 -98.6186 144.628 -103.696 116.812L-104.827 202.241C-104.83 202.453 -105 202.623 -105.211 202.626C-105.469 202.617 -105.597 202.462 -105.605 202.252L-109.083 108.514C-110.849 137.071 -111.144 165.937 -109.962 194.536L-109.539 203.572C-109.528 203.787 -109.694 203.97 -109.907 203.981C-110.127 203.97 -110.304 203.825 -110.315 203.611C-110.474 200.602 -110.614 197.587 -110.738 194.57L-113.865 127.755L-114.221 202.924C-114.223 203.136 -114.391 203.307 -114.601 203.312C-114.815 203.271 -114.988 203.153 -114.997 202.944L-119.448 119.291C-121.136 147 -121.198 174.994 -119.637 202.726L-119.088 211.493C-119.074 211.708 -119.238 211.892 -119.451 211.906C-119.675 211.956 -119.849 211.759 -119.865 211.546C-120.065 208.624 -120.249 205.699 -120.414 202.772L-124.884 131.307L-123.26 208.176C-123.256 208.388 -123.422 208.566 -123.635 208.574C-123.876 208.56 -124.026 208.416 -124.038 208.206L-129.142 114.846L-129.235 206.977C-129.235 207.189 -129.405 207.363 -129.616 207.367C-129.82 207.367 -130.004 207.205 -130.013 206.995L-133.652 124.921L-134.377 201.842C-134.378 202.054 -134.546 202.224 -134.758 202.228C-134.993 202.224 -135.143 202.068 -135.154 201.86L-139.424 121.882L-140.523 208.077C-140.526 208.287 -140.694 208.457 -140.904 208.462C-140.907 208.462 -140.908 208.462 -140.911 208.462C-141.117 208.462 -141.288 208.299 -141.3 208.094L-146.267 117.952C-146.589 122.166 -146.852 126.39 -147.056 130.616L-145.586 194.755C-145.581 194.966 -145.743 195.141 -145.952 195.155C-146.165 195.145 -146.344 195.01 -146.362 194.801C-148.372 173.519 -148.862 151.998 -147.834 130.605L-148.059 120.772L-150.568 215.621C-150.573 215.83 -150.743 215.995 -150.951 216C-150.957 215.995 -150.959 215.995 -150.962 215.995ZM-90.5981 156.209C-90.9558 169.3 -90.9916 182.396 -90.6992 195.451C-90.3725 182.398 -90.3383 169.3 -90.5981 156.209ZM-147.516 144.628C-147.722 156.69 -147.446 168.766 -146.687 180.792L-147.516 144.628ZM-12.2174 142.494L-12.2672 148.175C-12.2423 147.478 -12.2174 146.784 -12.191 146.088L-12.2174 142.494Z" fill="black"/>
</g>
<mask id="mask3_370_2588" style="mask-type:luminance" maskUnits="userSpaceOnUse" x="-71" y="-264" width="202" height="360">
<path d="M131 -264H-71V96H131V-264Z" fill="white"/>
</mask>
<g mask="url(#mask3_370_2588)">
<path d="M-49.9619 36C-50.1672 36 -50.3368 35.8394 -50.3508 35.6351L-54.5166 -30.5327L-52.3606 22.8083C-52.3528 23.0234 -52.5193 23.2043 -52.7339 23.2136C-52.9315 23.2199 -53.129 23.053 -53.1384 22.8394L-53.1415 22.7303L-55.996 -47.5276L-55.73 19.0363C-55.7284 19.2421 -55.8887 19.4121 -56.0924 19.4261C-56.2978 19.462 -56.4767 19.2935 -56.5047 19.0893L-61.0454 -14.7306L-58.1785 18.2691C-58.1598 18.4796 -58.3138 18.6667 -58.5223 18.6901C-58.7183 18.7088 -58.922 18.5669 -58.95 18.3564L-69.8376 -60.2703L-66.6937 8.74637C-66.6844 8.96312 -66.8493 9.14399 -67.064 9.1549C-67.3113 9.17049 -67.4606 8.9974 -67.47 8.78378L-70.9996 -68.6672C-71.0089 -68.8746 -70.8534 -69.0539 -70.648 -69.0726C-70.4396 -69.0851 -70.2545 -68.9448 -70.2265 -68.7374L-60.2738 3.13127L-63.2559 -31.211C-63.2746 -31.4215 -63.1221 -31.6086 -62.9106 -31.632C-62.6974 -31.6523 -62.5108 -31.5073 -62.4828 -31.2967L-56.5296 13.0439L-56.8578 -69.28C-56.8578 -69.4921 -56.6898 -69.6667 -56.4767 -69.6714C-56.3055 -69.6589 -56.0878 -69.5092 -56.08 -69.2971L-55.9104 -65.1011L-50.1174 26.9061L-47.4232 -75.0042C-47.4169 -75.2147 -47.2443 -75.3831 -47.0343 -75.3831H-47.0327C-46.8211 -75.3831 -46.65 -75.2147 -46.6454 -75.0027L-46.2767 -58.9309C-46.0729 -61.8733 -45.8396 -64.8094 -45.5782 -67.7441C-45.5596 -67.9468 -45.3791 -68.0762 -45.1847 -68.098C-44.9809 -68.0949 -44.8144 -67.9343 -44.8036 -67.73L-40.157 16.6037L-39.0541 -69.9037C-39.051 -70.1142 -38.883 -70.2842 -38.673 -70.2889C-38.4988 -70.2889 -38.2872 -70.1298 -38.2779 -69.9193L-34.042 9.44494L-33.2969 -69.5685C-33.2938 -69.779 -33.1258 -69.9505 -32.9142 -69.9552C-32.7073 -69.9832 -32.5284 -69.793 -32.5191 -69.5825L-29.0004 9.8145L-28.9101 -79.1442C-28.9101 -79.3547 -28.7421 -79.5278 -28.5321 -79.5325C-28.2801 -79.5371 -28.1464 -79.3734 -28.1339 -79.1645L-23.534 4.98219L-25.0663 -67.4915C-25.071 -67.7035 -24.9045 -67.8797 -24.693 -67.8891C-24.4938 -67.8953 -24.3025 -67.7347 -24.2885 -67.5242L-20.4633 -6.34932C-20.776 -26.6999 -20.2222 -47.091 -18.8035 -67.309C-18.7895 -67.5133 -18.5717 -67.6848 -18.4131 -67.6708C-18.2077 -67.6692 -18.0382 -67.5071 -18.0273 -67.3012L-13.9423 9.49015L-13.5783 -67.3589C-13.5783 -67.571 -13.4087 -67.7425 -13.1972 -67.7472C-13.1941 -67.7472 -13.191 -67.7472 -13.1894 -67.7472C-12.9825 -67.7472 -12.8098 -67.5835 -12.8005 -67.3761L-10.45 -17.1538C-10.5185 -37.8256 -9.82313 -58.527 -8.36555 -79.046C-8.34999 -79.2533 -8.15865 -79.3781 -7.97042 -79.4077C-7.76353 -79.403 -7.59553 -79.2393 -7.58775 -79.0319L-4.40347 6.7832L-3.42656 -67.1047C-3.42345 -67.3043 -3.271 -67.4696 -3.07189 -67.4883C-2.86811 -67.4946 -2.69233 -67.3698 -2.65655 -67.1734C1.39108 -46.1741 3.74313 -24.8178 4.37625 -3.42252L7.05652 -84.8201C7.06274 -85.0259 7.22919 -85.1912 7.43453 -85.1975C7.6492 -85.1959 7.81409 -85.0493 7.83276 -84.8419C9.01967 -71.6782 9.90791 -58.4365 10.4944 -45.173C11.0762 -55.8793 11.8726 -66.5637 12.8853 -77.1951C12.9055 -77.3993 13.0891 -77.5537 13.2851 -77.5475C13.4904 -77.5412 13.6553 -77.3759 13.6615 -77.1701L15.7787 -12.2591C16.0649 -34.6836 17.3125 -57.1252 19.5168 -79.3454C19.537 -79.5449 19.705 -79.6962 19.9041 -79.6962C19.9041 -79.6962 19.9057 -79.6962 19.9072 -79.6962C20.1079 -79.6946 20.2743 -79.5403 20.2914 -79.3391C21.4908 -65.0059 22.2624 -50.5683 22.6015 -36.1166L23.4415 -67.73C23.4477 -67.9405 23.6204 -68.1089 23.8304 -68.1089C24.0435 -68.1074 24.2162 -67.9359 24.2193 -67.7238L24.8151 -6.53176L26.7176 -75.2834C26.7238 -75.4939 26.8964 -75.6623 27.1065 -75.6623C27.318 -75.6623 27.4891 -75.4938 27.4953 -75.2818L29.0727 -10.0558L30.1787 -63.6618C30.1834 -63.8739 30.3561 -64.0438 30.5676 -64.0438C30.7792 -64.0438 30.9519 -63.8739 30.9565 -63.6602L32.1559 3.52267L35.0742 -79.3672C35.0819 -79.5777 35.253 -79.743 35.4631 -79.743C35.6746 -79.7414 35.8473 -79.573 35.8519 -79.3609L37.2955 -13.6516C37.8384 -38.3511 39.4671 -63.1051 42.1614 -87.5598C42.1847 -87.7641 42.3621 -87.9465 42.5674 -87.906C42.7727 -87.8966 42.9345 -87.7266 42.9376 -87.5208L43.8072 -3.31178L46.1717 -76.0256C46.1779 -76.2361 46.3506 -76.4029 46.5606 -76.4029H46.5637C46.7737 -76.4014 46.9464 -76.233 46.9495 -76.0209L47.9824 -26.9042C48.6202 -46.1975 50.2893 -65.4815 52.9789 -84.5332C53.0069 -84.7343 53.1874 -84.8809 53.3881 -84.8669C53.5903 -84.8544 53.7489 -84.686 53.7521 -84.4833L54.9047 -0.161995L61.6311 -93.9997C61.6466 -94.2071 61.7758 -94.3584 62.0293 -94.3615C62.2362 -94.3568 62.4042 -94.1884 62.4089 -93.981L63.6067 -41.4697C64.2103 -55.7919 65.4096 -70.0877 67.2001 -84.2681C67.2265 -84.4724 67.3836 -84.6252 67.6108 -84.608C67.8161 -84.5956 67.9748 -84.424 67.9748 -84.2197L67.9639 -23.2273L71.1839 -96.7395C71.1933 -96.95 71.3457 -97.1574 71.5759 -97.1121C71.7859 -97.109 71.9571 -96.9406 71.9602 -96.7301L73.6091 -7.8525C74.3698 -31.6897 76.5103 -55.5347 80.0103 -79.046C80.0399 -79.2456 80.211 -79.3797 80.421 -79.3765C80.6232 -79.3625 80.7803 -79.1972 80.7834 -78.993L81.9906 -1.76808L85.7955 -96.4666C85.8033 -96.6771 86.0211 -96.8393 86.1891 -96.8408C86.3991 -96.8393 86.5702 -96.6677 86.5733 -96.4572L87.838 -18.4995L88.4291 -85.8991C88.4307 -86.1128 88.6049 -86.2859 88.818 -86.2859C89.0327 -86.2859 89.2054 -86.1128 89.2069 -85.8991L89.4885 -47.3311C90.1481 -57.8035 91.1079 -68.2493 92.3679 -78.6343C92.3928 -78.8354 92.5826 -78.9633 92.7692 -78.9773C92.9715 -78.9695 93.1332 -78.8058 93.1426 -78.6031L96.1759 -3.75462L97.702 -83.4276C97.7051 -83.6397 97.9073 -83.8455 98.0909 -83.8096C98.3009 -83.8096 98.4736 -83.6428 98.4798 -83.4307L100.631 -11.5137L101.663 -76.2969C101.666 -76.509 101.838 -76.6805 102.051 -76.6805C102.263 -76.6805 102.436 -76.5105 102.44 -76.2985L103.859 -6.58478C104.54 -29.6439 106.46 -52.7295 109.598 -75.5048C109.626 -75.7059 109.778 -75.8821 110.005 -75.84C110.207 -75.8291 110.366 -75.6638 110.372 -75.4611L111.57 -28.7551C112.419 -41.7129 114.188 -54.6116 116.867 -67.3605C116.907 -67.5507 117.094 -67.6957 117.277 -67.6677C117.472 -67.6536 117.626 -67.4961 117.635 -67.2997L121.086 -2.5711L125.222 -99.6273C125.231 -99.8425 125.376 -100.002 125.628 -100C125.843 -99.9906 126.009 -99.8082 126 -99.593L121.518 5.56536C121.509 5.77275 121.339 5.9365 121.132 5.93806H121.129C120.922 5.93806 120.751 5.77747 120.74 5.57008L117.019 -64.2278C113.977 -48.9185 112.25 -33.4034 111.848 -17.8368L112.572 10.3805C112.578 10.5926 112.413 10.7703 112.203 10.7813C111.982 10.7766 111.813 10.6316 111.796 10.4227C111.069 1.00753 110.828 -8.42319 111.071 -17.8352L109.719 -70.5493C105.817 -40.5201 104.029 -9.99653 104.405 20.2557C104.407 20.4708 104.237 20.647 104.022 20.6502C103.833 20.6377 103.632 20.4833 103.627 20.2681L102.098 -54.8314L101.138 5.47495C101.135 5.68702 100.964 5.85699 100.752 5.85854C100.751 5.85854 100.751 5.85854 100.749 5.85854C100.539 5.85854 100.367 5.69169 100.36 5.48119L98.1749 -67.5647L96.7017 9.29214C96.6986 9.50265 96.5275 9.67261 96.316 9.67416H96.3128C96.1044 9.67416 95.9333 9.51045 95.924 9.29994L92.5639 -73.6164C91.0876 -60.4403 90.0936 -47.1752 89.5849 -33.8914L89.949 15.9426C89.9505 16.1546 89.7841 16.3293 89.5725 16.3355C89.3283 16.3215 89.1836 16.1765 89.1727 15.9676C88.8258 9.4512 88.5956 2.92547 88.4851 -3.61272L88.342 12.6477C88.3405 12.8614 88.1678 13.0329 87.9547 13.0345C87.7416 13.0345 87.5689 12.8645 87.5642 12.6509L86.0195 -82.6464L82.2084 12.194C82.2006 12.4061 82.0372 12.5448 81.8148 12.5682C81.6048 12.5651 81.4337 12.3967 81.4306 12.1846L80.0803 -74.1061C75.678 -42.7998 73.6775 -10.9477 74.1364 20.6533C74.1395 20.8684 73.9684 21.0462 73.7538 21.0493C73.7522 21.0493 73.7507 21.0493 73.7475 21.0493C73.536 21.0493 73.3618 20.8794 73.3586 20.6673L71.4126 -84.2322L67.9577 -5.36537C67.9483 -5.15331 67.7383 -4.98804 67.561 -4.99272C67.3494 -4.99741 67.1799 -5.17049 67.1799 -5.38255L67.1923 -77.6847C65.2463 -60.5042 64.1667 -43.1787 63.9598 -25.8563L64.7749 9.90962C64.7796 10.1232 64.6131 10.2994 64.4016 10.3088C64.1978 10.3228 64.0096 10.1544 63.9971 9.94236C63.3096 -1.95518 63.0373 -13.9042 63.1805 -25.8516L61.8147 -85.7229L55.0245 8.99586C55.009 9.20638 54.8487 9.35452 54.6247 9.35919C54.4163 9.35295 54.2498 9.18454 54.2467 8.97559L53.0412 -79.2565C49.65 -53.4202 48.1317 -27.1989 48.5175 -1.13656L48.6575 5.5155C48.6622 5.73067 48.4926 5.9084 48.278 5.91308C48.1037 5.91463 47.8859 5.74938 47.8797 5.53419C47.8191 3.31686 47.7724 1.10107 47.7397 -1.11938L46.4719 -61.471L43.9892 14.8651C43.983 15.0772 43.8103 15.2424 43.6003 15.2424C43.5988 15.2424 43.5972 15.2424 43.5956 15.2424C43.3841 15.2393 43.213 15.0694 43.2114 14.8573L42.2236 -80.8111C38.9616 -48.8499 37.5195 -16.4365 37.9349 15.6479C37.938 15.8631 37.7669 16.0377 37.5522 16.0424C37.5506 16.0424 37.5475 16.0424 37.546 16.0424C37.3344 16.0424 37.1618 15.874 37.1571 15.6619L35.3682 -65.7388L32.4126 18.2083C32.4048 18.4188 32.2321 18.5841 32.0237 18.5841C31.8121 18.5825 31.6394 18.4125 31.6348 18.202L30.535 -43.4173L29.4896 7.32896C29.4849 7.54103 29.3123 7.71098 29.1007 7.71098C28.8892 7.71098 28.7165 7.5426 28.7118 7.33054L27.0785 -60.2547L25.0157 14.2835C25.0095 14.4955 24.8369 14.6624 24.6269 14.6624C24.6269 14.6624 24.6253 14.6624 24.6237 14.6624C24.4122 14.6609 24.2411 14.4893 24.238 14.2772L23.6484 -46.2848L22.7788 -13.5799C22.7104 -4.43449 22.4677 4.70152 22.0508 13.8017C22.0415 14.0153 21.9077 14.1962 21.6479 14.1728C21.4348 14.165 21.2683 13.9872 21.273 13.772L21.9995 -13.5939C22.1535 -34.0442 21.441 -54.5601 19.8652 -74.8841C17.0263 -44.5072 15.9731 -13.7436 16.7229 16.7955L17.132 29.309C17.1383 29.5242 16.9718 29.7035 16.7571 29.7113C16.5036 29.7238 16.3636 29.5507 16.3543 29.3371C16.1847 25.169 16.0478 20.9948 15.9467 16.8189L13.086 -70.8533C12.0857 -59.3784 11.3359 -47.8473 10.8382 -36.299C11.5693 -14.8694 11.5148 6.5992 10.6717 27.9212C10.6639 28.1302 10.4913 28.2954 10.2828 28.2954C10.0744 28.2954 9.90169 28.1286 9.89391 27.9212C9.08034 6.59608 9.13789 -14.885 10.0604 -36.3021C9.58124 -50.3266 8.76611 -64.3307 7.61653 -78.2632L4.33736 21.33C4.33114 21.5421 4.15691 21.7074 3.94846 21.7074C3.94535 21.7074 3.94068 21.7074 3.93602 21.7074C3.72134 21.6996 3.55334 21.5202 3.55956 21.305V21.2941C4.48047 -6.96837 2.37265 -35.3697 -2.70477 -63.1847L-3.83412 22.2547C-3.83723 22.4667 -4.0068 22.6367 -4.21836 22.6398C-4.21991 22.6398 -4.22147 22.6398 -4.22302 22.6398C-4.43147 22.6398 -4.60414 22.4745 -4.61192 22.2656L-8.09021 -71.4833C-9.85579 -42.9276 -10.1514 -14.0663 -8.97067 14.5283L-8.54599 23.5863C-8.5351 23.8015 -8.70155 23.9839 -8.91466 23.9949C-9.12622 23.9949 -9.31134 23.8389 -9.32223 23.6253C-9.4809 20.6065 -9.6209 17.5877 -9.7469 14.5626L-12.8721 -52.243L-13.2283 22.9361C-13.2283 23.1482 -13.3979 23.3197 -13.6079 23.3244C-13.8256 23.3088 -13.9952 23.1653 -14.0045 22.9564L-18.4551 -60.7069C-20.1429 -32.9917 -20.2051 -4.99274 -18.6448 22.7365L-18.0973 31.5045C-18.0833 31.7197 -18.2466 31.9037 -18.4597 31.9177C-18.69 31.9645 -18.858 31.7711 -18.8735 31.556C-19.0742 28.6322 -19.2577 25.7086 -19.4211 22.7802L-23.8918 -48.6924L-22.2694 28.1863C-22.2647 28.3984 -22.4311 28.5761 -22.6443 28.5839C-22.8558 28.5605 -23.0363 28.4264 -23.0471 28.2159L-28.151 -65.1556L-28.2444 26.9872C-28.2444 27.1993 -28.4139 27.3723 -28.6255 27.377C-28.8355 27.3848 -29.0128 27.2148 -29.0222 27.0043L-32.6576 -55.0903L-33.3825 21.8399C-33.3856 22.052 -33.552 22.2219 -33.7636 22.2266C-34.0016 22.2484 -34.1494 22.0676 -34.1602 21.8586L-38.4288 -58.1309L-39.5286 28.074C-39.5317 28.2845 -39.6997 28.4545 -39.9097 28.4592C-40.1384 28.4451 -40.2955 28.3001 -40.3064 28.0912L-45.2733 -62.0619C-45.5953 -57.8456 -45.8582 -53.6214 -46.062 -49.3925L-44.592 14.7497C-44.5873 14.9602 -44.7491 15.1348 -44.9576 15.1489C-45.1629 15.1567 -45.348 15.0039 -45.3682 14.7949C-47.3765 -6.48654 -47.8681 -28.0066 -46.8398 -49.4019L-47.0654 -59.238L-49.573 35.6196C-49.5776 35.8285 -49.7472 35.9938 -49.9557 35.9984C-49.9572 36 -49.9603 36 -49.9619 36ZM10.401 -23.798C10.0432 -10.706 10.009 2.39372 10.2999 15.4514C10.6282 2.3984 10.6608 -10.7014 10.401 -23.798ZM-46.5178 -35.3697C-46.7231 -23.31 -46.4478 -11.2331 -45.6902 0.790787L-46.5178 -35.3697ZM88.7823 -37.4888L88.7325 -31.8378C88.7574 -32.5286 88.7823 -33.2225 88.8087 -33.9133L88.7823 -37.4888Z" fill="black"/>
</g>
</g>
<path d="M25.2374 88C25.0744 88 24.9114 87.9497 24.7704 87.8444C19.9179 84.2276 6.52646 73.6068 6.39167 73.5015C6.20829 73.3553 6.09857 73.1368 6.09387 72.9011C6.0923 72.8461 5.97632 67.384 5.73025 61.4975C5.72084 61.2853 5.79764 61.081 5.94027 60.927C6.05939 60.7996 17.4916 48.5504 23.5995 42.6419L23.0839 42.1107C16.4289 35.2465 10.6799 29.3176 1.52193 26.0514C1.21002 25.9414 1 25.6443 1 25.311V13.7849C1 13.5271 1.12696 13.2866 1.33698 13.1389C1.54857 12.9927 1.81659 12.9612 2.05796 13.0477L56.6125 33.5065C56.8978 33.6134 57.0953 33.8775 57.1188 34.1824L58.4134 50.7573C58.5278 50.7887 58.6375 50.8453 58.7331 50.927C59.0403 51.1974 59.0889 51.6611 58.8444 51.9896C58.7269 52.1468 58.6062 52.2694 58.4824 52.3558C45.2994 65.2542 34.6227 76.8181 25.8471 87.706C25.6935 87.8994 25.4662 88 25.2374 88ZM7.65495 72.4971C9.55613 74.0029 20.3018 82.508 25.1058 86.1311C33.7246 75.4977 44.1443 64.2183 56.9166 51.6956L55.5984 34.8049L2.57048 14.9198V24.7625C11.7677 28.1843 17.5433 34.1415 24.2108 41.0167L25.2766 42.1154C25.4224 42.2663 25.5039 42.4691 25.4992 42.6781C25.496 42.8887 25.4067 43.0883 25.2562 43.2314C19.8019 48.4325 9.006 59.9524 7.31326 61.76C7.51232 66.6594 7.62517 71.1957 7.65495 72.4971Z" fill="black"/>
<path d="M24.0624 75C34.7077 61.1858 45.3546 47.37 56 33.5558C44.8098 20.5523 31.4992 8.24649 16.0184 1C12.335 6.58256 6.22772 10.4823 1 14.6257C11.6703 20.3622 21.6493 27.4107 30.6429 35.5654C21.8719 43.4828 13.5633 51.9219 5.77625 60.826C3.60141 61.1842 24.0624 75 24.0624 75Z" fill="#F6F7F8"/>
<path d="M24.0262 76C23.8756 76 23.725 75.9573 23.5916 75.8672C4.25669 62.8392 4.54852 61.485 4.67248 60.9051C4.73053 60.6365 4.89841 60.4184 5.13533 60.2888C12.7435 51.6203 20.9305 43.301 29.4832 35.5521C20.6324 27.6388 10.8575 20.7906 0.415751 15.1891C0.181969 15.0642 0.0250703 14.8272 0.0031042 14.5617C-0.0204309 14.2963 0.0909674 14.0356 0.299646 13.8697C1.38383 13.0117 2.50724 12.1647 3.6385 11.3099C7.94072 8.06116 12.3904 4.70183 15.268 0.351762C15.4814 0.0278377 15.8956 -0.0907114 16.2502 0.0736211C29.9414 6.46837 43.2089 17.2432 56.8075 33.0128C57.0539 33.2988 57.0648 33.7176 56.8342 34.0162L24.646 75.695C24.4922 75.8957 24.2616 76 24.0262 76ZM6.40466 61.229C7.90777 62.9513 16.0588 68.8689 23.8568 74.1433L55.1993 33.558C42.0965 18.4568 29.3248 8.05485 16.1906 1.78968C13.1718 6.0876 8.80682 9.38372 4.5799 12.5756C3.78599 13.176 2.9952 13.7717 2.21854 14.3721C12.6289 20.0653 22.3678 26.9878 31.184 34.9627C31.3503 35.1128 31.4445 35.3261 31.4445 35.5521C31.4445 35.7764 31.3503 35.9898 31.1825 36.1399C22.4745 43.9836 14.1399 52.4246 6.40466 61.229Z" fill="black"/>
</svg>
