<svg width="24" height="24" viewBox="0 0 24 24" fill="none" xmlns="http://www.w3.org/2000/svg">
<g id="icon_mail">
<path id="shape" fill-rule="evenodd" clip-rule="evenodd" d="M3.75781 4.96875H20.2422C20.5047 4.96875 20.7515 5.03047 20.9754 5.13406L14.5468 11.5842C14.5463 11.5846 14.5454 11.5852 14.5454 11.5852C14.545 11.5856 14.5445 11.5865 14.5445 11.5865L12.4545 13.6834C12.2325 13.9055 11.7676 13.9055 11.5455 13.6834L9.4552 11.5862C9.45513 11.5858 9.45495 11.5854 9.45469 11.5852C9.45439 11.5849 9.45406 11.5847 9.45374 11.5845C9.45359 11.5845 9.45345 11.5844 9.45332 11.5842L3.02453 5.1341C3.2484 5.03055 3.49531 4.96875 3.75781 4.96875ZM2 6.72656C2 6.44797 2.07109 6.18789 2.18695 5.95359L8.21359 12.0002L2.18691 18.0464C2.07102 17.8121 2 17.552 2 17.2734V6.72656ZM15.7864 12.0002L21.813 5.95352C21.9289 6.18781 22 6.44789 22 6.72656V17.2734C22 17.5521 21.9289 17.8122 21.813 18.0465L15.7864 12.0002ZM13.2843 14.5108L14.9593 12.8301L20.9755 18.8659C20.7516 18.9695 20.5048 19.0312 20.2423 19.0312H3.75794C3.49544 19.0312 3.24852 18.9694 3.02458 18.8659L9.04083 12.8301L10.7159 14.5108C11.4099 15.2071 12.605 15.1924 13.2843 14.5108Z" fill="white"/>
</g>
</svg>
