<svg width="25" height="24" viewBox="0 0 25 24" fill="none" xmlns="http://www.w3.org/2000/svg">
<path fill-rule="evenodd" clip-rule="evenodd" d="M13.9998 3.51465C13.9998 2.68622 13.3282 2.01465 12.4998 2.01465C11.6714 2.01465 10.9998 2.68622 10.9998 3.51465V10.4999H4.01453C3.1861 10.4999 2.51453 11.1715 2.51453 11.9999C2.51453 12.8284 3.1861 13.4999 4.01453 13.4999H10.9998V20.4852C10.9998 21.3136 11.6714 21.9852 12.4998 21.9852C13.3282 21.9852 13.9998 21.3136 13.9998 20.4852V13.4999H20.9851C21.8135 13.4999 22.4851 12.8284 22.4851 11.9999C22.4851 11.1715 21.8135 10.4999 20.9851 10.4999H13.9998V3.51465Z" fill="white"/>
</svg>
