<svg width="24" height="24" viewBox="0 0 24 24" fill="none" xmlns="http://www.w3.org/2000/svg">
<g id="icon_exit">
<path id="shape" fill-rule="evenodd" clip-rule="evenodd" d="M15.3334 14.5C15.3334 14.04 15.7059 13.6667 16.1667 13.6667C16.6275 13.6667 17 14.04 17 14.5V19.5C17 19.96 16.6275 20.3333 16.1667 20.3333H12V21.1666C11.9999 21.2899 11.9725 21.4116 11.9198 21.5229C11.867 21.6343 11.7903 21.7326 11.695 21.8108C11.5461 21.9331 11.3594 22 11.1667 22C11.1125 22 11.0575 21.995 11.0033 21.9833L2.67 20.3166C2.28082 20.2391 2 19.8975 2 19.5V2.83332C2 2.82469 2.00292 2.81651 2.00584 2.80831C2.00856 2.80068 2.01128 2.79303 2.01168 2.785C2.01202 2.77497 2.01093 2.76508 2.00983 2.75516C2.00829 2.74118 2.00673 2.72713 2.00918 2.7125C2.01796 2.65106 2.04148 2.59603 2.06514 2.54067C2.06844 2.53296 2.07174 2.52524 2.075 2.5175C2.07881 2.50779 2.08146 2.49793 2.08411 2.4881C2.08781 2.47433 2.0915 2.46063 2.09832 2.4475C2.15332 2.34332 2.22914 2.25582 2.31996 2.18418C2.3233 2.18168 2.32559 2.17814 2.32789 2.1746C2.33019 2.17104 2.3325 2.16748 2.33586 2.16496C2.34524 2.15782 2.35607 2.15427 2.36691 2.15071C2.37629 2.14764 2.38568 2.14456 2.39418 2.13914C2.46855 2.0923 2.54981 2.05743 2.635 2.03582C2.6725 2.02664 2.70832 2.02 2.7475 2.01582C2.75985 2.01441 2.77175 2.01136 2.78365 2.00831C2.79984 2.00415 2.81603 2 2.83332 2H16.1667C16.6275 2 17 2.37332 17 2.83336V7.83335C17 8.29335 16.6275 8.66667 16.1667 8.66667C15.7059 8.66667 15.3334 8.29335 15.3334 7.83335V3.66668H8.51166L11.4058 4.535C11.7583 4.64082 12 4.96581 12 5.33331V18.6666H15.3334V14.5ZM21.7658 10.8803C21.8402 10.9617 21.8986 11.0588 21.9394 11.1656C22.0202 11.3796 22.0202 11.6199 21.9394 11.834C21.8986 11.9416 21.8402 12.0388 21.7658 12.1193L19.3663 14.7436C19.2103 14.9151 19.0055 15 18.8006 15C18.5958 15 18.3909 14.9151 18.2349 14.7436C17.9221 14.4023 17.9221 13.8484 18.2349 13.5063L19.2695 12.3748H14.8001C14.3576 12.3748 14 11.9828 14 11.4998C14 11.0167 14.3576 10.6247 14.8001 10.6247H19.2695L18.235 9.49328C17.9221 9.152 17.9221 8.59809 18.235 8.25596C18.5478 7.91468 19.0535 7.91468 19.3663 8.25596L21.7658 10.8803Z" fill="#5CA1EA"/>
</g>
</svg>
