<svg width="24" height="24" viewBox="0 0 24 24" fill="none" xmlns="http://www.w3.org/2000/svg">
<g id="icon_custmer">
<path id="shape" fill-rule="evenodd" clip-rule="evenodd" d="M12.0112 9.80466C13.8903 9.80466 15.4135 8.28138 15.4135 6.40233C15.4135 4.52327 13.8903 3 12.0112 3C10.1322 3 8.60889 4.52327 8.60889 6.40233C8.60889 8.28138 10.1322 9.80466 12.0112 9.80466ZM18.8946 9.80472C20.0825 9.80472 21.0454 8.84174 21.0454 7.65383C21.0454 6.46592 20.0825 5.50293 18.8946 5.50293C17.7066 5.50293 16.7437 6.46592 16.7437 7.65383C16.7437 8.84174 17.7066 9.80472 18.8946 9.80472ZM7.27933 7.65383C7.27933 8.84174 6.31634 9.80472 5.12844 9.80472C3.94053 9.80472 2.97754 8.84174 2.97754 7.65383C2.97754 6.46592 3.94053 5.50293 5.12844 5.50293C6.31634 5.50293 7.27933 6.46592 7.27933 7.65383ZM7.2478 11.7367C6.49153 11.1171 5.79901 11.1242 4.96207 11.1328C4.86203 11.1338 4.75991 11.1349 4.65538 11.1349C3.19121 11.1349 2 12.319 2 13.7742V18.0451C2 18.6771 2.51582 19.191 3.15014 19.191C3.79322 19.191 4.26709 19.1937 4.61577 19.1957C5.41014 19.2003 5.55468 19.2011 5.56975 19.1574C5.5731 19.1476 5.57005 19.1357 5.56632 19.1211C5.56284 19.1075 5.55876 19.0915 5.55876 19.0729C5.55876 18.6675 5.55233 18.2767 5.54611 17.8987C5.5059 15.4543 5.47452 13.5472 7.2478 11.7367ZM8.46453 12.2104C9.74651 11.1523 11.2328 11.008 12.9427 11.1506C14.8792 11.1506 17.291 13.0823 17.291 15.8678C17.291 18.9099 17.3241 19.2254 17.2281 19.4949C17.2135 19.5361 17.1958 19.5762 17.1745 19.6248C16.7805 20.4973 16.4908 20.495 12.0887 20.4609C11.0215 20.4527 9.71245 20.4425 8.10162 20.4425C7.34137 20.4425 6.73208 19.8218 6.73208 19.073C6.73208 18.6689 6.72367 18.2754 6.71549 17.8926C6.66634 15.594 6.62549 13.6835 8.46453 12.2104ZM19.0614 11.133C19.1612 11.134 19.2632 11.135 19.3676 11.135C20.8318 11.135 22.023 12.3192 22.023 13.7743V18.0046C22.023 18.6588 21.4888 19.1911 20.8318 19.1911C18.7674 19.1911 18.4837 19.222 18.4583 19.155C18.4512 19.1362 18.4643 19.1098 18.4643 19.073C18.4643 18.6529 18.4702 18.2523 18.4759 17.8685C18.5134 15.3355 18.5401 13.5388 16.7752 11.7369C17.531 11.1176 18.2205 11.1245 19.0614 11.133Z" fill="#5CA1EA"/>
</g>
</svg>
