<svg width="45" height="44" viewBox="0 0 45 44" fill="none" xmlns="http://www.w3.org/2000/svg">
<g id="icon_burger">
<path id="shape" fill-rule="evenodd" clip-rule="evenodd" d="M2.50014 16C1.94785 16 1.50014 16.4477 1.50014 17C1.50014 17.5523 1.94785 18 2.50014 18H42.5C43.0523 18 43.5 17.5523 43.5 17C43.5 16.4477 43.0523 16 42.5 16H2.50014ZM2.50012 26C1.94784 26 1.50012 26.4477 1.50012 27C1.50012 27.5523 1.94784 28 2.50012 28H2.59498H2.68965H2.78412H2.8784H2.97248H3.06637H3.16006H3.25356H3.34688H3.44H3.53293H3.62567H3.71823H3.8106H3.90278H3.99477H4.08658H4.17821H4.26965H4.36091H4.45199H4.54289H4.63361H4.72414H4.8145H4.90468H4.99469H5.08451H5.17416H5.26364H5.35294H5.44207H5.53103H5.61981H5.70842H5.79687H5.88514H5.97324H6.06118H6.14895H6.23655H6.32399H6.41126H6.49837H6.58531H6.6721H6.75872H6.84517H6.93147H7.01761H7.10359H7.18941H7.27508H7.36059H7.44594H7.53114H7.61618H7.70107H7.78581H7.8704H7.95483H8.03912H8.12325H8.20724H8.29108H8.37477H8.45831H8.54171H8.62497H8.70808H8.79105H8.87387H8.95655H9.03909H9.12149H9.20376H9.28588H9.36786H9.44971H9.53142H9.613H9.69444H9.77575H9.85692H9.93796H10.0189H10.0996H10.1803H10.2608H10.3412H10.4215H10.5016H10.5816H10.6615H10.7413H10.8209H10.9004H10.9798H11.059H11.1382H11.2172H11.2961H11.3749H11.4536H11.5321H11.6106H11.6889H11.7671H11.8452H11.9232H12.001H12.0788H12.1564H12.2339H12.3114H12.3887H12.4659H12.543H12.62H12.6969H12.7737H12.8503H12.9269H13.0034H13.0797H13.156H13.2322H13.3083H13.3842H13.4601H13.5359H13.6116H13.6871H13.7626H13.838H13.9133H13.9885H14.0637H14.1387H14.2136H14.2885H14.3632H14.4379H14.5125H14.587H14.6614H14.7357H14.81H14.8841H14.9582H15.0322H15.1061H15.1799H15.2537H15.3274H15.401H15.4745H15.5479H15.6213H15.6946H15.7678H15.841H15.9141H15.9871H16.06H16.1329H16.2057H16.2784H16.351H16.4236H16.4961H16.5686H16.641H16.7133H16.7856H16.8578H16.9299H17.002H17.074H17.146H17.2179H17.2898H17.3615H17.4333H17.505H17.5766H17.6481H17.7197H17.7911H17.8625H17.9339H18.0052H18.0765H18.1477H18.2188H18.29H18.361H18.4321H18.503H18.574H18.6449H18.7157H18.7865H18.8573H18.928H18.9987H19.0694H19.14H19.2106H19.2811H19.3516H19.4221H19.4925H19.5629H19.6333H19.7036H19.7739H19.8442H19.9145H19.9847H20.0549H20.125H20.1952H20.2653H20.3354H20.4054H20.4755H20.5455H20.6155H20.6855H20.7554H20.8254H20.8953H20.9652H21.0351H21.105H21.1748H21.2446H21.3145H21.3843H21.4541H21.5239H21.5936H21.6634H21.7332H21.8029H21.8727H21.9424H22.0121H22.0819H22.1516H22.2213H22.291H22.3607H22.4304H22.5001H22.5698H22.6395H22.7092H22.779H22.8487H22.9184H22.9881H23.0578H23.1276H23.1973H23.2671H23.3368H23.4066H23.4764H23.5462H23.616H23.6858H23.7556H23.8254H23.8953H23.9652H24.035H24.1049H24.1749H24.2448H24.3148H24.3847H24.4547H24.5248H24.5948H24.6649H24.735H24.8051H24.8752H24.9454H25.0156H25.0858H25.156H25.2263H25.2966H25.367H25.4373H25.5077H25.5782H25.6486H25.7191H25.7897H25.8603H25.9309H26.0015H26.0722H26.1429H26.2137H26.2845H26.3554H26.4263H26.4972H26.5682H26.6392H26.7103H26.7814H26.8526H26.9238H26.995H27.0663H27.1377H27.2091H27.2806H27.3521H27.4237H27.4953H27.567H27.6387H27.7105H27.7823H27.8542H27.9262H27.9982H28.0703H28.1424H28.2146H28.2869H28.3592H28.4316H28.5041H28.5766H28.6492H28.7219H28.7946H28.8674H28.9402H29.0132H29.0862H29.1593H29.2324H29.3056H29.3789H29.4523H29.5257H29.5993H29.6729H29.7465H29.8203H29.8941H29.968H30.042H30.1161H30.1903H30.2645H30.3389H30.4133H30.4878H30.5623H30.637H30.7118H30.7866H30.8616H30.9366H31.0117H31.0869H31.1622H31.2376H31.3131H31.3887H31.4644H31.5401H31.616H31.692H31.7681H31.8442H31.9205H31.9969H32.0733H32.1499H32.2266H32.3034H32.3803H32.4573H32.5344H32.6116H32.6889H32.7663H32.8438H32.9215H32.9992H33.0771H33.1551H33.2332H33.3114H33.3897H33.4681H33.5467H33.6253H33.7041H33.783H33.8621H33.9412H34.0205H34.0998H34.1794H34.259H34.3388H34.4186H34.4986H34.5788H34.659H34.7394H34.8199H34.9006H34.9814H35.0623H35.1433H35.2245H35.3058H35.3872H35.4688H35.5505H35.6324H35.7144H35.7965H35.8787H35.9612H36.0437H36.1264H36.2092H36.2922H36.3753H36.4585H36.5419H36.6255H36.7092H36.793H36.877H36.9611H37.0454H37.1298H37.2144H37.2992H37.3841H37.4691H37.5543H37.6397H37.7252H37.8108H37.8967H37.9826H38.0688H38.1551H38.2415H38.3281H38.4149H38.5019H38.589H38.6763H38.7637H38.8513H38.9391H39.027H39.1151H39.2034H39.2918H39.3804H39.4692H39.5582H39.6473H39.7366H39.8261H39.9157H40.0056H40.0956H40.1857H40.2761H40.3666H40.4574H40.5483H40.6393H40.7306H40.822H40.9137H41.0055H41.0975H41.1896H41.282H41.3746H41.4673H41.5602H41.6534H41.7467H41.8402H41.9339H42.0278H42.1218H42.2161H42.3106H42.4053H42.5001C43.0524 28 43.5001 27.5523 43.5001 27C43.5001 26.4477 43.0524 26 42.5001 26H42.4053H42.3106H42.2161H42.1218H42.0278H41.9339H41.8402H41.7467H41.6534H41.5602H41.4673H41.3746H41.282H41.1896H41.0975H41.0055H40.9137H40.822H40.7306H40.6393H40.5483H40.4574H40.3666H40.2761H40.1857H40.0956H40.0056H39.9157H39.8261H39.7366H39.6473H39.5582H39.4692H39.3804H39.2918H39.2034H39.1151H39.027H38.9391H38.8513H38.7637H38.6763H38.589H38.5019H38.4149H38.3281H38.2415H38.1551H38.0688H37.9826H37.8967H37.8108H37.7252H37.6397H37.5543H37.4691H37.3841H37.2992H37.2144H37.1298H37.0454H36.9611H36.877H36.793H36.7092H36.6255H36.5419H36.4585H36.3753H36.2922H36.2092H36.1264H36.0437H35.9612H35.8787H35.7965H35.7144H35.6324H35.5505H35.4688H35.3872H35.3058H35.2245H35.1433H35.0623H34.9814H34.9006H34.8199H34.7394H34.659H34.5788H34.4986H34.4186H34.3388H34.259H34.1794H34.0998H34.0205H33.9412H33.8621H33.783H33.7041H33.6253H33.5467H33.4681H33.3897H33.3114H33.2332H33.1551H33.0771H32.9992H32.9215H32.8438H32.7663H32.6889H32.6116H32.5344H32.4573H32.3803H32.3034H32.2266H32.1499H32.0733H31.9969H31.9205H31.8442H31.7681H31.692H31.616H31.5401H31.4644H31.3887H31.3131H31.2376H31.1622H31.0869H31.0117H30.9366H30.8616H30.7866H30.7118H30.637H30.5623H30.4878H30.4133H30.3389H30.2645H30.1903H30.1161H30.042H29.968H29.8941H29.8203H29.7465H29.6729H29.5993H29.5257H29.4523H29.3789H29.3056H29.2324H29.1593H29.0862H29.0132H28.9402H28.8674H28.7946H28.7219H28.6492H28.5766H28.5041H28.4316H28.3592H28.2869H28.2146H28.1424H28.0703H27.9982H27.9262H27.8542H27.7823H27.7105H27.6387H27.567H27.4953H27.4237H27.3521H27.2806H27.2091H27.1377H27.0663H26.995H26.9238H26.8526H26.7814H26.7103H26.6392H26.5682H26.4972H26.4263H26.3554H26.2845H26.2137H26.1429H26.0722H26.0015H25.9309H25.8603H25.7897H25.7191H25.6486H25.5782H25.5077H25.4373H25.367H25.2966H25.2263H25.156H25.0858H25.0156H24.9454H24.8752H24.8051H24.735H24.6649H24.5948H24.5248H24.4547H24.3847H24.3148H24.2448H24.1749H24.1049H24.035H23.9652H23.8953H23.8254H23.7556H23.6858H23.616H23.5462H23.4764H23.4066H23.3368H23.2671H23.1973H23.1276H23.0578H22.9881H22.9184H22.8487H22.779H22.7092H22.6395H22.5698H22.5001H22.4304H22.3607H22.291H22.2213H22.1516H22.0819H22.0121H21.9424H21.8727H21.8029H21.7332H21.6634H21.5936H21.5239H21.4541H21.3843H21.3145H21.2446H21.1748H21.105H21.0351H20.9652H20.8953H20.8254H20.7554H20.6855H20.6155H20.5455H20.4755H20.4054H20.3354H20.2653H20.1952H20.125H20.0549H19.9847H19.9145H19.8442H19.7739H19.7036H19.6333H19.5629H19.4925H19.4221H19.3516H19.2811H19.2106H19.14H19.0694H18.9987H18.928H18.8573H18.7865H18.7157H18.6449H18.574H18.503H18.4321H18.361H18.29H18.2188H18.1477H18.0765H18.0052H17.9339H17.8625H17.7911H17.7197H17.6481H17.5766H17.505H17.4333H17.3615H17.2898H17.2179H17.146H17.074H17.002H16.9299H16.8578H16.7856H16.7133H16.641H16.5686H16.4961H16.4236H16.351H16.2784H16.2057H16.1329H16.06H15.9871H15.9141H15.841H15.7678H15.6946H15.6213H15.5479H15.4745H15.401H15.3274H15.2537H15.1799H15.1061H15.0322H14.9582H14.8841H14.81H14.7357H14.6614H14.587H14.5125H14.4379H14.3632H14.2885H14.2136H14.1387H14.0637H13.9885H13.9133H13.838H13.7626H13.6871H13.6116H13.5359H13.4601H13.3842H13.3083H13.2322H13.156H13.0797H13.0034H12.9269H12.8503H12.7737H12.6969H12.62H12.543H12.4659H12.3887H12.3114H12.2339H12.1564H12.0788H12.001H11.9232H11.8452H11.7671H11.6889H11.6106H11.5321H11.4536H11.3749H11.2961H11.2172H11.1382H11.059H10.9798H10.9004H10.8209H10.7413H10.6615H10.5816H10.5016H10.4215H10.3412H10.2608H10.1803H10.0996H10.0189H9.93796H9.85692H9.77575H9.69444H9.613H9.53142H9.44971H9.36786H9.28588H9.20376H9.12149H9.03909H8.95655H8.87387H8.79105H8.70808H8.62497H8.54171H8.45831H8.37477H8.29108H8.20724H8.12325H8.03912H7.95483H7.8704H7.78581H7.70107H7.61618H7.53114H7.44594H7.36059H7.27508H7.18941H7.10359H7.01761H6.93147H6.84517H6.75872H6.6721H6.58531H6.49837H6.41126H6.32399H6.23655H6.14895H6.06118H5.97324H5.88514H5.79687H5.70842H5.61981H5.53103H5.44207H5.35294H5.26364H5.17416H5.08451H4.99469H4.90468H4.8145H4.72414H4.63361H4.54289H4.45199H4.36091H4.26965H4.17821H4.08658H3.99477H3.90278H3.8106H3.71823H3.62567H3.53293H3.44H3.34688H3.25356H3.16006H3.06637H2.97248H2.8784H2.78412H2.68965H2.59498H2.50012Z" fill="white"/>
</g>
</svg>
