<svg width="24" height="24" viewBox="0 0 24 24" fill="none" xmlns="http://www.w3.org/2000/svg">
<g id="icon_cards" clip-path="url(#clip0_261_460)">
<path id="shape" fill-rule="evenodd" clip-rule="evenodd" d="M13.1165 0.205945C13.3911 -0.0686484 13.8363 -0.0686484 14.1109 0.205945L20.5662 6.66134C20.698 6.7932 20.7721 6.97203 20.7721 7.15849C20.7721 7.34496 20.698 7.52379 20.5662 7.65565L10.8831 17.3387C10.7459 17.476 10.5659 17.5446 10.386 17.5446C10.206 17.5446 10.0261 17.476 9.8888 17.3387L3.43345 10.8833C3.30161 10.7515 3.22754 10.5726 3.22754 10.3862C3.22754 10.1997 3.30161 10.0209 3.43345 9.88901L13.1165 0.205945ZM8.89439 18.3333C9.29278 18.7318 9.82251 18.9512 10.386 18.9512C10.9495 18.9512 11.4792 18.7318 11.8776 18.3334L18.8301 11.3809L20.5662 13.117C20.698 13.2488 20.7721 13.4277 20.7721 13.6141C20.7721 13.8006 20.698 13.9794 20.5662 14.1113L10.8831 23.7943C10.7459 23.9316 10.5659 24.0003 10.386 24.0003C10.2936 24.0004 10.2021 23.9822 10.1168 23.9469C10.0315 23.9115 9.95401 23.8597 9.8888 23.7943L3.43345 17.339C3.30161 17.2071 3.22754 17.0283 3.22754 16.8418C3.22754 16.6553 3.30161 16.4765 3.43345 16.3446L5.16961 14.6085L8.89439 18.3333Z" fill="#5CA1EA"/>
</g>
<defs>
<clipPath id="clip0_261_460">
<rect width="24" height="24" fill="white"/>
</clipPath>
</defs>
</svg>
