<svg width="24" height="24" viewBox="0 0 24 24" fill="none" xmlns="http://www.w3.org/2000/svg">
<g id="icon_coin" clip-path="url(#clip0_1126_2017)">
<path id="shape" d="M7.99959 7.99919C12.5781 7.99919 15.9992 6.18923 15.9992 4.57084C15.9992 2.95261 12.578 1.14258 7.99959 1.14258C3.42118 1.14258 7.6199e-05 2.95261 7.6199e-05 4.57084C7.6199e-05 6.18923 3.4211 7.99919 7.99959 7.99919ZM7.99959 21.713C8.66786 21.713 9.31106 21.6742 9.92286 21.6034C9.40318 20.9358 8.97857 20.1994 8.66115 19.4152C8.44162 19.4226 8.22133 19.4277 7.99952 19.4277C5.38338 19.4277 2.90585 18.9094 1.0235 17.9681C0.652873 17.7828 0.311806 17.5837 7.6199e-05 17.373V18.2847C7.6199e-05 19.903 3.4211 21.713 7.99959 21.713ZM7.99959 17.1418C8.02306 17.1418 8.04615 17.1414 8.06954 17.1413C8.02206 16.7621 7.99824 16.3803 7.99822 15.9981C7.99822 15.6112 8.02261 15.2299 8.06954 14.8556C8.04615 14.8556 8.02299 14.8564 7.99959 14.8564C5.38346 14.8564 2.906 14.338 1.02358 13.3968C0.652873 13.2115 0.31173 13.0124 0 12.8017V13.7134C7.6199e-05 15.3317 3.4211 17.1418 7.99959 17.1418ZM7.99959 12.5704C8.22636 12.5704 8.45008 12.5658 8.67098 12.5571C9.02346 11.693 9.50597 10.8879 10.1018 10.1697C9.40368 10.2466 8.7019 10.2851 7.99959 10.2852C5.38346 10.2852 2.906 9.76678 1.02358 8.82557C0.652873 8.64017 0.31173 8.44114 0 8.23038V9.14217C7.6199e-05 10.7605 3.4211 12.5704 7.99959 12.5704ZM11.4285 12.2097C10.9252 12.9655 10.5778 13.8143 10.4069 14.7061C10.3253 15.1319 10.2842 15.5645 10.2843 15.9981C10.2843 16.3301 10.3085 16.6565 10.3543 16.976C10.4646 17.7458 10.7061 18.491 11.0683 19.1792C11.4402 19.886 11.932 20.5229 12.5219 21.0614C13.7416 22.1755 15.3639 22.856 17.1422 22.856C20.9236 22.856 24.0001 19.7795 24.0001 15.9981C24.0001 12.2166 20.9236 9.14019 17.1422 9.14019C16.7513 9.14019 16.3681 9.17357 15.9949 9.23666C14.0939 9.55814 12.4565 10.6645 11.4285 12.2097Z" fill="#5CA1EA"/>
</g>
<defs>
<clipPath id="clip0_1126_2017">
<rect width="24" height="24" fill="white"/>
</clipPath>
</defs>
</svg>
