<svg width="24" height="24" viewBox="0 0 24 24" fill="none" xmlns="http://www.w3.org/2000/svg">
<path fill-rule="evenodd" clip-rule="evenodd" d="M17 7C17 8.10457 16.1046 9 15 9C13.8954 9 13 8.10457 13 7C13 5.89543 13.8954 5 15 5C16.1046 5 17 5.89543 17 7ZM15 11C16.8638 11 18.4299 9.72523 18.874 8H20C20.5523 8 21 7.55228 21 7C21 6.44772 20.5523 6 20 6H18.874C18.4299 4.27477 16.8638 3 15 3C13.1362 3 11.5701 4.27477 11.126 6H4C3.44771 6 3 6.44772 3 7C3 7.55228 3.44771 8 4 8H11.126C11.5701 9.72523 13.1362 11 15 11ZM11 17C11 18.1046 10.1046 19 9 19C7.89543 19 7 18.1046 7 17C7 15.8954 7.89543 15 9 15C10.1046 15 11 15.8954 11 17ZM12.874 18C12.4299 19.7252 10.8638 21 9 21C7.13616 21 5.57006 19.7252 5.12602 18H4C3.44771 18 3 17.5523 3 17C3 16.4477 3.44771 16 4 16H5.12602C5.57006 14.2748 7.13616 13 9 13C10.8638 13 12.4299 14.2748 12.874 16H20C20.5523 16 21 16.4477 21 17C21 17.5523 20.5523 18 20 18H12.874Z" fill="#5CA1EA"/>
</svg>
