<svg width="20" height="20" viewBox="0 0 20 20" fill="none" xmlns="http://www.w3.org/2000/svg">
<path fill-rule="evenodd" clip-rule="evenodd" d="M11.4999 1.51562C11.4999 0.687198 10.8284 0.015625 9.99993 0.015625C9.1715 0.015625 8.49993 0.687198 8.49993 1.51563V8.50091H1.51465C0.686221 8.50091 0.0146484 9.17248 0.0146484 10.0009C0.0146484 10.8293 0.686221 11.5009 1.51465 11.5009H8.49993V18.4862C8.49993 19.3146 9.1715 19.9862 9.99993 19.9862C10.8284 19.9862 11.4999 19.3146 11.4999 18.4862V11.5009H18.4852C19.3136 11.5009 19.9852 10.8293 19.9852 10.0009C19.9852 9.17248 19.3136 8.50091 18.4852 8.50091H11.4999V1.51562Z" fill="white"/>
</svg>
