<svg width="14" height="18" viewBox="0 0 14 18" fill="none" xmlns="http://www.w3.org/2000/svg">
<path d="M12.6538 2.25H9.69231V1.6875C9.69231 0.755508 8.96909 0 8.07692 0H5.92308C5.03091 0 4.30769 0.755508 4.30769 1.6875V2.25H1.34615C0.602707 2.25 0 2.87961 0 3.65625V4.78125C0 5.09193 0.241063 5.34375 0.538462 5.34375H13.4615C13.7589 5.34375 14 5.09193 14 4.78125V3.65625C14 2.87961 13.3973 2.25 12.6538 2.25ZM5.38462 1.6875C5.38462 1.37742 5.62625 1.125 5.92308 1.125H8.07692C8.37375 1.125 8.61539 1.37742 8.61539 1.6875V2.25H5.38462V1.6875ZM1.02187 6.46875C0.999094 6.46875 0.976561 6.47358 0.955629 6.48295C0.934697 6.49231 0.915802 6.50602 0.900089 6.52323C0.884376 6.54045 0.872172 6.56082 0.864215 6.58311C0.856258 6.60539 0.852714 6.62914 0.853798 6.6529L1.29803 16.3927C1.33909 17.2941 2.04784 18 2.91139 18H11.0886C11.9522 18 12.6609 17.2941 12.702 16.3927L13.1462 6.6529C13.1473 6.62914 13.1437 6.60539 13.1358 6.58311C13.1278 6.56082 13.1156 6.54045 13.0999 6.52323C13.0842 6.50602 13.0653 6.49231 13.0444 6.48295C13.0234 6.47358 13.0009 6.46875 12.9781 6.46875H1.02187ZM9.15385 7.875C9.15385 7.56422 9.39481 7.3125 9.69231 7.3125C9.98981 7.3125 10.2308 7.56422 10.2308 7.875V15.1875C10.2308 15.4983 9.98981 15.75 9.69231 15.75C9.39481 15.75 9.15385 15.4983 9.15385 15.1875V7.875ZM6.46154 7.875C6.46154 7.56422 6.7025 7.3125 7 7.3125C7.2975 7.3125 7.53846 7.56422 7.53846 7.875V15.1875C7.53846 15.4983 7.2975 15.75 7 15.75C6.7025 15.75 6.46154 15.4983 6.46154 15.1875V7.875ZM3.76923 7.875C3.76923 7.56422 4.01019 7.3125 4.30769 7.3125C4.60519 7.3125 4.84615 7.56422 4.84615 7.875V15.1875C4.84615 15.4983 4.60519 15.75 4.30769 15.75C4.01019 15.75 3.76923 15.4983 3.76923 15.1875V7.875Z" fill="#CC4848"/>
</svg>
