<svg width="17" height="18" viewBox="0 0 17 18" fill="none" xmlns="http://www.w3.org/2000/svg">
<path d="M8.38688 10.1387C2.97854 10.1387 0 12.6972 0 17.3431C0 17.7059 0.294082 18 0.65693 18H16.1168C16.4796 18 16.7737 17.7059 16.7737 17.3431C16.7737 12.6975 13.7952 10.1387 8.38688 10.1387ZM1.88672 16.5C2.14512 13.0264 3.96424 12 8.38672 12C12.8092 12 14.6281 13.0264 14.8867 16.5H1.88672ZM8.38688 0C5.90256 0 4.02922 1.91102 4.02922 4.44505C4.02922 7.05329 5.98405 9.17497 8.38688 9.17497C10.7897 9.17497 12.7445 7.05329 12.7445 4.44526C12.7445 1.91102 10.8712 0 8.38688 0ZM8.38688 7.5C6.70841 7.5 5.88672 6.38364 5.88672 4.5C5.88672 2.68555 6.62323 1.86009 8.38688 1.86009C10.1223 1.86009 10.8867 2.71466 10.8867 4.5C10.8867 6.38364 10.0653 7.5 8.38688 7.5Z" fill="white"/>
</svg>
