<svg width="18" height="18" viewBox="0 0 18 18" fill="none" xmlns="http://www.w3.org/2000/svg">
<path fill-rule="evenodd" clip-rule="evenodd" d="M14 4C14 5.10457 13.1046 6 12 6C10.8954 6 10 5.10457 10 4C10 2.89543 10.8954 2 12 2C13.1046 2 14 2.89543 14 4ZM12 8C13.8638 8 15.4299 6.72523 15.874 5H17C17.5523 5 18 4.55228 18 4C18 3.44772 17.5523 3 17 3H15.874C15.4299 1.27477 13.8638 0 12 0C10.1362 0 8.57006 1.27477 8.12602 3H1C0.447715 3 0 3.44772 0 4C0 4.55228 0.447715 5 1 5H8.12602C8.57006 6.72523 10.1362 8 12 8ZM8 14C8 15.1046 7.10457 16 6 16C4.89543 16 4 15.1046 4 14C4 12.8954 4.89543 12 6 12C7.10457 12 8 12.8954 8 14ZM9.87398 15C9.42994 16.7252 7.86384 18 6 18C4.13616 18 2.57006 16.7252 2.12602 15H1C0.447715 15 0 14.5523 0 14C0 13.4477 0.447715 13 1 13H2.12602C2.57006 11.2748 4.13616 10 6 10C7.86384 10 9.42994 11.2748 9.87398 13H17C17.5523 13 18 13.4477 18 14C18 14.5523 17.5523 15 17 15H9.87398Z" fill="#5CA1EA"/>
</svg>
