<svg width="58" height="58" viewBox="0 0 58 58" fill="none" xmlns="http://www.w3.org/2000/svg">
<path d="M48.2589 46.7424C47.7526 44.5023 45.1111 35.7902 34.9659 32.679C36.0424 32.025 36.9969 31.2002 37.7894 30.2395H41.7355C44.023 30.2395 45.8838 28.4422 45.8838 26.233V20.7712C45.8838 19.8454 45.5561 18.9926 45.0081 18.3135C39.7182 3.575 18.3257 3.54931 13.016 18.3136C12.4682 18.9928 12.1405 19.8455 12.1405 20.7712V26.233C12.1405 28.4423 14.0014 30.2395 16.2887 30.2395H20.2349C21.0273 31.2003 21.9819 32.025 23.0584 32.679C12.9171 35.7884 10.2571 44.4981 9.74569 46.7345C9.30085 48.625 10.7752 50.75 13.1121 50.75C19.9895 50.75 38.2585 50.75 44.9122 50.7295C47.1909 50.7294 48.6918 48.6936 48.2589 46.7424ZM43.2423 20.7712V26.233C43.2423 27.0354 42.5664 27.6882 41.7356 27.6882H39.3604C40.5154 25.0737 40.5154 21.9305 39.3604 19.316H41.7356C42.5664 19.3159 43.2423 19.9687 43.2423 20.7712ZM18.664 27.6882H16.2887C15.4579 27.6882 14.7821 27.0354 14.7821 26.233V20.7712C14.7821 19.9687 15.458 19.316 16.2887 19.316H18.664C17.509 21.9305 17.509 25.0736 18.664 27.6882ZM16.6415 16.7645C21.9426 7.44535 36.0847 7.45173 41.3831 16.7645H37.7894C33.473 11.3403 24.5493 11.3423 20.2349 16.7645H16.6415ZM20.4369 23.502C20.4369 18.9351 24.2837 15.2196 29.0121 15.2196C34.8424 15.1099 39.1503 21.0891 37.075 26.3228H31.8396C30.0899 26.3852 30.0897 28.8117 31.8396 28.8741H35.5334C30.4588 34.6751 20.4371 31.1875 20.4369 23.502ZM45.5163 47.901C45.368 48.0771 45.1477 48.1781 44.9081 48.1781C38.2543 48.1986 19.9884 48.1986 13.1121 48.1986C12.6248 48.2103 12.2185 47.7371 12.3273 47.2748C16.4026 30.3106 41.3998 29.9353 45.6761 47.2777C45.6989 47.3866 45.6964 47.4989 45.6687 47.6067C45.6411 47.7145 45.5891 47.8151 45.5163 47.901Z" fill="#747171"/>
</svg>
