<svg width="20" height="20" viewBox="0 0 20 20" fill="none" xmlns="http://www.w3.org/2000/svg">
<path d="M10 0C4.48586 0 0 4.48586 0 10C0 15.5141 4.48586 20 10 20C15.5141 20 20 15.5142 20 10C20 4.48582 15.5142 0 10 0ZM10 18C5.58887 18 2 14.4111 2 10C2 5.58887 5.58887 2 10 2C14.4111 2 18 5.58887 18 10C18 14.4111 14.4111 18 10 18ZM11 6C11 6.55223 10.5523 7 10 7C9.4477 7 9 6.55227 9 6C9 5.4477 9.4477 5 10 5C10.5523 5 11 5.4477 11 6ZM11 9V14C11 14.5523 10.5523 15 10 15C9.44777 15 9 14.5523 9 14V9C9 8.44777 9.44777 8 10 8C10.5523 8 11 8.44773 11 9Z" fill="white"/>
</svg>
